G04 EAGLE Gerber RS-274X export*
G75*
%MOMM*%
%FSLAX34Y34*%
%LPD*%
%INBottom Soldermask*%
%IPPOS*%
%AMOC8*
5,1,8,0,0,1.08239X$1,22.5*%
G01*
%ADD10C,3.203200*%
%ADD11R,1.727200X1.727200*%
%ADD12P,1.869504X8X22.500000*%
%ADD13P,1.869504X8X202.500000*%
%ADD14C,1.524000*%
%ADD15P,1.649562X8X292.500000*%


D10*
X25400Y425450D03*
X635000Y425450D03*
D11*
X114300Y393700D03*
D12*
X139700Y393700D03*
X165100Y393700D03*
X190500Y393700D03*
X215900Y393700D03*
X241300Y393700D03*
X114300Y419100D03*
X139700Y419100D03*
X165100Y419100D03*
X190500Y419100D03*
X215900Y419100D03*
X241300Y419100D03*
X266700Y393700D03*
X266700Y419100D03*
X292100Y393700D03*
X317500Y393700D03*
X342900Y393700D03*
X368300Y393700D03*
X393700Y393700D03*
X419100Y393700D03*
X292100Y419100D03*
X317500Y419100D03*
X342900Y419100D03*
X368300Y419100D03*
X393700Y419100D03*
X419100Y419100D03*
X444500Y393700D03*
X444500Y419100D03*
X469900Y393700D03*
X495300Y393700D03*
X520700Y393700D03*
X469900Y419100D03*
X495300Y419100D03*
X520700Y419100D03*
D11*
X635000Y57150D03*
D13*
X635000Y31750D03*
X609600Y57150D03*
X609600Y31750D03*
X584200Y57150D03*
X584200Y31750D03*
X558800Y57150D03*
X558800Y31750D03*
X533400Y57150D03*
X533400Y31750D03*
X508000Y57150D03*
X508000Y31750D03*
X482600Y57150D03*
X482600Y31750D03*
X457200Y57150D03*
X457200Y31750D03*
X431800Y57150D03*
X431800Y31750D03*
X406400Y57150D03*
X406400Y31750D03*
X381000Y57150D03*
X381000Y31750D03*
X355600Y57150D03*
X355600Y31750D03*
X330200Y57150D03*
X330200Y31750D03*
X304800Y57150D03*
X304800Y31750D03*
X279400Y57150D03*
X279400Y31750D03*
X254000Y57150D03*
X254000Y31750D03*
X228600Y57150D03*
X228600Y31750D03*
X203200Y57150D03*
X203200Y31750D03*
X177800Y57150D03*
X177800Y31750D03*
X152400Y57150D03*
X152400Y31750D03*
X127000Y31750D03*
X127000Y57150D03*
X101600Y57150D03*
X76200Y57150D03*
X50800Y57150D03*
X50800Y31750D03*
X76200Y31750D03*
X101600Y31750D03*
X25400Y31750D03*
X25400Y57150D03*
D14*
X50800Y177546D02*
X50800Y190754D01*
X76200Y190754D02*
X76200Y177546D01*
X203200Y177546D02*
X203200Y190754D01*
X203200Y253746D02*
X203200Y266954D01*
X101600Y190754D02*
X101600Y177546D01*
X127000Y177546D02*
X127000Y190754D01*
X177800Y190754D02*
X177800Y177546D01*
X152400Y177546D02*
X152400Y190754D01*
X177800Y253746D02*
X177800Y266954D01*
X152400Y266954D02*
X152400Y253746D01*
X127000Y253746D02*
X127000Y266954D01*
X101600Y266954D02*
X101600Y253746D01*
X76200Y253746D02*
X76200Y266954D01*
X50800Y266954D02*
X50800Y253746D01*
X349250Y152654D02*
X349250Y139446D01*
X374650Y139446D02*
X374650Y152654D01*
X501650Y152654D02*
X501650Y139446D01*
X527050Y139446D02*
X527050Y152654D01*
X400050Y152654D02*
X400050Y139446D01*
X425450Y139446D02*
X425450Y152654D01*
X476250Y152654D02*
X476250Y139446D01*
X450850Y139446D02*
X450850Y152654D01*
X552450Y152654D02*
X552450Y139446D01*
X577850Y139446D02*
X577850Y152654D01*
X603250Y152654D02*
X603250Y139446D01*
X628650Y139446D02*
X628650Y152654D01*
X628650Y291846D02*
X628650Y305054D01*
X603250Y305054D02*
X603250Y291846D01*
X577850Y291846D02*
X577850Y305054D01*
X552450Y305054D02*
X552450Y291846D01*
X527050Y291846D02*
X527050Y305054D01*
X501650Y305054D02*
X501650Y291846D01*
X476250Y291846D02*
X476250Y305054D01*
X450850Y305054D02*
X450850Y291846D01*
X425450Y291846D02*
X425450Y305054D01*
X400050Y305054D02*
X400050Y291846D01*
X374650Y291846D02*
X374650Y305054D01*
X349250Y305054D02*
X349250Y291846D01*
D15*
X234950Y254000D03*
X234950Y203200D03*
X311150Y260350D03*
X311150Y209550D03*
M02*
