M48
;GenerationSoftware,Autodesk,EAGLE,9.5.1*%
;CreationDate,2021-04-28T17:50:11Z*%
FMAT,2
ICI,OFF
METRIC,TZ,000.000
T4C0.508
T3C0.813
T2C1.016
T1C3.000
%
G90
M71
T1
X63500Y42545
X2540Y42545
T2
X19050Y41910
X5080Y3175
X7620Y3175
X10160Y3175
X2540Y3175
X11430Y39370
X13970Y39370
X16510Y39370
X19050Y39370
X21590Y39370
X24130Y39370
X11430Y41910
X13970Y41910
X16510Y41910
X41910Y41910
X21590Y41910
X24130Y41910
X26670Y39370
X26670Y41910
X29210Y39370
X31750Y39370
X34290Y39370
X36830Y39370
X39370Y39370
X41910Y39370
X29210Y41910
X31750Y41910
X34290Y41910
X36830Y41910
X39370Y41910
X2540Y5715
X44450Y39370
X44450Y41910
X46990Y39370
X49530Y39370
X52070Y39370
X46990Y41910
X49530Y41910
X52070Y41910
X63500Y5715
X63500Y3175
X60960Y5715
X60960Y3175
X58420Y5715
X58420Y3175
X55880Y5715
X55880Y3175
X53340Y5715
X53340Y3175
X50800Y5715
X50800Y3175
X48260Y5715
X48260Y3175
X45720Y5715
X45720Y3175
X43180Y5715
X43180Y3175
X40640Y5715
X40640Y3175
X38100Y5715
X38100Y3175
X35560Y5715
X35560Y3175
X33020Y5715
X33020Y3175
X30480Y5715
X30480Y3175
X27940Y5715
X27940Y3175
X25400Y5715
X25400Y3175
X22860Y5715
X22860Y3175
X20320Y5715
X20320Y3175
X17780Y5715
X17780Y3175
X15240Y5715
X15240Y3175
X12700Y3175
X12700Y5715
X10160Y5715
X7620Y5715
X5080Y5715
T3
X5080Y18415
X34925Y29845
X23495Y25400
X23495Y20320
X31115Y26035
X12700Y18415
X7620Y18415
X20320Y18415
X20320Y26035
X10160Y18415
X31115Y20955
X17780Y18415
X15240Y18415
X17780Y26035
X15240Y26035
X12700Y26035
X10160Y26035
X7620Y26035
X5080Y26035
X34925Y14605
X37465Y14605
X50165Y14605
X52705Y14605
X40005Y14605
X42545Y14605
X47625Y14605
X45085Y14605
X55245Y14605
X57785Y14605
X60325Y14605
X62865Y14605
X62865Y29845
X60325Y29845
X57785Y29845
X55245Y29845
X52705Y29845
X50165Y29845
X47625Y29845
X45085Y29845
X42545Y29845
X40005Y29845
X37465Y29845
T4
X24130Y17145
X41275Y26670
X38735Y24765
X27940Y10795
X47625Y11430
M30