G04 EAGLE Gerber RS-274X export*
G75*
%MOMM*%
%FSLAX34Y34*%
%LPD*%
%INTop Copper*%
%IPPOS*%
%AMOC8*
5,1,8,0,0,1.08239X$1,22.5*%
G01*
%ADD10C,0.304800*%
%ADD11C,0.000000*%
%ADD12R,1.524000X1.524000*%
%ADD13P,1.649562X8X22.500000*%
%ADD14P,1.649562X8X202.500000*%
%ADD15C,1.320800*%
%ADD16P,1.429621X8X292.500000*%
%ADD17C,0.508000*%
%ADD18C,1.016000*%

G36*
X653631Y4068D02*
X653631Y4068D01*
X653665Y4066D01*
X653854Y4088D01*
X654045Y4105D01*
X654078Y4114D01*
X654112Y4118D01*
X654295Y4173D01*
X654479Y4223D01*
X654510Y4238D01*
X654543Y4248D01*
X654714Y4335D01*
X654886Y4417D01*
X654914Y4437D01*
X654945Y4452D01*
X655097Y4568D01*
X655252Y4679D01*
X655276Y4704D01*
X655303Y4724D01*
X655432Y4864D01*
X655566Y5001D01*
X655585Y5030D01*
X655609Y5056D01*
X655711Y5217D01*
X655818Y5374D01*
X655832Y5406D01*
X655850Y5435D01*
X655923Y5612D01*
X656000Y5786D01*
X656008Y5820D01*
X656021Y5852D01*
X656061Y6039D01*
X656107Y6224D01*
X656109Y6258D01*
X656116Y6292D01*
X656135Y6604D01*
X656135Y417873D01*
X656120Y418050D01*
X656110Y418228D01*
X656100Y418274D01*
X656095Y418322D01*
X656049Y418493D01*
X656008Y418666D01*
X655989Y418710D01*
X655977Y418756D01*
X655901Y418916D01*
X655830Y419080D01*
X655804Y419120D01*
X655783Y419163D01*
X655680Y419307D01*
X655582Y419455D01*
X655549Y419490D01*
X655521Y419529D01*
X655394Y419653D01*
X655272Y419781D01*
X655233Y419810D01*
X655199Y419843D01*
X655051Y419942D01*
X654908Y420047D01*
X654865Y420068D01*
X654826Y420095D01*
X654663Y420167D01*
X654504Y420245D01*
X654458Y420258D01*
X654414Y420277D01*
X654241Y420319D01*
X654070Y420368D01*
X654023Y420373D01*
X653976Y420384D01*
X653799Y420395D01*
X653622Y420412D01*
X653575Y420409D01*
X653527Y420412D01*
X653350Y420391D01*
X653173Y420377D01*
X653127Y420365D01*
X653080Y420360D01*
X652909Y420308D01*
X652738Y420263D01*
X652695Y420243D01*
X652649Y420229D01*
X652490Y420149D01*
X652329Y420074D01*
X652290Y420047D01*
X652247Y420025D01*
X652106Y419918D01*
X651960Y419816D01*
X651927Y419782D01*
X651889Y419753D01*
X651768Y419622D01*
X651643Y419496D01*
X651616Y419457D01*
X651584Y419422D01*
X651488Y419272D01*
X651387Y419126D01*
X651361Y419073D01*
X651342Y419042D01*
X651318Y418984D01*
X651250Y418845D01*
X649870Y415514D01*
X644936Y410580D01*
X638489Y407909D01*
X631511Y407909D01*
X625064Y410580D01*
X620130Y415514D01*
X617459Y421961D01*
X617459Y428939D01*
X620130Y435386D01*
X625064Y440320D01*
X631511Y442991D01*
X638489Y442991D01*
X644936Y440320D01*
X649870Y435386D01*
X651250Y432055D01*
X651333Y431897D01*
X651409Y431737D01*
X651436Y431698D01*
X651459Y431656D01*
X651568Y431515D01*
X651671Y431371D01*
X651705Y431338D01*
X651734Y431300D01*
X651866Y431181D01*
X651993Y431057D01*
X652033Y431030D01*
X652069Y430998D01*
X652219Y430905D01*
X652366Y430805D01*
X652410Y430786D01*
X652451Y430760D01*
X652616Y430695D01*
X652778Y430623D01*
X652825Y430611D01*
X652869Y430594D01*
X653043Y430558D01*
X653216Y430516D01*
X653263Y430513D01*
X653310Y430504D01*
X653488Y430499D01*
X653665Y430488D01*
X653713Y430494D01*
X653760Y430493D01*
X653936Y430520D01*
X654112Y430540D01*
X654158Y430554D01*
X654205Y430562D01*
X654373Y430619D01*
X654543Y430671D01*
X654586Y430693D01*
X654631Y430708D01*
X654786Y430795D01*
X654945Y430875D01*
X654983Y430904D01*
X655024Y430927D01*
X655162Y431040D01*
X655303Y431147D01*
X655336Y431182D01*
X655373Y431213D01*
X655488Y431348D01*
X655609Y431478D01*
X655634Y431519D01*
X655665Y431555D01*
X655755Y431708D01*
X655850Y431858D01*
X655869Y431902D01*
X655893Y431944D01*
X655954Y432110D01*
X656021Y432275D01*
X656031Y432321D01*
X656048Y432366D01*
X656079Y432541D01*
X656116Y432715D01*
X656120Y432774D01*
X656126Y432810D01*
X656126Y432873D01*
X656135Y433027D01*
X656135Y447296D01*
X656132Y447331D01*
X656134Y447365D01*
X656112Y447554D01*
X656095Y447745D01*
X656086Y447778D01*
X656082Y447812D01*
X656027Y447995D01*
X655977Y448179D01*
X655962Y448210D01*
X655952Y448243D01*
X655865Y448414D01*
X655783Y448586D01*
X655763Y448614D01*
X655748Y448645D01*
X655632Y448797D01*
X655521Y448952D01*
X655496Y448976D01*
X655476Y449003D01*
X655336Y449132D01*
X655199Y449266D01*
X655170Y449285D01*
X655144Y449309D01*
X654983Y449411D01*
X654826Y449518D01*
X654794Y449532D01*
X654765Y449550D01*
X654588Y449623D01*
X654414Y449700D01*
X654380Y449708D01*
X654348Y449721D01*
X654161Y449761D01*
X653976Y449807D01*
X653942Y449809D01*
X653908Y449816D01*
X653596Y449835D01*
X6604Y449835D01*
X6569Y449832D01*
X6535Y449834D01*
X6346Y449812D01*
X6155Y449795D01*
X6122Y449786D01*
X6088Y449782D01*
X5905Y449727D01*
X5721Y449677D01*
X5690Y449662D01*
X5657Y449652D01*
X5486Y449565D01*
X5314Y449483D01*
X5286Y449463D01*
X5255Y449448D01*
X5103Y449332D01*
X4948Y449221D01*
X4924Y449196D01*
X4897Y449176D01*
X4768Y449036D01*
X4634Y448899D01*
X4615Y448870D01*
X4591Y448844D01*
X4489Y448683D01*
X4382Y448526D01*
X4368Y448494D01*
X4350Y448465D01*
X4277Y448288D01*
X4200Y448114D01*
X4192Y448080D01*
X4179Y448048D01*
X4139Y447861D01*
X4093Y447676D01*
X4091Y447642D01*
X4084Y447608D01*
X4065Y447296D01*
X4065Y432544D01*
X4080Y432367D01*
X4090Y432190D01*
X4100Y432143D01*
X4105Y432095D01*
X4151Y431924D01*
X4192Y431751D01*
X4211Y431707D01*
X4223Y431661D01*
X4299Y431501D01*
X4370Y431337D01*
X4396Y431298D01*
X4417Y431254D01*
X4520Y431110D01*
X4618Y430962D01*
X4651Y430927D01*
X4679Y430888D01*
X4806Y430765D01*
X4928Y430636D01*
X4967Y430608D01*
X5001Y430574D01*
X5149Y430475D01*
X5292Y430370D01*
X5335Y430349D01*
X5374Y430322D01*
X5537Y430250D01*
X5696Y430172D01*
X5742Y430159D01*
X5786Y430140D01*
X5959Y430098D01*
X6130Y430049D01*
X6177Y430045D01*
X6224Y430033D01*
X6401Y430022D01*
X6578Y430005D01*
X6625Y430008D01*
X6673Y430006D01*
X6850Y430026D01*
X7027Y430040D01*
X7073Y430052D01*
X7120Y430058D01*
X7291Y430109D01*
X7462Y430154D01*
X7505Y430174D01*
X7551Y430188D01*
X7710Y430269D01*
X7871Y430343D01*
X7910Y430371D01*
X7953Y430392D01*
X8094Y430499D01*
X8240Y430601D01*
X8273Y430635D01*
X8311Y430664D01*
X8432Y430795D01*
X8557Y430921D01*
X8584Y430960D01*
X8616Y430995D01*
X8712Y431145D01*
X8813Y431291D01*
X8839Y431345D01*
X8858Y431375D01*
X8882Y431434D01*
X8950Y431572D01*
X10530Y435386D01*
X15464Y440320D01*
X21911Y442991D01*
X28889Y442991D01*
X35336Y440320D01*
X40270Y435386D01*
X42941Y428939D01*
X42941Y421961D01*
X40270Y415514D01*
X35336Y410580D01*
X28889Y407909D01*
X21911Y407909D01*
X15464Y410580D01*
X10530Y415514D01*
X8950Y419328D01*
X8867Y419486D01*
X8791Y419646D01*
X8764Y419684D01*
X8741Y419727D01*
X8633Y419867D01*
X8529Y420012D01*
X8495Y420045D01*
X8466Y420083D01*
X8334Y420202D01*
X8207Y420326D01*
X8167Y420353D01*
X8131Y420385D01*
X7981Y420478D01*
X7834Y420578D01*
X7790Y420597D01*
X7749Y420622D01*
X7584Y420688D01*
X7422Y420760D01*
X7375Y420771D01*
X7331Y420789D01*
X7157Y420825D01*
X6984Y420867D01*
X6937Y420870D01*
X6890Y420879D01*
X6712Y420884D01*
X6535Y420894D01*
X6487Y420889D01*
X6440Y420890D01*
X6264Y420863D01*
X6088Y420842D01*
X6042Y420829D01*
X5995Y420821D01*
X5827Y420763D01*
X5657Y420712D01*
X5614Y420690D01*
X5569Y420675D01*
X5414Y420588D01*
X5255Y420508D01*
X5217Y420479D01*
X5176Y420456D01*
X5038Y420343D01*
X4897Y420236D01*
X4864Y420201D01*
X4827Y420170D01*
X4712Y420035D01*
X4591Y419905D01*
X4566Y419864D01*
X4535Y419828D01*
X4445Y419675D01*
X4350Y419525D01*
X4331Y419480D01*
X4307Y419439D01*
X4246Y419272D01*
X4179Y419108D01*
X4169Y419061D01*
X4152Y419017D01*
X4121Y418842D01*
X4084Y418668D01*
X4080Y418609D01*
X4074Y418573D01*
X4074Y418510D01*
X4065Y418356D01*
X4065Y6604D01*
X4068Y6569D01*
X4066Y6535D01*
X4088Y6346D01*
X4105Y6155D01*
X4114Y6122D01*
X4118Y6088D01*
X4173Y5905D01*
X4223Y5721D01*
X4238Y5690D01*
X4248Y5657D01*
X4335Y5486D01*
X4417Y5314D01*
X4437Y5286D01*
X4452Y5255D01*
X4568Y5103D01*
X4679Y4948D01*
X4704Y4924D01*
X4724Y4897D01*
X4864Y4768D01*
X5001Y4634D01*
X5030Y4615D01*
X5056Y4591D01*
X5217Y4489D01*
X5374Y4382D01*
X5406Y4368D01*
X5435Y4350D01*
X5612Y4277D01*
X5786Y4200D01*
X5820Y4192D01*
X5852Y4179D01*
X6039Y4139D01*
X6224Y4093D01*
X6258Y4091D01*
X6292Y4084D01*
X6604Y4065D01*
X653596Y4065D01*
X653631Y4068D01*
G37*
%LPC*%
G36*
X355600Y34289D02*
X355600Y34289D01*
X345439Y34289D01*
X345439Y35959D01*
X346039Y36558D01*
X346122Y36658D01*
X346213Y36751D01*
X346267Y36831D01*
X346328Y36904D01*
X346392Y37017D01*
X346465Y37124D01*
X346504Y37212D01*
X346551Y37295D01*
X346595Y37417D01*
X346648Y37536D01*
X346670Y37629D01*
X346702Y37719D01*
X346723Y37847D01*
X346754Y37974D01*
X346760Y38069D01*
X346776Y38163D01*
X346774Y38293D01*
X346782Y38423D01*
X346771Y38518D01*
X346770Y38614D01*
X346745Y38741D01*
X346730Y38870D01*
X346702Y38962D01*
X346684Y39056D01*
X346637Y39177D01*
X346600Y39301D01*
X346556Y39387D01*
X346522Y39476D01*
X346454Y39587D01*
X346395Y39703D01*
X346337Y39779D01*
X346288Y39860D01*
X346202Y39958D01*
X346123Y40061D01*
X346053Y40126D01*
X345990Y40198D01*
X345888Y40278D01*
X345792Y40367D01*
X345711Y40418D01*
X345637Y40477D01*
X345522Y40539D01*
X345412Y40608D01*
X345324Y40645D01*
X345240Y40690D01*
X345116Y40730D01*
X344996Y40779D01*
X344902Y40799D01*
X344811Y40829D01*
X344683Y40847D01*
X344555Y40874D01*
X344425Y40882D01*
X344365Y40890D01*
X344321Y40889D01*
X344244Y40893D01*
X341556Y40893D01*
X341427Y40882D01*
X341297Y40880D01*
X341203Y40862D01*
X341108Y40853D01*
X340982Y40819D01*
X340855Y40794D01*
X340766Y40760D01*
X340674Y40735D01*
X340556Y40679D01*
X340435Y40632D01*
X340353Y40582D01*
X340267Y40541D01*
X340161Y40466D01*
X340050Y40398D01*
X339979Y40335D01*
X339901Y40279D01*
X339810Y40186D01*
X339713Y40100D01*
X339653Y40025D01*
X339587Y39957D01*
X339514Y39849D01*
X339433Y39747D01*
X339388Y39663D01*
X339335Y39584D01*
X339282Y39465D01*
X339221Y39350D01*
X339191Y39259D01*
X339152Y39172D01*
X339122Y39045D01*
X339081Y38922D01*
X339068Y38827D01*
X339046Y38734D01*
X339038Y38605D01*
X339020Y38476D01*
X339024Y38380D01*
X339018Y38285D01*
X339033Y38156D01*
X339038Y38026D01*
X339059Y37933D01*
X339070Y37838D01*
X339108Y37713D01*
X339136Y37586D01*
X339173Y37498D01*
X339200Y37407D01*
X339260Y37291D01*
X339310Y37171D01*
X339361Y37091D01*
X339405Y37005D01*
X339483Y36902D01*
X339554Y36793D01*
X339640Y36695D01*
X339677Y36647D01*
X339710Y36616D01*
X339761Y36558D01*
X340361Y35959D01*
X340361Y34289D01*
X330200Y34289D01*
X320039Y34289D01*
X320039Y35959D01*
X320639Y36558D01*
X320722Y36658D01*
X320813Y36751D01*
X320867Y36831D01*
X320928Y36904D01*
X320992Y37017D01*
X321065Y37124D01*
X321104Y37212D01*
X321151Y37295D01*
X321195Y37417D01*
X321248Y37536D01*
X321270Y37629D01*
X321302Y37719D01*
X321323Y37847D01*
X321354Y37974D01*
X321360Y38069D01*
X321376Y38163D01*
X321374Y38293D01*
X321382Y38423D01*
X321371Y38518D01*
X321370Y38614D01*
X321345Y38741D01*
X321330Y38870D01*
X321302Y38962D01*
X321284Y39056D01*
X321237Y39177D01*
X321200Y39301D01*
X321156Y39387D01*
X321122Y39476D01*
X321054Y39587D01*
X320995Y39703D01*
X320937Y39779D01*
X320888Y39860D01*
X320802Y39958D01*
X320723Y40061D01*
X320653Y40126D01*
X320590Y40198D01*
X320488Y40278D01*
X320392Y40367D01*
X320311Y40418D01*
X320237Y40477D01*
X320122Y40539D01*
X320012Y40608D01*
X319924Y40645D01*
X319840Y40690D01*
X319716Y40730D01*
X319596Y40779D01*
X319502Y40799D01*
X319411Y40829D01*
X319283Y40847D01*
X319155Y40874D01*
X319025Y40882D01*
X318965Y40890D01*
X318921Y40889D01*
X318844Y40893D01*
X316156Y40893D01*
X316027Y40882D01*
X315897Y40880D01*
X315803Y40862D01*
X315708Y40853D01*
X315582Y40819D01*
X315455Y40794D01*
X315366Y40760D01*
X315274Y40735D01*
X315156Y40679D01*
X315035Y40632D01*
X314953Y40582D01*
X314867Y40541D01*
X314761Y40466D01*
X314650Y40398D01*
X314579Y40335D01*
X314501Y40279D01*
X314410Y40186D01*
X314313Y40100D01*
X314253Y40025D01*
X314187Y39957D01*
X314114Y39849D01*
X314033Y39747D01*
X313988Y39663D01*
X313935Y39584D01*
X313882Y39465D01*
X313821Y39350D01*
X313791Y39259D01*
X313752Y39172D01*
X313722Y39045D01*
X313681Y38922D01*
X313668Y38827D01*
X313646Y38734D01*
X313638Y38605D01*
X313620Y38476D01*
X313624Y38380D01*
X313618Y38285D01*
X313633Y38156D01*
X313638Y38026D01*
X313659Y37933D01*
X313670Y37838D01*
X313708Y37713D01*
X313736Y37586D01*
X313773Y37498D01*
X313800Y37407D01*
X313860Y37291D01*
X313910Y37171D01*
X313961Y37091D01*
X314005Y37005D01*
X314083Y36902D01*
X314154Y36793D01*
X314240Y36695D01*
X314277Y36647D01*
X314310Y36616D01*
X314361Y36558D01*
X314961Y35959D01*
X314961Y34289D01*
X304800Y34289D01*
X294639Y34289D01*
X294639Y35959D01*
X295239Y36558D01*
X295322Y36658D01*
X295413Y36751D01*
X295467Y36831D01*
X295528Y36904D01*
X295592Y37017D01*
X295665Y37124D01*
X295704Y37212D01*
X295751Y37295D01*
X295795Y37417D01*
X295848Y37536D01*
X295870Y37629D01*
X295902Y37719D01*
X295923Y37847D01*
X295954Y37974D01*
X295960Y38069D01*
X295976Y38163D01*
X295974Y38293D01*
X295982Y38423D01*
X295971Y38518D01*
X295970Y38614D01*
X295945Y38741D01*
X295930Y38870D01*
X295902Y38962D01*
X295884Y39056D01*
X295837Y39177D01*
X295800Y39301D01*
X295756Y39387D01*
X295722Y39476D01*
X295654Y39587D01*
X295595Y39703D01*
X295537Y39779D01*
X295488Y39860D01*
X295402Y39958D01*
X295323Y40061D01*
X295253Y40126D01*
X295190Y40198D01*
X295088Y40278D01*
X294992Y40367D01*
X294911Y40418D01*
X294837Y40477D01*
X294722Y40539D01*
X294612Y40608D01*
X294524Y40645D01*
X294440Y40690D01*
X294316Y40730D01*
X294196Y40779D01*
X294102Y40799D01*
X294011Y40829D01*
X293883Y40847D01*
X293755Y40874D01*
X293625Y40882D01*
X293565Y40890D01*
X293521Y40889D01*
X293444Y40893D01*
X290756Y40893D01*
X290627Y40882D01*
X290497Y40880D01*
X290403Y40862D01*
X290308Y40853D01*
X290182Y40819D01*
X290055Y40794D01*
X289966Y40760D01*
X289874Y40735D01*
X289756Y40679D01*
X289635Y40632D01*
X289553Y40582D01*
X289467Y40541D01*
X289361Y40466D01*
X289250Y40398D01*
X289179Y40335D01*
X289101Y40279D01*
X289010Y40186D01*
X288913Y40100D01*
X288853Y40025D01*
X288787Y39957D01*
X288714Y39849D01*
X288633Y39747D01*
X288588Y39663D01*
X288535Y39584D01*
X288482Y39465D01*
X288421Y39350D01*
X288391Y39259D01*
X288352Y39172D01*
X288322Y39045D01*
X288281Y38922D01*
X288268Y38827D01*
X288246Y38734D01*
X288238Y38605D01*
X288220Y38476D01*
X288224Y38380D01*
X288218Y38285D01*
X288233Y38156D01*
X288238Y38026D01*
X288259Y37933D01*
X288270Y37838D01*
X288308Y37713D01*
X288336Y37586D01*
X288373Y37498D01*
X288400Y37407D01*
X288460Y37291D01*
X288510Y37171D01*
X288561Y37091D01*
X288605Y37005D01*
X288683Y36902D01*
X288754Y36793D01*
X288840Y36695D01*
X288877Y36647D01*
X288910Y36616D01*
X288961Y36558D01*
X289561Y35959D01*
X289561Y34289D01*
X279400Y34289D01*
X269239Y34289D01*
X269239Y35959D01*
X269839Y36558D01*
X269922Y36658D01*
X270013Y36751D01*
X270067Y36831D01*
X270128Y36904D01*
X270192Y37017D01*
X270265Y37124D01*
X270304Y37212D01*
X270351Y37295D01*
X270395Y37417D01*
X270448Y37536D01*
X270470Y37629D01*
X270502Y37719D01*
X270523Y37847D01*
X270554Y37974D01*
X270560Y38069D01*
X270576Y38163D01*
X270574Y38293D01*
X270582Y38423D01*
X270571Y38518D01*
X270570Y38614D01*
X270545Y38741D01*
X270530Y38870D01*
X270502Y38962D01*
X270484Y39056D01*
X270437Y39177D01*
X270400Y39301D01*
X270356Y39387D01*
X270322Y39476D01*
X270254Y39587D01*
X270195Y39703D01*
X270137Y39779D01*
X270088Y39860D01*
X270002Y39958D01*
X269923Y40061D01*
X269853Y40126D01*
X269790Y40198D01*
X269688Y40278D01*
X269592Y40367D01*
X269511Y40418D01*
X269437Y40477D01*
X269322Y40539D01*
X269212Y40608D01*
X269124Y40645D01*
X269040Y40690D01*
X268916Y40730D01*
X268796Y40779D01*
X268702Y40799D01*
X268611Y40829D01*
X268483Y40847D01*
X268355Y40874D01*
X268225Y40882D01*
X268165Y40890D01*
X268121Y40889D01*
X268044Y40893D01*
X265356Y40893D01*
X265227Y40882D01*
X265097Y40880D01*
X265003Y40862D01*
X264908Y40853D01*
X264782Y40819D01*
X264655Y40794D01*
X264566Y40760D01*
X264474Y40735D01*
X264356Y40679D01*
X264235Y40632D01*
X264153Y40582D01*
X264067Y40541D01*
X263961Y40466D01*
X263850Y40398D01*
X263779Y40335D01*
X263701Y40279D01*
X263610Y40186D01*
X263513Y40100D01*
X263453Y40025D01*
X263387Y39957D01*
X263314Y39849D01*
X263233Y39747D01*
X263188Y39663D01*
X263135Y39584D01*
X263082Y39465D01*
X263021Y39350D01*
X262991Y39259D01*
X262952Y39172D01*
X262922Y39045D01*
X262881Y38922D01*
X262868Y38827D01*
X262846Y38734D01*
X262838Y38605D01*
X262820Y38476D01*
X262824Y38380D01*
X262818Y38285D01*
X262833Y38156D01*
X262838Y38026D01*
X262859Y37933D01*
X262870Y37838D01*
X262908Y37713D01*
X262936Y37586D01*
X262973Y37498D01*
X263000Y37407D01*
X263060Y37291D01*
X263110Y37171D01*
X263161Y37091D01*
X263205Y37005D01*
X263283Y36902D01*
X263354Y36793D01*
X263440Y36695D01*
X263477Y36647D01*
X263510Y36616D01*
X263561Y36558D01*
X264161Y35959D01*
X264161Y34289D01*
X254000Y34289D01*
X243839Y34289D01*
X243839Y35959D01*
X244439Y36558D01*
X244522Y36658D01*
X244613Y36751D01*
X244667Y36831D01*
X244728Y36904D01*
X244792Y37017D01*
X244865Y37124D01*
X244904Y37212D01*
X244951Y37295D01*
X244995Y37417D01*
X245048Y37536D01*
X245070Y37629D01*
X245102Y37719D01*
X245123Y37847D01*
X245154Y37974D01*
X245160Y38069D01*
X245176Y38163D01*
X245174Y38293D01*
X245182Y38423D01*
X245171Y38518D01*
X245170Y38614D01*
X245145Y38741D01*
X245130Y38870D01*
X245102Y38962D01*
X245084Y39056D01*
X245037Y39177D01*
X245000Y39301D01*
X244956Y39387D01*
X244922Y39476D01*
X244854Y39587D01*
X244795Y39703D01*
X244737Y39779D01*
X244688Y39860D01*
X244602Y39958D01*
X244523Y40061D01*
X244453Y40126D01*
X244390Y40198D01*
X244288Y40278D01*
X244192Y40367D01*
X244111Y40418D01*
X244037Y40477D01*
X243922Y40539D01*
X243812Y40608D01*
X243724Y40645D01*
X243640Y40690D01*
X243516Y40730D01*
X243396Y40779D01*
X243302Y40799D01*
X243211Y40829D01*
X243083Y40847D01*
X242955Y40874D01*
X242825Y40882D01*
X242765Y40890D01*
X242721Y40889D01*
X242644Y40893D01*
X239956Y40893D01*
X239827Y40882D01*
X239697Y40880D01*
X239603Y40862D01*
X239508Y40853D01*
X239382Y40819D01*
X239255Y40794D01*
X239166Y40760D01*
X239074Y40735D01*
X238956Y40679D01*
X238835Y40632D01*
X238753Y40582D01*
X238667Y40541D01*
X238561Y40466D01*
X238450Y40398D01*
X238379Y40335D01*
X238301Y40279D01*
X238210Y40186D01*
X238113Y40100D01*
X238053Y40025D01*
X237987Y39957D01*
X237914Y39849D01*
X237833Y39747D01*
X237788Y39663D01*
X237735Y39584D01*
X237682Y39465D01*
X237621Y39350D01*
X237591Y39259D01*
X237552Y39172D01*
X237522Y39045D01*
X237481Y38922D01*
X237468Y38827D01*
X237446Y38734D01*
X237438Y38605D01*
X237420Y38476D01*
X237424Y38380D01*
X237418Y38285D01*
X237433Y38156D01*
X237438Y38026D01*
X237459Y37933D01*
X237470Y37838D01*
X237508Y37713D01*
X237536Y37586D01*
X237573Y37498D01*
X237600Y37407D01*
X237660Y37291D01*
X237710Y37171D01*
X237761Y37091D01*
X237805Y37005D01*
X237883Y36902D01*
X237954Y36793D01*
X238040Y36695D01*
X238077Y36647D01*
X238110Y36616D01*
X238161Y36558D01*
X238761Y35959D01*
X238761Y34289D01*
X228600Y34289D01*
X218439Y34289D01*
X218439Y35959D01*
X219039Y36558D01*
X219122Y36658D01*
X219213Y36751D01*
X219267Y36831D01*
X219328Y36904D01*
X219392Y37017D01*
X219465Y37124D01*
X219504Y37212D01*
X219551Y37295D01*
X219595Y37417D01*
X219648Y37536D01*
X219670Y37629D01*
X219702Y37719D01*
X219723Y37847D01*
X219754Y37974D01*
X219760Y38069D01*
X219776Y38163D01*
X219774Y38293D01*
X219782Y38423D01*
X219771Y38518D01*
X219770Y38614D01*
X219745Y38741D01*
X219730Y38870D01*
X219702Y38962D01*
X219684Y39056D01*
X219637Y39177D01*
X219600Y39301D01*
X219556Y39387D01*
X219522Y39476D01*
X219454Y39587D01*
X219395Y39703D01*
X219337Y39779D01*
X219288Y39860D01*
X219202Y39958D01*
X219123Y40061D01*
X219053Y40126D01*
X218990Y40198D01*
X218888Y40278D01*
X218792Y40367D01*
X218711Y40418D01*
X218637Y40477D01*
X218522Y40539D01*
X218412Y40608D01*
X218324Y40645D01*
X218240Y40690D01*
X218116Y40730D01*
X217996Y40779D01*
X217902Y40799D01*
X217811Y40829D01*
X217683Y40847D01*
X217555Y40874D01*
X217425Y40882D01*
X217365Y40890D01*
X217321Y40889D01*
X217244Y40893D01*
X214556Y40893D01*
X214427Y40882D01*
X214297Y40880D01*
X214203Y40862D01*
X214108Y40853D01*
X213982Y40819D01*
X213855Y40794D01*
X213766Y40760D01*
X213674Y40735D01*
X213556Y40679D01*
X213435Y40632D01*
X213353Y40582D01*
X213267Y40541D01*
X213161Y40466D01*
X213050Y40398D01*
X212979Y40335D01*
X212901Y40279D01*
X212810Y40186D01*
X212713Y40100D01*
X212653Y40025D01*
X212587Y39957D01*
X212514Y39849D01*
X212433Y39747D01*
X212388Y39663D01*
X212335Y39584D01*
X212282Y39465D01*
X212221Y39350D01*
X212191Y39259D01*
X212152Y39172D01*
X212122Y39045D01*
X212081Y38922D01*
X212068Y38827D01*
X212046Y38734D01*
X212038Y38605D01*
X212020Y38476D01*
X212024Y38380D01*
X212018Y38285D01*
X212033Y38156D01*
X212038Y38026D01*
X212059Y37933D01*
X212070Y37838D01*
X212108Y37713D01*
X212136Y37586D01*
X212173Y37498D01*
X212200Y37407D01*
X212260Y37291D01*
X212310Y37171D01*
X212361Y37091D01*
X212405Y37005D01*
X212483Y36902D01*
X212554Y36793D01*
X212640Y36695D01*
X212677Y36647D01*
X212710Y36616D01*
X212761Y36558D01*
X213361Y35959D01*
X213361Y34289D01*
X203200Y34289D01*
X193039Y34289D01*
X193039Y35959D01*
X193639Y36558D01*
X193722Y36658D01*
X193813Y36751D01*
X193867Y36831D01*
X193928Y36904D01*
X193992Y37017D01*
X194065Y37124D01*
X194104Y37212D01*
X194151Y37295D01*
X194195Y37417D01*
X194248Y37536D01*
X194270Y37629D01*
X194302Y37719D01*
X194323Y37847D01*
X194354Y37974D01*
X194360Y38069D01*
X194376Y38163D01*
X194374Y38293D01*
X194382Y38423D01*
X194371Y38518D01*
X194370Y38614D01*
X194345Y38741D01*
X194330Y38870D01*
X194302Y38962D01*
X194284Y39056D01*
X194237Y39177D01*
X194200Y39301D01*
X194156Y39387D01*
X194122Y39476D01*
X194054Y39587D01*
X193995Y39703D01*
X193937Y39779D01*
X193888Y39860D01*
X193802Y39958D01*
X193723Y40061D01*
X193653Y40126D01*
X193590Y40198D01*
X193488Y40278D01*
X193392Y40367D01*
X193311Y40418D01*
X193237Y40477D01*
X193122Y40539D01*
X193012Y40608D01*
X192924Y40645D01*
X192840Y40690D01*
X192716Y40730D01*
X192596Y40779D01*
X192502Y40799D01*
X192411Y40829D01*
X192283Y40847D01*
X192155Y40874D01*
X192025Y40882D01*
X191965Y40890D01*
X191921Y40889D01*
X191844Y40893D01*
X189156Y40893D01*
X189027Y40882D01*
X188897Y40880D01*
X188803Y40862D01*
X188708Y40853D01*
X188582Y40819D01*
X188455Y40794D01*
X188366Y40760D01*
X188274Y40735D01*
X188156Y40679D01*
X188035Y40632D01*
X187953Y40582D01*
X187867Y40541D01*
X187761Y40466D01*
X187650Y40398D01*
X187579Y40335D01*
X187501Y40279D01*
X187410Y40186D01*
X187313Y40100D01*
X187253Y40025D01*
X187187Y39957D01*
X187114Y39849D01*
X187033Y39747D01*
X186988Y39663D01*
X186935Y39584D01*
X186882Y39465D01*
X186821Y39350D01*
X186791Y39259D01*
X186752Y39172D01*
X186722Y39045D01*
X186681Y38922D01*
X186668Y38827D01*
X186646Y38734D01*
X186638Y38605D01*
X186620Y38476D01*
X186624Y38380D01*
X186618Y38285D01*
X186633Y38156D01*
X186638Y38026D01*
X186659Y37933D01*
X186670Y37838D01*
X186708Y37713D01*
X186736Y37586D01*
X186773Y37498D01*
X186800Y37407D01*
X186860Y37291D01*
X186910Y37171D01*
X186961Y37091D01*
X187005Y37005D01*
X187083Y36902D01*
X187154Y36793D01*
X187240Y36695D01*
X187277Y36647D01*
X187310Y36616D01*
X187361Y36558D01*
X187961Y35959D01*
X187961Y34289D01*
X177800Y34289D01*
X167639Y34289D01*
X167639Y35959D01*
X168239Y36558D01*
X168322Y36658D01*
X168413Y36751D01*
X168467Y36831D01*
X168528Y36904D01*
X168592Y37017D01*
X168665Y37124D01*
X168704Y37212D01*
X168751Y37295D01*
X168795Y37417D01*
X168848Y37536D01*
X168870Y37629D01*
X168902Y37719D01*
X168923Y37847D01*
X168954Y37974D01*
X168960Y38069D01*
X168976Y38163D01*
X168974Y38293D01*
X168982Y38423D01*
X168971Y38518D01*
X168970Y38614D01*
X168945Y38741D01*
X168930Y38870D01*
X168902Y38962D01*
X168884Y39056D01*
X168837Y39177D01*
X168800Y39301D01*
X168756Y39387D01*
X168722Y39476D01*
X168654Y39587D01*
X168595Y39703D01*
X168537Y39779D01*
X168488Y39860D01*
X168402Y39958D01*
X168323Y40061D01*
X168253Y40126D01*
X168190Y40198D01*
X168088Y40278D01*
X167992Y40367D01*
X167911Y40418D01*
X167837Y40477D01*
X167722Y40539D01*
X167612Y40608D01*
X167524Y40645D01*
X167440Y40690D01*
X167316Y40730D01*
X167196Y40779D01*
X167102Y40799D01*
X167011Y40829D01*
X166883Y40847D01*
X166755Y40874D01*
X166625Y40882D01*
X166565Y40890D01*
X166521Y40889D01*
X166444Y40893D01*
X163756Y40893D01*
X163627Y40882D01*
X163497Y40880D01*
X163403Y40862D01*
X163308Y40853D01*
X163182Y40819D01*
X163055Y40794D01*
X162966Y40760D01*
X162874Y40735D01*
X162756Y40679D01*
X162635Y40632D01*
X162553Y40582D01*
X162467Y40541D01*
X162361Y40466D01*
X162250Y40398D01*
X162179Y40335D01*
X162101Y40279D01*
X162010Y40186D01*
X161913Y40100D01*
X161853Y40025D01*
X161787Y39957D01*
X161714Y39849D01*
X161633Y39747D01*
X161588Y39663D01*
X161535Y39584D01*
X161482Y39465D01*
X161421Y39350D01*
X161391Y39259D01*
X161352Y39172D01*
X161322Y39045D01*
X161281Y38922D01*
X161268Y38827D01*
X161246Y38734D01*
X161238Y38605D01*
X161220Y38476D01*
X161224Y38380D01*
X161218Y38285D01*
X161233Y38156D01*
X161238Y38026D01*
X161259Y37933D01*
X161270Y37838D01*
X161308Y37713D01*
X161336Y37586D01*
X161373Y37498D01*
X161400Y37407D01*
X161460Y37291D01*
X161510Y37171D01*
X161561Y37091D01*
X161605Y37005D01*
X161683Y36902D01*
X161754Y36793D01*
X161840Y36695D01*
X161877Y36647D01*
X161910Y36616D01*
X161961Y36558D01*
X162561Y35959D01*
X162561Y34289D01*
X152400Y34289D01*
X142239Y34289D01*
X142239Y35959D01*
X142839Y36558D01*
X142922Y36658D01*
X143013Y36751D01*
X143067Y36831D01*
X143128Y36904D01*
X143192Y37017D01*
X143265Y37124D01*
X143304Y37212D01*
X143351Y37295D01*
X143395Y37417D01*
X143448Y37536D01*
X143470Y37629D01*
X143502Y37719D01*
X143523Y37847D01*
X143554Y37974D01*
X143560Y38069D01*
X143576Y38163D01*
X143574Y38293D01*
X143582Y38423D01*
X143571Y38518D01*
X143570Y38614D01*
X143545Y38741D01*
X143530Y38870D01*
X143502Y38962D01*
X143484Y39056D01*
X143437Y39177D01*
X143400Y39301D01*
X143356Y39387D01*
X143322Y39476D01*
X143254Y39587D01*
X143195Y39703D01*
X143137Y39779D01*
X143088Y39860D01*
X143002Y39958D01*
X142923Y40061D01*
X142853Y40126D01*
X142790Y40198D01*
X142688Y40278D01*
X142592Y40367D01*
X142511Y40418D01*
X142437Y40477D01*
X142322Y40539D01*
X142212Y40608D01*
X142124Y40645D01*
X142040Y40690D01*
X141916Y40730D01*
X141796Y40779D01*
X141702Y40799D01*
X141611Y40829D01*
X141483Y40847D01*
X141355Y40874D01*
X141225Y40882D01*
X141165Y40890D01*
X141121Y40889D01*
X141044Y40893D01*
X138356Y40893D01*
X138227Y40882D01*
X138097Y40880D01*
X138003Y40862D01*
X137908Y40853D01*
X137782Y40819D01*
X137655Y40794D01*
X137566Y40760D01*
X137474Y40735D01*
X137356Y40679D01*
X137235Y40632D01*
X137153Y40582D01*
X137067Y40541D01*
X136961Y40466D01*
X136850Y40398D01*
X136779Y40335D01*
X136701Y40279D01*
X136610Y40186D01*
X136513Y40100D01*
X136453Y40025D01*
X136387Y39957D01*
X136314Y39849D01*
X136233Y39747D01*
X136188Y39663D01*
X136135Y39584D01*
X136082Y39465D01*
X136021Y39350D01*
X135991Y39259D01*
X135952Y39172D01*
X135922Y39045D01*
X135881Y38922D01*
X135868Y38827D01*
X135846Y38734D01*
X135838Y38605D01*
X135820Y38476D01*
X135824Y38380D01*
X135818Y38285D01*
X135833Y38156D01*
X135838Y38026D01*
X135859Y37933D01*
X135870Y37838D01*
X135908Y37713D01*
X135936Y37586D01*
X135973Y37498D01*
X136000Y37407D01*
X136060Y37291D01*
X136110Y37171D01*
X136161Y37091D01*
X136205Y37005D01*
X136283Y36902D01*
X136354Y36793D01*
X136440Y36695D01*
X136477Y36647D01*
X136510Y36616D01*
X136561Y36558D01*
X137161Y35959D01*
X137161Y34289D01*
X127000Y34289D01*
X116839Y34289D01*
X116839Y35959D01*
X117439Y36558D01*
X117522Y36658D01*
X117613Y36751D01*
X117667Y36831D01*
X117728Y36904D01*
X117792Y37017D01*
X117865Y37124D01*
X117904Y37212D01*
X117951Y37295D01*
X117995Y37417D01*
X118048Y37536D01*
X118070Y37629D01*
X118102Y37719D01*
X118123Y37847D01*
X118154Y37974D01*
X118160Y38069D01*
X118176Y38163D01*
X118174Y38293D01*
X118182Y38423D01*
X118171Y38518D01*
X118170Y38614D01*
X118145Y38741D01*
X118130Y38870D01*
X118102Y38962D01*
X118084Y39056D01*
X118037Y39177D01*
X118000Y39301D01*
X117956Y39387D01*
X117922Y39476D01*
X117854Y39587D01*
X117795Y39703D01*
X117737Y39779D01*
X117688Y39860D01*
X117602Y39958D01*
X117523Y40061D01*
X117453Y40126D01*
X117390Y40198D01*
X117288Y40278D01*
X117192Y40367D01*
X117111Y40418D01*
X117037Y40477D01*
X116922Y40539D01*
X116812Y40608D01*
X116724Y40645D01*
X116640Y40690D01*
X116516Y40730D01*
X116396Y40779D01*
X116302Y40799D01*
X116211Y40829D01*
X116083Y40847D01*
X115955Y40874D01*
X115825Y40882D01*
X115765Y40890D01*
X115721Y40889D01*
X115644Y40893D01*
X112956Y40893D01*
X112827Y40882D01*
X112697Y40880D01*
X112603Y40862D01*
X112508Y40853D01*
X112382Y40819D01*
X112255Y40794D01*
X112166Y40760D01*
X112074Y40735D01*
X111956Y40679D01*
X111835Y40632D01*
X111753Y40582D01*
X111667Y40541D01*
X111561Y40466D01*
X111450Y40398D01*
X111379Y40335D01*
X111301Y40279D01*
X111210Y40186D01*
X111113Y40100D01*
X111053Y40025D01*
X110987Y39957D01*
X110914Y39849D01*
X110833Y39747D01*
X110788Y39663D01*
X110735Y39584D01*
X110682Y39465D01*
X110621Y39350D01*
X110591Y39259D01*
X110552Y39172D01*
X110522Y39045D01*
X110481Y38922D01*
X110468Y38827D01*
X110446Y38734D01*
X110438Y38605D01*
X110420Y38476D01*
X110424Y38380D01*
X110418Y38285D01*
X110433Y38156D01*
X110438Y38026D01*
X110459Y37933D01*
X110470Y37838D01*
X110508Y37713D01*
X110536Y37586D01*
X110573Y37498D01*
X110600Y37407D01*
X110660Y37291D01*
X110710Y37171D01*
X110761Y37091D01*
X110805Y37005D01*
X110883Y36902D01*
X110954Y36793D01*
X111040Y36695D01*
X111077Y36647D01*
X111110Y36616D01*
X111161Y36558D01*
X111761Y35959D01*
X111761Y34289D01*
X101600Y34289D01*
X91439Y34289D01*
X91439Y35959D01*
X92039Y36558D01*
X92122Y36658D01*
X92213Y36751D01*
X92267Y36831D01*
X92328Y36904D01*
X92392Y37017D01*
X92465Y37124D01*
X92504Y37212D01*
X92551Y37295D01*
X92595Y37417D01*
X92648Y37536D01*
X92670Y37629D01*
X92702Y37719D01*
X92723Y37847D01*
X92754Y37974D01*
X92760Y38069D01*
X92776Y38163D01*
X92774Y38293D01*
X92782Y38423D01*
X92771Y38518D01*
X92770Y38614D01*
X92745Y38741D01*
X92730Y38870D01*
X92702Y38962D01*
X92684Y39056D01*
X92637Y39177D01*
X92600Y39301D01*
X92556Y39387D01*
X92522Y39476D01*
X92454Y39587D01*
X92395Y39703D01*
X92337Y39779D01*
X92288Y39860D01*
X92202Y39958D01*
X92123Y40061D01*
X92053Y40126D01*
X91990Y40198D01*
X91888Y40278D01*
X91792Y40367D01*
X91711Y40418D01*
X91637Y40477D01*
X91522Y40539D01*
X91412Y40608D01*
X91324Y40645D01*
X91240Y40690D01*
X91116Y40730D01*
X90996Y40779D01*
X90902Y40799D01*
X90811Y40829D01*
X90683Y40847D01*
X90555Y40874D01*
X90425Y40882D01*
X90365Y40890D01*
X90321Y40889D01*
X90244Y40893D01*
X87556Y40893D01*
X87427Y40882D01*
X87297Y40880D01*
X87203Y40862D01*
X87108Y40853D01*
X86982Y40819D01*
X86855Y40794D01*
X86766Y40760D01*
X86674Y40735D01*
X86556Y40679D01*
X86435Y40632D01*
X86353Y40582D01*
X86267Y40541D01*
X86161Y40466D01*
X86050Y40398D01*
X85979Y40335D01*
X85901Y40279D01*
X85810Y40186D01*
X85713Y40100D01*
X85653Y40025D01*
X85587Y39957D01*
X85514Y39849D01*
X85433Y39747D01*
X85388Y39663D01*
X85335Y39584D01*
X85282Y39465D01*
X85221Y39350D01*
X85191Y39259D01*
X85152Y39172D01*
X85122Y39045D01*
X85081Y38922D01*
X85068Y38827D01*
X85046Y38734D01*
X85038Y38605D01*
X85020Y38476D01*
X85024Y38380D01*
X85018Y38285D01*
X85033Y38156D01*
X85038Y38026D01*
X85059Y37933D01*
X85070Y37838D01*
X85108Y37713D01*
X85136Y37586D01*
X85173Y37498D01*
X85200Y37407D01*
X85260Y37291D01*
X85310Y37171D01*
X85361Y37091D01*
X85405Y37005D01*
X85483Y36902D01*
X85554Y36793D01*
X85640Y36695D01*
X85677Y36647D01*
X85710Y36616D01*
X85761Y36558D01*
X86361Y35959D01*
X86361Y34289D01*
X76200Y34289D01*
X66039Y34289D01*
X66039Y35959D01*
X66639Y36558D01*
X66722Y36658D01*
X66813Y36751D01*
X66867Y36831D01*
X66928Y36904D01*
X66992Y37017D01*
X67065Y37124D01*
X67104Y37212D01*
X67151Y37295D01*
X67195Y37417D01*
X67248Y37536D01*
X67270Y37629D01*
X67302Y37719D01*
X67323Y37847D01*
X67354Y37974D01*
X67360Y38069D01*
X67376Y38163D01*
X67374Y38293D01*
X67382Y38423D01*
X67371Y38518D01*
X67370Y38614D01*
X67345Y38741D01*
X67330Y38870D01*
X67302Y38962D01*
X67284Y39056D01*
X67237Y39177D01*
X67200Y39301D01*
X67156Y39387D01*
X67122Y39476D01*
X67054Y39587D01*
X66995Y39703D01*
X66937Y39779D01*
X66888Y39860D01*
X66802Y39958D01*
X66723Y40061D01*
X66653Y40126D01*
X66590Y40198D01*
X66488Y40278D01*
X66392Y40367D01*
X66311Y40418D01*
X66237Y40477D01*
X66122Y40539D01*
X66012Y40608D01*
X65924Y40645D01*
X65840Y40690D01*
X65716Y40730D01*
X65596Y40779D01*
X65502Y40799D01*
X65411Y40829D01*
X65283Y40847D01*
X65155Y40874D01*
X65025Y40882D01*
X64965Y40890D01*
X64921Y40889D01*
X64844Y40893D01*
X62156Y40893D01*
X62027Y40882D01*
X61897Y40880D01*
X61803Y40862D01*
X61708Y40853D01*
X61582Y40819D01*
X61455Y40794D01*
X61366Y40760D01*
X61274Y40735D01*
X61156Y40679D01*
X61035Y40632D01*
X60953Y40582D01*
X60867Y40541D01*
X60761Y40466D01*
X60650Y40398D01*
X60579Y40335D01*
X60501Y40279D01*
X60410Y40186D01*
X60313Y40100D01*
X60253Y40025D01*
X60187Y39957D01*
X60114Y39849D01*
X60033Y39747D01*
X59988Y39663D01*
X59935Y39584D01*
X59882Y39465D01*
X59821Y39350D01*
X59791Y39259D01*
X59752Y39172D01*
X59722Y39045D01*
X59681Y38922D01*
X59668Y38827D01*
X59646Y38734D01*
X59638Y38605D01*
X59620Y38476D01*
X59624Y38380D01*
X59618Y38285D01*
X59633Y38156D01*
X59638Y38026D01*
X59659Y37933D01*
X59670Y37838D01*
X59708Y37713D01*
X59736Y37586D01*
X59773Y37498D01*
X59800Y37407D01*
X59860Y37291D01*
X59910Y37171D01*
X59961Y37091D01*
X60005Y37005D01*
X60083Y36902D01*
X60154Y36793D01*
X60240Y36695D01*
X60277Y36647D01*
X60310Y36616D01*
X60361Y36558D01*
X60961Y35959D01*
X60961Y34289D01*
X50800Y34289D01*
X40639Y34289D01*
X40639Y35959D01*
X41239Y36558D01*
X41322Y36658D01*
X41413Y36751D01*
X41467Y36831D01*
X41528Y36904D01*
X41592Y37017D01*
X41665Y37124D01*
X41704Y37212D01*
X41751Y37295D01*
X41795Y37417D01*
X41848Y37536D01*
X41870Y37629D01*
X41902Y37719D01*
X41923Y37847D01*
X41954Y37974D01*
X41960Y38069D01*
X41976Y38163D01*
X41974Y38293D01*
X41982Y38423D01*
X41971Y38518D01*
X41970Y38614D01*
X41945Y38741D01*
X41930Y38870D01*
X41902Y38962D01*
X41884Y39056D01*
X41837Y39177D01*
X41800Y39301D01*
X41756Y39387D01*
X41722Y39476D01*
X41654Y39587D01*
X41595Y39703D01*
X41537Y39779D01*
X41488Y39860D01*
X41402Y39958D01*
X41323Y40061D01*
X41253Y40126D01*
X41190Y40198D01*
X41088Y40278D01*
X40992Y40367D01*
X40911Y40418D01*
X40837Y40477D01*
X40722Y40539D01*
X40612Y40608D01*
X40524Y40645D01*
X40440Y40690D01*
X40316Y40730D01*
X40196Y40779D01*
X40102Y40799D01*
X40011Y40829D01*
X39883Y40847D01*
X39755Y40874D01*
X39625Y40882D01*
X39565Y40890D01*
X39521Y40889D01*
X39444Y40893D01*
X36756Y40893D01*
X36627Y40882D01*
X36497Y40880D01*
X36403Y40862D01*
X36308Y40853D01*
X36182Y40819D01*
X36055Y40794D01*
X35966Y40760D01*
X35874Y40735D01*
X35756Y40679D01*
X35635Y40632D01*
X35553Y40582D01*
X35467Y40541D01*
X35361Y40466D01*
X35250Y40398D01*
X35179Y40335D01*
X35101Y40279D01*
X35010Y40186D01*
X34913Y40100D01*
X34853Y40025D01*
X34787Y39957D01*
X34714Y39849D01*
X34633Y39747D01*
X34588Y39663D01*
X34535Y39584D01*
X34482Y39465D01*
X34421Y39350D01*
X34391Y39259D01*
X34352Y39172D01*
X34322Y39045D01*
X34281Y38922D01*
X34268Y38827D01*
X34246Y38734D01*
X34238Y38605D01*
X34220Y38476D01*
X34224Y38380D01*
X34218Y38285D01*
X34233Y38156D01*
X34238Y38026D01*
X34259Y37933D01*
X34270Y37838D01*
X34308Y37713D01*
X34336Y37586D01*
X34373Y37498D01*
X34400Y37407D01*
X34460Y37291D01*
X34510Y37171D01*
X34561Y37091D01*
X34605Y37005D01*
X34683Y36902D01*
X34754Y36793D01*
X34840Y36695D01*
X34877Y36647D01*
X34910Y36616D01*
X34961Y36558D01*
X35561Y35959D01*
X35561Y34289D01*
X25400Y34289D01*
X15239Y34289D01*
X15239Y35959D01*
X17080Y37799D01*
X17102Y37826D01*
X17128Y37849D01*
X17246Y37998D01*
X17369Y38145D01*
X17386Y38175D01*
X17407Y38202D01*
X17498Y38370D01*
X17592Y38536D01*
X17604Y38568D01*
X17620Y38599D01*
X17679Y38780D01*
X17743Y38960D01*
X17749Y38994D01*
X17759Y39027D01*
X17785Y39216D01*
X17816Y39404D01*
X17816Y39439D01*
X17821Y39473D01*
X17813Y39663D01*
X17810Y39854D01*
X17804Y39888D01*
X17802Y39923D01*
X17761Y40109D01*
X17725Y40296D01*
X17712Y40329D01*
X17705Y40362D01*
X17631Y40538D01*
X17562Y40716D01*
X17544Y40746D01*
X17531Y40778D01*
X17434Y40928D01*
X17416Y40963D01*
X17397Y40988D01*
X17328Y41101D01*
X17306Y41127D01*
X17287Y41156D01*
X17167Y41291D01*
X17144Y41322D01*
X17124Y41341D01*
X17080Y41390D01*
X15678Y42792D01*
X11042Y47428D01*
X9685Y48785D01*
X9143Y50093D01*
X9143Y349957D01*
X9685Y351265D01*
X11042Y352622D01*
X91878Y433458D01*
X93235Y434815D01*
X94543Y435357D01*
X254707Y435357D01*
X256015Y434815D01*
X261334Y429496D01*
X261460Y429391D01*
X261581Y429279D01*
X261632Y429247D01*
X261679Y429208D01*
X261822Y429126D01*
X261960Y429038D01*
X262017Y429014D01*
X262070Y428984D01*
X262225Y428929D01*
X262377Y428867D01*
X262437Y428854D01*
X262494Y428833D01*
X262656Y428807D01*
X262817Y428772D01*
X262894Y428767D01*
X262938Y428760D01*
X262999Y428761D01*
X263129Y428753D01*
X270698Y428753D01*
X276353Y423098D01*
X276353Y415102D01*
X270698Y409447D01*
X262702Y409447D01*
X257047Y415102D01*
X257047Y422671D01*
X257033Y422835D01*
X257026Y422999D01*
X257013Y423059D01*
X257007Y423119D01*
X256964Y423278D01*
X256928Y423439D01*
X256905Y423495D01*
X256889Y423554D01*
X256818Y423702D01*
X256755Y423854D01*
X256722Y423905D01*
X256695Y423960D01*
X256600Y424094D01*
X256511Y424232D01*
X256459Y424290D01*
X256433Y424327D01*
X256390Y424369D01*
X256304Y424466D01*
X255288Y425483D01*
X255188Y425566D01*
X255095Y425657D01*
X255015Y425710D01*
X254942Y425771D01*
X254829Y425836D01*
X254722Y425909D01*
X254634Y425947D01*
X254551Y425995D01*
X254429Y426038D01*
X254310Y426091D01*
X254217Y426114D01*
X254127Y426146D01*
X253999Y426167D01*
X253872Y426198D01*
X253777Y426203D01*
X253683Y426219D01*
X253553Y426217D01*
X253423Y426225D01*
X253328Y426214D01*
X253233Y426213D01*
X253105Y426188D01*
X252976Y426173D01*
X252884Y426146D01*
X252790Y426127D01*
X252669Y426081D01*
X252545Y426043D01*
X252459Y426000D01*
X252370Y425965D01*
X252259Y425898D01*
X252143Y425839D01*
X252067Y425781D01*
X251986Y425731D01*
X251888Y425645D01*
X251785Y425567D01*
X251720Y425496D01*
X251648Y425433D01*
X251568Y425331D01*
X251479Y425235D01*
X251428Y425155D01*
X251369Y425080D01*
X251307Y424965D01*
X251238Y424856D01*
X251201Y424767D01*
X251156Y424683D01*
X251116Y424560D01*
X251067Y424439D01*
X251047Y424346D01*
X251017Y424255D01*
X250999Y424126D01*
X250972Y423999D01*
X250964Y423869D01*
X250956Y423809D01*
X250957Y423764D01*
X250953Y423687D01*
X250953Y415102D01*
X245298Y409447D01*
X237302Y409447D01*
X231647Y415102D01*
X231647Y423098D01*
X232457Y423908D01*
X232541Y424008D01*
X232632Y424101D01*
X232685Y424181D01*
X232746Y424254D01*
X232811Y424367D01*
X232884Y424474D01*
X232922Y424562D01*
X232970Y424645D01*
X233013Y424767D01*
X233066Y424886D01*
X233089Y424979D01*
X233121Y425069D01*
X233142Y425197D01*
X233173Y425324D01*
X233178Y425419D01*
X233194Y425513D01*
X233192Y425643D01*
X233200Y425773D01*
X233189Y425868D01*
X233188Y425964D01*
X233163Y426091D01*
X233148Y426220D01*
X233121Y426312D01*
X233102Y426406D01*
X233056Y426527D01*
X233018Y426651D01*
X232974Y426737D01*
X232940Y426826D01*
X232873Y426937D01*
X232814Y427053D01*
X232756Y427129D01*
X232706Y427210D01*
X232620Y427308D01*
X232542Y427411D01*
X232471Y427476D01*
X232408Y427548D01*
X232306Y427628D01*
X232210Y427717D01*
X232130Y427768D01*
X232055Y427827D01*
X231940Y427889D01*
X231831Y427958D01*
X231742Y427995D01*
X231658Y428040D01*
X231534Y428080D01*
X231414Y428129D01*
X231321Y428149D01*
X231230Y428179D01*
X231101Y428197D01*
X230974Y428224D01*
X230844Y428232D01*
X230784Y428240D01*
X230739Y428239D01*
X230662Y428243D01*
X226538Y428243D01*
X226408Y428232D01*
X226278Y428230D01*
X226185Y428212D01*
X226090Y428203D01*
X225964Y428169D01*
X225836Y428144D01*
X225747Y428110D01*
X225655Y428085D01*
X225538Y428029D01*
X225416Y427982D01*
X225335Y427932D01*
X225249Y427891D01*
X225143Y427816D01*
X225032Y427748D01*
X224960Y427685D01*
X224882Y427629D01*
X224792Y427536D01*
X224694Y427450D01*
X224635Y427375D01*
X224568Y427307D01*
X224496Y427199D01*
X224415Y427097D01*
X224370Y427013D01*
X224316Y426934D01*
X224264Y426815D01*
X224202Y426700D01*
X224173Y426609D01*
X224134Y426522D01*
X224103Y426395D01*
X224063Y426272D01*
X224050Y426177D01*
X224027Y426084D01*
X224019Y425955D01*
X224002Y425826D01*
X224006Y425730D01*
X224000Y425635D01*
X224015Y425506D01*
X224020Y425376D01*
X224041Y425283D01*
X224052Y425188D01*
X224089Y425063D01*
X224118Y424936D01*
X224154Y424848D01*
X224182Y424757D01*
X224241Y424641D01*
X224291Y424521D01*
X224343Y424441D01*
X224386Y424355D01*
X224465Y424252D01*
X224536Y424143D01*
X224622Y424045D01*
X224658Y423997D01*
X224691Y423966D01*
X224743Y423908D01*
X225553Y423098D01*
X225553Y415102D01*
X219898Y409447D01*
X211902Y409447D01*
X206247Y415102D01*
X206247Y423098D01*
X207057Y423908D01*
X207141Y424008D01*
X207232Y424101D01*
X207285Y424181D01*
X207346Y424254D01*
X207411Y424367D01*
X207484Y424474D01*
X207522Y424562D01*
X207570Y424645D01*
X207613Y424767D01*
X207666Y424886D01*
X207689Y424979D01*
X207721Y425069D01*
X207742Y425197D01*
X207773Y425324D01*
X207778Y425419D01*
X207794Y425513D01*
X207792Y425643D01*
X207800Y425773D01*
X207789Y425868D01*
X207788Y425964D01*
X207763Y426091D01*
X207748Y426220D01*
X207721Y426312D01*
X207702Y426406D01*
X207656Y426527D01*
X207618Y426651D01*
X207574Y426737D01*
X207540Y426826D01*
X207473Y426937D01*
X207414Y427053D01*
X207356Y427129D01*
X207306Y427210D01*
X207220Y427308D01*
X207142Y427411D01*
X207071Y427476D01*
X207008Y427548D01*
X206906Y427628D01*
X206810Y427717D01*
X206730Y427768D01*
X206655Y427827D01*
X206540Y427889D01*
X206431Y427958D01*
X206342Y427995D01*
X206258Y428040D01*
X206134Y428080D01*
X206014Y428129D01*
X205921Y428149D01*
X205830Y428179D01*
X205701Y428197D01*
X205574Y428224D01*
X205444Y428232D01*
X205384Y428240D01*
X205339Y428239D01*
X205262Y428243D01*
X201138Y428243D01*
X201008Y428232D01*
X200878Y428230D01*
X200785Y428212D01*
X200690Y428203D01*
X200564Y428169D01*
X200436Y428144D01*
X200347Y428110D01*
X200255Y428085D01*
X200138Y428029D01*
X200016Y427982D01*
X199935Y427932D01*
X199849Y427891D01*
X199743Y427816D01*
X199632Y427748D01*
X199560Y427685D01*
X199482Y427629D01*
X199392Y427536D01*
X199294Y427450D01*
X199235Y427375D01*
X199168Y427307D01*
X199096Y427199D01*
X199015Y427097D01*
X198970Y427013D01*
X198916Y426934D01*
X198864Y426815D01*
X198802Y426700D01*
X198773Y426609D01*
X198734Y426522D01*
X198703Y426395D01*
X198663Y426272D01*
X198650Y426177D01*
X198627Y426084D01*
X198619Y425955D01*
X198602Y425826D01*
X198606Y425730D01*
X198600Y425635D01*
X198615Y425506D01*
X198620Y425376D01*
X198641Y425283D01*
X198652Y425188D01*
X198689Y425063D01*
X198718Y424936D01*
X198754Y424848D01*
X198782Y424757D01*
X198841Y424641D01*
X198891Y424521D01*
X198943Y424441D01*
X198986Y424355D01*
X199065Y424252D01*
X199136Y424143D01*
X199222Y424045D01*
X199258Y423997D01*
X199291Y423966D01*
X199343Y423908D01*
X200153Y423098D01*
X200153Y415102D01*
X194498Y409447D01*
X186502Y409447D01*
X180847Y415102D01*
X180847Y423098D01*
X181657Y423908D01*
X181741Y424008D01*
X181832Y424101D01*
X181885Y424181D01*
X181946Y424254D01*
X182011Y424367D01*
X182084Y424474D01*
X182122Y424562D01*
X182170Y424645D01*
X182213Y424767D01*
X182266Y424886D01*
X182289Y424979D01*
X182321Y425069D01*
X182342Y425197D01*
X182373Y425324D01*
X182378Y425419D01*
X182394Y425513D01*
X182392Y425643D01*
X182400Y425773D01*
X182389Y425868D01*
X182388Y425964D01*
X182363Y426091D01*
X182348Y426220D01*
X182321Y426312D01*
X182302Y426406D01*
X182256Y426527D01*
X182218Y426651D01*
X182174Y426737D01*
X182140Y426826D01*
X182073Y426937D01*
X182014Y427053D01*
X181956Y427129D01*
X181906Y427210D01*
X181820Y427308D01*
X181742Y427411D01*
X181671Y427476D01*
X181608Y427548D01*
X181506Y427628D01*
X181410Y427717D01*
X181330Y427768D01*
X181255Y427827D01*
X181140Y427889D01*
X181031Y427958D01*
X180942Y427995D01*
X180858Y428040D01*
X180734Y428080D01*
X180614Y428129D01*
X180521Y428149D01*
X180430Y428179D01*
X180301Y428197D01*
X180174Y428224D01*
X180044Y428232D01*
X179984Y428240D01*
X179939Y428239D01*
X179862Y428243D01*
X175738Y428243D01*
X175608Y428232D01*
X175478Y428230D01*
X175385Y428212D01*
X175290Y428203D01*
X175164Y428169D01*
X175036Y428144D01*
X174947Y428110D01*
X174855Y428085D01*
X174738Y428029D01*
X174616Y427982D01*
X174535Y427932D01*
X174449Y427891D01*
X174343Y427816D01*
X174232Y427748D01*
X174160Y427685D01*
X174082Y427629D01*
X173992Y427536D01*
X173894Y427450D01*
X173835Y427375D01*
X173768Y427307D01*
X173696Y427199D01*
X173615Y427097D01*
X173570Y427013D01*
X173516Y426934D01*
X173464Y426815D01*
X173402Y426700D01*
X173373Y426609D01*
X173334Y426522D01*
X173303Y426395D01*
X173263Y426272D01*
X173250Y426177D01*
X173227Y426084D01*
X173219Y425955D01*
X173202Y425826D01*
X173206Y425730D01*
X173200Y425635D01*
X173215Y425506D01*
X173220Y425376D01*
X173241Y425283D01*
X173252Y425188D01*
X173289Y425063D01*
X173318Y424936D01*
X173354Y424848D01*
X173382Y424757D01*
X173441Y424641D01*
X173491Y424521D01*
X173543Y424441D01*
X173586Y424355D01*
X173665Y424252D01*
X173736Y424143D01*
X173822Y424045D01*
X173858Y423997D01*
X173891Y423966D01*
X173943Y423908D01*
X174753Y423098D01*
X174753Y415102D01*
X169098Y409447D01*
X161102Y409447D01*
X155447Y415102D01*
X155447Y423098D01*
X156257Y423908D01*
X156341Y424008D01*
X156432Y424101D01*
X156485Y424181D01*
X156546Y424254D01*
X156611Y424367D01*
X156684Y424474D01*
X156722Y424562D01*
X156770Y424645D01*
X156813Y424767D01*
X156866Y424886D01*
X156889Y424979D01*
X156921Y425069D01*
X156942Y425197D01*
X156973Y425324D01*
X156978Y425419D01*
X156994Y425513D01*
X156992Y425643D01*
X157000Y425773D01*
X156989Y425868D01*
X156988Y425964D01*
X156963Y426091D01*
X156948Y426220D01*
X156921Y426312D01*
X156902Y426406D01*
X156856Y426527D01*
X156818Y426651D01*
X156774Y426737D01*
X156740Y426826D01*
X156673Y426937D01*
X156614Y427053D01*
X156556Y427129D01*
X156506Y427210D01*
X156420Y427308D01*
X156342Y427411D01*
X156271Y427476D01*
X156208Y427548D01*
X156106Y427628D01*
X156010Y427717D01*
X155930Y427768D01*
X155855Y427827D01*
X155740Y427889D01*
X155631Y427958D01*
X155542Y427995D01*
X155458Y428040D01*
X155334Y428080D01*
X155214Y428129D01*
X155121Y428149D01*
X155030Y428179D01*
X154901Y428197D01*
X154774Y428224D01*
X154644Y428232D01*
X154584Y428240D01*
X154539Y428239D01*
X154462Y428243D01*
X150338Y428243D01*
X150208Y428232D01*
X150078Y428230D01*
X149985Y428212D01*
X149890Y428203D01*
X149764Y428169D01*
X149636Y428144D01*
X149547Y428110D01*
X149455Y428085D01*
X149338Y428029D01*
X149216Y427982D01*
X149135Y427932D01*
X149049Y427891D01*
X148943Y427816D01*
X148832Y427748D01*
X148760Y427685D01*
X148682Y427629D01*
X148592Y427536D01*
X148494Y427450D01*
X148435Y427375D01*
X148368Y427307D01*
X148296Y427199D01*
X148215Y427097D01*
X148170Y427013D01*
X148116Y426934D01*
X148064Y426815D01*
X148002Y426700D01*
X147973Y426609D01*
X147934Y426522D01*
X147903Y426395D01*
X147863Y426272D01*
X147850Y426177D01*
X147827Y426084D01*
X147819Y425955D01*
X147802Y425826D01*
X147806Y425730D01*
X147800Y425635D01*
X147815Y425506D01*
X147820Y425376D01*
X147841Y425283D01*
X147852Y425188D01*
X147889Y425063D01*
X147918Y424936D01*
X147954Y424848D01*
X147982Y424757D01*
X148041Y424641D01*
X148091Y424521D01*
X148143Y424441D01*
X148186Y424355D01*
X148265Y424252D01*
X148336Y424143D01*
X148422Y424045D01*
X148458Y423997D01*
X148491Y423966D01*
X148543Y423908D01*
X149353Y423098D01*
X149353Y415102D01*
X143698Y409447D01*
X135702Y409447D01*
X134010Y411139D01*
X133983Y411161D01*
X133960Y411187D01*
X133811Y411305D01*
X133665Y411428D01*
X133634Y411445D01*
X133607Y411467D01*
X133440Y411557D01*
X133274Y411651D01*
X133241Y411663D01*
X133211Y411679D01*
X133029Y411738D01*
X132849Y411802D01*
X132815Y411808D01*
X132782Y411818D01*
X132593Y411844D01*
X132405Y411876D01*
X132371Y411875D01*
X132336Y411880D01*
X132145Y411872D01*
X131955Y411869D01*
X131921Y411863D01*
X131886Y411861D01*
X131700Y411820D01*
X131513Y411784D01*
X131481Y411771D01*
X131447Y411764D01*
X131270Y411690D01*
X131093Y411622D01*
X131063Y411604D01*
X131031Y411590D01*
X130871Y411487D01*
X130708Y411388D01*
X130682Y411365D01*
X130653Y411346D01*
X130419Y411139D01*
X124493Y405213D01*
X124471Y405186D01*
X124445Y405163D01*
X124327Y405015D01*
X124204Y404868D01*
X124187Y404837D01*
X124165Y404810D01*
X124075Y404642D01*
X123981Y404477D01*
X123969Y404444D01*
X123953Y404413D01*
X123894Y404232D01*
X123830Y404052D01*
X123824Y404018D01*
X123813Y403985D01*
X123788Y403797D01*
X123756Y403608D01*
X123757Y403573D01*
X123752Y403539D01*
X123760Y403349D01*
X123762Y403158D01*
X123769Y403124D01*
X123770Y403089D01*
X123812Y402903D01*
X123848Y402716D01*
X123860Y402683D01*
X123868Y402650D01*
X123942Y402474D01*
X123953Y402445D01*
X123953Y385238D01*
X122762Y384047D01*
X105838Y384047D01*
X104647Y385238D01*
X104647Y400758D01*
X104644Y400792D01*
X104646Y400827D01*
X104624Y401016D01*
X104607Y401206D01*
X104598Y401239D01*
X104594Y401274D01*
X104539Y401457D01*
X104489Y401640D01*
X104474Y401672D01*
X104464Y401705D01*
X104377Y401875D01*
X104295Y402047D01*
X104275Y402075D01*
X104260Y402106D01*
X104144Y402258D01*
X104033Y402413D01*
X104008Y402437D01*
X103988Y402465D01*
X103848Y402594D01*
X103711Y402727D01*
X103682Y402747D01*
X103656Y402770D01*
X103495Y402873D01*
X103338Y402979D01*
X103306Y402993D01*
X103277Y403012D01*
X103100Y403084D01*
X102926Y403162D01*
X102892Y403170D01*
X102860Y403183D01*
X102673Y403223D01*
X102488Y403268D01*
X102454Y403270D01*
X102420Y403278D01*
X102108Y403297D01*
X97605Y403297D01*
X97441Y403282D01*
X97277Y403276D01*
X97217Y403262D01*
X97156Y403257D01*
X96998Y403214D01*
X96837Y403178D01*
X96781Y403154D01*
X96722Y403138D01*
X96574Y403068D01*
X96422Y403004D01*
X96370Y402971D01*
X96315Y402945D01*
X96182Y402849D01*
X96044Y402760D01*
X95986Y402709D01*
X95949Y402683D01*
X95907Y402639D01*
X95809Y402553D01*
X42400Y349144D01*
X42295Y349018D01*
X42183Y348897D01*
X42151Y348846D01*
X42112Y348799D01*
X42030Y348656D01*
X41942Y348517D01*
X41918Y348461D01*
X41888Y348408D01*
X41833Y348253D01*
X41771Y348101D01*
X41758Y348041D01*
X41737Y347984D01*
X41711Y347821D01*
X41676Y347661D01*
X41671Y347584D01*
X41664Y347539D01*
X41665Y347478D01*
X41657Y347349D01*
X41657Y276155D01*
X41668Y276026D01*
X41670Y275896D01*
X41688Y275802D01*
X41697Y275707D01*
X41731Y275581D01*
X41756Y275453D01*
X41790Y275364D01*
X41815Y275272D01*
X41871Y275155D01*
X41918Y275033D01*
X41968Y274952D01*
X42009Y274866D01*
X42084Y274760D01*
X42152Y274649D01*
X42215Y274577D01*
X42271Y274500D01*
X42364Y274409D01*
X42450Y274311D01*
X42525Y274252D01*
X42593Y274186D01*
X42701Y274113D01*
X42803Y274032D01*
X42887Y273987D01*
X42966Y273933D01*
X43085Y273881D01*
X43200Y273819D01*
X43291Y273790D01*
X43378Y273751D01*
X43505Y273720D01*
X43628Y273680D01*
X43723Y273667D01*
X43816Y273645D01*
X43945Y273637D01*
X44074Y273619D01*
X44170Y273623D01*
X44265Y273617D01*
X44394Y273632D01*
X44524Y273637D01*
X44617Y273658D01*
X44712Y273669D01*
X44837Y273707D01*
X44964Y273735D01*
X45052Y273772D01*
X45143Y273799D01*
X45259Y273858D01*
X45379Y273909D01*
X45459Y273960D01*
X45545Y274004D01*
X45648Y274082D01*
X45757Y274153D01*
X45855Y274239D01*
X45899Y274272D01*
X49082Y275591D01*
X52518Y275591D01*
X55692Y274276D01*
X58122Y271846D01*
X59437Y268672D01*
X59437Y267462D01*
X59440Y267427D01*
X59438Y267393D01*
X59460Y267204D01*
X59477Y267013D01*
X59486Y266980D01*
X59490Y266946D01*
X59545Y266763D01*
X59595Y266579D01*
X59610Y266548D01*
X59620Y266515D01*
X59707Y266344D01*
X59789Y266172D01*
X59809Y266144D01*
X59824Y266113D01*
X59940Y265961D01*
X60051Y265806D01*
X60076Y265782D01*
X60096Y265755D01*
X60236Y265626D01*
X60373Y265492D01*
X60402Y265473D01*
X60428Y265449D01*
X60589Y265347D01*
X60746Y265240D01*
X60778Y265226D01*
X60807Y265208D01*
X60984Y265135D01*
X61158Y265058D01*
X61192Y265050D01*
X61224Y265037D01*
X61411Y264997D01*
X61596Y264951D01*
X61630Y264949D01*
X61664Y264942D01*
X61976Y264923D01*
X65024Y264923D01*
X65059Y264926D01*
X65093Y264924D01*
X65282Y264946D01*
X65473Y264963D01*
X65506Y264972D01*
X65540Y264976D01*
X65723Y265031D01*
X65907Y265081D01*
X65938Y265096D01*
X65971Y265106D01*
X66142Y265193D01*
X66314Y265275D01*
X66342Y265295D01*
X66373Y265310D01*
X66525Y265426D01*
X66680Y265537D01*
X66704Y265562D01*
X66731Y265582D01*
X66860Y265722D01*
X66994Y265859D01*
X67013Y265888D01*
X67037Y265914D01*
X67139Y266075D01*
X67246Y266232D01*
X67260Y266264D01*
X67278Y266293D01*
X67351Y266470D01*
X67428Y266644D01*
X67436Y266678D01*
X67449Y266710D01*
X67489Y266897D01*
X67535Y267082D01*
X67537Y267116D01*
X67544Y267150D01*
X67563Y267462D01*
X67563Y268672D01*
X68878Y271846D01*
X71308Y274276D01*
X74482Y275591D01*
X77918Y275591D01*
X81340Y274173D01*
X81544Y274109D01*
X81744Y274044D01*
X81757Y274043D01*
X81769Y274039D01*
X81981Y274012D01*
X82190Y273983D01*
X82203Y273984D01*
X82216Y273982D01*
X82427Y273993D01*
X82640Y274001D01*
X82653Y274004D01*
X82666Y274005D01*
X82871Y274053D01*
X83079Y274099D01*
X83091Y274104D01*
X83104Y274107D01*
X83300Y274191D01*
X83495Y274273D01*
X83506Y274280D01*
X83518Y274285D01*
X83695Y274402D01*
X83873Y274517D01*
X83885Y274527D01*
X83894Y274533D01*
X83922Y274560D01*
X84107Y274724D01*
X92660Y283277D01*
X94340Y283973D01*
X327254Y283973D01*
X327418Y283987D01*
X327582Y283994D01*
X327642Y284007D01*
X327703Y284013D01*
X327861Y284056D01*
X328022Y284092D01*
X328078Y284115D01*
X328137Y284131D01*
X328285Y284202D01*
X328437Y284265D01*
X328489Y284298D01*
X328544Y284325D01*
X328677Y284420D01*
X328816Y284510D01*
X328873Y284561D01*
X328910Y284587D01*
X328952Y284630D01*
X329050Y284716D01*
X339870Y295536D01*
X339975Y295663D01*
X340087Y295783D01*
X340119Y295835D01*
X340158Y295882D01*
X340240Y296024D01*
X340328Y296163D01*
X340352Y296220D01*
X340382Y296273D01*
X340437Y296428D01*
X340499Y296580D01*
X340512Y296639D01*
X340533Y296697D01*
X340559Y296859D01*
X340594Y297020D01*
X340599Y297097D01*
X340606Y297141D01*
X340605Y297202D01*
X340613Y297332D01*
X340613Y299568D01*
X340599Y299732D01*
X340592Y299896D01*
X340579Y299956D01*
X340573Y300017D01*
X340530Y300175D01*
X340494Y300336D01*
X340471Y300392D01*
X340455Y300451D01*
X340384Y300599D01*
X340321Y300751D01*
X340288Y300803D01*
X340261Y300858D01*
X340166Y300991D01*
X340076Y301130D01*
X340025Y301187D01*
X339999Y301224D01*
X339956Y301266D01*
X339870Y301364D01*
X326323Y314910D01*
X325627Y316590D01*
X325627Y382046D01*
X325616Y382176D01*
X325614Y382306D01*
X325596Y382399D01*
X325587Y382494D01*
X325553Y382620D01*
X325528Y382748D01*
X325494Y382837D01*
X325469Y382929D01*
X325413Y383046D01*
X325366Y383168D01*
X325316Y383249D01*
X325275Y383335D01*
X325200Y383441D01*
X325132Y383552D01*
X325069Y383624D01*
X325013Y383702D01*
X324920Y383792D01*
X324834Y383890D01*
X324759Y383949D01*
X324691Y384016D01*
X324583Y384088D01*
X324481Y384169D01*
X324397Y384214D01*
X324318Y384268D01*
X324199Y384320D01*
X324084Y384382D01*
X323993Y384411D01*
X323906Y384450D01*
X323779Y384481D01*
X323656Y384521D01*
X323561Y384534D01*
X323468Y384557D01*
X323339Y384565D01*
X323210Y384582D01*
X323114Y384578D01*
X323019Y384584D01*
X322890Y384569D01*
X322760Y384564D01*
X322667Y384543D01*
X322572Y384532D01*
X322447Y384495D01*
X322320Y384466D01*
X322232Y384430D01*
X322141Y384402D01*
X322025Y384343D01*
X321905Y384293D01*
X321825Y384241D01*
X321739Y384198D01*
X321636Y384119D01*
X321527Y384048D01*
X321525Y384047D01*
X313502Y384047D01*
X307847Y389702D01*
X307847Y397698D01*
X313502Y403353D01*
X321532Y403353D01*
X321565Y403331D01*
X321638Y403270D01*
X321751Y403205D01*
X321858Y403132D01*
X321946Y403094D01*
X322029Y403046D01*
X322151Y403003D01*
X322270Y402950D01*
X322363Y402927D01*
X322453Y402895D01*
X322581Y402874D01*
X322708Y402843D01*
X322803Y402838D01*
X322897Y402822D01*
X323027Y402824D01*
X323157Y402816D01*
X323252Y402827D01*
X323347Y402828D01*
X323475Y402853D01*
X323604Y402868D01*
X323696Y402895D01*
X323790Y402914D01*
X323911Y402960D01*
X324035Y402998D01*
X324120Y403041D01*
X324210Y403076D01*
X324321Y403143D01*
X324437Y403202D01*
X324513Y403260D01*
X324594Y403310D01*
X324692Y403396D01*
X324795Y403474D01*
X324860Y403545D01*
X324932Y403608D01*
X325012Y403710D01*
X325101Y403806D01*
X325152Y403886D01*
X325211Y403961D01*
X325272Y404076D01*
X325342Y404185D01*
X325379Y404274D01*
X325424Y404358D01*
X325464Y404482D01*
X325513Y404602D01*
X325533Y404695D01*
X325563Y404786D01*
X325581Y404915D01*
X325608Y405042D01*
X325616Y405172D01*
X325624Y405232D01*
X325623Y405277D01*
X325627Y405354D01*
X325627Y407446D01*
X325616Y407576D01*
X325614Y407706D01*
X325596Y407799D01*
X325587Y407894D01*
X325553Y408020D01*
X325528Y408148D01*
X325494Y408237D01*
X325469Y408329D01*
X325413Y408446D01*
X325366Y408568D01*
X325316Y408649D01*
X325275Y408735D01*
X325200Y408841D01*
X325132Y408952D01*
X325069Y409024D01*
X325013Y409102D01*
X324920Y409192D01*
X324834Y409290D01*
X324759Y409349D01*
X324691Y409416D01*
X324583Y409488D01*
X324481Y409569D01*
X324397Y409614D01*
X324318Y409668D01*
X324199Y409720D01*
X324084Y409782D01*
X323993Y409811D01*
X323906Y409850D01*
X323779Y409881D01*
X323656Y409921D01*
X323561Y409934D01*
X323468Y409957D01*
X323339Y409965D01*
X323210Y409982D01*
X323114Y409978D01*
X323019Y409984D01*
X322890Y409969D01*
X322760Y409964D01*
X322667Y409943D01*
X322572Y409932D01*
X322447Y409895D01*
X322320Y409866D01*
X322232Y409830D01*
X322141Y409802D01*
X322025Y409743D01*
X321905Y409693D01*
X321825Y409641D01*
X321739Y409598D01*
X321636Y409519D01*
X321527Y409448D01*
X321525Y409447D01*
X313502Y409447D01*
X307847Y415102D01*
X307847Y423098D01*
X313502Y428753D01*
X321498Y428753D01*
X322472Y427779D01*
X322498Y427757D01*
X322521Y427731D01*
X322671Y427613D01*
X322817Y427491D01*
X322847Y427473D01*
X322874Y427452D01*
X323042Y427362D01*
X323208Y427267D01*
X323241Y427256D01*
X323271Y427239D01*
X323452Y427180D01*
X323632Y427116D01*
X323666Y427111D01*
X323699Y427100D01*
X323888Y427074D01*
X324076Y427043D01*
X324111Y427043D01*
X324145Y427039D01*
X324336Y427046D01*
X324527Y427049D01*
X324561Y427056D01*
X324595Y427057D01*
X324781Y427098D01*
X324969Y427135D01*
X325001Y427147D01*
X325035Y427155D01*
X325210Y427228D01*
X325389Y427297D01*
X325418Y427315D01*
X325450Y427328D01*
X325610Y427432D01*
X325773Y427531D01*
X325799Y427554D01*
X325829Y427572D01*
X326063Y427779D01*
X327967Y429683D01*
X327967Y429684D01*
X333960Y435677D01*
X335640Y436373D01*
X400960Y436373D01*
X402640Y435677D01*
X408633Y429684D01*
X410537Y427779D01*
X410564Y427757D01*
X410587Y427731D01*
X410736Y427613D01*
X410883Y427491D01*
X410913Y427473D01*
X410940Y427452D01*
X411108Y427362D01*
X411274Y427267D01*
X411306Y427256D01*
X411337Y427239D01*
X411518Y427180D01*
X411698Y427116D01*
X411732Y427111D01*
X411765Y427100D01*
X411954Y427074D01*
X412142Y427043D01*
X412177Y427043D01*
X412211Y427039D01*
X412402Y427046D01*
X412592Y427049D01*
X412626Y427056D01*
X412661Y427057D01*
X412847Y427098D01*
X413034Y427135D01*
X413067Y427147D01*
X413101Y427155D01*
X413277Y427228D01*
X413454Y427297D01*
X413484Y427315D01*
X413516Y427328D01*
X413677Y427432D01*
X413839Y427531D01*
X413865Y427554D01*
X413894Y427572D01*
X414128Y427779D01*
X415102Y428753D01*
X422671Y428753D01*
X422835Y428767D01*
X422999Y428774D01*
X423059Y428787D01*
X423119Y428793D01*
X423278Y428836D01*
X423439Y428872D01*
X423495Y428895D01*
X423554Y428911D01*
X423702Y428982D01*
X423854Y429045D01*
X423906Y429078D01*
X423960Y429105D01*
X424094Y429200D01*
X424232Y429290D01*
X424290Y429341D01*
X424327Y429367D01*
X424369Y429410D01*
X424466Y429496D01*
X429785Y434815D01*
X431093Y435357D01*
X527757Y435357D01*
X529065Y434815D01*
X631665Y332215D01*
X632207Y330907D01*
X632207Y314626D01*
X632226Y314414D01*
X632242Y314203D01*
X632245Y314191D01*
X632247Y314177D01*
X632303Y313972D01*
X632356Y313768D01*
X632362Y313756D01*
X632365Y313743D01*
X632456Y313552D01*
X632545Y313359D01*
X632553Y313348D01*
X632559Y313336D01*
X632682Y313164D01*
X632804Y312990D01*
X632813Y312981D01*
X632821Y312970D01*
X632973Y312822D01*
X633123Y312673D01*
X633134Y312665D01*
X633143Y312656D01*
X633320Y312537D01*
X633493Y312417D01*
X633508Y312410D01*
X633509Y312409D01*
X635972Y309946D01*
X637287Y306772D01*
X637287Y290128D01*
X635972Y286954D01*
X633542Y284524D01*
X630368Y283209D01*
X626932Y283209D01*
X623758Y284524D01*
X621328Y286954D01*
X620013Y290128D01*
X620013Y306772D01*
X621328Y309946D01*
X623808Y312426D01*
X623903Y312474D01*
X623913Y312482D01*
X623925Y312488D01*
X624093Y312618D01*
X624261Y312746D01*
X624270Y312756D01*
X624281Y312764D01*
X624423Y312921D01*
X624567Y313077D01*
X624574Y313088D01*
X624582Y313098D01*
X624695Y313278D01*
X624808Y313457D01*
X624813Y313469D01*
X624820Y313481D01*
X624899Y313677D01*
X624979Y313874D01*
X624982Y313887D01*
X624987Y313899D01*
X625029Y314106D01*
X625074Y314314D01*
X625075Y314330D01*
X625077Y314340D01*
X625078Y314379D01*
X625093Y314626D01*
X625093Y327675D01*
X625079Y327839D01*
X625072Y328003D01*
X625059Y328063D01*
X625053Y328123D01*
X625010Y328282D01*
X624974Y328443D01*
X624951Y328499D01*
X624935Y328558D01*
X624864Y328706D01*
X624801Y328858D01*
X624768Y328910D01*
X624741Y328964D01*
X624646Y329098D01*
X624556Y329236D01*
X624505Y329294D01*
X624479Y329331D01*
X624436Y329373D01*
X624350Y329470D01*
X535196Y418625D01*
X535096Y418708D01*
X535003Y418799D01*
X534923Y418852D01*
X534850Y418913D01*
X534737Y418978D01*
X534630Y419051D01*
X534542Y419089D01*
X534459Y419137D01*
X534337Y419180D01*
X534218Y419233D01*
X534125Y419256D01*
X534035Y419288D01*
X533906Y419309D01*
X533780Y419340D01*
X533685Y419345D01*
X533591Y419361D01*
X533460Y419359D01*
X533331Y419367D01*
X533236Y419356D01*
X533140Y419355D01*
X533013Y419330D01*
X532884Y419315D01*
X532792Y419288D01*
X532698Y419269D01*
X532577Y419223D01*
X532453Y419185D01*
X532368Y419142D01*
X532278Y419107D01*
X532167Y419040D01*
X532051Y418981D01*
X531975Y418923D01*
X531894Y418873D01*
X531796Y418787D01*
X531693Y418709D01*
X531628Y418638D01*
X531556Y418575D01*
X531476Y418473D01*
X531387Y418377D01*
X531336Y418297D01*
X531277Y418222D01*
X531216Y418108D01*
X531146Y417998D01*
X531109Y417909D01*
X531064Y417825D01*
X531024Y417701D01*
X530975Y417581D01*
X530955Y417488D01*
X530925Y417397D01*
X530907Y417268D01*
X530880Y417141D01*
X530872Y417011D01*
X530864Y416951D01*
X530865Y416906D01*
X530861Y416829D01*
X530861Y414891D01*
X529020Y413051D01*
X528998Y413024D01*
X528972Y413001D01*
X528854Y412852D01*
X528731Y412705D01*
X528714Y412675D01*
X528693Y412648D01*
X528603Y412480D01*
X528508Y412315D01*
X528496Y412282D01*
X528480Y412251D01*
X528421Y412070D01*
X528357Y411890D01*
X528351Y411856D01*
X528341Y411823D01*
X528315Y411634D01*
X528284Y411446D01*
X528284Y411412D01*
X528279Y411377D01*
X528287Y411186D01*
X528290Y410996D01*
X528296Y410962D01*
X528298Y410927D01*
X528339Y410741D01*
X528375Y410554D01*
X528388Y410521D01*
X528395Y410488D01*
X528469Y410311D01*
X528538Y410134D01*
X528556Y410104D01*
X528569Y410072D01*
X528673Y409911D01*
X528772Y409749D01*
X528794Y409723D01*
X528813Y409694D01*
X529020Y409460D01*
X606265Y332215D01*
X606807Y330907D01*
X606807Y314626D01*
X606826Y314414D01*
X606842Y314203D01*
X606845Y314191D01*
X606847Y314177D01*
X606903Y313972D01*
X606956Y313768D01*
X606962Y313756D01*
X606965Y313743D01*
X607056Y313552D01*
X607145Y313359D01*
X607153Y313348D01*
X607159Y313336D01*
X607282Y313164D01*
X607404Y312990D01*
X607413Y312981D01*
X607421Y312970D01*
X607573Y312822D01*
X607723Y312673D01*
X607734Y312665D01*
X607743Y312656D01*
X607920Y312537D01*
X608093Y312417D01*
X608108Y312410D01*
X608109Y312409D01*
X610572Y309946D01*
X611887Y306772D01*
X611887Y290128D01*
X610572Y286954D01*
X608142Y284524D01*
X604968Y283209D01*
X601532Y283209D01*
X598358Y284524D01*
X595928Y286954D01*
X594613Y290128D01*
X594613Y306772D01*
X595928Y309946D01*
X598408Y312426D01*
X598503Y312474D01*
X598513Y312482D01*
X598525Y312488D01*
X598693Y312618D01*
X598861Y312746D01*
X598870Y312756D01*
X598881Y312764D01*
X599023Y312921D01*
X599167Y313077D01*
X599174Y313088D01*
X599182Y313098D01*
X599295Y313278D01*
X599408Y313457D01*
X599413Y313469D01*
X599420Y313481D01*
X599499Y313677D01*
X599579Y313874D01*
X599582Y313887D01*
X599587Y313899D01*
X599629Y314106D01*
X599674Y314314D01*
X599675Y314330D01*
X599677Y314340D01*
X599678Y314379D01*
X599693Y314626D01*
X599693Y327675D01*
X599679Y327839D01*
X599672Y328003D01*
X599659Y328063D01*
X599653Y328123D01*
X599610Y328282D01*
X599574Y328443D01*
X599551Y328499D01*
X599535Y328558D01*
X599464Y328706D01*
X599401Y328858D01*
X599368Y328910D01*
X599341Y328964D01*
X599246Y329098D01*
X599156Y329236D01*
X599105Y329294D01*
X599079Y329331D01*
X599036Y329373D01*
X598950Y329470D01*
X534688Y393733D01*
X534588Y393816D01*
X534495Y393907D01*
X534415Y393960D01*
X534342Y394021D01*
X534229Y394086D01*
X534122Y394159D01*
X534034Y394197D01*
X533951Y394245D01*
X533829Y394288D01*
X533710Y394341D01*
X533617Y394364D01*
X533527Y394396D01*
X533398Y394417D01*
X533272Y394448D01*
X533177Y394453D01*
X533083Y394469D01*
X532952Y394467D01*
X532823Y394475D01*
X532728Y394464D01*
X532632Y394463D01*
X532505Y394438D01*
X532376Y394423D01*
X532284Y394396D01*
X532190Y394377D01*
X532069Y394331D01*
X531945Y394293D01*
X531860Y394250D01*
X531770Y394215D01*
X531659Y394148D01*
X531543Y394089D01*
X531467Y394031D01*
X531386Y393981D01*
X531288Y393895D01*
X531185Y393817D01*
X531120Y393746D01*
X531048Y393683D01*
X530968Y393581D01*
X530879Y393485D01*
X530828Y393405D01*
X530769Y393330D01*
X530708Y393216D01*
X530638Y393106D01*
X530601Y393017D01*
X530556Y392933D01*
X530516Y392809D01*
X530467Y392689D01*
X530447Y392596D01*
X530417Y392505D01*
X530399Y392376D01*
X530372Y392249D01*
X530364Y392119D01*
X530356Y392059D01*
X530357Y392014D01*
X530353Y391937D01*
X530353Y389702D01*
X524698Y384047D01*
X516702Y384047D01*
X511047Y389702D01*
X511047Y397698D01*
X511857Y398508D01*
X511941Y398608D01*
X512032Y398701D01*
X512085Y398781D01*
X512146Y398854D01*
X512211Y398967D01*
X512284Y399074D01*
X512322Y399162D01*
X512370Y399245D01*
X512413Y399367D01*
X512466Y399486D01*
X512489Y399579D01*
X512521Y399669D01*
X512542Y399797D01*
X512573Y399924D01*
X512578Y400019D01*
X512594Y400113D01*
X512592Y400243D01*
X512600Y400373D01*
X512589Y400468D01*
X512588Y400564D01*
X512563Y400691D01*
X512548Y400820D01*
X512521Y400912D01*
X512502Y401006D01*
X512456Y401127D01*
X512418Y401251D01*
X512374Y401337D01*
X512340Y401426D01*
X512273Y401537D01*
X512214Y401653D01*
X512156Y401729D01*
X512106Y401810D01*
X512020Y401908D01*
X511942Y402011D01*
X511871Y402076D01*
X511808Y402148D01*
X511706Y402228D01*
X511610Y402317D01*
X511530Y402368D01*
X511455Y402427D01*
X511340Y402489D01*
X511231Y402558D01*
X511142Y402595D01*
X511058Y402640D01*
X510934Y402680D01*
X510814Y402729D01*
X510721Y402749D01*
X510630Y402779D01*
X510501Y402797D01*
X510374Y402824D01*
X510244Y402832D01*
X510184Y402840D01*
X510139Y402839D01*
X510062Y402843D01*
X505938Y402843D01*
X505808Y402832D01*
X505678Y402830D01*
X505585Y402812D01*
X505490Y402803D01*
X505364Y402769D01*
X505236Y402744D01*
X505147Y402710D01*
X505055Y402685D01*
X504938Y402629D01*
X504816Y402582D01*
X504735Y402532D01*
X504649Y402491D01*
X504543Y402416D01*
X504432Y402348D01*
X504360Y402285D01*
X504282Y402229D01*
X504192Y402136D01*
X504094Y402050D01*
X504035Y401975D01*
X503968Y401907D01*
X503896Y401799D01*
X503815Y401697D01*
X503770Y401613D01*
X503716Y401534D01*
X503664Y401415D01*
X503602Y401300D01*
X503573Y401209D01*
X503534Y401122D01*
X503503Y400995D01*
X503463Y400872D01*
X503450Y400777D01*
X503427Y400684D01*
X503419Y400555D01*
X503402Y400426D01*
X503406Y400330D01*
X503400Y400235D01*
X503415Y400106D01*
X503420Y399976D01*
X503441Y399883D01*
X503452Y399788D01*
X503489Y399663D01*
X503518Y399536D01*
X503554Y399448D01*
X503582Y399357D01*
X503641Y399240D01*
X503691Y399121D01*
X503743Y399041D01*
X503786Y398955D01*
X503865Y398852D01*
X503936Y398743D01*
X504022Y398645D01*
X504058Y398597D01*
X504091Y398566D01*
X504143Y398508D01*
X504953Y397698D01*
X504953Y389702D01*
X499298Y384047D01*
X493166Y384047D01*
X493002Y384033D01*
X492838Y384026D01*
X492778Y384013D01*
X492717Y384007D01*
X492559Y383964D01*
X492398Y383928D01*
X492342Y383905D01*
X492283Y383889D01*
X492135Y383818D01*
X491983Y383755D01*
X491931Y383722D01*
X491876Y383695D01*
X491743Y383600D01*
X491604Y383510D01*
X491547Y383459D01*
X491510Y383433D01*
X491468Y383390D01*
X491370Y383304D01*
X486834Y378767D01*
X485190Y377123D01*
X483510Y376427D01*
X411840Y376427D01*
X410160Y377123D01*
X404167Y383116D01*
X402263Y385021D01*
X402236Y385043D01*
X402213Y385069D01*
X402064Y385187D01*
X401917Y385309D01*
X401887Y385327D01*
X401860Y385348D01*
X401692Y385438D01*
X401526Y385533D01*
X401494Y385544D01*
X401463Y385561D01*
X401282Y385620D01*
X401102Y385684D01*
X401068Y385689D01*
X401035Y385700D01*
X400846Y385726D01*
X400658Y385757D01*
X400623Y385757D01*
X400589Y385761D01*
X400398Y385754D01*
X400208Y385751D01*
X400174Y385744D01*
X400139Y385743D01*
X399953Y385702D01*
X399766Y385665D01*
X399733Y385653D01*
X399699Y385645D01*
X399523Y385572D01*
X399346Y385503D01*
X399316Y385485D01*
X399284Y385472D01*
X399123Y385368D01*
X398961Y385269D01*
X398935Y385246D01*
X398906Y385228D01*
X398672Y385021D01*
X397698Y384047D01*
X389702Y384047D01*
X388892Y384857D01*
X388792Y384941D01*
X388699Y385032D01*
X388619Y385085D01*
X388546Y385146D01*
X388433Y385211D01*
X388326Y385284D01*
X388238Y385322D01*
X388155Y385370D01*
X388033Y385413D01*
X387914Y385466D01*
X387821Y385489D01*
X387731Y385521D01*
X387603Y385542D01*
X387476Y385573D01*
X387381Y385578D01*
X387287Y385594D01*
X387157Y385592D01*
X387027Y385600D01*
X386932Y385589D01*
X386836Y385588D01*
X386709Y385563D01*
X386580Y385548D01*
X386488Y385521D01*
X386394Y385502D01*
X386273Y385456D01*
X386149Y385418D01*
X386063Y385374D01*
X385974Y385340D01*
X385863Y385273D01*
X385747Y385214D01*
X385671Y385156D01*
X385590Y385106D01*
X385492Y385020D01*
X385389Y384942D01*
X385324Y384871D01*
X385252Y384808D01*
X385172Y384706D01*
X385083Y384610D01*
X385032Y384530D01*
X384973Y384455D01*
X384911Y384340D01*
X384842Y384231D01*
X384805Y384142D01*
X384760Y384058D01*
X384720Y383934D01*
X384671Y383814D01*
X384651Y383721D01*
X384621Y383630D01*
X384603Y383501D01*
X384576Y383374D01*
X384568Y383244D01*
X384560Y383184D01*
X384561Y383139D01*
X384557Y383062D01*
X384557Y358125D01*
X384571Y357961D01*
X384578Y357797D01*
X384591Y357737D01*
X384597Y357677D01*
X384640Y357518D01*
X384676Y357357D01*
X384699Y357301D01*
X384715Y357242D01*
X384786Y357094D01*
X384849Y356942D01*
X384882Y356890D01*
X384909Y356836D01*
X385004Y356702D01*
X385094Y356564D01*
X385145Y356506D01*
X385171Y356469D01*
X385214Y356427D01*
X385300Y356330D01*
X400780Y340850D01*
X400906Y340745D01*
X401027Y340633D01*
X401078Y340601D01*
X401125Y340562D01*
X401268Y340480D01*
X401406Y340392D01*
X401463Y340368D01*
X401516Y340338D01*
X401671Y340283D01*
X401823Y340221D01*
X401883Y340208D01*
X401940Y340187D01*
X402102Y340161D01*
X402263Y340126D01*
X402340Y340121D01*
X402384Y340114D01*
X402445Y340115D01*
X402575Y340107D01*
X438857Y340107D01*
X440165Y339565D01*
X467560Y312170D01*
X467587Y312147D01*
X467610Y312121D01*
X467759Y312003D01*
X467906Y311881D01*
X467936Y311863D01*
X467963Y311842D01*
X468131Y311752D01*
X468297Y311657D01*
X468329Y311646D01*
X468360Y311629D01*
X468541Y311570D01*
X468721Y311507D01*
X468755Y311501D01*
X468788Y311490D01*
X468977Y311464D01*
X469165Y311433D01*
X469200Y311433D01*
X469234Y311429D01*
X469424Y311437D01*
X469615Y311439D01*
X469650Y311446D01*
X469684Y311447D01*
X469870Y311488D01*
X470057Y311525D01*
X470090Y311537D01*
X470124Y311545D01*
X470300Y311618D01*
X470477Y311687D01*
X470507Y311705D01*
X470539Y311718D01*
X470700Y311822D01*
X470862Y311921D01*
X470888Y311944D01*
X470917Y311963D01*
X471151Y312170D01*
X471358Y312376D01*
X474532Y313691D01*
X477968Y313691D01*
X481142Y312376D01*
X483572Y309946D01*
X484887Y306772D01*
X484887Y292847D01*
X484898Y292718D01*
X484900Y292587D01*
X484918Y292494D01*
X484927Y292398D01*
X484961Y292273D01*
X484986Y292145D01*
X485020Y292056D01*
X485045Y291964D01*
X485101Y291847D01*
X485148Y291725D01*
X485198Y291644D01*
X485239Y291557D01*
X485314Y291452D01*
X485382Y291341D01*
X485445Y291269D01*
X485501Y291191D01*
X485594Y291101D01*
X485680Y291003D01*
X485755Y290944D01*
X485823Y290877D01*
X485931Y290804D01*
X486033Y290724D01*
X486117Y290679D01*
X486196Y290625D01*
X486315Y290573D01*
X486430Y290511D01*
X486521Y290482D01*
X486608Y290443D01*
X486735Y290412D01*
X486858Y290372D01*
X486953Y290359D01*
X487046Y290336D01*
X487175Y290328D01*
X487304Y290311D01*
X487400Y290315D01*
X487495Y290309D01*
X487624Y290324D01*
X487754Y290329D01*
X487847Y290350D01*
X487942Y290361D01*
X488067Y290398D01*
X488194Y290427D01*
X488282Y290463D01*
X488373Y290491D01*
X488489Y290550D01*
X488609Y290600D01*
X488690Y290652D01*
X488775Y290695D01*
X488878Y290774D01*
X488987Y290845D01*
X489085Y290931D01*
X489133Y290967D01*
X489164Y291000D01*
X489222Y291051D01*
X492270Y294099D01*
X492375Y294226D01*
X492487Y294347D01*
X492519Y294398D01*
X492558Y294445D01*
X492640Y294588D01*
X492728Y294726D01*
X492752Y294783D01*
X492782Y294836D01*
X492837Y294991D01*
X492899Y295143D01*
X492912Y295203D01*
X492933Y295260D01*
X492959Y295422D01*
X492994Y295583D01*
X492999Y295660D01*
X493006Y295704D01*
X493005Y295765D01*
X493013Y295895D01*
X493013Y306772D01*
X494328Y309946D01*
X496758Y312376D01*
X499932Y313691D01*
X503368Y313691D01*
X506542Y312376D01*
X508972Y309946D01*
X510287Y306772D01*
X510287Y290128D01*
X508972Y286954D01*
X506542Y284524D01*
X503368Y283209D01*
X499932Y283209D01*
X496758Y284524D01*
X496551Y284730D01*
X496525Y284753D01*
X496502Y284779D01*
X496353Y284897D01*
X496206Y285019D01*
X496176Y285036D01*
X496149Y285058D01*
X495981Y285148D01*
X495815Y285243D01*
X495783Y285254D01*
X495752Y285271D01*
X495570Y285330D01*
X495391Y285393D01*
X495357Y285399D01*
X495324Y285410D01*
X495135Y285436D01*
X494947Y285467D01*
X494912Y285466D01*
X494878Y285471D01*
X494687Y285463D01*
X494496Y285461D01*
X494462Y285454D01*
X494428Y285453D01*
X494242Y285412D01*
X494054Y285375D01*
X494022Y285363D01*
X493988Y285355D01*
X493813Y285282D01*
X493634Y285213D01*
X493605Y285195D01*
X493573Y285182D01*
X493413Y285078D01*
X493250Y284979D01*
X493224Y284956D01*
X493195Y284937D01*
X492960Y284730D01*
X484615Y276385D01*
X483307Y275843D01*
X469193Y275843D01*
X467885Y276385D01*
X466528Y277742D01*
X459540Y284730D01*
X459513Y284753D01*
X459490Y284779D01*
X459340Y284897D01*
X459194Y285019D01*
X459164Y285036D01*
X459137Y285058D01*
X458969Y285148D01*
X458803Y285243D01*
X458771Y285254D01*
X458740Y285271D01*
X458559Y285330D01*
X458379Y285393D01*
X458345Y285399D01*
X458312Y285410D01*
X458123Y285436D01*
X457935Y285467D01*
X457900Y285466D01*
X457866Y285471D01*
X457675Y285463D01*
X457485Y285461D01*
X457450Y285454D01*
X457416Y285453D01*
X457230Y285412D01*
X457043Y285375D01*
X457010Y285363D01*
X456976Y285355D01*
X456800Y285282D01*
X456623Y285213D01*
X456593Y285195D01*
X456561Y285182D01*
X456400Y285078D01*
X456238Y284979D01*
X456212Y284956D01*
X456183Y284937D01*
X455949Y284730D01*
X455742Y284524D01*
X452568Y283209D01*
X449132Y283209D01*
X445958Y284524D01*
X443528Y286954D01*
X442213Y290128D01*
X442213Y301005D01*
X442199Y301169D01*
X442192Y301333D01*
X442179Y301393D01*
X442173Y301453D01*
X442130Y301612D01*
X442094Y301773D01*
X442071Y301829D01*
X442055Y301888D01*
X441984Y302036D01*
X441921Y302188D01*
X441888Y302240D01*
X441861Y302294D01*
X441766Y302428D01*
X441676Y302566D01*
X441625Y302624D01*
X441599Y302661D01*
X441556Y302703D01*
X441470Y302801D01*
X438930Y305341D01*
X438830Y305424D01*
X438737Y305515D01*
X438657Y305568D01*
X438584Y305629D01*
X438471Y305694D01*
X438364Y305767D01*
X438276Y305805D01*
X438193Y305853D01*
X438071Y305896D01*
X437952Y305949D01*
X437859Y305972D01*
X437769Y306004D01*
X437640Y306025D01*
X437514Y306056D01*
X437419Y306061D01*
X437325Y306077D01*
X437194Y306075D01*
X437065Y306083D01*
X436970Y306072D01*
X436874Y306071D01*
X436747Y306046D01*
X436618Y306031D01*
X436526Y306004D01*
X436432Y305985D01*
X436311Y305939D01*
X436187Y305901D01*
X436102Y305858D01*
X436012Y305823D01*
X435901Y305756D01*
X435785Y305697D01*
X435709Y305639D01*
X435628Y305589D01*
X435530Y305503D01*
X435427Y305425D01*
X435362Y305354D01*
X435290Y305291D01*
X435210Y305189D01*
X435121Y305093D01*
X435070Y305013D01*
X435011Y304938D01*
X434950Y304824D01*
X434880Y304714D01*
X434843Y304625D01*
X434798Y304541D01*
X434758Y304417D01*
X434709Y304297D01*
X434689Y304204D01*
X434659Y304113D01*
X434641Y303984D01*
X434614Y303857D01*
X434606Y303727D01*
X434598Y303667D01*
X434599Y303622D01*
X434595Y303545D01*
X434595Y300989D01*
X425450Y300989D01*
X416305Y300989D01*
X416305Y305774D01*
X416530Y307196D01*
X416975Y308564D01*
X417629Y309847D01*
X418475Y311011D01*
X419493Y312029D01*
X420657Y312875D01*
X421940Y313529D01*
X423309Y313974D01*
X424419Y314149D01*
X424570Y314187D01*
X424723Y314217D01*
X424788Y314242D01*
X424856Y314259D01*
X424998Y314323D01*
X425143Y314379D01*
X425203Y314415D01*
X425266Y314444D01*
X425395Y314532D01*
X425528Y314613D01*
X425580Y314659D01*
X425637Y314699D01*
X425749Y314808D01*
X425865Y314911D01*
X425908Y314966D01*
X425958Y315015D01*
X426048Y315142D01*
X426145Y315264D01*
X426178Y315326D01*
X426218Y315383D01*
X426284Y315524D01*
X426357Y315661D01*
X426379Y315728D01*
X426408Y315791D01*
X426448Y315941D01*
X426497Y316090D01*
X426506Y316158D01*
X426524Y316226D01*
X426537Y316381D01*
X426558Y316536D01*
X426555Y316605D01*
X426561Y316674D01*
X426546Y316829D01*
X426540Y316986D01*
X426524Y317054D01*
X426518Y317123D01*
X426476Y317273D01*
X426442Y317425D01*
X426415Y317489D01*
X426396Y317556D01*
X426329Y317697D01*
X426268Y317841D01*
X426231Y317899D01*
X426200Y317962D01*
X426109Y318088D01*
X426024Y318219D01*
X425965Y318286D01*
X425936Y318326D01*
X425894Y318366D01*
X425817Y318453D01*
X424721Y319550D01*
X424594Y319655D01*
X424473Y319767D01*
X424422Y319799D01*
X424375Y319838D01*
X424232Y319920D01*
X424094Y320008D01*
X424037Y320032D01*
X423984Y320062D01*
X423829Y320117D01*
X423677Y320179D01*
X423617Y320192D01*
X423560Y320213D01*
X423398Y320239D01*
X423237Y320274D01*
X423160Y320279D01*
X423116Y320286D01*
X423055Y320285D01*
X422925Y320293D01*
X370825Y320293D01*
X370661Y320279D01*
X370497Y320272D01*
X370437Y320259D01*
X370377Y320253D01*
X370218Y320210D01*
X370057Y320174D01*
X370001Y320151D01*
X369942Y320135D01*
X369794Y320064D01*
X369642Y320001D01*
X369590Y319968D01*
X369536Y319941D01*
X369402Y319846D01*
X369264Y319756D01*
X369206Y319705D01*
X369169Y319679D01*
X369127Y319636D01*
X369030Y319550D01*
X366250Y316770D01*
X366145Y316644D01*
X366033Y316523D01*
X366001Y316472D01*
X365962Y316425D01*
X365880Y316282D01*
X365792Y316144D01*
X365768Y316087D01*
X365738Y316034D01*
X365683Y315879D01*
X365621Y315727D01*
X365608Y315667D01*
X365587Y315610D01*
X365561Y315448D01*
X365526Y315287D01*
X365521Y315210D01*
X365514Y315166D01*
X365515Y315105D01*
X365507Y314975D01*
X365507Y314255D01*
X365518Y314126D01*
X365520Y313996D01*
X365538Y313902D01*
X365547Y313807D01*
X365581Y313681D01*
X365606Y313553D01*
X365640Y313464D01*
X365665Y313372D01*
X365721Y313255D01*
X365768Y313133D01*
X365818Y313052D01*
X365859Y312966D01*
X365934Y312860D01*
X366002Y312749D01*
X366065Y312677D01*
X366121Y312600D01*
X366214Y312509D01*
X366300Y312411D01*
X366375Y312352D01*
X366443Y312286D01*
X366551Y312213D01*
X366653Y312132D01*
X366737Y312087D01*
X366816Y312033D01*
X366935Y311981D01*
X367050Y311919D01*
X367141Y311890D01*
X367228Y311851D01*
X367355Y311820D01*
X367478Y311780D01*
X367573Y311767D01*
X367666Y311745D01*
X367795Y311737D01*
X367924Y311719D01*
X368020Y311723D01*
X368115Y311717D01*
X368244Y311732D01*
X368374Y311737D01*
X368467Y311758D01*
X368562Y311769D01*
X368687Y311807D01*
X368814Y311835D01*
X368902Y311872D01*
X368993Y311899D01*
X369109Y311958D01*
X369229Y312009D01*
X369309Y312060D01*
X369395Y312104D01*
X369498Y312182D01*
X369607Y312253D01*
X369705Y312339D01*
X369749Y312372D01*
X372932Y313691D01*
X376368Y313691D01*
X379542Y312376D01*
X381972Y309946D01*
X383287Y306772D01*
X383287Y290128D01*
X381972Y286954D01*
X379542Y284524D01*
X376368Y283209D01*
X372932Y283209D01*
X369758Y284524D01*
X369287Y284995D01*
X369224Y285047D01*
X369167Y285107D01*
X369052Y285192D01*
X368942Y285284D01*
X368870Y285324D01*
X368804Y285373D01*
X368675Y285436D01*
X368551Y285507D01*
X368473Y285535D01*
X368399Y285571D01*
X368261Y285610D01*
X368127Y285658D01*
X368045Y285671D01*
X367966Y285694D01*
X367823Y285708D01*
X367682Y285731D01*
X367600Y285730D01*
X367518Y285738D01*
X367375Y285727D01*
X367232Y285725D01*
X367151Y285709D01*
X367069Y285703D01*
X366931Y285667D01*
X366790Y285640D01*
X366713Y285610D01*
X366634Y285589D01*
X366504Y285529D01*
X366370Y285477D01*
X366300Y285434D01*
X366225Y285400D01*
X366108Y285318D01*
X365985Y285243D01*
X365924Y285189D01*
X365856Y285142D01*
X365755Y285040D01*
X365648Y284945D01*
X365597Y284881D01*
X365539Y284822D01*
X365457Y284704D01*
X365369Y284592D01*
X365330Y284520D01*
X365283Y284452D01*
X365174Y284230D01*
X365156Y284195D01*
X365153Y284185D01*
X365146Y284171D01*
X364965Y283735D01*
X319515Y238285D01*
X318207Y237743D01*
X161275Y237743D01*
X161111Y237729D01*
X160947Y237722D01*
X160887Y237709D01*
X160827Y237703D01*
X160668Y237660D01*
X160507Y237624D01*
X160451Y237601D01*
X160392Y237585D01*
X160244Y237514D01*
X160092Y237451D01*
X160040Y237418D01*
X159986Y237391D01*
X159852Y237296D01*
X159714Y237206D01*
X159656Y237155D01*
X159619Y237129D01*
X159577Y237086D01*
X159480Y237000D01*
X126205Y203726D01*
X126122Y203626D01*
X126031Y203533D01*
X125978Y203453D01*
X125917Y203380D01*
X125852Y203267D01*
X125779Y203160D01*
X125741Y203072D01*
X125693Y202989D01*
X125650Y202867D01*
X125597Y202748D01*
X125574Y202655D01*
X125542Y202565D01*
X125521Y202436D01*
X125490Y202310D01*
X125485Y202215D01*
X125469Y202121D01*
X125471Y201990D01*
X125463Y201861D01*
X125474Y201766D01*
X125475Y201670D01*
X125500Y201543D01*
X125515Y201414D01*
X125542Y201322D01*
X125561Y201228D01*
X125607Y201107D01*
X125645Y200983D01*
X125688Y200898D01*
X125723Y200808D01*
X125790Y200697D01*
X125849Y200581D01*
X125907Y200505D01*
X125957Y200424D01*
X126043Y200326D01*
X126121Y200223D01*
X126192Y200158D01*
X126255Y200086D01*
X126357Y200006D01*
X126453Y199917D01*
X126533Y199866D01*
X126608Y199807D01*
X126723Y199746D01*
X126832Y199676D01*
X126921Y199639D01*
X127005Y199594D01*
X127129Y199554D01*
X127249Y199505D01*
X127342Y199485D01*
X127433Y199455D01*
X127562Y199437D01*
X127689Y199410D01*
X127819Y199402D01*
X127879Y199394D01*
X127924Y199395D01*
X128001Y199391D01*
X128718Y199391D01*
X131892Y198076D01*
X134322Y195646D01*
X135637Y192472D01*
X135637Y190246D01*
X135640Y190211D01*
X135638Y190177D01*
X135660Y189988D01*
X135677Y189797D01*
X135686Y189764D01*
X135690Y189730D01*
X135745Y189546D01*
X135795Y189363D01*
X135810Y189332D01*
X135820Y189299D01*
X135907Y189128D01*
X135989Y188956D01*
X136009Y188928D01*
X136024Y188897D01*
X136140Y188745D01*
X136251Y188590D01*
X136276Y188566D01*
X136296Y188539D01*
X136436Y188410D01*
X136573Y188276D01*
X136602Y188257D01*
X136628Y188233D01*
X136789Y188131D01*
X136946Y188024D01*
X136978Y188010D01*
X137007Y187992D01*
X137184Y187919D01*
X137358Y187842D01*
X137392Y187834D01*
X137424Y187821D01*
X137611Y187781D01*
X137796Y187735D01*
X137830Y187733D01*
X137864Y187726D01*
X138176Y187707D01*
X141224Y187707D01*
X141259Y187710D01*
X141293Y187708D01*
X141482Y187730D01*
X141673Y187747D01*
X141706Y187756D01*
X141740Y187760D01*
X141923Y187815D01*
X142107Y187865D01*
X142138Y187880D01*
X142171Y187890D01*
X142342Y187977D01*
X142514Y188059D01*
X142542Y188079D01*
X142573Y188094D01*
X142725Y188210D01*
X142880Y188321D01*
X142904Y188346D01*
X142931Y188366D01*
X143060Y188506D01*
X143194Y188643D01*
X143213Y188672D01*
X143237Y188698D01*
X143339Y188859D01*
X143446Y189016D01*
X143460Y189048D01*
X143478Y189077D01*
X143551Y189253D01*
X143628Y189428D01*
X143636Y189462D01*
X143649Y189494D01*
X143689Y189681D01*
X143735Y189866D01*
X143737Y189900D01*
X143744Y189934D01*
X143763Y190246D01*
X143763Y192472D01*
X145078Y195646D01*
X147508Y198076D01*
X150682Y199391D01*
X154118Y199391D01*
X157292Y198076D01*
X159722Y195646D01*
X161037Y192472D01*
X161037Y175828D01*
X159722Y172654D01*
X157292Y170224D01*
X154118Y168909D01*
X150682Y168909D01*
X147508Y170224D01*
X145078Y172654D01*
X143763Y175828D01*
X143763Y178054D01*
X143760Y178089D01*
X143762Y178123D01*
X143740Y178312D01*
X143723Y178503D01*
X143714Y178536D01*
X143710Y178570D01*
X143655Y178753D01*
X143605Y178937D01*
X143590Y178968D01*
X143580Y179001D01*
X143493Y179172D01*
X143411Y179344D01*
X143391Y179372D01*
X143376Y179403D01*
X143260Y179555D01*
X143149Y179710D01*
X143124Y179734D01*
X143104Y179761D01*
X142964Y179890D01*
X142827Y180024D01*
X142798Y180043D01*
X142772Y180067D01*
X142611Y180169D01*
X142454Y180276D01*
X142422Y180290D01*
X142393Y180308D01*
X142216Y180381D01*
X142042Y180458D01*
X142008Y180466D01*
X141976Y180479D01*
X141789Y180519D01*
X141604Y180565D01*
X141570Y180567D01*
X141536Y180574D01*
X141224Y180593D01*
X138176Y180593D01*
X138141Y180590D01*
X138107Y180592D01*
X137918Y180570D01*
X137727Y180553D01*
X137694Y180544D01*
X137660Y180540D01*
X137477Y180485D01*
X137293Y180435D01*
X137262Y180420D01*
X137229Y180410D01*
X137058Y180323D01*
X136886Y180241D01*
X136858Y180221D01*
X136827Y180206D01*
X136675Y180090D01*
X136520Y179979D01*
X136496Y179954D01*
X136469Y179934D01*
X136340Y179794D01*
X136206Y179657D01*
X136187Y179628D01*
X136163Y179602D01*
X136061Y179441D01*
X135954Y179284D01*
X135940Y179252D01*
X135922Y179223D01*
X135849Y179046D01*
X135772Y178872D01*
X135764Y178838D01*
X135751Y178806D01*
X135711Y178619D01*
X135665Y178434D01*
X135663Y178400D01*
X135656Y178366D01*
X135637Y178054D01*
X135637Y175828D01*
X134322Y172654D01*
X131892Y170224D01*
X128718Y168909D01*
X125282Y168909D01*
X122108Y170224D01*
X119678Y172654D01*
X118363Y175828D01*
X118363Y189753D01*
X118352Y189882D01*
X118350Y190013D01*
X118332Y190106D01*
X118323Y190202D01*
X118289Y190327D01*
X118264Y190455D01*
X118230Y190544D01*
X118205Y190636D01*
X118149Y190753D01*
X118102Y190875D01*
X118052Y190956D01*
X118011Y191043D01*
X117936Y191148D01*
X117868Y191259D01*
X117805Y191331D01*
X117749Y191409D01*
X117656Y191499D01*
X117570Y191597D01*
X117495Y191656D01*
X117427Y191723D01*
X117319Y191796D01*
X117217Y191876D01*
X117133Y191921D01*
X117054Y191975D01*
X116935Y192027D01*
X116820Y192089D01*
X116729Y192118D01*
X116642Y192157D01*
X116515Y192188D01*
X116392Y192228D01*
X116297Y192241D01*
X116204Y192264D01*
X116075Y192272D01*
X115946Y192289D01*
X115850Y192285D01*
X115755Y192291D01*
X115626Y192276D01*
X115496Y192271D01*
X115403Y192250D01*
X115308Y192239D01*
X115183Y192202D01*
X115056Y192173D01*
X114968Y192137D01*
X114877Y192109D01*
X114761Y192050D01*
X114641Y192000D01*
X114560Y191948D01*
X114475Y191905D01*
X114372Y191826D01*
X114263Y191755D01*
X114165Y191669D01*
X114117Y191633D01*
X114086Y191600D01*
X114028Y191549D01*
X110980Y188501D01*
X110875Y188374D01*
X110763Y188253D01*
X110731Y188202D01*
X110692Y188155D01*
X110610Y188012D01*
X110522Y187874D01*
X110498Y187817D01*
X110468Y187764D01*
X110413Y187609D01*
X110351Y187457D01*
X110338Y187397D01*
X110317Y187340D01*
X110291Y187178D01*
X110256Y187017D01*
X110251Y186940D01*
X110244Y186896D01*
X110245Y186835D01*
X110237Y186705D01*
X110237Y175828D01*
X108922Y172654D01*
X106492Y170224D01*
X103318Y168909D01*
X99882Y168909D01*
X96708Y170224D01*
X94278Y172654D01*
X92963Y175828D01*
X92963Y178054D01*
X92960Y178089D01*
X92962Y178123D01*
X92940Y178312D01*
X92923Y178503D01*
X92914Y178536D01*
X92910Y178570D01*
X92855Y178753D01*
X92805Y178937D01*
X92790Y178968D01*
X92780Y179001D01*
X92693Y179172D01*
X92611Y179344D01*
X92591Y179372D01*
X92576Y179403D01*
X92460Y179555D01*
X92349Y179710D01*
X92324Y179734D01*
X92304Y179761D01*
X92164Y179890D01*
X92027Y180024D01*
X91998Y180043D01*
X91972Y180067D01*
X91811Y180169D01*
X91654Y180276D01*
X91622Y180290D01*
X91593Y180308D01*
X91416Y180381D01*
X91242Y180458D01*
X91208Y180466D01*
X91176Y180479D01*
X90989Y180519D01*
X90804Y180565D01*
X90770Y180567D01*
X90736Y180574D01*
X90424Y180593D01*
X87376Y180593D01*
X87341Y180590D01*
X87307Y180592D01*
X87118Y180570D01*
X86927Y180553D01*
X86894Y180544D01*
X86860Y180540D01*
X86677Y180485D01*
X86493Y180435D01*
X86462Y180420D01*
X86429Y180410D01*
X86258Y180323D01*
X86086Y180241D01*
X86058Y180221D01*
X86027Y180206D01*
X85875Y180090D01*
X85720Y179979D01*
X85696Y179954D01*
X85669Y179934D01*
X85540Y179794D01*
X85406Y179657D01*
X85387Y179628D01*
X85363Y179602D01*
X85261Y179441D01*
X85154Y179284D01*
X85140Y179252D01*
X85122Y179223D01*
X85049Y179046D01*
X84972Y178872D01*
X84964Y178838D01*
X84951Y178806D01*
X84911Y178619D01*
X84865Y178434D01*
X84863Y178400D01*
X84856Y178366D01*
X84837Y178054D01*
X84837Y175828D01*
X83522Y172654D01*
X81092Y170224D01*
X77918Y168909D01*
X74482Y168909D01*
X71308Y170224D01*
X68878Y172654D01*
X67563Y175828D01*
X67563Y192472D01*
X68878Y195646D01*
X71308Y198076D01*
X74482Y199391D01*
X77918Y199391D01*
X81092Y198076D01*
X83522Y195646D01*
X84837Y192472D01*
X84837Y190246D01*
X84840Y190211D01*
X84838Y190177D01*
X84860Y189988D01*
X84877Y189797D01*
X84886Y189764D01*
X84890Y189730D01*
X84945Y189546D01*
X84995Y189363D01*
X85010Y189332D01*
X85020Y189299D01*
X85107Y189128D01*
X85189Y188956D01*
X85209Y188928D01*
X85224Y188897D01*
X85340Y188745D01*
X85451Y188590D01*
X85476Y188566D01*
X85496Y188539D01*
X85636Y188410D01*
X85773Y188276D01*
X85802Y188257D01*
X85828Y188233D01*
X85989Y188131D01*
X86146Y188024D01*
X86178Y188010D01*
X86207Y187992D01*
X86384Y187919D01*
X86558Y187842D01*
X86592Y187834D01*
X86624Y187821D01*
X86811Y187781D01*
X86996Y187735D01*
X87030Y187733D01*
X87064Y187726D01*
X87376Y187707D01*
X90424Y187707D01*
X90459Y187710D01*
X90493Y187708D01*
X90682Y187730D01*
X90873Y187747D01*
X90906Y187756D01*
X90940Y187760D01*
X91123Y187815D01*
X91307Y187865D01*
X91338Y187880D01*
X91371Y187890D01*
X91542Y187977D01*
X91714Y188059D01*
X91742Y188079D01*
X91773Y188094D01*
X91925Y188210D01*
X92080Y188321D01*
X92104Y188346D01*
X92131Y188366D01*
X92260Y188506D01*
X92394Y188643D01*
X92413Y188672D01*
X92437Y188698D01*
X92539Y188859D01*
X92646Y189016D01*
X92660Y189048D01*
X92678Y189077D01*
X92751Y189253D01*
X92828Y189428D01*
X92836Y189462D01*
X92849Y189494D01*
X92889Y189681D01*
X92935Y189866D01*
X92937Y189900D01*
X92944Y189934D01*
X92963Y190246D01*
X92963Y192472D01*
X94278Y195646D01*
X96708Y198076D01*
X99882Y199391D01*
X103318Y199391D01*
X106492Y198076D01*
X106699Y197870D01*
X106725Y197847D01*
X106748Y197821D01*
X106897Y197703D01*
X107044Y197581D01*
X107074Y197564D01*
X107101Y197542D01*
X107269Y197452D01*
X107435Y197357D01*
X107467Y197346D01*
X107498Y197329D01*
X107680Y197270D01*
X107859Y197207D01*
X107893Y197201D01*
X107926Y197190D01*
X108115Y197164D01*
X108303Y197133D01*
X108338Y197134D01*
X108372Y197129D01*
X108563Y197137D01*
X108754Y197139D01*
X108788Y197146D01*
X108822Y197147D01*
X109008Y197188D01*
X109196Y197225D01*
X109228Y197237D01*
X109262Y197245D01*
X109438Y197318D01*
X109616Y197387D01*
X109645Y197405D01*
X109677Y197418D01*
X109837Y197522D01*
X110000Y197621D01*
X110026Y197644D01*
X110055Y197663D01*
X110290Y197870D01*
X153195Y240774D01*
X153278Y240874D01*
X153369Y240967D01*
X153422Y241047D01*
X153483Y241120D01*
X153548Y241233D01*
X153621Y241340D01*
X153659Y241428D01*
X153707Y241511D01*
X153750Y241633D01*
X153803Y241752D01*
X153826Y241845D01*
X153858Y241935D01*
X153879Y242064D01*
X153910Y242190D01*
X153915Y242285D01*
X153931Y242379D01*
X153929Y242510D01*
X153937Y242639D01*
X153926Y242734D01*
X153925Y242830D01*
X153900Y242957D01*
X153885Y243086D01*
X153858Y243178D01*
X153839Y243272D01*
X153793Y243393D01*
X153755Y243517D01*
X153712Y243602D01*
X153677Y243692D01*
X153610Y243803D01*
X153551Y243919D01*
X153493Y243995D01*
X153443Y244076D01*
X153357Y244174D01*
X153279Y244277D01*
X153208Y244342D01*
X153145Y244414D01*
X153043Y244494D01*
X152947Y244583D01*
X152867Y244634D01*
X152792Y244693D01*
X152678Y244754D01*
X152568Y244824D01*
X152479Y244861D01*
X152395Y244906D01*
X152271Y244946D01*
X152151Y244995D01*
X152058Y245015D01*
X151967Y245045D01*
X151838Y245063D01*
X151711Y245090D01*
X151581Y245098D01*
X151521Y245106D01*
X151476Y245105D01*
X151399Y245109D01*
X150682Y245109D01*
X147508Y246424D01*
X145078Y248854D01*
X143763Y252028D01*
X143763Y268672D01*
X144859Y271316D01*
X144883Y271395D01*
X144917Y271470D01*
X144950Y271609D01*
X144993Y271746D01*
X145004Y271828D01*
X145023Y271908D01*
X145032Y272050D01*
X145050Y272193D01*
X145046Y272275D01*
X145051Y272357D01*
X145034Y272499D01*
X145027Y272642D01*
X145008Y272722D01*
X144999Y272804D01*
X144957Y272942D01*
X144925Y273081D01*
X144893Y273156D01*
X144869Y273235D01*
X144804Y273363D01*
X144747Y273494D01*
X144702Y273563D01*
X144664Y273637D01*
X144578Y273751D01*
X144499Y273870D01*
X144442Y273930D01*
X144392Y273995D01*
X144287Y274092D01*
X144188Y274196D01*
X144122Y274245D01*
X144061Y274301D01*
X143940Y274378D01*
X143825Y274462D01*
X143751Y274498D01*
X143681Y274542D01*
X143549Y274597D01*
X143420Y274660D01*
X143341Y274682D01*
X143265Y274713D01*
X143125Y274743D01*
X142987Y274783D01*
X142905Y274791D01*
X142825Y274808D01*
X142579Y274823D01*
X142539Y274827D01*
X142528Y274826D01*
X142513Y274827D01*
X136887Y274827D01*
X136805Y274820D01*
X136723Y274822D01*
X136582Y274800D01*
X136439Y274787D01*
X136359Y274766D01*
X136278Y274753D01*
X136143Y274707D01*
X136004Y274669D01*
X135930Y274633D01*
X135852Y274607D01*
X135727Y274537D01*
X135598Y274475D01*
X135531Y274428D01*
X135459Y274387D01*
X135348Y274297D01*
X135232Y274213D01*
X135174Y274154D01*
X135111Y274102D01*
X135018Y273993D01*
X134918Y273891D01*
X134872Y273822D01*
X134818Y273760D01*
X134746Y273636D01*
X134666Y273518D01*
X134632Y273442D01*
X134591Y273371D01*
X134541Y273237D01*
X134483Y273106D01*
X134464Y273026D01*
X134435Y272948D01*
X134411Y272807D01*
X134377Y272668D01*
X134372Y272586D01*
X134357Y272505D01*
X134358Y272362D01*
X134349Y272219D01*
X134359Y272137D01*
X134359Y272055D01*
X134385Y271914D01*
X134401Y271772D01*
X134425Y271693D01*
X134440Y271612D01*
X134520Y271378D01*
X134531Y271341D01*
X134536Y271331D01*
X134541Y271316D01*
X135637Y268672D01*
X135637Y252028D01*
X134322Y248854D01*
X131892Y246424D01*
X128718Y245109D01*
X125282Y245109D01*
X122108Y246424D01*
X119678Y248854D01*
X118363Y252028D01*
X118363Y254254D01*
X118360Y254289D01*
X118362Y254323D01*
X118340Y254512D01*
X118323Y254703D01*
X118314Y254736D01*
X118310Y254770D01*
X118255Y254953D01*
X118205Y255137D01*
X118190Y255168D01*
X118180Y255201D01*
X118093Y255372D01*
X118011Y255544D01*
X117991Y255572D01*
X117976Y255603D01*
X117860Y255755D01*
X117749Y255910D01*
X117724Y255934D01*
X117704Y255961D01*
X117564Y256090D01*
X117427Y256224D01*
X117398Y256243D01*
X117372Y256267D01*
X117211Y256369D01*
X117054Y256476D01*
X117022Y256490D01*
X116993Y256508D01*
X116816Y256581D01*
X116642Y256658D01*
X116608Y256666D01*
X116576Y256679D01*
X116389Y256719D01*
X116204Y256765D01*
X116170Y256767D01*
X116136Y256774D01*
X115824Y256793D01*
X112776Y256793D01*
X112741Y256790D01*
X112707Y256792D01*
X112518Y256770D01*
X112327Y256753D01*
X112294Y256744D01*
X112260Y256740D01*
X112077Y256685D01*
X111893Y256635D01*
X111862Y256620D01*
X111829Y256610D01*
X111658Y256523D01*
X111486Y256441D01*
X111458Y256421D01*
X111427Y256406D01*
X111275Y256290D01*
X111120Y256179D01*
X111096Y256154D01*
X111069Y256134D01*
X110940Y255994D01*
X110806Y255857D01*
X110787Y255828D01*
X110763Y255802D01*
X110661Y255641D01*
X110554Y255484D01*
X110540Y255452D01*
X110522Y255423D01*
X110449Y255246D01*
X110372Y255072D01*
X110364Y255038D01*
X110351Y255006D01*
X110311Y254819D01*
X110265Y254634D01*
X110263Y254600D01*
X110256Y254566D01*
X110237Y254254D01*
X110237Y252028D01*
X108922Y248854D01*
X106492Y246424D01*
X103318Y245109D01*
X99882Y245109D01*
X96708Y246424D01*
X94278Y248854D01*
X92963Y252028D01*
X92963Y264516D01*
X92952Y264646D01*
X92950Y264776D01*
X92932Y264870D01*
X92923Y264965D01*
X92889Y265090D01*
X92864Y265218D01*
X92830Y265307D01*
X92805Y265399D01*
X92749Y265516D01*
X92702Y265638D01*
X92652Y265720D01*
X92611Y265806D01*
X92536Y265911D01*
X92468Y266022D01*
X92405Y266094D01*
X92349Y266172D01*
X92256Y266263D01*
X92170Y266360D01*
X92095Y266419D01*
X92027Y266486D01*
X91919Y266559D01*
X91817Y266639D01*
X91733Y266684D01*
X91654Y266738D01*
X91535Y266791D01*
X91420Y266852D01*
X91329Y266881D01*
X91242Y266920D01*
X91115Y266951D01*
X90992Y266991D01*
X90897Y267004D01*
X90804Y267027D01*
X90675Y267035D01*
X90546Y267053D01*
X90450Y267049D01*
X90355Y267054D01*
X90226Y267039D01*
X90096Y267034D01*
X90003Y267013D01*
X89908Y267002D01*
X89783Y266965D01*
X89656Y266937D01*
X89568Y266900D01*
X89477Y266872D01*
X89361Y266813D01*
X89241Y266763D01*
X89160Y266711D01*
X89075Y266668D01*
X88972Y266589D01*
X88863Y266519D01*
X88765Y266432D01*
X88717Y266396D01*
X88686Y266363D01*
X88628Y266312D01*
X85580Y263264D01*
X85475Y263137D01*
X85363Y263017D01*
X85331Y262965D01*
X85292Y262918D01*
X85210Y262776D01*
X85122Y262637D01*
X85098Y262580D01*
X85068Y262527D01*
X85013Y262372D01*
X84951Y262220D01*
X84938Y262161D01*
X84917Y262103D01*
X84891Y261941D01*
X84856Y261780D01*
X84851Y261703D01*
X84844Y261659D01*
X84845Y261598D01*
X84837Y261468D01*
X84837Y252028D01*
X83522Y248854D01*
X81092Y246424D01*
X77918Y245109D01*
X74482Y245109D01*
X71308Y246424D01*
X68878Y248854D01*
X67563Y252028D01*
X67563Y253238D01*
X67560Y253273D01*
X67562Y253307D01*
X67540Y253496D01*
X67523Y253687D01*
X67514Y253720D01*
X67510Y253754D01*
X67455Y253937D01*
X67405Y254121D01*
X67390Y254152D01*
X67380Y254185D01*
X67293Y254356D01*
X67211Y254528D01*
X67191Y254556D01*
X67176Y254587D01*
X67060Y254739D01*
X66949Y254894D01*
X66924Y254918D01*
X66904Y254945D01*
X66764Y255074D01*
X66627Y255208D01*
X66598Y255227D01*
X66572Y255251D01*
X66411Y255353D01*
X66254Y255460D01*
X66222Y255474D01*
X66193Y255492D01*
X66016Y255565D01*
X65842Y255642D01*
X65808Y255650D01*
X65776Y255663D01*
X65589Y255703D01*
X65404Y255749D01*
X65370Y255751D01*
X65336Y255758D01*
X65024Y255777D01*
X61976Y255777D01*
X61941Y255774D01*
X61907Y255776D01*
X61718Y255754D01*
X61527Y255737D01*
X61494Y255728D01*
X61460Y255724D01*
X61277Y255669D01*
X61093Y255619D01*
X61062Y255604D01*
X61029Y255594D01*
X60858Y255507D01*
X60686Y255425D01*
X60658Y255405D01*
X60627Y255390D01*
X60475Y255274D01*
X60320Y255163D01*
X60296Y255138D01*
X60269Y255118D01*
X60140Y254978D01*
X60006Y254841D01*
X59987Y254812D01*
X59963Y254786D01*
X59861Y254625D01*
X59754Y254468D01*
X59740Y254436D01*
X59722Y254407D01*
X59649Y254230D01*
X59572Y254056D01*
X59564Y254022D01*
X59551Y253990D01*
X59511Y253803D01*
X59465Y253618D01*
X59463Y253584D01*
X59456Y253550D01*
X59437Y253238D01*
X59437Y252028D01*
X58122Y248854D01*
X55692Y246424D01*
X52518Y245109D01*
X49082Y245109D01*
X45879Y246436D01*
X45799Y246514D01*
X45719Y246568D01*
X45646Y246629D01*
X45533Y246694D01*
X45426Y246767D01*
X45338Y246805D01*
X45255Y246853D01*
X45133Y246896D01*
X45014Y246949D01*
X44921Y246971D01*
X44831Y247003D01*
X44703Y247025D01*
X44576Y247055D01*
X44481Y247061D01*
X44387Y247077D01*
X44257Y247075D01*
X44127Y247083D01*
X44032Y247072D01*
X43937Y247071D01*
X43809Y247046D01*
X43680Y247031D01*
X43588Y247003D01*
X43495Y246985D01*
X43373Y246938D01*
X43249Y246901D01*
X43164Y246857D01*
X43075Y246823D01*
X42963Y246755D01*
X42847Y246696D01*
X42771Y246639D01*
X42690Y246589D01*
X42592Y246503D01*
X42489Y246424D01*
X42424Y246354D01*
X42352Y246291D01*
X42272Y246189D01*
X42183Y246093D01*
X42132Y246013D01*
X42073Y245938D01*
X42012Y245823D01*
X41942Y245713D01*
X41905Y245625D01*
X41860Y245541D01*
X41820Y245417D01*
X41771Y245297D01*
X41751Y245203D01*
X41721Y245113D01*
X41703Y244984D01*
X41676Y244857D01*
X41668Y244727D01*
X41660Y244667D01*
X41661Y244622D01*
X41657Y244545D01*
X41657Y199955D01*
X41668Y199826D01*
X41670Y199696D01*
X41688Y199602D01*
X41697Y199507D01*
X41731Y199381D01*
X41756Y199253D01*
X41790Y199164D01*
X41815Y199072D01*
X41871Y198955D01*
X41918Y198833D01*
X41968Y198752D01*
X42009Y198666D01*
X42084Y198560D01*
X42152Y198449D01*
X42215Y198377D01*
X42271Y198300D01*
X42364Y198209D01*
X42450Y198111D01*
X42525Y198052D01*
X42593Y197986D01*
X42701Y197913D01*
X42803Y197832D01*
X42887Y197787D01*
X42966Y197733D01*
X43085Y197681D01*
X43200Y197619D01*
X43291Y197590D01*
X43378Y197551D01*
X43505Y197520D01*
X43628Y197480D01*
X43723Y197467D01*
X43816Y197445D01*
X43945Y197437D01*
X44074Y197419D01*
X44170Y197423D01*
X44265Y197417D01*
X44394Y197432D01*
X44524Y197437D01*
X44617Y197458D01*
X44712Y197469D01*
X44837Y197507D01*
X44964Y197535D01*
X45052Y197572D01*
X45143Y197599D01*
X45259Y197658D01*
X45379Y197709D01*
X45459Y197760D01*
X45545Y197804D01*
X45648Y197882D01*
X45757Y197953D01*
X45855Y198039D01*
X45899Y198072D01*
X49082Y199391D01*
X52518Y199391D01*
X55692Y198076D01*
X58122Y195646D01*
X59437Y192472D01*
X59437Y175828D01*
X58122Y172654D01*
X55692Y170224D01*
X52518Y168909D01*
X51801Y168909D01*
X51672Y168898D01*
X51541Y168896D01*
X51448Y168878D01*
X51352Y168869D01*
X51227Y168835D01*
X51099Y168810D01*
X51010Y168776D01*
X50918Y168751D01*
X50801Y168695D01*
X50679Y168648D01*
X50598Y168598D01*
X50511Y168557D01*
X50406Y168482D01*
X50295Y168414D01*
X50223Y168351D01*
X50145Y168295D01*
X50055Y168202D01*
X49957Y168116D01*
X49898Y168041D01*
X49831Y167973D01*
X49758Y167865D01*
X49678Y167763D01*
X49633Y167679D01*
X49579Y167600D01*
X49527Y167481D01*
X49465Y167366D01*
X49436Y167275D01*
X49397Y167188D01*
X49366Y167061D01*
X49326Y166938D01*
X49313Y166843D01*
X49290Y166750D01*
X49282Y166621D01*
X49265Y166492D01*
X49269Y166396D01*
X49263Y166301D01*
X49278Y166172D01*
X49283Y166042D01*
X49304Y165949D01*
X49315Y165854D01*
X49352Y165729D01*
X49381Y165602D01*
X49417Y165514D01*
X49445Y165423D01*
X49504Y165307D01*
X49554Y165187D01*
X49606Y165106D01*
X49649Y165021D01*
X49728Y164918D01*
X49799Y164809D01*
X49885Y164711D01*
X49921Y164663D01*
X49954Y164632D01*
X50005Y164574D01*
X147033Y67546D01*
X147160Y67441D01*
X147281Y67329D01*
X147332Y67297D01*
X147379Y67258D01*
X147522Y67176D01*
X147660Y67088D01*
X147717Y67064D01*
X147770Y67034D01*
X147925Y66979D01*
X148077Y66917D01*
X148137Y66904D01*
X148194Y66883D01*
X148356Y66857D01*
X148517Y66822D01*
X148594Y66817D01*
X148638Y66810D01*
X148699Y66811D01*
X148829Y66803D01*
X156398Y66803D01*
X162053Y61148D01*
X162053Y53152D01*
X161243Y52342D01*
X161159Y52242D01*
X161068Y52149D01*
X161015Y52069D01*
X160954Y51996D01*
X160889Y51883D01*
X160816Y51776D01*
X160778Y51688D01*
X160730Y51605D01*
X160687Y51483D01*
X160634Y51364D01*
X160611Y51271D01*
X160579Y51181D01*
X160558Y51053D01*
X160527Y50926D01*
X160522Y50831D01*
X160506Y50737D01*
X160508Y50607D01*
X160500Y50477D01*
X160511Y50382D01*
X160512Y50286D01*
X160537Y50159D01*
X160552Y50030D01*
X160579Y49938D01*
X160598Y49844D01*
X160644Y49723D01*
X160682Y49599D01*
X160726Y49513D01*
X160760Y49424D01*
X160827Y49313D01*
X160886Y49197D01*
X160944Y49121D01*
X160994Y49040D01*
X161080Y48942D01*
X161158Y48839D01*
X161229Y48774D01*
X161292Y48702D01*
X161394Y48622D01*
X161490Y48533D01*
X161570Y48482D01*
X161645Y48423D01*
X161760Y48361D01*
X161869Y48292D01*
X161958Y48255D01*
X162042Y48210D01*
X162166Y48170D01*
X162286Y48121D01*
X162379Y48101D01*
X162470Y48071D01*
X162599Y48053D01*
X162726Y48026D01*
X162856Y48018D01*
X162916Y48010D01*
X162961Y48011D01*
X163038Y48007D01*
X167162Y48007D01*
X167292Y48018D01*
X167422Y48020D01*
X167515Y48038D01*
X167610Y48047D01*
X167736Y48081D01*
X167864Y48106D01*
X167953Y48140D01*
X168045Y48165D01*
X168162Y48221D01*
X168284Y48268D01*
X168365Y48318D01*
X168451Y48359D01*
X168557Y48434D01*
X168668Y48502D01*
X168740Y48565D01*
X168818Y48621D01*
X168908Y48714D01*
X169006Y48800D01*
X169065Y48875D01*
X169132Y48943D01*
X169204Y49051D01*
X169285Y49153D01*
X169330Y49237D01*
X169384Y49316D01*
X169436Y49435D01*
X169498Y49550D01*
X169527Y49641D01*
X169566Y49728D01*
X169597Y49855D01*
X169637Y49978D01*
X169650Y50073D01*
X169673Y50166D01*
X169681Y50295D01*
X169698Y50424D01*
X169694Y50520D01*
X169700Y50615D01*
X169685Y50744D01*
X169680Y50874D01*
X169659Y50967D01*
X169648Y51062D01*
X169611Y51187D01*
X169582Y51314D01*
X169546Y51402D01*
X169518Y51493D01*
X169459Y51609D01*
X169409Y51729D01*
X169357Y51809D01*
X169314Y51895D01*
X169235Y51998D01*
X169164Y52107D01*
X169078Y52205D01*
X169042Y52253D01*
X169009Y52284D01*
X168957Y52342D01*
X168147Y53152D01*
X168147Y61148D01*
X173802Y66803D01*
X181798Y66803D01*
X187453Y61148D01*
X187453Y53152D01*
X186643Y52342D01*
X186559Y52242D01*
X186468Y52149D01*
X186415Y52069D01*
X186354Y51996D01*
X186289Y51883D01*
X186216Y51776D01*
X186178Y51688D01*
X186130Y51605D01*
X186087Y51483D01*
X186034Y51364D01*
X186011Y51271D01*
X185979Y51181D01*
X185958Y51053D01*
X185927Y50926D01*
X185922Y50831D01*
X185906Y50737D01*
X185908Y50607D01*
X185900Y50477D01*
X185911Y50382D01*
X185912Y50286D01*
X185937Y50159D01*
X185952Y50030D01*
X185979Y49938D01*
X185998Y49844D01*
X186044Y49723D01*
X186082Y49599D01*
X186126Y49513D01*
X186160Y49424D01*
X186227Y49313D01*
X186286Y49197D01*
X186344Y49121D01*
X186394Y49040D01*
X186480Y48942D01*
X186558Y48839D01*
X186629Y48774D01*
X186692Y48702D01*
X186794Y48622D01*
X186890Y48533D01*
X186970Y48482D01*
X187045Y48423D01*
X187160Y48361D01*
X187269Y48292D01*
X187358Y48255D01*
X187442Y48210D01*
X187566Y48170D01*
X187686Y48121D01*
X187779Y48101D01*
X187870Y48071D01*
X187999Y48053D01*
X188126Y48026D01*
X188256Y48018D01*
X188316Y48010D01*
X188361Y48011D01*
X188438Y48007D01*
X192562Y48007D01*
X192692Y48018D01*
X192822Y48020D01*
X192915Y48038D01*
X193010Y48047D01*
X193136Y48081D01*
X193264Y48106D01*
X193353Y48140D01*
X193445Y48165D01*
X193562Y48221D01*
X193684Y48268D01*
X193765Y48318D01*
X193851Y48359D01*
X193957Y48434D01*
X194068Y48502D01*
X194140Y48565D01*
X194218Y48621D01*
X194308Y48714D01*
X194406Y48800D01*
X194465Y48875D01*
X194532Y48943D01*
X194604Y49051D01*
X194685Y49153D01*
X194730Y49237D01*
X194784Y49316D01*
X194836Y49435D01*
X194898Y49550D01*
X194927Y49641D01*
X194966Y49728D01*
X194997Y49855D01*
X195037Y49978D01*
X195050Y50073D01*
X195073Y50166D01*
X195081Y50295D01*
X195098Y50424D01*
X195094Y50520D01*
X195100Y50615D01*
X195085Y50744D01*
X195080Y50874D01*
X195059Y50967D01*
X195048Y51062D01*
X195011Y51187D01*
X194982Y51314D01*
X194946Y51402D01*
X194918Y51493D01*
X194859Y51609D01*
X194809Y51729D01*
X194757Y51809D01*
X194714Y51895D01*
X194635Y51998D01*
X194564Y52107D01*
X194478Y52205D01*
X194442Y52253D01*
X194409Y52284D01*
X194357Y52342D01*
X193547Y53152D01*
X193547Y61148D01*
X199202Y66803D01*
X207198Y66803D01*
X212853Y61148D01*
X212853Y53152D01*
X212043Y52342D01*
X211959Y52242D01*
X211868Y52149D01*
X211815Y52069D01*
X211754Y51996D01*
X211689Y51883D01*
X211616Y51776D01*
X211578Y51688D01*
X211530Y51605D01*
X211487Y51483D01*
X211434Y51364D01*
X211411Y51271D01*
X211379Y51181D01*
X211358Y51053D01*
X211327Y50926D01*
X211322Y50831D01*
X211306Y50737D01*
X211308Y50607D01*
X211300Y50477D01*
X211311Y50382D01*
X211312Y50286D01*
X211337Y50159D01*
X211352Y50030D01*
X211379Y49938D01*
X211398Y49844D01*
X211444Y49723D01*
X211482Y49599D01*
X211526Y49513D01*
X211560Y49424D01*
X211627Y49313D01*
X211686Y49197D01*
X211744Y49121D01*
X211794Y49040D01*
X211880Y48942D01*
X211958Y48839D01*
X212029Y48774D01*
X212092Y48702D01*
X212194Y48622D01*
X212290Y48533D01*
X212370Y48482D01*
X212445Y48423D01*
X212560Y48361D01*
X212669Y48292D01*
X212758Y48255D01*
X212842Y48210D01*
X212966Y48170D01*
X213086Y48121D01*
X213179Y48101D01*
X213270Y48071D01*
X213399Y48053D01*
X213526Y48026D01*
X213656Y48018D01*
X213716Y48010D01*
X213761Y48011D01*
X213838Y48007D01*
X217962Y48007D01*
X218092Y48018D01*
X218222Y48020D01*
X218315Y48038D01*
X218410Y48047D01*
X218536Y48081D01*
X218664Y48106D01*
X218753Y48140D01*
X218845Y48165D01*
X218962Y48221D01*
X219084Y48268D01*
X219165Y48318D01*
X219251Y48359D01*
X219357Y48434D01*
X219468Y48502D01*
X219540Y48565D01*
X219618Y48621D01*
X219708Y48714D01*
X219806Y48800D01*
X219865Y48875D01*
X219932Y48943D01*
X220004Y49051D01*
X220085Y49153D01*
X220130Y49237D01*
X220184Y49316D01*
X220236Y49435D01*
X220298Y49550D01*
X220327Y49641D01*
X220366Y49728D01*
X220397Y49855D01*
X220437Y49978D01*
X220450Y50073D01*
X220473Y50166D01*
X220481Y50295D01*
X220498Y50424D01*
X220494Y50520D01*
X220500Y50615D01*
X220485Y50744D01*
X220480Y50874D01*
X220459Y50967D01*
X220448Y51062D01*
X220411Y51187D01*
X220382Y51314D01*
X220346Y51402D01*
X220318Y51493D01*
X220259Y51609D01*
X220209Y51729D01*
X220157Y51809D01*
X220114Y51895D01*
X220035Y51998D01*
X219964Y52107D01*
X219878Y52205D01*
X219842Y52253D01*
X219809Y52284D01*
X219757Y52342D01*
X218947Y53152D01*
X218947Y61148D01*
X224602Y66803D01*
X232598Y66803D01*
X238253Y61148D01*
X238253Y53152D01*
X237443Y52342D01*
X237359Y52242D01*
X237268Y52149D01*
X237215Y52069D01*
X237154Y51996D01*
X237089Y51883D01*
X237016Y51776D01*
X236978Y51688D01*
X236930Y51605D01*
X236887Y51483D01*
X236834Y51364D01*
X236811Y51271D01*
X236779Y51181D01*
X236758Y51053D01*
X236727Y50926D01*
X236722Y50831D01*
X236706Y50737D01*
X236708Y50607D01*
X236700Y50477D01*
X236711Y50382D01*
X236712Y50286D01*
X236737Y50159D01*
X236752Y50030D01*
X236779Y49938D01*
X236798Y49844D01*
X236844Y49723D01*
X236882Y49599D01*
X236926Y49513D01*
X236960Y49424D01*
X237027Y49313D01*
X237086Y49197D01*
X237144Y49121D01*
X237194Y49040D01*
X237280Y48942D01*
X237358Y48839D01*
X237429Y48774D01*
X237492Y48702D01*
X237594Y48622D01*
X237690Y48533D01*
X237770Y48482D01*
X237845Y48423D01*
X237960Y48361D01*
X238069Y48292D01*
X238158Y48255D01*
X238242Y48210D01*
X238366Y48170D01*
X238486Y48121D01*
X238579Y48101D01*
X238670Y48071D01*
X238799Y48053D01*
X238926Y48026D01*
X239056Y48018D01*
X239116Y48010D01*
X239161Y48011D01*
X239238Y48007D01*
X243362Y48007D01*
X243492Y48018D01*
X243622Y48020D01*
X243715Y48038D01*
X243810Y48047D01*
X243936Y48081D01*
X244064Y48106D01*
X244153Y48140D01*
X244245Y48165D01*
X244362Y48221D01*
X244484Y48268D01*
X244565Y48318D01*
X244651Y48359D01*
X244757Y48434D01*
X244868Y48502D01*
X244940Y48565D01*
X245018Y48621D01*
X245108Y48714D01*
X245206Y48800D01*
X245265Y48875D01*
X245332Y48943D01*
X245404Y49051D01*
X245485Y49153D01*
X245530Y49237D01*
X245584Y49316D01*
X245636Y49435D01*
X245698Y49550D01*
X245727Y49641D01*
X245766Y49728D01*
X245797Y49855D01*
X245837Y49978D01*
X245850Y50073D01*
X245873Y50166D01*
X245881Y50295D01*
X245898Y50424D01*
X245894Y50520D01*
X245900Y50615D01*
X245885Y50744D01*
X245880Y50874D01*
X245859Y50967D01*
X245848Y51062D01*
X245811Y51187D01*
X245782Y51314D01*
X245746Y51402D01*
X245718Y51493D01*
X245659Y51609D01*
X245609Y51729D01*
X245557Y51809D01*
X245514Y51895D01*
X245435Y51998D01*
X245364Y52107D01*
X245278Y52205D01*
X245242Y52253D01*
X245209Y52284D01*
X245157Y52342D01*
X244347Y53152D01*
X244347Y61148D01*
X249700Y66501D01*
X249805Y66627D01*
X249917Y66748D01*
X249949Y66799D01*
X249988Y66846D01*
X250070Y66989D01*
X250158Y67127D01*
X250182Y67184D01*
X250212Y67237D01*
X250267Y67392D01*
X250329Y67544D01*
X250342Y67604D01*
X250363Y67661D01*
X250389Y67823D01*
X250424Y67984D01*
X250429Y68061D01*
X250436Y68105D01*
X250435Y68166D01*
X250443Y68296D01*
X250443Y121357D01*
X250985Y122665D01*
X277385Y149065D01*
X278693Y149607D01*
X338074Y149607D01*
X338109Y149610D01*
X338143Y149608D01*
X338332Y149630D01*
X338523Y149647D01*
X338556Y149656D01*
X338590Y149660D01*
X338773Y149715D01*
X338957Y149765D01*
X338988Y149780D01*
X339021Y149790D01*
X339192Y149877D01*
X339364Y149959D01*
X339392Y149979D01*
X339423Y149994D01*
X339575Y150110D01*
X339730Y150221D01*
X339754Y150246D01*
X339781Y150266D01*
X339910Y150406D01*
X340044Y150543D01*
X340063Y150572D01*
X340087Y150598D01*
X340189Y150759D01*
X340296Y150916D01*
X340310Y150948D01*
X340328Y150977D01*
X340401Y151153D01*
X340478Y151328D01*
X340486Y151362D01*
X340499Y151394D01*
X340539Y151581D01*
X340585Y151766D01*
X340587Y151800D01*
X340594Y151834D01*
X340613Y152146D01*
X340613Y154372D01*
X341928Y157546D01*
X344358Y159976D01*
X347532Y161291D01*
X350968Y161291D01*
X354142Y159976D01*
X356572Y157546D01*
X357887Y154372D01*
X357887Y137728D01*
X356572Y134554D01*
X354142Y132124D01*
X350968Y130809D01*
X347532Y130809D01*
X344358Y132124D01*
X341928Y134554D01*
X340613Y137728D01*
X340613Y139954D01*
X340610Y139989D01*
X340612Y140023D01*
X340590Y140212D01*
X340573Y140403D01*
X340564Y140436D01*
X340560Y140470D01*
X340505Y140653D01*
X340455Y140837D01*
X340440Y140868D01*
X340430Y140901D01*
X340343Y141072D01*
X340261Y141244D01*
X340241Y141272D01*
X340226Y141303D01*
X340110Y141455D01*
X339999Y141610D01*
X339974Y141634D01*
X339954Y141661D01*
X339814Y141790D01*
X339677Y141924D01*
X339648Y141943D01*
X339622Y141967D01*
X339461Y142069D01*
X339304Y142176D01*
X339272Y142190D01*
X339243Y142208D01*
X339066Y142281D01*
X338892Y142358D01*
X338858Y142366D01*
X338826Y142379D01*
X338639Y142419D01*
X338454Y142465D01*
X338420Y142467D01*
X338386Y142474D01*
X338074Y142493D01*
X281925Y142493D01*
X281761Y142479D01*
X281597Y142472D01*
X281537Y142459D01*
X281477Y142453D01*
X281318Y142410D01*
X281157Y142374D01*
X281101Y142351D01*
X281042Y142335D01*
X280894Y142264D01*
X280742Y142201D01*
X280690Y142168D01*
X280636Y142141D01*
X280502Y142046D01*
X280364Y141956D01*
X280306Y141905D01*
X280269Y141879D01*
X280227Y141836D01*
X280130Y141750D01*
X258300Y119920D01*
X258195Y119794D01*
X258083Y119673D01*
X258051Y119622D01*
X258012Y119575D01*
X257930Y119432D01*
X257842Y119294D01*
X257818Y119237D01*
X257788Y119184D01*
X257733Y119029D01*
X257671Y118877D01*
X257658Y118817D01*
X257637Y118760D01*
X257611Y118598D01*
X257576Y118437D01*
X257571Y118360D01*
X257564Y118316D01*
X257565Y118255D01*
X257557Y118125D01*
X257557Y68296D01*
X257571Y68132D01*
X257578Y67968D01*
X257591Y67908D01*
X257597Y67848D01*
X257640Y67689D01*
X257676Y67528D01*
X257699Y67472D01*
X257715Y67413D01*
X257786Y67265D01*
X257849Y67113D01*
X257882Y67061D01*
X257909Y67007D01*
X258004Y66873D01*
X258094Y66735D01*
X258145Y66677D01*
X258171Y66640D01*
X258214Y66598D01*
X258300Y66501D01*
X263653Y61148D01*
X263653Y53152D01*
X262843Y52342D01*
X262759Y52242D01*
X262668Y52149D01*
X262615Y52069D01*
X262554Y51996D01*
X262489Y51883D01*
X262416Y51776D01*
X262378Y51688D01*
X262330Y51605D01*
X262287Y51483D01*
X262234Y51364D01*
X262211Y51271D01*
X262179Y51181D01*
X262158Y51053D01*
X262127Y50926D01*
X262122Y50831D01*
X262106Y50737D01*
X262108Y50607D01*
X262100Y50477D01*
X262111Y50382D01*
X262112Y50286D01*
X262137Y50159D01*
X262152Y50030D01*
X262179Y49938D01*
X262198Y49844D01*
X262244Y49723D01*
X262282Y49599D01*
X262326Y49513D01*
X262360Y49424D01*
X262427Y49313D01*
X262486Y49197D01*
X262544Y49121D01*
X262594Y49040D01*
X262680Y48942D01*
X262758Y48839D01*
X262829Y48774D01*
X262892Y48702D01*
X262994Y48622D01*
X263090Y48533D01*
X263170Y48482D01*
X263245Y48423D01*
X263360Y48361D01*
X263469Y48292D01*
X263558Y48255D01*
X263642Y48210D01*
X263766Y48170D01*
X263886Y48121D01*
X263979Y48101D01*
X264070Y48071D01*
X264199Y48053D01*
X264326Y48026D01*
X264456Y48018D01*
X264516Y48010D01*
X264561Y48011D01*
X264638Y48007D01*
X268762Y48007D01*
X268892Y48018D01*
X269022Y48020D01*
X269115Y48038D01*
X269210Y48047D01*
X269336Y48081D01*
X269464Y48106D01*
X269553Y48140D01*
X269645Y48165D01*
X269762Y48221D01*
X269884Y48268D01*
X269965Y48318D01*
X270051Y48359D01*
X270157Y48434D01*
X270268Y48502D01*
X270340Y48565D01*
X270418Y48621D01*
X270508Y48714D01*
X270606Y48800D01*
X270665Y48875D01*
X270732Y48943D01*
X270804Y49051D01*
X270885Y49153D01*
X270930Y49237D01*
X270984Y49316D01*
X271036Y49435D01*
X271098Y49550D01*
X271127Y49641D01*
X271166Y49728D01*
X271197Y49855D01*
X271237Y49978D01*
X271250Y50073D01*
X271273Y50166D01*
X271281Y50295D01*
X271298Y50424D01*
X271294Y50520D01*
X271300Y50615D01*
X271285Y50744D01*
X271280Y50874D01*
X271259Y50967D01*
X271248Y51062D01*
X271211Y51187D01*
X271182Y51314D01*
X271146Y51402D01*
X271118Y51493D01*
X271059Y51609D01*
X271009Y51729D01*
X270957Y51809D01*
X270914Y51895D01*
X270835Y51998D01*
X270764Y52107D01*
X270678Y52205D01*
X270642Y52253D01*
X270609Y52284D01*
X270557Y52342D01*
X269747Y53152D01*
X269747Y61148D01*
X275402Y66803D01*
X283398Y66803D01*
X288751Y61450D01*
X288877Y61345D01*
X288998Y61233D01*
X289049Y61201D01*
X289096Y61162D01*
X289238Y61080D01*
X289377Y60992D01*
X289434Y60968D01*
X289487Y60938D01*
X289642Y60883D01*
X289794Y60821D01*
X289854Y60808D01*
X289911Y60787D01*
X290073Y60761D01*
X290234Y60726D01*
X290311Y60721D01*
X290355Y60714D01*
X290416Y60715D01*
X290546Y60707D01*
X293654Y60707D01*
X293818Y60721D01*
X293982Y60728D01*
X294042Y60741D01*
X294102Y60747D01*
X294261Y60790D01*
X294422Y60826D01*
X294478Y60849D01*
X294537Y60865D01*
X294685Y60936D01*
X294837Y60999D01*
X294888Y61032D01*
X294943Y61059D01*
X295077Y61154D01*
X295215Y61244D01*
X295273Y61295D01*
X295310Y61321D01*
X295352Y61364D01*
X295449Y61450D01*
X300802Y66803D01*
X309387Y66803D01*
X309516Y66814D01*
X309647Y66816D01*
X309740Y66834D01*
X309836Y66843D01*
X309961Y66877D01*
X310089Y66902D01*
X310178Y66936D01*
X310270Y66961D01*
X310387Y67017D01*
X310509Y67064D01*
X310590Y67114D01*
X310677Y67155D01*
X310782Y67230D01*
X310893Y67298D01*
X310965Y67361D01*
X311043Y67417D01*
X311133Y67510D01*
X311231Y67596D01*
X311290Y67671D01*
X311357Y67739D01*
X311430Y67847D01*
X311510Y67949D01*
X311555Y68033D01*
X311609Y68112D01*
X311661Y68231D01*
X311723Y68346D01*
X311752Y68437D01*
X311791Y68524D01*
X311822Y68651D01*
X311862Y68774D01*
X311875Y68869D01*
X311898Y68962D01*
X311906Y69091D01*
X311923Y69220D01*
X311919Y69316D01*
X311925Y69411D01*
X311910Y69540D01*
X311905Y69670D01*
X311884Y69763D01*
X311873Y69858D01*
X311836Y69983D01*
X311807Y70110D01*
X311771Y70198D01*
X311743Y70289D01*
X311684Y70405D01*
X311634Y70525D01*
X311582Y70606D01*
X311539Y70691D01*
X311460Y70794D01*
X311389Y70903D01*
X311303Y71001D01*
X311267Y71049D01*
X311234Y71080D01*
X311183Y71138D01*
X282226Y100094D01*
X282100Y100199D01*
X281979Y100311D01*
X281928Y100343D01*
X281881Y100382D01*
X281738Y100464D01*
X281600Y100552D01*
X281543Y100576D01*
X281490Y100606D01*
X281335Y100661D01*
X281183Y100723D01*
X281123Y100736D01*
X281066Y100757D01*
X280904Y100783D01*
X280743Y100818D01*
X280666Y100823D01*
X280622Y100830D01*
X280561Y100829D01*
X280431Y100837D01*
X277985Y100837D01*
X275371Y101920D01*
X273370Y103921D01*
X272287Y106535D01*
X272287Y109365D01*
X273370Y111979D01*
X275371Y113980D01*
X277985Y115063D01*
X280815Y115063D01*
X283429Y113980D01*
X285430Y111979D01*
X286513Y109365D01*
X286513Y106919D01*
X286527Y106755D01*
X286534Y106591D01*
X286547Y106531D01*
X286553Y106471D01*
X286596Y106312D01*
X286632Y106151D01*
X286655Y106095D01*
X286671Y106036D01*
X286742Y105888D01*
X286805Y105736D01*
X286838Y105684D01*
X286865Y105630D01*
X286960Y105496D01*
X287050Y105358D01*
X287101Y105300D01*
X287127Y105263D01*
X287170Y105221D01*
X287256Y105124D01*
X324834Y67546D01*
X324960Y67441D01*
X325081Y67329D01*
X325132Y67297D01*
X325179Y67258D01*
X325322Y67176D01*
X325460Y67088D01*
X325517Y67064D01*
X325570Y67034D01*
X325725Y66979D01*
X325877Y66917D01*
X325937Y66904D01*
X325994Y66883D01*
X326156Y66857D01*
X326317Y66822D01*
X326394Y66817D01*
X326438Y66810D01*
X326499Y66811D01*
X326629Y66803D01*
X334198Y66803D01*
X339853Y61148D01*
X339853Y53152D01*
X339043Y52342D01*
X338959Y52242D01*
X338868Y52149D01*
X338815Y52069D01*
X338754Y51996D01*
X338689Y51883D01*
X338616Y51776D01*
X338578Y51688D01*
X338530Y51605D01*
X338487Y51483D01*
X338434Y51364D01*
X338411Y51271D01*
X338379Y51181D01*
X338358Y51053D01*
X338327Y50926D01*
X338322Y50831D01*
X338306Y50737D01*
X338308Y50607D01*
X338300Y50477D01*
X338311Y50382D01*
X338312Y50286D01*
X338337Y50159D01*
X338352Y50030D01*
X338379Y49938D01*
X338398Y49844D01*
X338444Y49723D01*
X338482Y49599D01*
X338526Y49513D01*
X338560Y49424D01*
X338627Y49313D01*
X338686Y49197D01*
X338744Y49121D01*
X338794Y49040D01*
X338880Y48942D01*
X338958Y48839D01*
X339029Y48774D01*
X339092Y48702D01*
X339194Y48622D01*
X339290Y48533D01*
X339370Y48482D01*
X339445Y48423D01*
X339560Y48361D01*
X339669Y48292D01*
X339758Y48255D01*
X339842Y48210D01*
X339966Y48170D01*
X340086Y48121D01*
X340179Y48101D01*
X340270Y48071D01*
X340399Y48053D01*
X340526Y48026D01*
X340656Y48018D01*
X340716Y48010D01*
X340761Y48011D01*
X340838Y48007D01*
X344962Y48007D01*
X345092Y48018D01*
X345222Y48020D01*
X345315Y48038D01*
X345410Y48047D01*
X345536Y48081D01*
X345664Y48106D01*
X345753Y48140D01*
X345845Y48165D01*
X345962Y48221D01*
X346084Y48268D01*
X346165Y48318D01*
X346251Y48359D01*
X346357Y48434D01*
X346468Y48502D01*
X346540Y48565D01*
X346618Y48621D01*
X346708Y48714D01*
X346806Y48800D01*
X346865Y48875D01*
X346932Y48943D01*
X347004Y49051D01*
X347085Y49153D01*
X347130Y49237D01*
X347184Y49316D01*
X347236Y49435D01*
X347298Y49550D01*
X347327Y49641D01*
X347366Y49728D01*
X347397Y49855D01*
X347437Y49978D01*
X347450Y50073D01*
X347473Y50166D01*
X347481Y50295D01*
X347498Y50424D01*
X347494Y50520D01*
X347500Y50615D01*
X347485Y50744D01*
X347480Y50874D01*
X347459Y50967D01*
X347448Y51062D01*
X347411Y51187D01*
X347382Y51314D01*
X347346Y51402D01*
X347318Y51493D01*
X347259Y51609D01*
X347209Y51729D01*
X347157Y51809D01*
X347114Y51895D01*
X347035Y51998D01*
X346964Y52107D01*
X346878Y52205D01*
X346842Y52253D01*
X346809Y52284D01*
X346757Y52342D01*
X345947Y53152D01*
X345947Y61148D01*
X351602Y66803D01*
X359598Y66803D01*
X365253Y61148D01*
X365253Y52563D01*
X365264Y52434D01*
X365266Y52303D01*
X365284Y52210D01*
X365293Y52114D01*
X365327Y51989D01*
X365352Y51861D01*
X365386Y51772D01*
X365411Y51680D01*
X365467Y51563D01*
X365514Y51441D01*
X365564Y51360D01*
X365605Y51273D01*
X365680Y51168D01*
X365748Y51057D01*
X365811Y50985D01*
X365867Y50907D01*
X365960Y50817D01*
X366046Y50719D01*
X366121Y50660D01*
X366189Y50593D01*
X366297Y50520D01*
X366399Y50440D01*
X366483Y50395D01*
X366562Y50341D01*
X366681Y50289D01*
X366796Y50227D01*
X366887Y50198D01*
X366974Y50159D01*
X367101Y50128D01*
X367224Y50088D01*
X367319Y50075D01*
X367412Y50052D01*
X367541Y50044D01*
X367670Y50027D01*
X367766Y50031D01*
X367861Y50025D01*
X367990Y50040D01*
X368120Y50045D01*
X368213Y50066D01*
X368308Y50077D01*
X368433Y50114D01*
X368560Y50143D01*
X368648Y50179D01*
X368739Y50207D01*
X368855Y50266D01*
X368975Y50316D01*
X369056Y50368D01*
X369141Y50411D01*
X369244Y50490D01*
X369353Y50561D01*
X369451Y50647D01*
X369499Y50683D01*
X369530Y50716D01*
X369588Y50767D01*
X370604Y51783D01*
X370709Y51910D01*
X370821Y52031D01*
X370853Y52082D01*
X370892Y52129D01*
X370974Y52272D01*
X371062Y52410D01*
X371086Y52467D01*
X371116Y52520D01*
X371171Y52675D01*
X371233Y52827D01*
X371246Y52887D01*
X371267Y52944D01*
X371293Y53106D01*
X371328Y53267D01*
X371333Y53344D01*
X371340Y53388D01*
X371339Y53449D01*
X371347Y53579D01*
X371347Y61148D01*
X377002Y66803D01*
X384571Y66803D01*
X384735Y66817D01*
X384899Y66824D01*
X384959Y66837D01*
X385019Y66843D01*
X385178Y66886D01*
X385339Y66922D01*
X385395Y66945D01*
X385454Y66961D01*
X385602Y67032D01*
X385754Y67095D01*
X385806Y67128D01*
X385860Y67155D01*
X385994Y67250D01*
X386132Y67340D01*
X386190Y67391D01*
X386227Y67417D01*
X386269Y67460D01*
X386366Y67546D01*
X398035Y79215D01*
X399343Y79757D01*
X435625Y79757D01*
X435789Y79771D01*
X435953Y79778D01*
X436013Y79791D01*
X436073Y79797D01*
X436232Y79840D01*
X436393Y79876D01*
X436449Y79899D01*
X436508Y79915D01*
X436656Y79986D01*
X436808Y80049D01*
X436860Y80082D01*
X436914Y80109D01*
X437048Y80204D01*
X437186Y80294D01*
X437244Y80345D01*
X437281Y80371D01*
X437323Y80414D01*
X437420Y80500D01*
X468394Y111474D01*
X468480Y111577D01*
X468551Y111650D01*
X468567Y111673D01*
X468611Y111721D01*
X468643Y111772D01*
X468682Y111819D01*
X468764Y111962D01*
X468801Y112020D01*
X468803Y112023D01*
X468803Y112024D01*
X468852Y112100D01*
X468876Y112157D01*
X468906Y112210D01*
X468961Y112365D01*
X469023Y112517D01*
X469036Y112577D01*
X469057Y112634D01*
X469083Y112796D01*
X469118Y112957D01*
X469123Y113034D01*
X469130Y113078D01*
X469129Y113139D01*
X469137Y113269D01*
X469137Y115715D01*
X470220Y118329D01*
X472221Y120330D01*
X474835Y121413D01*
X477665Y121413D01*
X480279Y120330D01*
X482280Y118329D01*
X483363Y115715D01*
X483363Y112885D01*
X482280Y110271D01*
X480279Y108270D01*
X477665Y107187D01*
X475219Y107187D01*
X475055Y107173D01*
X474891Y107166D01*
X474831Y107153D01*
X474771Y107147D01*
X474612Y107104D01*
X474451Y107068D01*
X474395Y107045D01*
X474336Y107029D01*
X474188Y106958D01*
X474036Y106895D01*
X473984Y106862D01*
X473930Y106835D01*
X473796Y106740D01*
X473658Y106650D01*
X473600Y106599D01*
X473563Y106573D01*
X473521Y106530D01*
X473424Y106444D01*
X444721Y77742D01*
X444638Y77642D01*
X444547Y77549D01*
X444494Y77469D01*
X444433Y77396D01*
X444368Y77283D01*
X444295Y77176D01*
X444257Y77088D01*
X444209Y77005D01*
X444166Y76883D01*
X444113Y76764D01*
X444090Y76671D01*
X444058Y76581D01*
X444037Y76452D01*
X444006Y76326D01*
X444001Y76231D01*
X443985Y76137D01*
X443987Y76006D01*
X443979Y75877D01*
X443990Y75782D01*
X443991Y75686D01*
X444016Y75559D01*
X444031Y75430D01*
X444058Y75338D01*
X444077Y75244D01*
X444123Y75123D01*
X444161Y74999D01*
X444204Y74914D01*
X444239Y74824D01*
X444306Y74713D01*
X444365Y74597D01*
X444423Y74521D01*
X444473Y74440D01*
X444559Y74342D01*
X444637Y74239D01*
X444708Y74174D01*
X444771Y74102D01*
X444873Y74022D01*
X444969Y73933D01*
X445049Y73882D01*
X445124Y73823D01*
X445239Y73762D01*
X445348Y73692D01*
X445437Y73655D01*
X445521Y73610D01*
X445645Y73570D01*
X445765Y73521D01*
X445858Y73501D01*
X445949Y73471D01*
X446078Y73453D01*
X446205Y73426D01*
X446335Y73418D01*
X446395Y73410D01*
X446440Y73411D01*
X446517Y73407D01*
X495554Y73407D01*
X495589Y73410D01*
X495623Y73408D01*
X495812Y73430D01*
X496003Y73447D01*
X496036Y73456D01*
X496070Y73460D01*
X496253Y73515D01*
X496437Y73565D01*
X496468Y73580D01*
X496501Y73590D01*
X496672Y73677D01*
X496844Y73759D01*
X496872Y73779D01*
X496903Y73794D01*
X497055Y73910D01*
X497210Y74021D01*
X497234Y74046D01*
X497261Y74066D01*
X497390Y74206D01*
X497524Y74343D01*
X497543Y74372D01*
X497567Y74398D01*
X497669Y74559D01*
X497776Y74716D01*
X497790Y74748D01*
X497808Y74777D01*
X497881Y74954D01*
X497958Y75128D01*
X497966Y75162D01*
X497979Y75194D01*
X498019Y75381D01*
X498065Y75566D01*
X498067Y75600D01*
X498074Y75634D01*
X498093Y75946D01*
X498093Y129874D01*
X498074Y130086D01*
X498058Y130297D01*
X498055Y130309D01*
X498053Y130323D01*
X497997Y130528D01*
X497944Y130732D01*
X497938Y130744D01*
X497935Y130757D01*
X497844Y130948D01*
X497755Y131141D01*
X497747Y131152D01*
X497741Y131164D01*
X497618Y131336D01*
X497496Y131510D01*
X497487Y131519D01*
X497479Y131530D01*
X497327Y131678D01*
X497177Y131827D01*
X497166Y131835D01*
X497157Y131844D01*
X496980Y131963D01*
X496807Y132083D01*
X496792Y132090D01*
X496791Y132091D01*
X494328Y134554D01*
X493013Y137728D01*
X493013Y154372D01*
X494329Y157549D01*
X494447Y157698D01*
X494569Y157844D01*
X494586Y157874D01*
X494608Y157901D01*
X494698Y158069D01*
X494793Y158235D01*
X494804Y158268D01*
X494821Y158298D01*
X494879Y158479D01*
X494943Y158659D01*
X494949Y158693D01*
X494960Y158726D01*
X494986Y158915D01*
X495017Y159103D01*
X495016Y159138D01*
X495021Y159172D01*
X495013Y159363D01*
X495011Y159553D01*
X495004Y159588D01*
X495003Y159622D01*
X494962Y159808D01*
X494925Y159996D01*
X494913Y160028D01*
X494905Y160062D01*
X494832Y160237D01*
X494763Y160416D01*
X494745Y160445D01*
X494732Y160477D01*
X494628Y160637D01*
X494529Y160800D01*
X494506Y160826D01*
X494487Y160855D01*
X494280Y161090D01*
X488220Y167150D01*
X488094Y167255D01*
X487973Y167367D01*
X487922Y167399D01*
X487875Y167438D01*
X487732Y167520D01*
X487594Y167608D01*
X487537Y167632D01*
X487484Y167662D01*
X487329Y167717D01*
X487177Y167779D01*
X487117Y167792D01*
X487060Y167813D01*
X486898Y167839D01*
X486737Y167874D01*
X486660Y167879D01*
X486616Y167886D01*
X486555Y167885D01*
X486425Y167893D01*
X248854Y167893D01*
X248690Y167879D01*
X248526Y167872D01*
X248466Y167859D01*
X248405Y167853D01*
X248247Y167810D01*
X248086Y167774D01*
X248030Y167751D01*
X247971Y167735D01*
X247823Y167664D01*
X247671Y167601D01*
X247619Y167568D01*
X247564Y167541D01*
X247431Y167446D01*
X247293Y167356D01*
X247235Y167305D01*
X247198Y167279D01*
X247156Y167236D01*
X247058Y167150D01*
X245329Y165420D01*
X242715Y164337D01*
X239885Y164337D01*
X237271Y165420D01*
X235270Y167421D01*
X234187Y170035D01*
X234187Y172865D01*
X235270Y175479D01*
X237271Y177480D01*
X239885Y178563D01*
X242715Y178563D01*
X245329Y177480D01*
X247058Y175750D01*
X247185Y175645D01*
X247306Y175533D01*
X247357Y175501D01*
X247404Y175462D01*
X247547Y175380D01*
X247685Y175292D01*
X247742Y175268D01*
X247795Y175238D01*
X247950Y175183D01*
X248102Y175121D01*
X248162Y175108D01*
X248219Y175087D01*
X248381Y175061D01*
X248542Y175026D01*
X248619Y175021D01*
X248663Y175014D01*
X248724Y175015D01*
X248854Y175007D01*
X489657Y175007D01*
X490965Y174465D01*
X503308Y162122D01*
X504327Y161103D01*
X504417Y161027D01*
X504500Y160945D01*
X504589Y160883D01*
X504673Y160814D01*
X504774Y160756D01*
X504870Y160689D01*
X505009Y160622D01*
X505064Y160590D01*
X505098Y160578D01*
X505151Y160552D01*
X506542Y159976D01*
X508972Y157546D01*
X510287Y154372D01*
X510287Y137728D01*
X508972Y134554D01*
X506492Y132074D01*
X506397Y132026D01*
X506387Y132018D01*
X506375Y132012D01*
X506207Y131882D01*
X506039Y131754D01*
X506030Y131744D01*
X506019Y131736D01*
X505877Y131579D01*
X505733Y131423D01*
X505726Y131412D01*
X505718Y131402D01*
X505605Y131222D01*
X505492Y131043D01*
X505487Y131031D01*
X505480Y131019D01*
X505401Y130822D01*
X505321Y130626D01*
X505318Y130613D01*
X505313Y130601D01*
X505271Y130394D01*
X505226Y130186D01*
X505225Y130170D01*
X505223Y130160D01*
X505222Y130121D01*
X505207Y129874D01*
X505207Y69342D01*
X505210Y69307D01*
X505208Y69273D01*
X505230Y69084D01*
X505247Y68893D01*
X505256Y68860D01*
X505260Y68826D01*
X505315Y68643D01*
X505365Y68459D01*
X505380Y68428D01*
X505390Y68395D01*
X505477Y68224D01*
X505559Y68052D01*
X505579Y68024D01*
X505594Y67993D01*
X505710Y67841D01*
X505821Y67686D01*
X505846Y67662D01*
X505866Y67635D01*
X506006Y67506D01*
X506143Y67372D01*
X506172Y67353D01*
X506198Y67329D01*
X506359Y67227D01*
X506516Y67120D01*
X506548Y67106D01*
X506577Y67088D01*
X506754Y67015D01*
X506928Y66938D01*
X506962Y66930D01*
X506994Y66917D01*
X507181Y66877D01*
X507366Y66831D01*
X507400Y66829D01*
X507434Y66822D01*
X507746Y66803D01*
X511998Y66803D01*
X517653Y61148D01*
X517653Y53152D01*
X511998Y47497D01*
X504002Y47497D01*
X498347Y53152D01*
X498347Y61148D01*
X499157Y61958D01*
X499241Y62058D01*
X499332Y62151D01*
X499385Y62231D01*
X499446Y62304D01*
X499511Y62417D01*
X499584Y62524D01*
X499622Y62612D01*
X499670Y62695D01*
X499713Y62817D01*
X499766Y62936D01*
X499789Y63029D01*
X499821Y63119D01*
X499842Y63247D01*
X499873Y63374D01*
X499878Y63469D01*
X499894Y63563D01*
X499892Y63693D01*
X499900Y63823D01*
X499889Y63918D01*
X499888Y64014D01*
X499863Y64141D01*
X499848Y64270D01*
X499821Y64362D01*
X499802Y64456D01*
X499756Y64577D01*
X499718Y64701D01*
X499674Y64787D01*
X499640Y64876D01*
X499573Y64987D01*
X499514Y65103D01*
X499456Y65179D01*
X499406Y65260D01*
X499320Y65358D01*
X499242Y65461D01*
X499171Y65526D01*
X499108Y65598D01*
X499006Y65678D01*
X498910Y65767D01*
X498830Y65818D01*
X498755Y65877D01*
X498640Y65939D01*
X498531Y66008D01*
X498442Y66045D01*
X498358Y66090D01*
X498234Y66130D01*
X498114Y66179D01*
X498021Y66199D01*
X497930Y66229D01*
X497801Y66247D01*
X497674Y66274D01*
X497544Y66282D01*
X497484Y66290D01*
X497439Y66289D01*
X497362Y66293D01*
X493238Y66293D01*
X493108Y66282D01*
X492978Y66280D01*
X492885Y66262D01*
X492790Y66253D01*
X492664Y66219D01*
X492536Y66194D01*
X492447Y66160D01*
X492355Y66135D01*
X492238Y66079D01*
X492116Y66032D01*
X492035Y65982D01*
X491949Y65941D01*
X491843Y65866D01*
X491732Y65798D01*
X491660Y65735D01*
X491582Y65679D01*
X491492Y65586D01*
X491394Y65500D01*
X491335Y65425D01*
X491268Y65357D01*
X491196Y65249D01*
X491115Y65147D01*
X491070Y65063D01*
X491016Y64984D01*
X490964Y64865D01*
X490902Y64750D01*
X490873Y64659D01*
X490834Y64572D01*
X490803Y64445D01*
X490763Y64322D01*
X490750Y64227D01*
X490727Y64134D01*
X490719Y64005D01*
X490702Y63876D01*
X490706Y63780D01*
X490700Y63685D01*
X490715Y63556D01*
X490720Y63426D01*
X490741Y63333D01*
X490752Y63238D01*
X490789Y63113D01*
X490818Y62986D01*
X490854Y62898D01*
X490882Y62807D01*
X490941Y62691D01*
X490991Y62571D01*
X491043Y62491D01*
X491086Y62405D01*
X491165Y62302D01*
X491236Y62193D01*
X491322Y62095D01*
X491358Y62047D01*
X491391Y62016D01*
X491443Y61958D01*
X492253Y61148D01*
X492253Y53152D01*
X486598Y47497D01*
X478602Y47497D01*
X472947Y53152D01*
X472947Y61148D01*
X473757Y61958D01*
X473841Y62058D01*
X473932Y62151D01*
X473985Y62231D01*
X474046Y62304D01*
X474111Y62417D01*
X474184Y62524D01*
X474222Y62612D01*
X474270Y62695D01*
X474313Y62817D01*
X474366Y62936D01*
X474389Y63029D01*
X474421Y63119D01*
X474442Y63247D01*
X474473Y63374D01*
X474478Y63469D01*
X474494Y63563D01*
X474492Y63693D01*
X474500Y63823D01*
X474489Y63918D01*
X474488Y64014D01*
X474463Y64141D01*
X474448Y64270D01*
X474421Y64362D01*
X474402Y64456D01*
X474356Y64577D01*
X474318Y64701D01*
X474274Y64787D01*
X474240Y64876D01*
X474173Y64987D01*
X474114Y65103D01*
X474056Y65179D01*
X474006Y65260D01*
X473920Y65358D01*
X473842Y65461D01*
X473771Y65526D01*
X473708Y65598D01*
X473606Y65678D01*
X473510Y65767D01*
X473430Y65818D01*
X473355Y65877D01*
X473240Y65939D01*
X473131Y66008D01*
X473042Y66045D01*
X472958Y66090D01*
X472834Y66130D01*
X472714Y66179D01*
X472621Y66199D01*
X472530Y66229D01*
X472401Y66247D01*
X472274Y66274D01*
X472144Y66282D01*
X472084Y66290D01*
X472039Y66289D01*
X471962Y66293D01*
X467838Y66293D01*
X467708Y66282D01*
X467578Y66280D01*
X467485Y66262D01*
X467390Y66253D01*
X467264Y66219D01*
X467136Y66194D01*
X467047Y66160D01*
X466955Y66135D01*
X466838Y66079D01*
X466716Y66032D01*
X466635Y65982D01*
X466549Y65941D01*
X466443Y65866D01*
X466332Y65798D01*
X466260Y65735D01*
X466182Y65679D01*
X466092Y65586D01*
X465994Y65500D01*
X465935Y65425D01*
X465868Y65357D01*
X465796Y65249D01*
X465715Y65147D01*
X465670Y65063D01*
X465616Y64984D01*
X465564Y64865D01*
X465502Y64750D01*
X465473Y64659D01*
X465434Y64572D01*
X465403Y64445D01*
X465363Y64322D01*
X465350Y64227D01*
X465327Y64134D01*
X465319Y64005D01*
X465302Y63876D01*
X465306Y63780D01*
X465300Y63685D01*
X465315Y63556D01*
X465320Y63426D01*
X465341Y63333D01*
X465352Y63238D01*
X465389Y63113D01*
X465418Y62986D01*
X465454Y62898D01*
X465482Y62807D01*
X465541Y62691D01*
X465591Y62571D01*
X465643Y62491D01*
X465686Y62405D01*
X465765Y62302D01*
X465836Y62193D01*
X465922Y62095D01*
X465958Y62047D01*
X465991Y62016D01*
X466043Y61958D01*
X466853Y61148D01*
X466853Y53152D01*
X461198Y47497D01*
X453202Y47497D01*
X447547Y53152D01*
X447547Y61148D01*
X448357Y61958D01*
X448441Y62058D01*
X448532Y62151D01*
X448585Y62231D01*
X448646Y62304D01*
X448711Y62417D01*
X448784Y62524D01*
X448822Y62612D01*
X448870Y62695D01*
X448913Y62817D01*
X448966Y62936D01*
X448989Y63029D01*
X449021Y63119D01*
X449042Y63247D01*
X449073Y63374D01*
X449078Y63469D01*
X449094Y63563D01*
X449092Y63693D01*
X449100Y63823D01*
X449089Y63918D01*
X449088Y64014D01*
X449063Y64141D01*
X449048Y64270D01*
X449021Y64362D01*
X449002Y64456D01*
X448956Y64577D01*
X448918Y64701D01*
X448874Y64787D01*
X448840Y64876D01*
X448773Y64987D01*
X448714Y65103D01*
X448656Y65179D01*
X448606Y65260D01*
X448520Y65358D01*
X448442Y65461D01*
X448371Y65526D01*
X448308Y65598D01*
X448206Y65678D01*
X448110Y65767D01*
X448030Y65818D01*
X447955Y65877D01*
X447840Y65939D01*
X447731Y66008D01*
X447642Y66045D01*
X447558Y66090D01*
X447434Y66130D01*
X447314Y66179D01*
X447221Y66199D01*
X447130Y66229D01*
X447001Y66247D01*
X446874Y66274D01*
X446744Y66282D01*
X446684Y66290D01*
X446639Y66289D01*
X446562Y66293D01*
X442438Y66293D01*
X442308Y66282D01*
X442178Y66280D01*
X442085Y66262D01*
X441990Y66253D01*
X441864Y66219D01*
X441736Y66194D01*
X441647Y66160D01*
X441555Y66135D01*
X441438Y66079D01*
X441316Y66032D01*
X441235Y65982D01*
X441149Y65941D01*
X441043Y65866D01*
X440932Y65798D01*
X440860Y65735D01*
X440782Y65679D01*
X440692Y65586D01*
X440594Y65500D01*
X440535Y65425D01*
X440468Y65357D01*
X440396Y65249D01*
X440315Y65147D01*
X440270Y65063D01*
X440216Y64984D01*
X440164Y64865D01*
X440102Y64750D01*
X440073Y64659D01*
X440034Y64572D01*
X440003Y64445D01*
X439963Y64322D01*
X439950Y64227D01*
X439927Y64134D01*
X439919Y64005D01*
X439902Y63876D01*
X439906Y63780D01*
X439900Y63685D01*
X439915Y63556D01*
X439920Y63426D01*
X439941Y63333D01*
X439952Y63238D01*
X439989Y63113D01*
X440018Y62986D01*
X440054Y62898D01*
X440082Y62807D01*
X440141Y62691D01*
X440191Y62571D01*
X440243Y62491D01*
X440286Y62405D01*
X440365Y62302D01*
X440436Y62193D01*
X440522Y62095D01*
X440558Y62047D01*
X440591Y62016D01*
X440643Y61958D01*
X441453Y61148D01*
X441453Y53152D01*
X435798Y47497D01*
X427802Y47497D01*
X422147Y53152D01*
X422147Y61737D01*
X422136Y61866D01*
X422134Y61997D01*
X422116Y62090D01*
X422107Y62186D01*
X422073Y62311D01*
X422048Y62439D01*
X422014Y62528D01*
X421989Y62620D01*
X421933Y62737D01*
X421886Y62859D01*
X421836Y62940D01*
X421795Y63027D01*
X421720Y63132D01*
X421652Y63243D01*
X421589Y63315D01*
X421533Y63393D01*
X421440Y63483D01*
X421354Y63581D01*
X421279Y63640D01*
X421211Y63707D01*
X421103Y63780D01*
X421001Y63860D01*
X420917Y63905D01*
X420838Y63959D01*
X420719Y64011D01*
X420604Y64073D01*
X420513Y64102D01*
X420426Y64141D01*
X420299Y64172D01*
X420176Y64212D01*
X420081Y64225D01*
X419988Y64248D01*
X419859Y64256D01*
X419730Y64273D01*
X419634Y64269D01*
X419539Y64275D01*
X419410Y64260D01*
X419280Y64255D01*
X419187Y64234D01*
X419092Y64223D01*
X418967Y64186D01*
X418840Y64157D01*
X418752Y64121D01*
X418661Y64093D01*
X418545Y64034D01*
X418425Y63984D01*
X418344Y63932D01*
X418259Y63889D01*
X418156Y63810D01*
X418047Y63739D01*
X417949Y63653D01*
X417901Y63617D01*
X417870Y63584D01*
X417812Y63533D01*
X416796Y62517D01*
X416691Y62390D01*
X416579Y62269D01*
X416547Y62218D01*
X416508Y62171D01*
X416426Y62028D01*
X416338Y61890D01*
X416314Y61833D01*
X416284Y61780D01*
X416229Y61625D01*
X416167Y61473D01*
X416154Y61413D01*
X416133Y61356D01*
X416107Y61194D01*
X416072Y61033D01*
X416067Y60956D01*
X416060Y60912D01*
X416061Y60851D01*
X416053Y60721D01*
X416053Y53152D01*
X410398Y47497D01*
X402402Y47497D01*
X396747Y53152D01*
X396747Y61737D01*
X396736Y61867D01*
X396734Y61997D01*
X396716Y62090D01*
X396707Y62186D01*
X396673Y62311D01*
X396648Y62439D01*
X396614Y62528D01*
X396589Y62620D01*
X396533Y62737D01*
X396486Y62859D01*
X396436Y62940D01*
X396395Y63027D01*
X396320Y63132D01*
X396252Y63243D01*
X396189Y63315D01*
X396133Y63393D01*
X396040Y63483D01*
X395954Y63581D01*
X395879Y63640D01*
X395811Y63707D01*
X395703Y63780D01*
X395601Y63860D01*
X395517Y63905D01*
X395438Y63959D01*
X395319Y64011D01*
X395204Y64073D01*
X395113Y64102D01*
X395026Y64141D01*
X394899Y64172D01*
X394776Y64212D01*
X394681Y64225D01*
X394588Y64248D01*
X394459Y64256D01*
X394330Y64273D01*
X394234Y64269D01*
X394139Y64275D01*
X394010Y64260D01*
X393880Y64255D01*
X393787Y64234D01*
X393692Y64223D01*
X393567Y64186D01*
X393440Y64157D01*
X393352Y64121D01*
X393261Y64093D01*
X393145Y64034D01*
X393025Y63984D01*
X392945Y63932D01*
X392859Y63889D01*
X392756Y63810D01*
X392647Y63739D01*
X392549Y63653D01*
X392501Y63617D01*
X392470Y63584D01*
X392412Y63533D01*
X391396Y62516D01*
X391291Y62390D01*
X391179Y62269D01*
X391147Y62218D01*
X391108Y62171D01*
X391026Y62029D01*
X390938Y61890D01*
X390914Y61833D01*
X390884Y61780D01*
X390829Y61625D01*
X390767Y61473D01*
X390754Y61413D01*
X390733Y61356D01*
X390707Y61194D01*
X390672Y61033D01*
X390667Y60956D01*
X390660Y60912D01*
X390661Y60851D01*
X390653Y60721D01*
X390653Y53152D01*
X384998Y47497D01*
X377429Y47497D01*
X377265Y47483D01*
X377101Y47476D01*
X377041Y47463D01*
X376981Y47457D01*
X376822Y47414D01*
X376661Y47378D01*
X376605Y47355D01*
X376546Y47339D01*
X376398Y47268D01*
X376246Y47205D01*
X376194Y47172D01*
X376140Y47145D01*
X376006Y47050D01*
X375868Y46960D01*
X375810Y46909D01*
X375773Y46883D01*
X375731Y46840D01*
X375633Y46754D01*
X375125Y46246D01*
X375042Y46146D01*
X374951Y46053D01*
X374898Y45973D01*
X374837Y45900D01*
X374772Y45787D01*
X374699Y45680D01*
X374661Y45592D01*
X374613Y45509D01*
X374570Y45387D01*
X374517Y45268D01*
X374494Y45175D01*
X374462Y45085D01*
X374441Y44956D01*
X374410Y44830D01*
X374405Y44735D01*
X374389Y44641D01*
X374391Y44510D01*
X374383Y44381D01*
X374394Y44286D01*
X374395Y44190D01*
X374420Y44063D01*
X374435Y43934D01*
X374462Y43842D01*
X374481Y43748D01*
X374527Y43627D01*
X374565Y43503D01*
X374608Y43418D01*
X374643Y43328D01*
X374710Y43217D01*
X374769Y43101D01*
X374827Y43025D01*
X374877Y42944D01*
X374963Y42846D01*
X375041Y42743D01*
X375112Y42678D01*
X375175Y42606D01*
X375277Y42526D01*
X375373Y42437D01*
X375453Y42386D01*
X375528Y42327D01*
X375642Y42266D01*
X375752Y42196D01*
X375841Y42159D01*
X375925Y42114D01*
X376049Y42074D01*
X376169Y42025D01*
X376262Y42005D01*
X376353Y41975D01*
X376482Y41957D01*
X376609Y41930D01*
X376739Y41922D01*
X376799Y41914D01*
X376844Y41915D01*
X376921Y41911D01*
X378461Y41911D01*
X378461Y34289D01*
X370839Y34289D01*
X370839Y35959D01*
X371532Y36651D01*
X371646Y36788D01*
X371765Y36919D01*
X371790Y36960D01*
X371821Y36997D01*
X371909Y37151D01*
X372003Y37302D01*
X372020Y37346D01*
X372044Y37387D01*
X372104Y37555D01*
X372169Y37720D01*
X372179Y37767D01*
X372195Y37812D01*
X372224Y37987D01*
X372259Y38161D01*
X372260Y38209D01*
X372268Y38256D01*
X372266Y38434D01*
X372270Y38611D01*
X372263Y38658D01*
X372262Y38706D01*
X372228Y38881D01*
X372201Y39056D01*
X372186Y39101D01*
X372177Y39148D01*
X372113Y39314D01*
X372055Y39482D01*
X372032Y39524D01*
X372014Y39568D01*
X371922Y39720D01*
X371835Y39875D01*
X371805Y39912D01*
X371780Y39953D01*
X371663Y40086D01*
X371550Y40224D01*
X371514Y40255D01*
X371482Y40290D01*
X371343Y40400D01*
X371208Y40516D01*
X371166Y40540D01*
X371129Y40570D01*
X370972Y40654D01*
X370819Y40743D01*
X370774Y40760D01*
X370732Y40782D01*
X370563Y40837D01*
X370396Y40899D01*
X370349Y40907D01*
X370304Y40922D01*
X370128Y40946D01*
X369953Y40977D01*
X369905Y40977D01*
X369858Y40983D01*
X369680Y40976D01*
X369503Y40975D01*
X369456Y40967D01*
X369408Y40965D01*
X369235Y40926D01*
X369060Y40894D01*
X369057Y40893D01*
X366956Y40893D01*
X366827Y40882D01*
X366697Y40880D01*
X366603Y40862D01*
X366508Y40853D01*
X366382Y40819D01*
X366255Y40794D01*
X366166Y40760D01*
X366074Y40735D01*
X365956Y40679D01*
X365835Y40632D01*
X365753Y40582D01*
X365667Y40541D01*
X365561Y40466D01*
X365450Y40398D01*
X365379Y40335D01*
X365301Y40279D01*
X365210Y40186D01*
X365113Y40100D01*
X365053Y40025D01*
X364987Y39957D01*
X364914Y39849D01*
X364833Y39747D01*
X364788Y39663D01*
X364735Y39584D01*
X364682Y39465D01*
X364621Y39350D01*
X364591Y39259D01*
X364552Y39172D01*
X364522Y39045D01*
X364481Y38922D01*
X364468Y38827D01*
X364446Y38734D01*
X364438Y38605D01*
X364420Y38476D01*
X364424Y38380D01*
X364418Y38285D01*
X364433Y38156D01*
X364438Y38026D01*
X364459Y37933D01*
X364470Y37838D01*
X364508Y37713D01*
X364536Y37586D01*
X364573Y37498D01*
X364600Y37407D01*
X364660Y37291D01*
X364710Y37171D01*
X364761Y37091D01*
X364805Y37005D01*
X364883Y36902D01*
X364954Y36793D01*
X365040Y36695D01*
X365077Y36647D01*
X365110Y36616D01*
X365161Y36558D01*
X365761Y35959D01*
X365761Y34289D01*
X355600Y34289D01*
X355600Y34289D01*
G37*
%LPD*%
%LPC*%
G36*
X626538Y47497D02*
X626538Y47497D01*
X625347Y48688D01*
X625347Y65871D01*
X625406Y66052D01*
X625470Y66232D01*
X625476Y66267D01*
X625487Y66300D01*
X625513Y66488D01*
X625544Y66676D01*
X625543Y66711D01*
X625548Y66746D01*
X625540Y66937D01*
X625538Y67127D01*
X625531Y67161D01*
X625530Y67195D01*
X625488Y67381D01*
X625452Y67569D01*
X625440Y67601D01*
X625432Y67635D01*
X625359Y67811D01*
X625290Y67989D01*
X625272Y68018D01*
X625258Y68051D01*
X625155Y68211D01*
X625056Y68374D01*
X625033Y68399D01*
X625014Y68429D01*
X624807Y68663D01*
X561140Y132330D01*
X561113Y132353D01*
X561090Y132379D01*
X560941Y132497D01*
X560794Y132619D01*
X560764Y132637D01*
X560737Y132658D01*
X560569Y132748D01*
X560403Y132843D01*
X560371Y132854D01*
X560340Y132871D01*
X560159Y132930D01*
X559979Y132993D01*
X559945Y132999D01*
X559912Y133010D01*
X559723Y133036D01*
X559535Y133067D01*
X559500Y133067D01*
X559466Y133071D01*
X559276Y133063D01*
X559085Y133061D01*
X559050Y133054D01*
X559016Y133053D01*
X558830Y133012D01*
X558643Y132975D01*
X558610Y132963D01*
X558576Y132955D01*
X558400Y132882D01*
X558223Y132813D01*
X558193Y132795D01*
X558161Y132782D01*
X558000Y132678D01*
X557838Y132579D01*
X557812Y132556D01*
X557783Y132537D01*
X557549Y132330D01*
X557342Y132124D01*
X554168Y130809D01*
X550732Y130809D01*
X547558Y132124D01*
X545128Y134554D01*
X543813Y137728D01*
X543813Y148605D01*
X543799Y148769D01*
X543792Y148933D01*
X543779Y148993D01*
X543773Y149053D01*
X543730Y149212D01*
X543694Y149373D01*
X543671Y149429D01*
X543655Y149488D01*
X543584Y149636D01*
X543521Y149788D01*
X543488Y149839D01*
X543461Y149894D01*
X543366Y150028D01*
X543276Y150166D01*
X543225Y150224D01*
X543199Y150261D01*
X543156Y150303D01*
X543070Y150400D01*
X540022Y153449D01*
X539922Y153532D01*
X539829Y153623D01*
X539749Y153676D01*
X539676Y153737D01*
X539563Y153802D01*
X539456Y153875D01*
X539368Y153913D01*
X539285Y153961D01*
X539163Y154004D01*
X539044Y154057D01*
X538951Y154080D01*
X538861Y154112D01*
X538733Y154133D01*
X538606Y154164D01*
X538511Y154169D01*
X538417Y154185D01*
X538287Y154183D01*
X538157Y154191D01*
X538062Y154180D01*
X537966Y154179D01*
X537839Y154154D01*
X537710Y154139D01*
X537618Y154112D01*
X537524Y154093D01*
X537403Y154047D01*
X537279Y154009D01*
X537193Y153966D01*
X537104Y153931D01*
X536993Y153864D01*
X536877Y153805D01*
X536801Y153747D01*
X536720Y153697D01*
X536622Y153611D01*
X536519Y153533D01*
X536454Y153462D01*
X536382Y153399D01*
X536302Y153297D01*
X536213Y153201D01*
X536162Y153121D01*
X536103Y153046D01*
X536042Y152931D01*
X535972Y152822D01*
X535935Y152733D01*
X535890Y152649D01*
X535850Y152525D01*
X535801Y152405D01*
X535781Y152312D01*
X535751Y152221D01*
X535733Y152092D01*
X535706Y151965D01*
X535698Y151835D01*
X535690Y151775D01*
X535691Y151730D01*
X535687Y151653D01*
X535687Y137728D01*
X534372Y134554D01*
X531942Y132124D01*
X528768Y130809D01*
X525332Y130809D01*
X522158Y132124D01*
X519728Y134554D01*
X518413Y137728D01*
X518413Y154372D01*
X519728Y157546D01*
X522158Y159976D01*
X525332Y161291D01*
X526049Y161291D01*
X526178Y161302D01*
X526309Y161304D01*
X526402Y161322D01*
X526498Y161331D01*
X526623Y161365D01*
X526751Y161390D01*
X526840Y161424D01*
X526932Y161449D01*
X527049Y161505D01*
X527171Y161552D01*
X527252Y161602D01*
X527339Y161643D01*
X527444Y161718D01*
X527555Y161786D01*
X527627Y161849D01*
X527705Y161905D01*
X527795Y161998D01*
X527893Y162084D01*
X527952Y162159D01*
X528019Y162227D01*
X528092Y162335D01*
X528172Y162437D01*
X528217Y162521D01*
X528271Y162600D01*
X528323Y162719D01*
X528385Y162834D01*
X528414Y162925D01*
X528453Y163012D01*
X528484Y163139D01*
X528524Y163262D01*
X528537Y163357D01*
X528560Y163450D01*
X528568Y163579D01*
X528585Y163708D01*
X528581Y163804D01*
X528587Y163899D01*
X528572Y164028D01*
X528567Y164158D01*
X528546Y164251D01*
X528535Y164346D01*
X528498Y164471D01*
X528469Y164598D01*
X528433Y164686D01*
X528405Y164777D01*
X528346Y164893D01*
X528296Y165013D01*
X528244Y165094D01*
X528201Y165179D01*
X528122Y165282D01*
X528051Y165391D01*
X527965Y165489D01*
X527929Y165537D01*
X527896Y165568D01*
X527845Y165626D01*
X462820Y230650D01*
X462694Y230755D01*
X462573Y230867D01*
X462522Y230899D01*
X462475Y230938D01*
X462332Y231020D01*
X462194Y231108D01*
X462137Y231132D01*
X462084Y231162D01*
X461929Y231217D01*
X461777Y231279D01*
X461717Y231292D01*
X461660Y231313D01*
X461498Y231339D01*
X461337Y231374D01*
X461260Y231379D01*
X461216Y231386D01*
X461155Y231385D01*
X461025Y231393D01*
X399343Y231393D01*
X398035Y231935D01*
X390176Y239794D01*
X390050Y239899D01*
X389929Y240011D01*
X389878Y240043D01*
X389831Y240082D01*
X389688Y240164D01*
X389550Y240252D01*
X389493Y240276D01*
X389440Y240306D01*
X389285Y240361D01*
X389133Y240423D01*
X389073Y240436D01*
X389016Y240457D01*
X388854Y240483D01*
X388693Y240518D01*
X388616Y240523D01*
X388572Y240530D01*
X388511Y240529D01*
X388381Y240537D01*
X385935Y240537D01*
X383321Y241620D01*
X381320Y243621D01*
X380237Y246235D01*
X380237Y249065D01*
X381320Y251679D01*
X383321Y253680D01*
X385935Y254763D01*
X388765Y254763D01*
X391379Y253680D01*
X393380Y251679D01*
X394463Y249065D01*
X394463Y246619D01*
X394477Y246455D01*
X394484Y246291D01*
X394497Y246231D01*
X394503Y246171D01*
X394546Y246012D01*
X394582Y245851D01*
X394605Y245795D01*
X394621Y245736D01*
X394692Y245588D01*
X394755Y245436D01*
X394788Y245384D01*
X394815Y245330D01*
X394910Y245196D01*
X395000Y245058D01*
X395051Y245000D01*
X395077Y244963D01*
X395120Y244921D01*
X395206Y244824D01*
X400780Y239250D01*
X400906Y239145D01*
X401027Y239033D01*
X401078Y239001D01*
X401125Y238962D01*
X401268Y238880D01*
X401406Y238792D01*
X401463Y238768D01*
X401516Y238738D01*
X401671Y238683D01*
X401823Y238621D01*
X401883Y238608D01*
X401940Y238587D01*
X402102Y238561D01*
X402263Y238526D01*
X402340Y238521D01*
X402384Y238514D01*
X402445Y238515D01*
X402575Y238507D01*
X464257Y238507D01*
X465565Y237965D01*
X543760Y159770D01*
X543787Y159747D01*
X543810Y159721D01*
X543959Y159603D01*
X544106Y159481D01*
X544136Y159463D01*
X544163Y159442D01*
X544331Y159352D01*
X544497Y159257D01*
X544529Y159246D01*
X544560Y159229D01*
X544741Y159170D01*
X544921Y159107D01*
X544955Y159101D01*
X544988Y159090D01*
X545177Y159064D01*
X545365Y159033D01*
X545400Y159033D01*
X545434Y159029D01*
X545624Y159037D01*
X545815Y159039D01*
X545850Y159046D01*
X545884Y159047D01*
X546070Y159088D01*
X546257Y159125D01*
X546290Y159137D01*
X546324Y159145D01*
X546500Y159218D01*
X546677Y159287D01*
X546707Y159305D01*
X546739Y159318D01*
X546900Y159422D01*
X547062Y159521D01*
X547088Y159544D01*
X547117Y159563D01*
X547351Y159770D01*
X547558Y159976D01*
X550732Y161291D01*
X554168Y161291D01*
X557342Y159976D01*
X559772Y157546D01*
X561087Y154372D01*
X561087Y143495D01*
X561101Y143331D01*
X561108Y143167D01*
X561121Y143107D01*
X561127Y143047D01*
X561170Y142888D01*
X561206Y142727D01*
X561229Y142671D01*
X561245Y142612D01*
X561316Y142464D01*
X561379Y142312D01*
X561412Y142261D01*
X561439Y142206D01*
X561534Y142072D01*
X561624Y141934D01*
X561675Y141876D01*
X561701Y141839D01*
X561744Y141797D01*
X561830Y141700D01*
X564878Y138651D01*
X564978Y138568D01*
X565071Y138477D01*
X565151Y138424D01*
X565224Y138363D01*
X565337Y138298D01*
X565444Y138225D01*
X565532Y138187D01*
X565615Y138139D01*
X565737Y138096D01*
X565856Y138043D01*
X565949Y138020D01*
X566039Y137988D01*
X566167Y137967D01*
X566294Y137936D01*
X566389Y137931D01*
X566483Y137915D01*
X566613Y137917D01*
X566743Y137909D01*
X566838Y137920D01*
X566934Y137921D01*
X567061Y137946D01*
X567190Y137961D01*
X567282Y137988D01*
X567376Y138007D01*
X567497Y138053D01*
X567621Y138091D01*
X567707Y138134D01*
X567796Y138169D01*
X567907Y138236D01*
X568023Y138295D01*
X568099Y138353D01*
X568180Y138403D01*
X568278Y138489D01*
X568381Y138567D01*
X568446Y138638D01*
X568518Y138701D01*
X568598Y138803D01*
X568687Y138899D01*
X568738Y138979D01*
X568797Y139054D01*
X568858Y139169D01*
X568928Y139278D01*
X568965Y139367D01*
X569010Y139451D01*
X569050Y139575D01*
X569099Y139695D01*
X569119Y139788D01*
X569149Y139879D01*
X569167Y140008D01*
X569194Y140135D01*
X569202Y140265D01*
X569210Y140325D01*
X569209Y140370D01*
X569213Y140447D01*
X569213Y154372D01*
X570528Y157546D01*
X572958Y159976D01*
X576132Y161291D01*
X576849Y161291D01*
X576978Y161302D01*
X577109Y161304D01*
X577202Y161322D01*
X577298Y161331D01*
X577423Y161365D01*
X577551Y161390D01*
X577640Y161424D01*
X577732Y161449D01*
X577849Y161505D01*
X577971Y161552D01*
X578052Y161602D01*
X578139Y161643D01*
X578244Y161718D01*
X578355Y161786D01*
X578427Y161849D01*
X578505Y161905D01*
X578595Y161998D01*
X578693Y162084D01*
X578752Y162159D01*
X578819Y162227D01*
X578892Y162335D01*
X578972Y162437D01*
X579017Y162521D01*
X579071Y162600D01*
X579123Y162719D01*
X579185Y162834D01*
X579214Y162925D01*
X579253Y163012D01*
X579284Y163139D01*
X579324Y163262D01*
X579337Y163357D01*
X579360Y163450D01*
X579368Y163579D01*
X579385Y163708D01*
X579381Y163804D01*
X579387Y163899D01*
X579372Y164028D01*
X579367Y164158D01*
X579346Y164251D01*
X579335Y164346D01*
X579298Y164471D01*
X579269Y164598D01*
X579233Y164686D01*
X579205Y164777D01*
X579146Y164893D01*
X579096Y165013D01*
X579044Y165094D01*
X579001Y165179D01*
X578922Y165282D01*
X578851Y165391D01*
X578765Y165489D01*
X578729Y165537D01*
X578696Y165568D01*
X578645Y165626D01*
X488220Y256050D01*
X488094Y256155D01*
X487973Y256267D01*
X487922Y256299D01*
X487875Y256338D01*
X487732Y256420D01*
X487594Y256508D01*
X487537Y256532D01*
X487484Y256562D01*
X487329Y256617D01*
X487177Y256679D01*
X487117Y256692D01*
X487060Y256713D01*
X486898Y256739D01*
X486737Y256774D01*
X486660Y256779D01*
X486616Y256786D01*
X486555Y256785D01*
X486425Y256793D01*
X418393Y256793D01*
X417085Y257335D01*
X415576Y258844D01*
X415450Y258949D01*
X415329Y259061D01*
X415278Y259093D01*
X415231Y259132D01*
X415088Y259214D01*
X414950Y259302D01*
X414893Y259326D01*
X414840Y259356D01*
X414685Y259411D01*
X414533Y259473D01*
X414473Y259486D01*
X414416Y259507D01*
X414254Y259533D01*
X414093Y259568D01*
X414016Y259573D01*
X413972Y259580D01*
X413911Y259579D01*
X413781Y259587D01*
X411335Y259587D01*
X408721Y260670D01*
X406720Y262671D01*
X405637Y265285D01*
X405637Y268115D01*
X406720Y270729D01*
X408721Y272730D01*
X411335Y273813D01*
X414165Y273813D01*
X416779Y272730D01*
X418780Y270729D01*
X419863Y268115D01*
X419863Y266446D01*
X419866Y266411D01*
X419864Y266377D01*
X419886Y266187D01*
X419903Y265997D01*
X419912Y265964D01*
X419916Y265930D01*
X419971Y265747D01*
X420021Y265563D01*
X420036Y265532D01*
X420046Y265499D01*
X420133Y265328D01*
X420215Y265156D01*
X420235Y265128D01*
X420250Y265097D01*
X420366Y264945D01*
X420477Y264790D01*
X420502Y264766D01*
X420522Y264739D01*
X420662Y264610D01*
X420799Y264476D01*
X420828Y264457D01*
X420854Y264433D01*
X421015Y264331D01*
X421172Y264224D01*
X421204Y264210D01*
X421233Y264192D01*
X421410Y264119D01*
X421584Y264042D01*
X421618Y264034D01*
X421650Y264021D01*
X421837Y263981D01*
X422022Y263935D01*
X422056Y263933D01*
X422090Y263926D01*
X422402Y263907D01*
X489657Y263907D01*
X490965Y263365D01*
X594560Y159770D01*
X594587Y159747D01*
X594610Y159721D01*
X594759Y159603D01*
X594906Y159481D01*
X594936Y159463D01*
X594963Y159442D01*
X595131Y159352D01*
X595297Y159257D01*
X595329Y159246D01*
X595360Y159229D01*
X595541Y159170D01*
X595721Y159107D01*
X595755Y159101D01*
X595788Y159090D01*
X595977Y159064D01*
X596165Y159033D01*
X596200Y159033D01*
X596234Y159029D01*
X596424Y159037D01*
X596615Y159039D01*
X596650Y159046D01*
X596684Y159047D01*
X596870Y159088D01*
X597057Y159125D01*
X597090Y159137D01*
X597124Y159145D01*
X597300Y159218D01*
X597477Y159287D01*
X597507Y159305D01*
X597539Y159318D01*
X597700Y159422D01*
X597862Y159521D01*
X597888Y159544D01*
X597917Y159563D01*
X598151Y159770D01*
X598358Y159976D01*
X601532Y161291D01*
X604968Y161291D01*
X608142Y159976D01*
X610572Y157546D01*
X611887Y154372D01*
X611887Y137728D01*
X610572Y134554D01*
X608142Y132124D01*
X604968Y130809D01*
X601532Y130809D01*
X598358Y132124D01*
X595928Y134554D01*
X594613Y137728D01*
X594613Y148605D01*
X594599Y148769D01*
X594592Y148933D01*
X594579Y148993D01*
X594573Y149053D01*
X594530Y149212D01*
X594494Y149373D01*
X594471Y149429D01*
X594455Y149488D01*
X594384Y149636D01*
X594321Y149788D01*
X594288Y149839D01*
X594261Y149894D01*
X594166Y150028D01*
X594076Y150166D01*
X594025Y150224D01*
X593999Y150261D01*
X593956Y150303D01*
X593870Y150400D01*
X590822Y153449D01*
X590722Y153532D01*
X590629Y153623D01*
X590549Y153676D01*
X590476Y153737D01*
X590363Y153802D01*
X590256Y153875D01*
X590168Y153913D01*
X590085Y153961D01*
X589963Y154004D01*
X589844Y154057D01*
X589751Y154080D01*
X589661Y154112D01*
X589533Y154133D01*
X589406Y154164D01*
X589311Y154169D01*
X589217Y154185D01*
X589087Y154183D01*
X588957Y154191D01*
X588862Y154180D01*
X588766Y154179D01*
X588639Y154154D01*
X588510Y154139D01*
X588418Y154112D01*
X588324Y154093D01*
X588203Y154047D01*
X588079Y154009D01*
X587993Y153966D01*
X587904Y153931D01*
X587793Y153864D01*
X587677Y153805D01*
X587601Y153747D01*
X587520Y153697D01*
X587422Y153611D01*
X587319Y153533D01*
X587254Y153462D01*
X587182Y153399D01*
X587102Y153297D01*
X587013Y153201D01*
X586962Y153121D01*
X586903Y153046D01*
X586842Y152931D01*
X586772Y152822D01*
X586735Y152733D01*
X586690Y152649D01*
X586650Y152525D01*
X586601Y152405D01*
X586581Y152312D01*
X586551Y152221D01*
X586533Y152092D01*
X586506Y151965D01*
X586498Y151835D01*
X586490Y151775D01*
X586491Y151730D01*
X586487Y151653D01*
X586487Y137728D01*
X585172Y134554D01*
X582742Y132124D01*
X579568Y130809D01*
X578851Y130809D01*
X578722Y130798D01*
X578591Y130796D01*
X578498Y130778D01*
X578402Y130769D01*
X578277Y130735D01*
X578149Y130710D01*
X578060Y130676D01*
X577968Y130651D01*
X577851Y130595D01*
X577729Y130548D01*
X577648Y130498D01*
X577561Y130457D01*
X577456Y130382D01*
X577345Y130314D01*
X577273Y130251D01*
X577195Y130195D01*
X577105Y130102D01*
X577007Y130016D01*
X576948Y129941D01*
X576881Y129873D01*
X576808Y129765D01*
X576728Y129663D01*
X576683Y129579D01*
X576629Y129500D01*
X576577Y129381D01*
X576515Y129266D01*
X576486Y129175D01*
X576447Y129088D01*
X576416Y128961D01*
X576376Y128838D01*
X576363Y128743D01*
X576340Y128650D01*
X576332Y128521D01*
X576315Y128392D01*
X576319Y128296D01*
X576313Y128201D01*
X576328Y128072D01*
X576333Y127942D01*
X576354Y127849D01*
X576365Y127754D01*
X576402Y127629D01*
X576431Y127502D01*
X576467Y127414D01*
X576495Y127323D01*
X576554Y127207D01*
X576604Y127087D01*
X576656Y127006D01*
X576699Y126921D01*
X576778Y126818D01*
X576849Y126709D01*
X576935Y126611D01*
X576971Y126563D01*
X577004Y126532D01*
X577055Y126474D01*
X635984Y67546D01*
X636110Y67441D01*
X636231Y67329D01*
X636282Y67297D01*
X636329Y67258D01*
X636472Y67176D01*
X636610Y67088D01*
X636667Y67064D01*
X636720Y67034D01*
X636875Y66979D01*
X637027Y66917D01*
X637087Y66904D01*
X637144Y66883D01*
X637306Y66857D01*
X637467Y66822D01*
X637544Y66817D01*
X637588Y66810D01*
X637649Y66811D01*
X637779Y66803D01*
X643462Y66803D01*
X644653Y65612D01*
X644653Y48688D01*
X643462Y47497D01*
X626538Y47497D01*
G37*
%LPD*%
%LPC*%
G36*
X525332Y283209D02*
X525332Y283209D01*
X522158Y284524D01*
X519728Y286954D01*
X518413Y290128D01*
X518413Y306772D01*
X519728Y309946D01*
X522158Y312376D01*
X525332Y313691D01*
X528768Y313691D01*
X531942Y312376D01*
X534372Y309946D01*
X535687Y306772D01*
X535687Y290128D01*
X534372Y286954D01*
X531942Y284524D01*
X528768Y283209D01*
X525332Y283209D01*
G37*
%LPD*%
%LPC*%
G36*
X550732Y283209D02*
X550732Y283209D01*
X547558Y284524D01*
X545128Y286954D01*
X543813Y290128D01*
X543813Y306772D01*
X545128Y309946D01*
X547558Y312376D01*
X550732Y313691D01*
X554168Y313691D01*
X557342Y312376D01*
X559772Y309946D01*
X561087Y306772D01*
X561087Y290128D01*
X559772Y286954D01*
X557342Y284524D01*
X554168Y283209D01*
X550732Y283209D01*
G37*
%LPD*%
%LPC*%
G36*
X576132Y283209D02*
X576132Y283209D01*
X572958Y284524D01*
X570528Y286954D01*
X569213Y290128D01*
X569213Y306772D01*
X570528Y309946D01*
X572958Y312376D01*
X576132Y313691D01*
X579568Y313691D01*
X582742Y312376D01*
X585172Y309946D01*
X586487Y306772D01*
X586487Y290128D01*
X585172Y286954D01*
X582742Y284524D01*
X579568Y283209D01*
X576132Y283209D01*
G37*
%LPD*%
%LPC*%
G36*
X474532Y130809D02*
X474532Y130809D01*
X471358Y132124D01*
X468928Y134554D01*
X467613Y137728D01*
X467613Y154372D01*
X468928Y157546D01*
X471358Y159976D01*
X474532Y161291D01*
X477968Y161291D01*
X481142Y159976D01*
X483572Y157546D01*
X484887Y154372D01*
X484887Y137728D01*
X483572Y134554D01*
X481142Y132124D01*
X477968Y130809D01*
X474532Y130809D01*
G37*
%LPD*%
%LPC*%
G36*
X423732Y130809D02*
X423732Y130809D01*
X420558Y132124D01*
X418128Y134554D01*
X416813Y137728D01*
X416813Y154372D01*
X418128Y157546D01*
X420558Y159976D01*
X423732Y161291D01*
X427168Y161291D01*
X430342Y159976D01*
X432772Y157546D01*
X434087Y154372D01*
X434087Y137728D01*
X432772Y134554D01*
X430342Y132124D01*
X427168Y130809D01*
X423732Y130809D01*
G37*
%LPD*%
%LPC*%
G36*
X398332Y130809D02*
X398332Y130809D01*
X395158Y132124D01*
X392728Y134554D01*
X391413Y137728D01*
X391413Y154372D01*
X392728Y157546D01*
X395158Y159976D01*
X398332Y161291D01*
X401768Y161291D01*
X404942Y159976D01*
X407372Y157546D01*
X408687Y154372D01*
X408687Y137728D01*
X407372Y134554D01*
X404942Y132124D01*
X401768Y130809D01*
X398332Y130809D01*
G37*
%LPD*%
%LPC*%
G36*
X372932Y130809D02*
X372932Y130809D01*
X369758Y132124D01*
X367328Y134554D01*
X366013Y137728D01*
X366013Y154372D01*
X367328Y157546D01*
X369758Y159976D01*
X372932Y161291D01*
X376368Y161291D01*
X379542Y159976D01*
X381972Y157546D01*
X383287Y154372D01*
X383287Y137728D01*
X381972Y134554D01*
X379542Y132124D01*
X376368Y130809D01*
X372932Y130809D01*
G37*
%LPD*%
%LPC*%
G36*
X176082Y168909D02*
X176082Y168909D01*
X172908Y170224D01*
X170478Y172654D01*
X169163Y175828D01*
X169163Y192472D01*
X170478Y195646D01*
X172908Y198076D01*
X176082Y199391D01*
X179518Y199391D01*
X182692Y198076D01*
X185122Y195646D01*
X186437Y192472D01*
X186437Y175828D01*
X185122Y172654D01*
X182692Y170224D01*
X179518Y168909D01*
X176082Y168909D01*
G37*
%LPD*%
%LPC*%
G36*
X449132Y130809D02*
X449132Y130809D01*
X445958Y132124D01*
X443528Y134554D01*
X442213Y137728D01*
X442213Y154372D01*
X443528Y157546D01*
X445958Y159976D01*
X449132Y161291D01*
X452568Y161291D01*
X455742Y159976D01*
X458172Y157546D01*
X459487Y154372D01*
X459487Y137728D01*
X458172Y134554D01*
X455742Y132124D01*
X452568Y130809D01*
X449132Y130809D01*
G37*
%LPD*%
%LPC*%
G36*
X398332Y283209D02*
X398332Y283209D01*
X395158Y284524D01*
X392728Y286954D01*
X391413Y290128D01*
X391413Y306772D01*
X392728Y309946D01*
X395158Y312376D01*
X398332Y313691D01*
X401768Y313691D01*
X404942Y312376D01*
X407372Y309946D01*
X408687Y306772D01*
X408687Y290128D01*
X407372Y286954D01*
X404942Y284524D01*
X401768Y283209D01*
X398332Y283209D01*
G37*
%LPD*%
%LPC*%
G36*
X288102Y409447D02*
X288102Y409447D01*
X282447Y415102D01*
X282447Y423098D01*
X288102Y428753D01*
X296098Y428753D01*
X301753Y423098D01*
X301753Y415102D01*
X296098Y409447D01*
X288102Y409447D01*
G37*
%LPD*%
%LPC*%
G36*
X186502Y384047D02*
X186502Y384047D01*
X180847Y389702D01*
X180847Y397698D01*
X186502Y403353D01*
X194498Y403353D01*
X200153Y397698D01*
X200153Y389702D01*
X194498Y384047D01*
X186502Y384047D01*
G37*
%LPD*%
%LPC*%
G36*
X237302Y384047D02*
X237302Y384047D01*
X231647Y389702D01*
X231647Y397698D01*
X237302Y403353D01*
X245298Y403353D01*
X250953Y397698D01*
X250953Y389702D01*
X245298Y384047D01*
X237302Y384047D01*
G37*
%LPD*%
%LPC*%
G36*
X262702Y384047D02*
X262702Y384047D01*
X257047Y389702D01*
X257047Y397698D01*
X262702Y403353D01*
X270698Y403353D01*
X276353Y397698D01*
X276353Y389702D01*
X270698Y384047D01*
X262702Y384047D01*
G37*
%LPD*%
%LPC*%
G36*
X288102Y384047D02*
X288102Y384047D01*
X282447Y389702D01*
X282447Y397698D01*
X288102Y403353D01*
X296098Y403353D01*
X301753Y397698D01*
X301753Y389702D01*
X296098Y384047D01*
X288102Y384047D01*
G37*
%LPD*%
%LPC*%
G36*
X135702Y384047D02*
X135702Y384047D01*
X130047Y389702D01*
X130047Y397698D01*
X135702Y403353D01*
X143698Y403353D01*
X149353Y397698D01*
X149353Y389702D01*
X143698Y384047D01*
X135702Y384047D01*
G37*
%LPD*%
%LPC*%
G36*
X161102Y384047D02*
X161102Y384047D01*
X155447Y389702D01*
X155447Y397698D01*
X161102Y403353D01*
X169098Y403353D01*
X174753Y397698D01*
X174753Y389702D01*
X169098Y384047D01*
X161102Y384047D01*
G37*
%LPD*%
%LPC*%
G36*
X211902Y384047D02*
X211902Y384047D01*
X206247Y389702D01*
X206247Y397698D01*
X211902Y403353D01*
X219898Y403353D01*
X225553Y397698D01*
X225553Y389702D01*
X219898Y384047D01*
X211902Y384047D01*
G37*
%LPD*%
%LPC*%
G36*
X529402Y47497D02*
X529402Y47497D01*
X523747Y53152D01*
X523747Y61148D01*
X529402Y66803D01*
X537398Y66803D01*
X543053Y61148D01*
X543053Y53152D01*
X537398Y47497D01*
X529402Y47497D01*
G37*
%LPD*%
%LPC*%
G36*
X580202Y47497D02*
X580202Y47497D01*
X574547Y53152D01*
X574547Y61148D01*
X580202Y66803D01*
X588198Y66803D01*
X593853Y61148D01*
X593853Y53152D01*
X588198Y47497D01*
X580202Y47497D01*
G37*
%LPD*%
%LPC*%
G36*
X605602Y47497D02*
X605602Y47497D01*
X599947Y53152D01*
X599947Y61148D01*
X605602Y66803D01*
X613598Y66803D01*
X619253Y61148D01*
X619253Y53152D01*
X613598Y47497D01*
X605602Y47497D01*
G37*
%LPD*%
%LPC*%
G36*
X554802Y47497D02*
X554802Y47497D01*
X549147Y53152D01*
X549147Y61148D01*
X554802Y66803D01*
X562798Y66803D01*
X568453Y61148D01*
X568453Y53152D01*
X562798Y47497D01*
X554802Y47497D01*
G37*
%LPD*%
G36*
X509473Y409968D02*
X509473Y409968D01*
X509603Y409970D01*
X509697Y409988D01*
X509792Y409997D01*
X509918Y410031D01*
X510045Y410056D01*
X510134Y410090D01*
X510226Y410115D01*
X510344Y410171D01*
X510465Y410218D01*
X510547Y410268D01*
X510633Y410309D01*
X510739Y410384D01*
X510850Y410452D01*
X510921Y410515D01*
X510999Y410571D01*
X511090Y410664D01*
X511187Y410750D01*
X511247Y410825D01*
X511313Y410893D01*
X511386Y411001D01*
X511467Y411103D01*
X511512Y411187D01*
X511565Y411266D01*
X511618Y411385D01*
X511679Y411500D01*
X511709Y411591D01*
X511748Y411678D01*
X511778Y411805D01*
X511819Y411928D01*
X511832Y412023D01*
X511854Y412116D01*
X511862Y412245D01*
X511880Y412374D01*
X511876Y412470D01*
X511882Y412565D01*
X511867Y412694D01*
X511862Y412824D01*
X511841Y412917D01*
X511830Y413012D01*
X511792Y413137D01*
X511764Y413264D01*
X511727Y413352D01*
X511700Y413443D01*
X511640Y413559D01*
X511590Y413679D01*
X511539Y413759D01*
X511495Y413845D01*
X511417Y413948D01*
X511346Y414057D01*
X511260Y414155D01*
X511223Y414203D01*
X511190Y414234D01*
X511139Y414292D01*
X510539Y414891D01*
X510539Y416561D01*
X520700Y416561D01*
X520734Y416564D01*
X520769Y416562D01*
X520958Y416584D01*
X521148Y416600D01*
X521182Y416610D01*
X521216Y416614D01*
X521399Y416669D01*
X521583Y416719D01*
X521614Y416734D01*
X521647Y416744D01*
X521818Y416831D01*
X521989Y416912D01*
X522017Y416933D01*
X522048Y416948D01*
X522200Y417063D01*
X522355Y417175D01*
X522379Y417199D01*
X522407Y417220D01*
X522536Y417360D01*
X522669Y417497D01*
X522689Y417526D01*
X522712Y417551D01*
X522815Y417712D01*
X522921Y417870D01*
X522935Y417902D01*
X522954Y417931D01*
X523026Y418108D01*
X523104Y418282D01*
X523112Y418316D01*
X523125Y418348D01*
X523165Y418534D01*
X523210Y418719D01*
X523212Y418754D01*
X523220Y418788D01*
X523239Y419100D01*
X523236Y419135D01*
X523238Y419169D01*
X523216Y419359D01*
X523199Y419549D01*
X523190Y419582D01*
X523186Y419616D01*
X523131Y419799D01*
X523080Y419983D01*
X523066Y420014D01*
X523056Y420047D01*
X522969Y420218D01*
X522887Y420390D01*
X522867Y420418D01*
X522851Y420449D01*
X522736Y420601D01*
X522625Y420756D01*
X522600Y420780D01*
X522579Y420807D01*
X522439Y420937D01*
X522302Y421070D01*
X522274Y421089D01*
X522248Y421113D01*
X522087Y421215D01*
X521929Y421322D01*
X521898Y421336D01*
X521868Y421354D01*
X521692Y421427D01*
X521517Y421504D01*
X521484Y421512D01*
X521452Y421525D01*
X521265Y421566D01*
X521080Y421611D01*
X521046Y421613D01*
X521012Y421620D01*
X520700Y421639D01*
X510539Y421639D01*
X510539Y423309D01*
X511139Y423908D01*
X511222Y424008D01*
X511313Y424101D01*
X511367Y424181D01*
X511428Y424254D01*
X511492Y424367D01*
X511565Y424474D01*
X511604Y424562D01*
X511651Y424645D01*
X511695Y424767D01*
X511748Y424886D01*
X511770Y424979D01*
X511802Y425069D01*
X511823Y425197D01*
X511854Y425324D01*
X511860Y425419D01*
X511876Y425513D01*
X511874Y425643D01*
X511882Y425773D01*
X511871Y425868D01*
X511870Y425964D01*
X511845Y426091D01*
X511830Y426220D01*
X511802Y426312D01*
X511784Y426406D01*
X511737Y426527D01*
X511700Y426651D01*
X511656Y426737D01*
X511622Y426826D01*
X511554Y426937D01*
X511495Y427053D01*
X511437Y427129D01*
X511388Y427210D01*
X511302Y427308D01*
X511223Y427411D01*
X511153Y427476D01*
X511090Y427548D01*
X510988Y427628D01*
X510892Y427717D01*
X510811Y427768D01*
X510737Y427827D01*
X510622Y427889D01*
X510512Y427958D01*
X510424Y427995D01*
X510340Y428040D01*
X510216Y428080D01*
X510096Y428129D01*
X510002Y428149D01*
X509911Y428179D01*
X509783Y428197D01*
X509655Y428224D01*
X509525Y428232D01*
X509465Y428240D01*
X509421Y428239D01*
X509344Y428243D01*
X505938Y428243D01*
X505808Y428232D01*
X505678Y428230D01*
X505585Y428212D01*
X505490Y428203D01*
X505364Y428169D01*
X505236Y428144D01*
X505147Y428110D01*
X505055Y428085D01*
X504938Y428029D01*
X504816Y427982D01*
X504735Y427932D01*
X504649Y427891D01*
X504543Y427816D01*
X504432Y427748D01*
X504360Y427685D01*
X504282Y427629D01*
X504192Y427536D01*
X504094Y427450D01*
X504035Y427375D01*
X503968Y427307D01*
X503896Y427199D01*
X503815Y427097D01*
X503770Y427013D01*
X503716Y426934D01*
X503664Y426815D01*
X503602Y426700D01*
X503573Y426609D01*
X503534Y426522D01*
X503503Y426395D01*
X503463Y426272D01*
X503450Y426177D01*
X503427Y426084D01*
X503419Y425955D01*
X503402Y425826D01*
X503406Y425730D01*
X503400Y425635D01*
X503415Y425506D01*
X503420Y425376D01*
X503441Y425283D01*
X503452Y425188D01*
X503489Y425063D01*
X503518Y424936D01*
X503554Y424848D01*
X503582Y424757D01*
X503641Y424641D01*
X503691Y424521D01*
X503743Y424441D01*
X503786Y424355D01*
X503865Y424252D01*
X503936Y424143D01*
X504022Y424045D01*
X504058Y423997D01*
X504091Y423966D01*
X504143Y423908D01*
X504953Y423098D01*
X504953Y415102D01*
X504143Y414292D01*
X504059Y414192D01*
X503968Y414099D01*
X503915Y414019D01*
X503854Y413946D01*
X503789Y413833D01*
X503716Y413726D01*
X503678Y413638D01*
X503630Y413555D01*
X503587Y413433D01*
X503534Y413314D01*
X503511Y413221D01*
X503479Y413131D01*
X503458Y413003D01*
X503427Y412876D01*
X503422Y412781D01*
X503406Y412687D01*
X503408Y412557D01*
X503400Y412427D01*
X503411Y412332D01*
X503412Y412236D01*
X503437Y412109D01*
X503452Y411980D01*
X503479Y411888D01*
X503498Y411794D01*
X503544Y411673D01*
X503582Y411549D01*
X503626Y411463D01*
X503660Y411374D01*
X503727Y411263D01*
X503786Y411147D01*
X503844Y411071D01*
X503894Y410990D01*
X503980Y410892D01*
X504058Y410789D01*
X504129Y410724D01*
X504192Y410652D01*
X504294Y410572D01*
X504390Y410483D01*
X504470Y410432D01*
X504545Y410373D01*
X504660Y410311D01*
X504769Y410242D01*
X504858Y410205D01*
X504942Y410160D01*
X505066Y410120D01*
X505186Y410071D01*
X505279Y410051D01*
X505370Y410021D01*
X505499Y410003D01*
X505626Y409976D01*
X505756Y409968D01*
X505816Y409960D01*
X505861Y409961D01*
X505938Y409957D01*
X509344Y409957D01*
X509473Y409968D01*
G37*
%LPC*%
G36*
X205739Y186689D02*
X205739Y186689D01*
X205739Y199544D01*
X206710Y199229D01*
X207993Y198575D01*
X209157Y197729D01*
X210175Y196711D01*
X211021Y195547D01*
X211675Y194264D01*
X212120Y192896D01*
X212345Y191474D01*
X212345Y186689D01*
X205739Y186689D01*
G37*
%LPD*%
%LPC*%
G36*
X631189Y148589D02*
X631189Y148589D01*
X631189Y161444D01*
X632160Y161129D01*
X633443Y160475D01*
X634607Y159629D01*
X635625Y158611D01*
X636471Y157447D01*
X637125Y156164D01*
X637570Y154796D01*
X637795Y153374D01*
X637795Y148589D01*
X631189Y148589D01*
G37*
%LPD*%
%LPC*%
G36*
X427989Y295911D02*
X427989Y295911D01*
X434595Y295911D01*
X434595Y291126D01*
X434370Y289704D01*
X433925Y288336D01*
X433271Y287053D01*
X432425Y285889D01*
X431407Y284871D01*
X430243Y284025D01*
X428960Y283371D01*
X427989Y283056D01*
X427989Y295911D01*
G37*
%LPD*%
%LPC*%
G36*
X631189Y143511D02*
X631189Y143511D01*
X637795Y143511D01*
X637795Y138726D01*
X637570Y137304D01*
X637125Y135936D01*
X636471Y134653D01*
X635625Y133489D01*
X634607Y132471D01*
X633443Y131625D01*
X632160Y130971D01*
X631189Y130656D01*
X631189Y143511D01*
G37*
%LPD*%
%LPC*%
G36*
X205739Y181611D02*
X205739Y181611D01*
X212345Y181611D01*
X212345Y176826D01*
X212120Y175404D01*
X211675Y174036D01*
X211021Y172753D01*
X210175Y171589D01*
X209157Y170571D01*
X207993Y169725D01*
X206710Y169071D01*
X205739Y168756D01*
X205739Y181611D01*
G37*
%LPD*%
%LPC*%
G36*
X194055Y186689D02*
X194055Y186689D01*
X194055Y191474D01*
X194280Y192896D01*
X194725Y194264D01*
X195379Y195547D01*
X196225Y196711D01*
X197243Y197729D01*
X198407Y198575D01*
X199690Y199229D01*
X200661Y199544D01*
X200661Y186689D01*
X194055Y186689D01*
G37*
%LPD*%
%LPC*%
G36*
X619505Y148589D02*
X619505Y148589D01*
X619505Y153374D01*
X619730Y154796D01*
X620175Y156164D01*
X620829Y157447D01*
X621675Y158611D01*
X622693Y159629D01*
X623857Y160475D01*
X625140Y161129D01*
X626111Y161444D01*
X626111Y148589D01*
X619505Y148589D01*
G37*
%LPD*%
%LPC*%
G36*
X421940Y283371D02*
X421940Y283371D01*
X420657Y284025D01*
X419493Y284871D01*
X418475Y285889D01*
X417629Y287053D01*
X416975Y288336D01*
X416530Y289704D01*
X416305Y291126D01*
X416305Y295911D01*
X422911Y295911D01*
X422911Y283056D01*
X421940Y283371D01*
G37*
%LPD*%
%LPC*%
G36*
X199690Y169071D02*
X199690Y169071D01*
X198407Y169725D01*
X197243Y170571D01*
X196225Y171589D01*
X195379Y172753D01*
X194725Y174036D01*
X194280Y175404D01*
X194055Y176826D01*
X194055Y181611D01*
X200661Y181611D01*
X200661Y168756D01*
X199690Y169071D01*
G37*
%LPD*%
%LPC*%
G36*
X625140Y130971D02*
X625140Y130971D01*
X623857Y131625D01*
X622693Y132471D01*
X621675Y133489D01*
X620829Y134653D01*
X620175Y135936D01*
X619730Y137304D01*
X619505Y138726D01*
X619505Y143511D01*
X626111Y143511D01*
X626111Y130656D01*
X625140Y130971D01*
G37*
%LPD*%
%LPC*%
G36*
X561339Y34289D02*
X561339Y34289D01*
X561339Y41911D01*
X563009Y41911D01*
X568961Y35959D01*
X568961Y34289D01*
X561339Y34289D01*
G37*
%LPD*%
%LPC*%
G36*
X383539Y34289D02*
X383539Y34289D01*
X383539Y41911D01*
X385209Y41911D01*
X391161Y35959D01*
X391161Y34289D01*
X383539Y34289D01*
G37*
%LPD*%
%LPC*%
G36*
X408939Y34289D02*
X408939Y34289D01*
X408939Y41911D01*
X410609Y41911D01*
X416561Y35959D01*
X416561Y34289D01*
X408939Y34289D01*
G37*
%LPD*%
%LPC*%
G36*
X637539Y34289D02*
X637539Y34289D01*
X637539Y41911D01*
X639209Y41911D01*
X645161Y35959D01*
X645161Y34289D01*
X637539Y34289D01*
G37*
%LPD*%
%LPC*%
G36*
X459739Y34289D02*
X459739Y34289D01*
X459739Y41911D01*
X461409Y41911D01*
X467361Y35959D01*
X467361Y34289D01*
X459739Y34289D01*
G37*
%LPD*%
%LPC*%
G36*
X485139Y34289D02*
X485139Y34289D01*
X485139Y41911D01*
X486809Y41911D01*
X492761Y35959D01*
X492761Y34289D01*
X485139Y34289D01*
G37*
%LPD*%
%LPC*%
G36*
X510539Y34289D02*
X510539Y34289D01*
X510539Y41911D01*
X512209Y41911D01*
X518161Y35959D01*
X518161Y34289D01*
X510539Y34289D01*
G37*
%LPD*%
%LPC*%
G36*
X535939Y34289D02*
X535939Y34289D01*
X535939Y41911D01*
X537609Y41911D01*
X543561Y35959D01*
X543561Y34289D01*
X535939Y34289D01*
G37*
%LPD*%
%LPC*%
G36*
X434339Y34289D02*
X434339Y34289D01*
X434339Y41911D01*
X436009Y41911D01*
X441961Y35959D01*
X441961Y34289D01*
X434339Y34289D01*
G37*
%LPD*%
%LPC*%
G36*
X586739Y34289D02*
X586739Y34289D01*
X586739Y41911D01*
X588409Y41911D01*
X594361Y35959D01*
X594361Y34289D01*
X586739Y34289D01*
G37*
%LPD*%
%LPC*%
G36*
X612139Y34289D02*
X612139Y34289D01*
X612139Y41911D01*
X613809Y41911D01*
X619761Y35959D01*
X619761Y34289D01*
X612139Y34289D01*
G37*
%LPD*%
%LPC*%
G36*
X447039Y34289D02*
X447039Y34289D01*
X447039Y35959D01*
X452991Y41911D01*
X454661Y41911D01*
X454661Y34289D01*
X447039Y34289D01*
G37*
%LPD*%
%LPC*%
G36*
X586739Y21589D02*
X586739Y21589D01*
X586739Y29211D01*
X594361Y29211D01*
X594361Y27541D01*
X588409Y21589D01*
X586739Y21589D01*
G37*
%LPD*%
%LPC*%
G36*
X561339Y21589D02*
X561339Y21589D01*
X561339Y29211D01*
X568961Y29211D01*
X568961Y27541D01*
X563009Y21589D01*
X561339Y21589D01*
G37*
%LPD*%
%LPC*%
G36*
X637539Y21589D02*
X637539Y21589D01*
X637539Y29211D01*
X645161Y29211D01*
X645161Y27541D01*
X639209Y21589D01*
X637539Y21589D01*
G37*
%LPD*%
%LPC*%
G36*
X27939Y21589D02*
X27939Y21589D01*
X27939Y29211D01*
X35561Y29211D01*
X35561Y27541D01*
X29609Y21589D01*
X27939Y21589D01*
G37*
%LPD*%
%LPC*%
G36*
X612139Y21589D02*
X612139Y21589D01*
X612139Y29211D01*
X619761Y29211D01*
X619761Y27541D01*
X613809Y21589D01*
X612139Y21589D01*
G37*
%LPD*%
%LPC*%
G36*
X535939Y21589D02*
X535939Y21589D01*
X535939Y29211D01*
X543561Y29211D01*
X543561Y27541D01*
X537609Y21589D01*
X535939Y21589D01*
G37*
%LPD*%
%LPC*%
G36*
X510539Y21589D02*
X510539Y21589D01*
X510539Y29211D01*
X518161Y29211D01*
X518161Y27541D01*
X512209Y21589D01*
X510539Y21589D01*
G37*
%LPD*%
%LPC*%
G36*
X548639Y34289D02*
X548639Y34289D01*
X548639Y35959D01*
X554591Y41911D01*
X556261Y41911D01*
X556261Y34289D01*
X548639Y34289D01*
G37*
%LPD*%
%LPC*%
G36*
X497839Y34289D02*
X497839Y34289D01*
X497839Y35959D01*
X503791Y41911D01*
X505461Y41911D01*
X505461Y34289D01*
X497839Y34289D01*
G37*
%LPD*%
%LPC*%
G36*
X396239Y34289D02*
X396239Y34289D01*
X396239Y35959D01*
X402191Y41911D01*
X403861Y41911D01*
X403861Y34289D01*
X396239Y34289D01*
G37*
%LPD*%
%LPC*%
G36*
X472439Y34289D02*
X472439Y34289D01*
X472439Y35959D01*
X478391Y41911D01*
X480061Y41911D01*
X480061Y34289D01*
X472439Y34289D01*
G37*
%LPD*%
%LPC*%
G36*
X599439Y34289D02*
X599439Y34289D01*
X599439Y35959D01*
X605391Y41911D01*
X607061Y41911D01*
X607061Y34289D01*
X599439Y34289D01*
G37*
%LPD*%
%LPC*%
G36*
X421639Y34289D02*
X421639Y34289D01*
X421639Y35959D01*
X427591Y41911D01*
X429261Y41911D01*
X429261Y34289D01*
X421639Y34289D01*
G37*
%LPD*%
%LPC*%
G36*
X624839Y34289D02*
X624839Y34289D01*
X624839Y35959D01*
X630791Y41911D01*
X632461Y41911D01*
X632461Y34289D01*
X624839Y34289D01*
G37*
%LPD*%
%LPC*%
G36*
X574039Y34289D02*
X574039Y34289D01*
X574039Y35959D01*
X579991Y41911D01*
X581661Y41911D01*
X581661Y34289D01*
X574039Y34289D01*
G37*
%LPD*%
%LPC*%
G36*
X485139Y21589D02*
X485139Y21589D01*
X485139Y29211D01*
X492761Y29211D01*
X492761Y27541D01*
X486809Y21589D01*
X485139Y21589D01*
G37*
%LPD*%
%LPC*%
G36*
X523239Y34289D02*
X523239Y34289D01*
X523239Y35959D01*
X529191Y41911D01*
X530861Y41911D01*
X530861Y34289D01*
X523239Y34289D01*
G37*
%LPD*%
%LPC*%
G36*
X434339Y21589D02*
X434339Y21589D01*
X434339Y29211D01*
X441961Y29211D01*
X441961Y27541D01*
X436009Y21589D01*
X434339Y21589D01*
G37*
%LPD*%
%LPC*%
G36*
X408939Y21589D02*
X408939Y21589D01*
X408939Y29211D01*
X416561Y29211D01*
X416561Y27541D01*
X410609Y21589D01*
X408939Y21589D01*
G37*
%LPD*%
%LPC*%
G36*
X383539Y21589D02*
X383539Y21589D01*
X383539Y29211D01*
X391161Y29211D01*
X391161Y27541D01*
X385209Y21589D01*
X383539Y21589D01*
G37*
%LPD*%
%LPC*%
G36*
X358139Y21589D02*
X358139Y21589D01*
X358139Y29211D01*
X365761Y29211D01*
X365761Y27541D01*
X359809Y21589D01*
X358139Y21589D01*
G37*
%LPD*%
%LPC*%
G36*
X332739Y21589D02*
X332739Y21589D01*
X332739Y29211D01*
X340361Y29211D01*
X340361Y27541D01*
X334409Y21589D01*
X332739Y21589D01*
G37*
%LPD*%
%LPC*%
G36*
X307339Y21589D02*
X307339Y21589D01*
X307339Y29211D01*
X314961Y29211D01*
X314961Y27541D01*
X309009Y21589D01*
X307339Y21589D01*
G37*
%LPD*%
%LPC*%
G36*
X281939Y21589D02*
X281939Y21589D01*
X281939Y29211D01*
X289561Y29211D01*
X289561Y27541D01*
X283609Y21589D01*
X281939Y21589D01*
G37*
%LPD*%
%LPC*%
G36*
X256539Y21589D02*
X256539Y21589D01*
X256539Y29211D01*
X264161Y29211D01*
X264161Y27541D01*
X258209Y21589D01*
X256539Y21589D01*
G37*
%LPD*%
%LPC*%
G36*
X231139Y21589D02*
X231139Y21589D01*
X231139Y29211D01*
X238761Y29211D01*
X238761Y27541D01*
X232809Y21589D01*
X231139Y21589D01*
G37*
%LPD*%
%LPC*%
G36*
X205739Y21589D02*
X205739Y21589D01*
X205739Y29211D01*
X213361Y29211D01*
X213361Y27541D01*
X207409Y21589D01*
X205739Y21589D01*
G37*
%LPD*%
%LPC*%
G36*
X180339Y21589D02*
X180339Y21589D01*
X180339Y29211D01*
X187961Y29211D01*
X187961Y27541D01*
X182009Y21589D01*
X180339Y21589D01*
G37*
%LPD*%
%LPC*%
G36*
X154939Y21589D02*
X154939Y21589D01*
X154939Y29211D01*
X162561Y29211D01*
X162561Y27541D01*
X156609Y21589D01*
X154939Y21589D01*
G37*
%LPD*%
%LPC*%
G36*
X129539Y21589D02*
X129539Y21589D01*
X129539Y29211D01*
X137161Y29211D01*
X137161Y27541D01*
X131209Y21589D01*
X129539Y21589D01*
G37*
%LPD*%
%LPC*%
G36*
X104139Y21589D02*
X104139Y21589D01*
X104139Y29211D01*
X111761Y29211D01*
X111761Y27541D01*
X105809Y21589D01*
X104139Y21589D01*
G37*
%LPD*%
%LPC*%
G36*
X78739Y21589D02*
X78739Y21589D01*
X78739Y29211D01*
X86361Y29211D01*
X86361Y27541D01*
X80409Y21589D01*
X78739Y21589D01*
G37*
%LPD*%
%LPC*%
G36*
X53339Y21589D02*
X53339Y21589D01*
X53339Y29211D01*
X60961Y29211D01*
X60961Y27541D01*
X55009Y21589D01*
X53339Y21589D01*
G37*
%LPD*%
%LPC*%
G36*
X459739Y21589D02*
X459739Y21589D01*
X459739Y29211D01*
X467361Y29211D01*
X467361Y27541D01*
X461409Y21589D01*
X459739Y21589D01*
G37*
%LPD*%
%LPC*%
G36*
X249791Y21589D02*
X249791Y21589D01*
X243839Y27541D01*
X243839Y29211D01*
X251461Y29211D01*
X251461Y21589D01*
X249791Y21589D01*
G37*
%LPD*%
%LPC*%
G36*
X300591Y21589D02*
X300591Y21589D01*
X294639Y27541D01*
X294639Y29211D01*
X302261Y29211D01*
X302261Y21589D01*
X300591Y21589D01*
G37*
%LPD*%
%LPC*%
G36*
X122791Y21589D02*
X122791Y21589D01*
X116839Y27541D01*
X116839Y29211D01*
X124461Y29211D01*
X124461Y21589D01*
X122791Y21589D01*
G37*
%LPD*%
%LPC*%
G36*
X376791Y21589D02*
X376791Y21589D01*
X370839Y27541D01*
X370839Y29211D01*
X378461Y29211D01*
X378461Y21589D01*
X376791Y21589D01*
G37*
%LPD*%
%LPC*%
G36*
X97391Y21589D02*
X97391Y21589D01*
X91439Y27541D01*
X91439Y29211D01*
X99061Y29211D01*
X99061Y21589D01*
X97391Y21589D01*
G37*
%LPD*%
%LPC*%
G36*
X275191Y21589D02*
X275191Y21589D01*
X269239Y27541D01*
X269239Y29211D01*
X276861Y29211D01*
X276861Y21589D01*
X275191Y21589D01*
G37*
%LPD*%
%LPC*%
G36*
X71991Y21589D02*
X71991Y21589D01*
X66039Y27541D01*
X66039Y29211D01*
X73661Y29211D01*
X73661Y21589D01*
X71991Y21589D01*
G37*
%LPD*%
%LPC*%
G36*
X452991Y21589D02*
X452991Y21589D01*
X447039Y27541D01*
X447039Y29211D01*
X454661Y29211D01*
X454661Y21589D01*
X452991Y21589D01*
G37*
%LPD*%
%LPC*%
G36*
X579991Y21589D02*
X579991Y21589D01*
X574039Y27541D01*
X574039Y29211D01*
X581661Y29211D01*
X581661Y21589D01*
X579991Y21589D01*
G37*
%LPD*%
%LPC*%
G36*
X630791Y21589D02*
X630791Y21589D01*
X624839Y27541D01*
X624839Y29211D01*
X632461Y29211D01*
X632461Y21589D01*
X630791Y21589D01*
G37*
%LPD*%
%LPC*%
G36*
X605391Y21589D02*
X605391Y21589D01*
X599439Y27541D01*
X599439Y29211D01*
X607061Y29211D01*
X607061Y21589D01*
X605391Y21589D01*
G37*
%LPD*%
%LPC*%
G36*
X503791Y21589D02*
X503791Y21589D01*
X497839Y27541D01*
X497839Y29211D01*
X505461Y29211D01*
X505461Y21589D01*
X503791Y21589D01*
G37*
%LPD*%
%LPC*%
G36*
X554591Y21589D02*
X554591Y21589D01*
X548639Y27541D01*
X548639Y29211D01*
X556261Y29211D01*
X556261Y21589D01*
X554591Y21589D01*
G37*
%LPD*%
%LPC*%
G36*
X529191Y21589D02*
X529191Y21589D01*
X523239Y27541D01*
X523239Y29211D01*
X530861Y29211D01*
X530861Y21589D01*
X529191Y21589D01*
G37*
%LPD*%
%LPC*%
G36*
X21191Y21589D02*
X21191Y21589D01*
X15239Y27541D01*
X15239Y29211D01*
X22861Y29211D01*
X22861Y21589D01*
X21191Y21589D01*
G37*
%LPD*%
%LPC*%
G36*
X478391Y21589D02*
X478391Y21589D01*
X472439Y27541D01*
X472439Y29211D01*
X480061Y29211D01*
X480061Y21589D01*
X478391Y21589D01*
G37*
%LPD*%
%LPC*%
G36*
X46591Y21589D02*
X46591Y21589D01*
X40639Y27541D01*
X40639Y29211D01*
X48261Y29211D01*
X48261Y21589D01*
X46591Y21589D01*
G37*
%LPD*%
%LPC*%
G36*
X351391Y21589D02*
X351391Y21589D01*
X345439Y27541D01*
X345439Y29211D01*
X353061Y29211D01*
X353061Y21589D01*
X351391Y21589D01*
G37*
%LPD*%
%LPC*%
G36*
X224391Y21589D02*
X224391Y21589D01*
X218439Y27541D01*
X218439Y29211D01*
X226061Y29211D01*
X226061Y21589D01*
X224391Y21589D01*
G37*
%LPD*%
%LPC*%
G36*
X402191Y21589D02*
X402191Y21589D01*
X396239Y27541D01*
X396239Y29211D01*
X403861Y29211D01*
X403861Y21589D01*
X402191Y21589D01*
G37*
%LPD*%
%LPC*%
G36*
X198991Y21589D02*
X198991Y21589D01*
X193039Y27541D01*
X193039Y29211D01*
X200661Y29211D01*
X200661Y21589D01*
X198991Y21589D01*
G37*
%LPD*%
%LPC*%
G36*
X325991Y21589D02*
X325991Y21589D01*
X320039Y27541D01*
X320039Y29211D01*
X327661Y29211D01*
X327661Y21589D01*
X325991Y21589D01*
G37*
%LPD*%
%LPC*%
G36*
X173591Y21589D02*
X173591Y21589D01*
X167639Y27541D01*
X167639Y29211D01*
X175261Y29211D01*
X175261Y21589D01*
X173591Y21589D01*
G37*
%LPD*%
%LPC*%
G36*
X427591Y21589D02*
X427591Y21589D01*
X421639Y27541D01*
X421639Y29211D01*
X429261Y29211D01*
X429261Y21589D01*
X427591Y21589D01*
G37*
%LPD*%
%LPC*%
G36*
X148191Y21589D02*
X148191Y21589D01*
X142239Y27541D01*
X142239Y29211D01*
X149861Y29211D01*
X149861Y21589D01*
X148191Y21589D01*
G37*
%LPD*%
%LPC*%
G36*
X237489Y205739D02*
X237489Y205739D01*
X237489Y212345D01*
X238738Y212345D01*
X244095Y206988D01*
X244095Y205739D01*
X237489Y205739D01*
G37*
%LPD*%
%LPC*%
G36*
X313689Y212089D02*
X313689Y212089D01*
X313689Y218695D01*
X314938Y218695D01*
X320295Y213338D01*
X320295Y212089D01*
X313689Y212089D01*
G37*
%LPD*%
%LPC*%
G36*
X225805Y205739D02*
X225805Y205739D01*
X225805Y206988D01*
X231162Y212345D01*
X232411Y212345D01*
X232411Y205739D01*
X225805Y205739D01*
G37*
%LPD*%
%LPC*%
G36*
X313689Y200405D02*
X313689Y200405D01*
X313689Y207011D01*
X320295Y207011D01*
X320295Y205762D01*
X314938Y200405D01*
X313689Y200405D01*
G37*
%LPD*%
%LPC*%
G36*
X237489Y194055D02*
X237489Y194055D01*
X237489Y200661D01*
X244095Y200661D01*
X244095Y199412D01*
X238738Y194055D01*
X237489Y194055D01*
G37*
%LPD*%
%LPC*%
G36*
X302005Y212089D02*
X302005Y212089D01*
X302005Y213338D01*
X307362Y218695D01*
X308611Y218695D01*
X308611Y212089D01*
X302005Y212089D01*
G37*
%LPD*%
%LPC*%
G36*
X307362Y200405D02*
X307362Y200405D01*
X302005Y205762D01*
X302005Y207011D01*
X308611Y207011D01*
X308611Y200405D01*
X307362Y200405D01*
G37*
%LPD*%
%LPC*%
G36*
X231162Y194055D02*
X231162Y194055D01*
X225805Y199412D01*
X225805Y200661D01*
X232411Y200661D01*
X232411Y194055D01*
X231162Y194055D01*
G37*
%LPD*%
D10*
X0Y0D02*
X660200Y0D01*
X660200Y453900D01*
X0Y453900D01*
X0Y0D01*
D11*
X10400Y425450D02*
X10405Y425818D01*
X10418Y426186D01*
X10441Y426553D01*
X10472Y426920D01*
X10513Y427286D01*
X10562Y427651D01*
X10621Y428014D01*
X10688Y428376D01*
X10764Y428737D01*
X10850Y429095D01*
X10943Y429451D01*
X11046Y429804D01*
X11157Y430155D01*
X11277Y430503D01*
X11405Y430848D01*
X11542Y431190D01*
X11687Y431529D01*
X11840Y431863D01*
X12002Y432194D01*
X12171Y432521D01*
X12349Y432843D01*
X12534Y433162D01*
X12727Y433475D01*
X12928Y433784D01*
X13136Y434087D01*
X13352Y434385D01*
X13575Y434678D01*
X13805Y434966D01*
X14042Y435248D01*
X14286Y435523D01*
X14536Y435793D01*
X14793Y436057D01*
X15057Y436314D01*
X15327Y436564D01*
X15602Y436808D01*
X15884Y437045D01*
X16172Y437275D01*
X16465Y437498D01*
X16763Y437714D01*
X17066Y437922D01*
X17375Y438123D01*
X17688Y438316D01*
X18007Y438501D01*
X18329Y438679D01*
X18656Y438848D01*
X18987Y439010D01*
X19321Y439163D01*
X19660Y439308D01*
X20002Y439445D01*
X20347Y439573D01*
X20695Y439693D01*
X21046Y439804D01*
X21399Y439907D01*
X21755Y440000D01*
X22113Y440086D01*
X22474Y440162D01*
X22836Y440229D01*
X23199Y440288D01*
X23564Y440337D01*
X23930Y440378D01*
X24297Y440409D01*
X24664Y440432D01*
X25032Y440445D01*
X25400Y440450D01*
X25768Y440445D01*
X26136Y440432D01*
X26503Y440409D01*
X26870Y440378D01*
X27236Y440337D01*
X27601Y440288D01*
X27964Y440229D01*
X28326Y440162D01*
X28687Y440086D01*
X29045Y440000D01*
X29401Y439907D01*
X29754Y439804D01*
X30105Y439693D01*
X30453Y439573D01*
X30798Y439445D01*
X31140Y439308D01*
X31479Y439163D01*
X31813Y439010D01*
X32144Y438848D01*
X32471Y438679D01*
X32793Y438501D01*
X33112Y438316D01*
X33425Y438123D01*
X33734Y437922D01*
X34037Y437714D01*
X34335Y437498D01*
X34628Y437275D01*
X34916Y437045D01*
X35198Y436808D01*
X35473Y436564D01*
X35743Y436314D01*
X36007Y436057D01*
X36264Y435793D01*
X36514Y435523D01*
X36758Y435248D01*
X36995Y434966D01*
X37225Y434678D01*
X37448Y434385D01*
X37664Y434087D01*
X37872Y433784D01*
X38073Y433475D01*
X38266Y433162D01*
X38451Y432843D01*
X38629Y432521D01*
X38798Y432194D01*
X38960Y431863D01*
X39113Y431529D01*
X39258Y431190D01*
X39395Y430848D01*
X39523Y430503D01*
X39643Y430155D01*
X39754Y429804D01*
X39857Y429451D01*
X39950Y429095D01*
X40036Y428737D01*
X40112Y428376D01*
X40179Y428014D01*
X40238Y427651D01*
X40287Y427286D01*
X40328Y426920D01*
X40359Y426553D01*
X40382Y426186D01*
X40395Y425818D01*
X40400Y425450D01*
X40395Y425082D01*
X40382Y424714D01*
X40359Y424347D01*
X40328Y423980D01*
X40287Y423614D01*
X40238Y423249D01*
X40179Y422886D01*
X40112Y422524D01*
X40036Y422163D01*
X39950Y421805D01*
X39857Y421449D01*
X39754Y421096D01*
X39643Y420745D01*
X39523Y420397D01*
X39395Y420052D01*
X39258Y419710D01*
X39113Y419371D01*
X38960Y419037D01*
X38798Y418706D01*
X38629Y418379D01*
X38451Y418057D01*
X38266Y417738D01*
X38073Y417425D01*
X37872Y417116D01*
X37664Y416813D01*
X37448Y416515D01*
X37225Y416222D01*
X36995Y415934D01*
X36758Y415652D01*
X36514Y415377D01*
X36264Y415107D01*
X36007Y414843D01*
X35743Y414586D01*
X35473Y414336D01*
X35198Y414092D01*
X34916Y413855D01*
X34628Y413625D01*
X34335Y413402D01*
X34037Y413186D01*
X33734Y412978D01*
X33425Y412777D01*
X33112Y412584D01*
X32793Y412399D01*
X32471Y412221D01*
X32144Y412052D01*
X31813Y411890D01*
X31479Y411737D01*
X31140Y411592D01*
X30798Y411455D01*
X30453Y411327D01*
X30105Y411207D01*
X29754Y411096D01*
X29401Y410993D01*
X29045Y410900D01*
X28687Y410814D01*
X28326Y410738D01*
X27964Y410671D01*
X27601Y410612D01*
X27236Y410563D01*
X26870Y410522D01*
X26503Y410491D01*
X26136Y410468D01*
X25768Y410455D01*
X25400Y410450D01*
X25032Y410455D01*
X24664Y410468D01*
X24297Y410491D01*
X23930Y410522D01*
X23564Y410563D01*
X23199Y410612D01*
X22836Y410671D01*
X22474Y410738D01*
X22113Y410814D01*
X21755Y410900D01*
X21399Y410993D01*
X21046Y411096D01*
X20695Y411207D01*
X20347Y411327D01*
X20002Y411455D01*
X19660Y411592D01*
X19321Y411737D01*
X18987Y411890D01*
X18656Y412052D01*
X18329Y412221D01*
X18007Y412399D01*
X17688Y412584D01*
X17375Y412777D01*
X17066Y412978D01*
X16763Y413186D01*
X16465Y413402D01*
X16172Y413625D01*
X15884Y413855D01*
X15602Y414092D01*
X15327Y414336D01*
X15057Y414586D01*
X14793Y414843D01*
X14536Y415107D01*
X14286Y415377D01*
X14042Y415652D01*
X13805Y415934D01*
X13575Y416222D01*
X13352Y416515D01*
X13136Y416813D01*
X12928Y417116D01*
X12727Y417425D01*
X12534Y417738D01*
X12349Y418057D01*
X12171Y418379D01*
X12002Y418706D01*
X11840Y419037D01*
X11687Y419371D01*
X11542Y419710D01*
X11405Y420052D01*
X11277Y420397D01*
X11157Y420745D01*
X11046Y421096D01*
X10943Y421449D01*
X10850Y421805D01*
X10764Y422163D01*
X10688Y422524D01*
X10621Y422886D01*
X10562Y423249D01*
X10513Y423614D01*
X10472Y423980D01*
X10441Y424347D01*
X10418Y424714D01*
X10405Y425082D01*
X10400Y425450D01*
X620000Y425450D02*
X620005Y425818D01*
X620018Y426186D01*
X620041Y426553D01*
X620072Y426920D01*
X620113Y427286D01*
X620162Y427651D01*
X620221Y428014D01*
X620288Y428376D01*
X620364Y428737D01*
X620450Y429095D01*
X620543Y429451D01*
X620646Y429804D01*
X620757Y430155D01*
X620877Y430503D01*
X621005Y430848D01*
X621142Y431190D01*
X621287Y431529D01*
X621440Y431863D01*
X621602Y432194D01*
X621771Y432521D01*
X621949Y432843D01*
X622134Y433162D01*
X622327Y433475D01*
X622528Y433784D01*
X622736Y434087D01*
X622952Y434385D01*
X623175Y434678D01*
X623405Y434966D01*
X623642Y435248D01*
X623886Y435523D01*
X624136Y435793D01*
X624393Y436057D01*
X624657Y436314D01*
X624927Y436564D01*
X625202Y436808D01*
X625484Y437045D01*
X625772Y437275D01*
X626065Y437498D01*
X626363Y437714D01*
X626666Y437922D01*
X626975Y438123D01*
X627288Y438316D01*
X627607Y438501D01*
X627929Y438679D01*
X628256Y438848D01*
X628587Y439010D01*
X628921Y439163D01*
X629260Y439308D01*
X629602Y439445D01*
X629947Y439573D01*
X630295Y439693D01*
X630646Y439804D01*
X630999Y439907D01*
X631355Y440000D01*
X631713Y440086D01*
X632074Y440162D01*
X632436Y440229D01*
X632799Y440288D01*
X633164Y440337D01*
X633530Y440378D01*
X633897Y440409D01*
X634264Y440432D01*
X634632Y440445D01*
X635000Y440450D01*
X635368Y440445D01*
X635736Y440432D01*
X636103Y440409D01*
X636470Y440378D01*
X636836Y440337D01*
X637201Y440288D01*
X637564Y440229D01*
X637926Y440162D01*
X638287Y440086D01*
X638645Y440000D01*
X639001Y439907D01*
X639354Y439804D01*
X639705Y439693D01*
X640053Y439573D01*
X640398Y439445D01*
X640740Y439308D01*
X641079Y439163D01*
X641413Y439010D01*
X641744Y438848D01*
X642071Y438679D01*
X642393Y438501D01*
X642712Y438316D01*
X643025Y438123D01*
X643334Y437922D01*
X643637Y437714D01*
X643935Y437498D01*
X644228Y437275D01*
X644516Y437045D01*
X644798Y436808D01*
X645073Y436564D01*
X645343Y436314D01*
X645607Y436057D01*
X645864Y435793D01*
X646114Y435523D01*
X646358Y435248D01*
X646595Y434966D01*
X646825Y434678D01*
X647048Y434385D01*
X647264Y434087D01*
X647472Y433784D01*
X647673Y433475D01*
X647866Y433162D01*
X648051Y432843D01*
X648229Y432521D01*
X648398Y432194D01*
X648560Y431863D01*
X648713Y431529D01*
X648858Y431190D01*
X648995Y430848D01*
X649123Y430503D01*
X649243Y430155D01*
X649354Y429804D01*
X649457Y429451D01*
X649550Y429095D01*
X649636Y428737D01*
X649712Y428376D01*
X649779Y428014D01*
X649838Y427651D01*
X649887Y427286D01*
X649928Y426920D01*
X649959Y426553D01*
X649982Y426186D01*
X649995Y425818D01*
X650000Y425450D01*
X649995Y425082D01*
X649982Y424714D01*
X649959Y424347D01*
X649928Y423980D01*
X649887Y423614D01*
X649838Y423249D01*
X649779Y422886D01*
X649712Y422524D01*
X649636Y422163D01*
X649550Y421805D01*
X649457Y421449D01*
X649354Y421096D01*
X649243Y420745D01*
X649123Y420397D01*
X648995Y420052D01*
X648858Y419710D01*
X648713Y419371D01*
X648560Y419037D01*
X648398Y418706D01*
X648229Y418379D01*
X648051Y418057D01*
X647866Y417738D01*
X647673Y417425D01*
X647472Y417116D01*
X647264Y416813D01*
X647048Y416515D01*
X646825Y416222D01*
X646595Y415934D01*
X646358Y415652D01*
X646114Y415377D01*
X645864Y415107D01*
X645607Y414843D01*
X645343Y414586D01*
X645073Y414336D01*
X644798Y414092D01*
X644516Y413855D01*
X644228Y413625D01*
X643935Y413402D01*
X643637Y413186D01*
X643334Y412978D01*
X643025Y412777D01*
X642712Y412584D01*
X642393Y412399D01*
X642071Y412221D01*
X641744Y412052D01*
X641413Y411890D01*
X641079Y411737D01*
X640740Y411592D01*
X640398Y411455D01*
X640053Y411327D01*
X639705Y411207D01*
X639354Y411096D01*
X639001Y410993D01*
X638645Y410900D01*
X638287Y410814D01*
X637926Y410738D01*
X637564Y410671D01*
X637201Y410612D01*
X636836Y410563D01*
X636470Y410522D01*
X636103Y410491D01*
X635736Y410468D01*
X635368Y410455D01*
X635000Y410450D01*
X634632Y410455D01*
X634264Y410468D01*
X633897Y410491D01*
X633530Y410522D01*
X633164Y410563D01*
X632799Y410612D01*
X632436Y410671D01*
X632074Y410738D01*
X631713Y410814D01*
X631355Y410900D01*
X630999Y410993D01*
X630646Y411096D01*
X630295Y411207D01*
X629947Y411327D01*
X629602Y411455D01*
X629260Y411592D01*
X628921Y411737D01*
X628587Y411890D01*
X628256Y412052D01*
X627929Y412221D01*
X627607Y412399D01*
X627288Y412584D01*
X626975Y412777D01*
X626666Y412978D01*
X626363Y413186D01*
X626065Y413402D01*
X625772Y413625D01*
X625484Y413855D01*
X625202Y414092D01*
X624927Y414336D01*
X624657Y414586D01*
X624393Y414843D01*
X624136Y415107D01*
X623886Y415377D01*
X623642Y415652D01*
X623405Y415934D01*
X623175Y416222D01*
X622952Y416515D01*
X622736Y416813D01*
X622528Y417116D01*
X622327Y417425D01*
X622134Y417738D01*
X621949Y418057D01*
X621771Y418379D01*
X621602Y418706D01*
X621440Y419037D01*
X621287Y419371D01*
X621142Y419710D01*
X621005Y420052D01*
X620877Y420397D01*
X620757Y420745D01*
X620646Y421096D01*
X620543Y421449D01*
X620450Y421805D01*
X620364Y422163D01*
X620288Y422524D01*
X620221Y422886D01*
X620162Y423249D01*
X620113Y423614D01*
X620072Y423980D01*
X620041Y424347D01*
X620018Y424714D01*
X620005Y425082D01*
X620000Y425450D01*
D12*
X114300Y393700D03*
D13*
X139700Y393700D03*
X165100Y393700D03*
X190500Y393700D03*
X215900Y393700D03*
X241300Y393700D03*
X114300Y419100D03*
X139700Y419100D03*
X165100Y419100D03*
X190500Y419100D03*
X215900Y419100D03*
X241300Y419100D03*
X266700Y393700D03*
X266700Y419100D03*
X292100Y393700D03*
X317500Y393700D03*
X342900Y393700D03*
X368300Y393700D03*
X393700Y393700D03*
X419100Y393700D03*
X292100Y419100D03*
X317500Y419100D03*
X342900Y419100D03*
X368300Y419100D03*
X393700Y419100D03*
X419100Y419100D03*
X444500Y393700D03*
X444500Y419100D03*
X469900Y393700D03*
X495300Y393700D03*
X520700Y393700D03*
X469900Y419100D03*
X495300Y419100D03*
X520700Y419100D03*
D12*
X635000Y57150D03*
D14*
X635000Y31750D03*
X609600Y57150D03*
X609600Y31750D03*
X584200Y57150D03*
X584200Y31750D03*
X558800Y57150D03*
X558800Y31750D03*
X533400Y57150D03*
X533400Y31750D03*
X508000Y57150D03*
X508000Y31750D03*
X482600Y57150D03*
X482600Y31750D03*
X457200Y57150D03*
X457200Y31750D03*
X431800Y57150D03*
X431800Y31750D03*
X406400Y57150D03*
X406400Y31750D03*
X381000Y57150D03*
X381000Y31750D03*
X355600Y57150D03*
X355600Y31750D03*
X330200Y57150D03*
X330200Y31750D03*
X304800Y57150D03*
X304800Y31750D03*
X279400Y57150D03*
X279400Y31750D03*
X254000Y57150D03*
X254000Y31750D03*
X228600Y57150D03*
X228600Y31750D03*
X203200Y57150D03*
X203200Y31750D03*
X177800Y57150D03*
X177800Y31750D03*
X152400Y57150D03*
X152400Y31750D03*
X127000Y31750D03*
X127000Y57150D03*
X101600Y57150D03*
X76200Y57150D03*
X50800Y57150D03*
X50800Y31750D03*
X76200Y31750D03*
X101600Y31750D03*
X25400Y31750D03*
X25400Y57150D03*
D15*
X50800Y177546D02*
X50800Y190754D01*
X76200Y190754D02*
X76200Y177546D01*
X203200Y177546D02*
X203200Y190754D01*
X203200Y253746D02*
X203200Y266954D01*
X101600Y190754D02*
X101600Y177546D01*
X127000Y177546D02*
X127000Y190754D01*
X177800Y190754D02*
X177800Y177546D01*
X152400Y177546D02*
X152400Y190754D01*
X177800Y253746D02*
X177800Y266954D01*
X152400Y266954D02*
X152400Y253746D01*
X127000Y253746D02*
X127000Y266954D01*
X101600Y266954D02*
X101600Y253746D01*
X76200Y253746D02*
X76200Y266954D01*
X50800Y266954D02*
X50800Y253746D01*
X349250Y152654D02*
X349250Y139446D01*
X374650Y139446D02*
X374650Y152654D01*
X501650Y152654D02*
X501650Y139446D01*
X527050Y139446D02*
X527050Y152654D01*
X400050Y152654D02*
X400050Y139446D01*
X425450Y139446D02*
X425450Y152654D01*
X476250Y152654D02*
X476250Y139446D01*
X450850Y139446D02*
X450850Y152654D01*
X552450Y152654D02*
X552450Y139446D01*
X577850Y139446D02*
X577850Y152654D01*
X603250Y152654D02*
X603250Y139446D01*
X628650Y139446D02*
X628650Y152654D01*
X628650Y291846D02*
X628650Y305054D01*
X603250Y305054D02*
X603250Y291846D01*
X577850Y291846D02*
X577850Y305054D01*
X552450Y305054D02*
X552450Y291846D01*
X527050Y291846D02*
X527050Y305054D01*
X501650Y305054D02*
X501650Y291846D01*
X476250Y291846D02*
X476250Y305054D01*
X450850Y305054D02*
X450850Y291846D01*
X425450Y291846D02*
X425450Y305054D01*
X400050Y305054D02*
X400050Y291846D01*
X374650Y291846D02*
X374650Y305054D01*
X349250Y305054D02*
X349250Y291846D01*
D16*
X234950Y254000D03*
X234950Y203200D03*
X311150Y260350D03*
X311150Y209550D03*
D17*
X50800Y31750D02*
X25400Y31750D01*
X50800Y31750D02*
X76200Y31750D01*
X101600Y31750D01*
X127000Y31750D01*
X152400Y31750D01*
X203200Y184150D02*
X234950Y184150D01*
X311150Y184150D01*
X228600Y31750D02*
X203200Y31750D01*
X228600Y31750D02*
X254000Y31750D01*
X279400Y31750D01*
X304800Y31750D01*
X330200Y31750D01*
X355600Y31750D01*
X381000Y31750D01*
X406400Y31750D01*
X431800Y31750D01*
X457200Y31750D01*
X482600Y31750D01*
X508000Y31750D01*
X533400Y31750D01*
X558800Y31750D01*
X584200Y31750D01*
X609600Y31750D01*
X368300Y241300D02*
X311150Y184150D01*
X368300Y241300D02*
X368300Y260350D01*
X387350Y279400D01*
X419100Y279400D01*
X425450Y285750D01*
X425450Y298450D01*
X234950Y203200D02*
X234950Y184150D01*
X311150Y184150D02*
X311150Y209550D01*
X76200Y260350D02*
X50800Y260350D01*
X330200Y279400D02*
X349250Y298450D01*
X234950Y279400D02*
X95250Y279400D01*
X234950Y279400D02*
X311150Y279400D01*
X330200Y279400D01*
X95250Y279400D02*
X76200Y260350D01*
X482600Y381000D02*
X495300Y393700D01*
X482600Y381000D02*
X412750Y381000D01*
X406400Y387350D01*
X406400Y425450D02*
X400050Y431800D01*
X406400Y425450D02*
X406400Y387350D01*
X400050Y431800D02*
X336550Y431800D01*
X330200Y425450D01*
X330200Y317500D01*
X349250Y298450D01*
X234950Y279400D02*
X234950Y254000D01*
X311150Y260350D02*
X311150Y279400D01*
D10*
X381000Y406400D02*
X368300Y419100D01*
X400050Y336550D02*
X438150Y336550D01*
X400050Y336550D02*
X381000Y355600D01*
X438150Y336550D02*
X476250Y298450D01*
X381000Y355600D02*
X381000Y406400D01*
X349250Y146050D02*
X279400Y146050D01*
X254000Y120650D01*
X254000Y57150D01*
X279400Y57150D02*
X304800Y57150D01*
X330200Y57150D02*
X279400Y107950D01*
D18*
X279400Y107950D03*
D10*
X438150Y76200D02*
X476250Y114300D01*
X438150Y76200D02*
X400050Y76200D01*
X381000Y57150D01*
X266700Y419100D02*
X254000Y431800D01*
X95250Y431800D01*
X12700Y349250D01*
X12700Y50800D02*
X19050Y44450D01*
X12700Y50800D02*
X12700Y349250D01*
X19050Y44450D02*
X368300Y44450D01*
X381000Y57150D01*
D18*
X476250Y114300D03*
D10*
X501650Y146050D02*
X501650Y69850D01*
X419100Y69850D01*
X406400Y57150D01*
D18*
X241300Y171450D03*
D10*
X488950Y171450D01*
X501650Y158750D01*
X501650Y146050D01*
X603250Y298450D02*
X603250Y330200D01*
X527050Y406400D02*
X457200Y406400D01*
X527050Y406400D02*
X603250Y330200D01*
X457200Y406400D02*
X444500Y393700D01*
X628650Y330200D02*
X628650Y298450D01*
X527050Y431800D02*
X431800Y431800D01*
X527050Y431800D02*
X628650Y330200D01*
X431800Y431800D02*
X419100Y419100D01*
X412750Y266700D02*
X419100Y260350D01*
X488950Y260350D01*
X603250Y146050D01*
D18*
X412750Y266700D03*
D10*
X552450Y146050D02*
X635000Y63500D01*
X635000Y57150D01*
X400050Y234950D02*
X387350Y247650D01*
X400050Y234950D02*
X463550Y234950D01*
X552450Y146050D01*
D18*
X387350Y247650D03*
D10*
X127000Y63500D02*
X127000Y57150D01*
X127000Y63500D02*
X25400Y165100D01*
X25400Y349250D01*
X95250Y419100D02*
X114300Y419100D01*
X95250Y419100D02*
X25400Y349250D01*
X38100Y171450D02*
X152400Y57150D01*
X121104Y406854D02*
X95080Y406854D01*
X133350Y419100D02*
X139700Y419100D01*
X133350Y419100D02*
X121104Y406854D01*
X95080Y406854D02*
X38100Y349874D01*
X38100Y171450D01*
X76200Y184150D02*
X101600Y184150D01*
X450850Y298450D02*
X469900Y279400D01*
X482600Y279400D01*
X501650Y298450D01*
X450850Y298450D02*
X425450Y323850D01*
X158750Y241300D02*
X101600Y184150D01*
X158750Y241300D02*
X317500Y241300D01*
X361950Y285750D01*
X361950Y317500D01*
X368300Y323850D01*
X425450Y323850D01*
X368300Y323850D02*
X368300Y393700D01*
X127000Y260350D02*
X101600Y260350D01*
X152400Y260350D02*
X177800Y260350D01*
X152400Y184150D02*
X127000Y184150D01*
M02*
