G04 EAGLE Gerber RS-274X export*
G75*
%MOMM*%
%FSLAX34Y34*%
%LPD*%
%INMill Layer*%
%IPPOS*%
%AMOC8*
5,1,8,0,0,1.08239X$1,22.5*%
G01*
%ADD10C,0.304800*%
%ADD11C,0.000000*%


D10*
X0Y0D02*
X660200Y0D01*
X660200Y453900D01*
X0Y453900D01*
X0Y0D01*
D11*
X10400Y425450D02*
X10405Y425818D01*
X10418Y426186D01*
X10441Y426553D01*
X10472Y426920D01*
X10513Y427286D01*
X10562Y427651D01*
X10621Y428014D01*
X10688Y428376D01*
X10764Y428737D01*
X10850Y429095D01*
X10943Y429451D01*
X11046Y429804D01*
X11157Y430155D01*
X11277Y430503D01*
X11405Y430848D01*
X11542Y431190D01*
X11687Y431529D01*
X11840Y431863D01*
X12002Y432194D01*
X12171Y432521D01*
X12349Y432843D01*
X12534Y433162D01*
X12727Y433475D01*
X12928Y433784D01*
X13136Y434087D01*
X13352Y434385D01*
X13575Y434678D01*
X13805Y434966D01*
X14042Y435248D01*
X14286Y435523D01*
X14536Y435793D01*
X14793Y436057D01*
X15057Y436314D01*
X15327Y436564D01*
X15602Y436808D01*
X15884Y437045D01*
X16172Y437275D01*
X16465Y437498D01*
X16763Y437714D01*
X17066Y437922D01*
X17375Y438123D01*
X17688Y438316D01*
X18007Y438501D01*
X18329Y438679D01*
X18656Y438848D01*
X18987Y439010D01*
X19321Y439163D01*
X19660Y439308D01*
X20002Y439445D01*
X20347Y439573D01*
X20695Y439693D01*
X21046Y439804D01*
X21399Y439907D01*
X21755Y440000D01*
X22113Y440086D01*
X22474Y440162D01*
X22836Y440229D01*
X23199Y440288D01*
X23564Y440337D01*
X23930Y440378D01*
X24297Y440409D01*
X24664Y440432D01*
X25032Y440445D01*
X25400Y440450D01*
X25768Y440445D01*
X26136Y440432D01*
X26503Y440409D01*
X26870Y440378D01*
X27236Y440337D01*
X27601Y440288D01*
X27964Y440229D01*
X28326Y440162D01*
X28687Y440086D01*
X29045Y440000D01*
X29401Y439907D01*
X29754Y439804D01*
X30105Y439693D01*
X30453Y439573D01*
X30798Y439445D01*
X31140Y439308D01*
X31479Y439163D01*
X31813Y439010D01*
X32144Y438848D01*
X32471Y438679D01*
X32793Y438501D01*
X33112Y438316D01*
X33425Y438123D01*
X33734Y437922D01*
X34037Y437714D01*
X34335Y437498D01*
X34628Y437275D01*
X34916Y437045D01*
X35198Y436808D01*
X35473Y436564D01*
X35743Y436314D01*
X36007Y436057D01*
X36264Y435793D01*
X36514Y435523D01*
X36758Y435248D01*
X36995Y434966D01*
X37225Y434678D01*
X37448Y434385D01*
X37664Y434087D01*
X37872Y433784D01*
X38073Y433475D01*
X38266Y433162D01*
X38451Y432843D01*
X38629Y432521D01*
X38798Y432194D01*
X38960Y431863D01*
X39113Y431529D01*
X39258Y431190D01*
X39395Y430848D01*
X39523Y430503D01*
X39643Y430155D01*
X39754Y429804D01*
X39857Y429451D01*
X39950Y429095D01*
X40036Y428737D01*
X40112Y428376D01*
X40179Y428014D01*
X40238Y427651D01*
X40287Y427286D01*
X40328Y426920D01*
X40359Y426553D01*
X40382Y426186D01*
X40395Y425818D01*
X40400Y425450D01*
X40395Y425082D01*
X40382Y424714D01*
X40359Y424347D01*
X40328Y423980D01*
X40287Y423614D01*
X40238Y423249D01*
X40179Y422886D01*
X40112Y422524D01*
X40036Y422163D01*
X39950Y421805D01*
X39857Y421449D01*
X39754Y421096D01*
X39643Y420745D01*
X39523Y420397D01*
X39395Y420052D01*
X39258Y419710D01*
X39113Y419371D01*
X38960Y419037D01*
X38798Y418706D01*
X38629Y418379D01*
X38451Y418057D01*
X38266Y417738D01*
X38073Y417425D01*
X37872Y417116D01*
X37664Y416813D01*
X37448Y416515D01*
X37225Y416222D01*
X36995Y415934D01*
X36758Y415652D01*
X36514Y415377D01*
X36264Y415107D01*
X36007Y414843D01*
X35743Y414586D01*
X35473Y414336D01*
X35198Y414092D01*
X34916Y413855D01*
X34628Y413625D01*
X34335Y413402D01*
X34037Y413186D01*
X33734Y412978D01*
X33425Y412777D01*
X33112Y412584D01*
X32793Y412399D01*
X32471Y412221D01*
X32144Y412052D01*
X31813Y411890D01*
X31479Y411737D01*
X31140Y411592D01*
X30798Y411455D01*
X30453Y411327D01*
X30105Y411207D01*
X29754Y411096D01*
X29401Y410993D01*
X29045Y410900D01*
X28687Y410814D01*
X28326Y410738D01*
X27964Y410671D01*
X27601Y410612D01*
X27236Y410563D01*
X26870Y410522D01*
X26503Y410491D01*
X26136Y410468D01*
X25768Y410455D01*
X25400Y410450D01*
X25032Y410455D01*
X24664Y410468D01*
X24297Y410491D01*
X23930Y410522D01*
X23564Y410563D01*
X23199Y410612D01*
X22836Y410671D01*
X22474Y410738D01*
X22113Y410814D01*
X21755Y410900D01*
X21399Y410993D01*
X21046Y411096D01*
X20695Y411207D01*
X20347Y411327D01*
X20002Y411455D01*
X19660Y411592D01*
X19321Y411737D01*
X18987Y411890D01*
X18656Y412052D01*
X18329Y412221D01*
X18007Y412399D01*
X17688Y412584D01*
X17375Y412777D01*
X17066Y412978D01*
X16763Y413186D01*
X16465Y413402D01*
X16172Y413625D01*
X15884Y413855D01*
X15602Y414092D01*
X15327Y414336D01*
X15057Y414586D01*
X14793Y414843D01*
X14536Y415107D01*
X14286Y415377D01*
X14042Y415652D01*
X13805Y415934D01*
X13575Y416222D01*
X13352Y416515D01*
X13136Y416813D01*
X12928Y417116D01*
X12727Y417425D01*
X12534Y417738D01*
X12349Y418057D01*
X12171Y418379D01*
X12002Y418706D01*
X11840Y419037D01*
X11687Y419371D01*
X11542Y419710D01*
X11405Y420052D01*
X11277Y420397D01*
X11157Y420745D01*
X11046Y421096D01*
X10943Y421449D01*
X10850Y421805D01*
X10764Y422163D01*
X10688Y422524D01*
X10621Y422886D01*
X10562Y423249D01*
X10513Y423614D01*
X10472Y423980D01*
X10441Y424347D01*
X10418Y424714D01*
X10405Y425082D01*
X10400Y425450D01*
X620000Y425450D02*
X620005Y425818D01*
X620018Y426186D01*
X620041Y426553D01*
X620072Y426920D01*
X620113Y427286D01*
X620162Y427651D01*
X620221Y428014D01*
X620288Y428376D01*
X620364Y428737D01*
X620450Y429095D01*
X620543Y429451D01*
X620646Y429804D01*
X620757Y430155D01*
X620877Y430503D01*
X621005Y430848D01*
X621142Y431190D01*
X621287Y431529D01*
X621440Y431863D01*
X621602Y432194D01*
X621771Y432521D01*
X621949Y432843D01*
X622134Y433162D01*
X622327Y433475D01*
X622528Y433784D01*
X622736Y434087D01*
X622952Y434385D01*
X623175Y434678D01*
X623405Y434966D01*
X623642Y435248D01*
X623886Y435523D01*
X624136Y435793D01*
X624393Y436057D01*
X624657Y436314D01*
X624927Y436564D01*
X625202Y436808D01*
X625484Y437045D01*
X625772Y437275D01*
X626065Y437498D01*
X626363Y437714D01*
X626666Y437922D01*
X626975Y438123D01*
X627288Y438316D01*
X627607Y438501D01*
X627929Y438679D01*
X628256Y438848D01*
X628587Y439010D01*
X628921Y439163D01*
X629260Y439308D01*
X629602Y439445D01*
X629947Y439573D01*
X630295Y439693D01*
X630646Y439804D01*
X630999Y439907D01*
X631355Y440000D01*
X631713Y440086D01*
X632074Y440162D01*
X632436Y440229D01*
X632799Y440288D01*
X633164Y440337D01*
X633530Y440378D01*
X633897Y440409D01*
X634264Y440432D01*
X634632Y440445D01*
X635000Y440450D01*
X635368Y440445D01*
X635736Y440432D01*
X636103Y440409D01*
X636470Y440378D01*
X636836Y440337D01*
X637201Y440288D01*
X637564Y440229D01*
X637926Y440162D01*
X638287Y440086D01*
X638645Y440000D01*
X639001Y439907D01*
X639354Y439804D01*
X639705Y439693D01*
X640053Y439573D01*
X640398Y439445D01*
X640740Y439308D01*
X641079Y439163D01*
X641413Y439010D01*
X641744Y438848D01*
X642071Y438679D01*
X642393Y438501D01*
X642712Y438316D01*
X643025Y438123D01*
X643334Y437922D01*
X643637Y437714D01*
X643935Y437498D01*
X644228Y437275D01*
X644516Y437045D01*
X644798Y436808D01*
X645073Y436564D01*
X645343Y436314D01*
X645607Y436057D01*
X645864Y435793D01*
X646114Y435523D01*
X646358Y435248D01*
X646595Y434966D01*
X646825Y434678D01*
X647048Y434385D01*
X647264Y434087D01*
X647472Y433784D01*
X647673Y433475D01*
X647866Y433162D01*
X648051Y432843D01*
X648229Y432521D01*
X648398Y432194D01*
X648560Y431863D01*
X648713Y431529D01*
X648858Y431190D01*
X648995Y430848D01*
X649123Y430503D01*
X649243Y430155D01*
X649354Y429804D01*
X649457Y429451D01*
X649550Y429095D01*
X649636Y428737D01*
X649712Y428376D01*
X649779Y428014D01*
X649838Y427651D01*
X649887Y427286D01*
X649928Y426920D01*
X649959Y426553D01*
X649982Y426186D01*
X649995Y425818D01*
X650000Y425450D01*
X649995Y425082D01*
X649982Y424714D01*
X649959Y424347D01*
X649928Y423980D01*
X649887Y423614D01*
X649838Y423249D01*
X649779Y422886D01*
X649712Y422524D01*
X649636Y422163D01*
X649550Y421805D01*
X649457Y421449D01*
X649354Y421096D01*
X649243Y420745D01*
X649123Y420397D01*
X648995Y420052D01*
X648858Y419710D01*
X648713Y419371D01*
X648560Y419037D01*
X648398Y418706D01*
X648229Y418379D01*
X648051Y418057D01*
X647866Y417738D01*
X647673Y417425D01*
X647472Y417116D01*
X647264Y416813D01*
X647048Y416515D01*
X646825Y416222D01*
X646595Y415934D01*
X646358Y415652D01*
X646114Y415377D01*
X645864Y415107D01*
X645607Y414843D01*
X645343Y414586D01*
X645073Y414336D01*
X644798Y414092D01*
X644516Y413855D01*
X644228Y413625D01*
X643935Y413402D01*
X643637Y413186D01*
X643334Y412978D01*
X643025Y412777D01*
X642712Y412584D01*
X642393Y412399D01*
X642071Y412221D01*
X641744Y412052D01*
X641413Y411890D01*
X641079Y411737D01*
X640740Y411592D01*
X640398Y411455D01*
X640053Y411327D01*
X639705Y411207D01*
X639354Y411096D01*
X639001Y410993D01*
X638645Y410900D01*
X638287Y410814D01*
X637926Y410738D01*
X637564Y410671D01*
X637201Y410612D01*
X636836Y410563D01*
X636470Y410522D01*
X636103Y410491D01*
X635736Y410468D01*
X635368Y410455D01*
X635000Y410450D01*
X634632Y410455D01*
X634264Y410468D01*
X633897Y410491D01*
X633530Y410522D01*
X633164Y410563D01*
X632799Y410612D01*
X632436Y410671D01*
X632074Y410738D01*
X631713Y410814D01*
X631355Y410900D01*
X630999Y410993D01*
X630646Y411096D01*
X630295Y411207D01*
X629947Y411327D01*
X629602Y411455D01*
X629260Y411592D01*
X628921Y411737D01*
X628587Y411890D01*
X628256Y412052D01*
X627929Y412221D01*
X627607Y412399D01*
X627288Y412584D01*
X626975Y412777D01*
X626666Y412978D01*
X626363Y413186D01*
X626065Y413402D01*
X625772Y413625D01*
X625484Y413855D01*
X625202Y414092D01*
X624927Y414336D01*
X624657Y414586D01*
X624393Y414843D01*
X624136Y415107D01*
X623886Y415377D01*
X623642Y415652D01*
X623405Y415934D01*
X623175Y416222D01*
X622952Y416515D01*
X622736Y416813D01*
X622528Y417116D01*
X622327Y417425D01*
X622134Y417738D01*
X621949Y418057D01*
X621771Y418379D01*
X621602Y418706D01*
X621440Y419037D01*
X621287Y419371D01*
X621142Y419710D01*
X621005Y420052D01*
X620877Y420397D01*
X620757Y420745D01*
X620646Y421096D01*
X620543Y421449D01*
X620450Y421805D01*
X620364Y422163D01*
X620288Y422524D01*
X620221Y422886D01*
X620162Y423249D01*
X620113Y423614D01*
X620072Y423980D01*
X620041Y424347D01*
X620018Y424714D01*
X620005Y425082D01*
X620000Y425450D01*
M02*
