M48
;GenerationSoftware,Autodesk,EAGLE,9.5.1*%
;CreationDate,2021-04-28T17:57:46Z*%
FMAT,2
ICI,OFF
METRIC,TZ,000.000
T11C0.660
T10C0.762
T9C0.800
T8C0.813
T7C0.889
T6C0.900
T5C1.016
T4C1.100
T3C1.118
T2C1.600
T1C3.300
%
G90
M71
T1
X3810Y4318
X3810Y73851
X91948Y4318
X91948Y73851
T2
X32360Y23300
T3
X80010Y12700
X83185Y12700
X66040Y12700
X86360Y12700
X76835Y12700
T4
X11260Y23300
T5
X70485Y77470
X22225Y74930
X22225Y77470
X19685Y77470
X17145Y77470
X14605Y77470
X14605Y74930
X17145Y74930
X19685Y74930
X12065Y74930
X12065Y77470
X3175Y40005
X3175Y42545
X3175Y45085
X3175Y47625
X3175Y50165
X89535Y41910
X89535Y44450
X89535Y46990
X89535Y49530
X89535Y52070
X27305Y74930
X24765Y77470
X34925Y77470
X73025Y77470
X73025Y74930
X24765Y74930
X70485Y74930
X67945Y77470
X67945Y74930
X65405Y77470
X65405Y74930
X62865Y77470
X62865Y74930
X60325Y77470
X60325Y74930
X57785Y77470
X57785Y74930
X55245Y77470
X55245Y74930
X52705Y77470
X52705Y74930
X50165Y77470
X50165Y74930
X47625Y77470
X45085Y77470
X45085Y74930
X42545Y77470
X42545Y74930
X40005Y77470
X40005Y74930
X37465Y77470
X37465Y74930
X47625Y74930
X34925Y74930
X32385Y77470
X32385Y74930
X29845Y77470
X29845Y74930
X27305Y77470
T6
X84433Y76200
X80033Y76200
T7
X18355Y1800
X26355Y1800
T8
X49212Y32385
X38862Y32385
X43688Y32385
X55880Y25400
X53975Y26670
X55880Y27940
X20955Y55880
X23495Y55562
X26035Y55562
X6032Y15875
X31115Y66040
X28575Y66040
X26035Y66040
X23495Y66040
X20955Y66040
X18415Y66040
X15875Y66040
X13335Y66040
X10795Y66040
X8255Y66040
X8255Y58420
X10795Y58420
X13335Y58420
X15875Y58420
X18415Y58420
X20955Y58420
X23495Y58420
X26035Y58420
X28575Y58420
X31115Y58420
X59055Y66040
X56515Y66040
X43815Y66040
X41275Y66040
X53975Y66040
X51435Y66040
X46355Y66040
X48895Y66040
X38735Y66040
X36195Y66040
X36195Y58420
X38735Y58420
X41275Y58420
X43815Y58420
X46355Y58420
X48895Y58420
X51435Y58420
X53975Y58420
X56515Y58420
X59055Y58420
X81915Y66040
X79375Y66040
X66675Y66040
X64135Y66040
X76835Y66040
X74295Y66040
X69215Y66040
X71755Y66040
X64135Y58420
X66675Y58420
X69215Y58420
X71755Y58420
X74295Y58420
X76835Y58420
X79375Y58420
X81915Y58420
X85090Y28575
X87630Y28575
X87630Y36195
X85090Y36195
X90170Y28575
X92710Y28575
X90170Y36195
X92710Y36195
X85725Y21590
X85725Y24130
X76200Y36195
X76200Y26035
X72390Y36195
X72390Y26035
X80010Y36195
X80010Y26035
X3175Y20320
X3175Y30480
X5715Y20320
X5715Y30480
X50800Y23495
X40640Y23495
X50800Y10795
X40640Y10795
X50800Y15875
X40640Y15875
X40640Y8255
X50800Y8255
X13335Y32385
X23495Y32385
X40640Y26035
X50800Y26035
X40640Y18415
X50800Y18415
X40640Y13335
X50800Y13335
X40640Y20955
X50800Y20955
X62865Y27940
X64770Y26670
X62865Y25400
X68580Y36195
X68580Y26035
X81915Y52705
X79375Y52705
X76835Y52705
X74295Y52705
X71755Y52705
X69215Y52705
X66675Y52705
X64135Y52705
X64135Y45085
X66675Y45085
X69215Y45085
X71755Y45085
X74295Y45085
X76835Y45085
X79375Y45085
X81915Y45085
X93345Y58801
X93345Y56769
X86995Y58801
X86995Y56769
X74041Y40640
X72009Y40640
X66421Y40640
X64389Y40640
X79629Y40640
X81661Y40640
X45720Y2540
X48260Y2540
X52705Y2540
X55245Y2540
X58420Y7620
X58420Y17780
X55245Y7620
X55245Y17780
X4445Y59055
X4445Y64135
X93345Y65786
X93345Y63754
X86995Y62230
X86995Y67310
X61214Y33655
X63246Y33655
X57150Y22225
X62230Y22225
X8255Y37465
X10795Y37465
X13335Y37465
X15875Y37465
X18415Y37465
X20955Y37465
X23495Y37465
X26035Y37465
X28575Y37465
X31115Y37465
X33655Y37465
X36195Y37465
X38735Y37465
X41275Y37465
X43815Y37465
X46355Y37465
X48895Y37465
X51435Y37465
X53975Y37465
X56515Y37465
X56515Y52705
X53975Y52705
X51435Y52705
X48895Y52705
X46355Y52705
X43815Y52705
X41275Y52705
X38735Y52705
X36195Y52705
X33655Y52705
X31115Y52705
X28575Y52705
X26035Y52705
X23495Y52705
X20955Y52705
X18415Y52705
X15875Y52705
X13335Y52705
X10795Y52705
X8255Y52705
X1905Y56515
X1905Y66675
X28575Y32385
X33655Y32385
X54292Y32385
T9
X32385Y10160
X15209Y10160
X7620Y21590
X37465Y25400
X43815Y22225
X20955Y46355
T10
X77788Y76200
X82550Y76200
T11
X69215Y73025
X66675Y73025
X64135Y73025
X61595Y73025
X59055Y73025
X56515Y73025
X60325Y48260
X46990Y48895
X21273Y17463
X12065Y15875
X45720Y19685
X20955Y14605
X26670Y18415
X24130Y15240
X29845Y50800
X29845Y47625
X53975Y73025
M30