G04 EAGLE Gerber RS-274X export*
G75*
%MOMM*%
%FSLAX34Y34*%
%LPD*%
%INBottom Silkscreen*%
%IPPOS*%
%AMOC8*
5,1,8,0,0,1.08239X$1,22.5*%
G01*
%ADD10C,0.177800*%
%ADD11C,0.203200*%


D10*
X833667Y185039D02*
X833667Y195970D01*
X837311Y195970D02*
X830023Y195970D01*
X825617Y195970D02*
X825617Y185039D01*
X825617Y195970D02*
X820151Y195970D01*
X818330Y194148D01*
X818330Y190505D01*
X820151Y188683D01*
X825617Y188683D01*
X821973Y188683D02*
X818330Y185039D01*
X808457Y195970D02*
X806636Y194148D01*
X808457Y195970D02*
X812101Y195970D01*
X813923Y194148D01*
X813923Y192327D01*
X812101Y190505D01*
X808457Y190505D01*
X806636Y188683D01*
X806636Y186861D01*
X808457Y185039D01*
X812101Y185039D01*
X813923Y186861D01*
X802229Y194148D02*
X800407Y195970D01*
X796763Y195970D01*
X794942Y194148D01*
X794942Y192327D01*
X796763Y190505D01*
X794942Y188683D01*
X794942Y186861D01*
X796763Y185039D01*
X800407Y185039D01*
X802229Y186861D01*
X802229Y188683D01*
X800407Y190505D01*
X802229Y192327D01*
X802229Y194148D01*
X800407Y190505D02*
X796763Y190505D01*
X790535Y186861D02*
X790535Y194148D01*
X788713Y195970D01*
X785069Y195970D01*
X783248Y194148D01*
X783248Y186861D01*
X785069Y185039D01*
X788713Y185039D01*
X790535Y186861D01*
X783248Y194148D01*
X767147Y195970D02*
X767147Y185039D01*
X767147Y190505D02*
X759860Y190505D01*
X759860Y195970D02*
X759860Y185039D01*
X753631Y192327D02*
X749988Y192327D01*
X748166Y190505D01*
X748166Y185039D01*
X753631Y185039D01*
X755453Y186861D01*
X753631Y188683D01*
X748166Y188683D01*
X743759Y185039D02*
X743759Y192327D01*
X740116Y192327D02*
X743759Y188683D01*
X740116Y192327D02*
X738294Y192327D01*
X726727Y195970D02*
X726727Y185039D01*
X732192Y185039D01*
X734014Y186861D01*
X734014Y190505D01*
X732192Y192327D01*
X726727Y192327D01*
X710626Y195970D02*
X710626Y185039D01*
X705161Y185039D01*
X703339Y186861D01*
X703339Y194148D01*
X705161Y195970D01*
X710626Y195970D01*
X698932Y192327D02*
X698932Y185039D01*
X698932Y188683D02*
X695289Y192327D01*
X693467Y192327D01*
X689187Y192327D02*
X687366Y192327D01*
X687366Y185039D01*
X689187Y185039D02*
X685544Y185039D01*
X687366Y195970D02*
X687366Y197792D01*
X681391Y192327D02*
X677748Y185039D01*
X674104Y192327D01*
X667876Y185039D02*
X664232Y185039D01*
X667876Y185039D02*
X669697Y186861D01*
X669697Y190505D01*
X667876Y192327D01*
X664232Y192327D01*
X662410Y190505D01*
X662410Y188683D01*
X669697Y188683D01*
X817323Y176920D02*
X824611Y176920D01*
X824611Y165989D01*
X817323Y165989D01*
X820967Y171455D02*
X824611Y171455D01*
X812917Y173277D02*
X812917Y165989D01*
X812917Y173277D02*
X811095Y173277D01*
X809273Y171455D01*
X809273Y165989D01*
X809273Y171455D02*
X807451Y173277D01*
X805630Y171455D01*
X805630Y165989D01*
X801223Y167811D02*
X801223Y173277D01*
X801223Y167811D02*
X799401Y165989D01*
X793936Y165989D01*
X793936Y173277D01*
X789529Y176920D02*
X787707Y176920D01*
X787707Y165989D01*
X789529Y165989D02*
X785885Y165989D01*
X779911Y173277D02*
X776267Y173277D01*
X774446Y171455D01*
X774446Y165989D01*
X779911Y165989D01*
X781733Y167811D01*
X779911Y169633D01*
X774446Y169633D01*
X768217Y167811D02*
X768217Y175098D01*
X768217Y167811D02*
X766395Y165989D01*
X766395Y173277D02*
X770039Y173277D01*
X760421Y165989D02*
X756778Y165989D01*
X754956Y167811D01*
X754956Y171455D01*
X756778Y173277D01*
X760421Y173277D01*
X762243Y171455D01*
X762243Y167811D01*
X760421Y165989D01*
X750549Y165989D02*
X750549Y173277D01*
X750549Y169633D02*
X746905Y173277D01*
X745084Y173277D01*
X717416Y176920D02*
X717416Y169633D01*
X713773Y165989D01*
X710129Y169633D01*
X710129Y176920D01*
X705722Y175098D02*
X703900Y176920D01*
X700257Y176920D01*
X698435Y175098D01*
X698435Y173277D01*
X700257Y171455D01*
X702079Y171455D01*
X700257Y171455D02*
X698435Y169633D01*
X698435Y167811D01*
X700257Y165989D01*
X703900Y165989D01*
X705722Y167811D01*
X694028Y167811D02*
X694028Y165989D01*
X694028Y167811D02*
X692207Y167811D01*
X692207Y165989D01*
X694028Y165989D01*
X688181Y167811D02*
X688181Y175098D01*
X686360Y176920D01*
X682716Y176920D01*
X680894Y175098D01*
X680894Y167811D01*
X682716Y165989D01*
X686360Y165989D01*
X688181Y167811D01*
X680894Y175098D01*
X676487Y173277D02*
X672844Y176920D01*
X672844Y165989D01*
X676487Y165989D02*
X669200Y165989D01*
X817792Y146939D02*
X821436Y150583D01*
X821436Y154227D01*
X817792Y157870D01*
X811818Y154227D02*
X806353Y154227D01*
X811818Y154227D02*
X813640Y152405D01*
X813640Y148761D01*
X811818Y146939D01*
X806353Y146939D01*
X801946Y146939D02*
X798302Y150583D01*
X798302Y154227D01*
X801946Y157870D01*
X782456Y157870D02*
X782456Y146939D01*
X782456Y157870D02*
X775169Y157870D01*
X778812Y152405D02*
X782456Y152405D01*
X770762Y148761D02*
X770762Y146939D01*
X770762Y148761D02*
X768940Y148761D01*
X768940Y146939D01*
X770762Y146939D01*
X753221Y150583D02*
X753221Y157870D01*
X753221Y150583D02*
X749577Y146939D01*
X745934Y150583D01*
X745934Y157870D01*
X739705Y146939D02*
X736062Y146939D01*
X739705Y146939D02*
X741527Y148761D01*
X741527Y152405D01*
X739705Y154227D01*
X736062Y154227D01*
X734240Y152405D01*
X734240Y150583D01*
X741527Y150583D01*
X728011Y154227D02*
X722546Y154227D01*
X728011Y154227D02*
X729833Y152405D01*
X729833Y148761D01*
X728011Y146939D01*
X722546Y146939D01*
X716317Y146939D02*
X712674Y146939D01*
X710852Y148761D01*
X710852Y152405D01*
X712674Y154227D01*
X716317Y154227D01*
X718139Y152405D01*
X718139Y148761D01*
X716317Y146939D01*
X706445Y154227D02*
X702802Y146939D01*
X699158Y154227D01*
X692930Y146939D02*
X689286Y146939D01*
X692930Y146939D02*
X694751Y148761D01*
X694751Y152405D01*
X692930Y154227D01*
X689286Y154227D01*
X687464Y152405D01*
X687464Y150583D01*
X694751Y150583D01*
X683057Y146939D02*
X683057Y154227D01*
X677592Y154227D01*
X675770Y152405D01*
X675770Y146939D01*
X804623Y75320D02*
X811911Y75320D01*
X811911Y64389D01*
X804623Y64389D01*
X808267Y69855D02*
X811911Y69855D01*
X798395Y71677D02*
X794751Y71677D01*
X792930Y69855D01*
X792930Y64389D01*
X798395Y64389D01*
X800217Y66211D01*
X798395Y68033D01*
X792930Y68033D01*
X784879Y60745D02*
X783057Y60745D01*
X781236Y62567D01*
X781236Y71677D01*
X786701Y71677D01*
X788523Y69855D01*
X788523Y66211D01*
X786701Y64389D01*
X781236Y64389D01*
X776829Y75320D02*
X775007Y75320D01*
X775007Y64389D01*
X776829Y64389D02*
X773185Y64389D01*
X767211Y64389D02*
X763567Y64389D01*
X767211Y64389D02*
X769033Y66211D01*
X769033Y69855D01*
X767211Y71677D01*
X763567Y71677D01*
X761746Y69855D01*
X761746Y68033D01*
X769033Y68033D01*
X745645Y64389D02*
X745645Y75320D01*
X745645Y64389D02*
X738358Y64389D01*
X732129Y71677D02*
X728486Y71677D01*
X726664Y69855D01*
X726664Y64389D01*
X732129Y64389D01*
X733951Y66211D01*
X732129Y68033D01*
X726664Y68033D01*
X722257Y66211D02*
X722257Y71677D01*
X722257Y66211D02*
X720435Y64389D01*
X714970Y64389D01*
X714970Y62567D02*
X714970Y71677D01*
X714970Y62567D02*
X716792Y60745D01*
X718614Y60745D01*
X708741Y64389D02*
X705098Y64389D01*
X703276Y66211D01*
X703276Y69855D01*
X705098Y71677D01*
X708741Y71677D01*
X710563Y69855D01*
X710563Y66211D01*
X708741Y64389D01*
X698869Y66211D02*
X698869Y71677D01*
X698869Y66211D02*
X697047Y64389D01*
X691582Y64389D01*
X691582Y71677D01*
X685353Y73498D02*
X685353Y66211D01*
X683532Y64389D01*
X683532Y71677D02*
X687175Y71677D01*
X795567Y45339D02*
X799211Y48983D01*
X799211Y52627D01*
X795567Y56270D01*
X789593Y52627D02*
X784128Y52627D01*
X789593Y52627D02*
X791415Y50805D01*
X791415Y47161D01*
X789593Y45339D01*
X784128Y45339D01*
X779721Y45339D02*
X776077Y48983D01*
X776077Y52627D01*
X779721Y56270D01*
X760231Y56270D02*
X760231Y45339D01*
X760231Y56270D02*
X752944Y56270D01*
X756587Y50805D02*
X760231Y50805D01*
X748537Y56270D02*
X748537Y45339D01*
X748537Y56270D02*
X743072Y56270D01*
X741250Y54448D01*
X741250Y52627D01*
X743072Y50805D01*
X741250Y48983D01*
X741250Y47161D01*
X743072Y45339D01*
X748537Y45339D01*
X748537Y50805D02*
X743072Y50805D01*
X725149Y56270D02*
X725149Y45339D01*
X717862Y45339D01*
X711633Y52627D02*
X707990Y52627D01*
X706168Y50805D01*
X706168Y45339D01*
X711633Y45339D01*
X713455Y47161D01*
X711633Y48983D01*
X706168Y48983D01*
X701761Y45339D02*
X701761Y56270D01*
X701761Y45339D02*
X696296Y45339D01*
X694474Y47161D01*
X694474Y50805D01*
X696296Y52627D01*
X701761Y52627D01*
X690067Y45339D02*
X684602Y45339D01*
X682780Y47161D01*
X684602Y48983D01*
X688245Y48983D01*
X690067Y50805D01*
X688245Y52627D01*
X682780Y52627D01*
X760173Y26289D02*
X767461Y26289D01*
X760173Y33577D01*
X760173Y35398D01*
X761995Y37220D01*
X765639Y37220D01*
X767461Y35398D01*
X755767Y35398D02*
X755767Y28111D01*
X755767Y35398D02*
X753945Y37220D01*
X750301Y37220D01*
X748480Y35398D01*
X748480Y28111D01*
X750301Y26289D01*
X753945Y26289D01*
X755767Y28111D01*
X748480Y35398D01*
X744073Y33577D02*
X740429Y37220D01*
X740429Y26289D01*
X736786Y26289D02*
X744073Y26289D01*
X726913Y26289D02*
X726913Y37220D01*
X732379Y31755D01*
X725092Y31755D01*
D11*
X780034Y784693D02*
X780034Y795201D01*
X777407Y797827D01*
X772153Y797827D01*
X769526Y795201D01*
X769526Y784693D01*
X772153Y782066D01*
X777407Y782066D01*
X780034Y784693D01*
X769526Y795201D01*
X899701Y789947D02*
X910209Y789947D01*
X904955Y795201D02*
X904955Y784693D01*
X893837Y797827D02*
X883330Y797827D01*
X893837Y797827D02*
X893837Y789947D01*
X888584Y792574D01*
X885957Y792574D01*
X883330Y789947D01*
X883330Y784693D01*
X885957Y782066D01*
X891211Y782066D01*
X893837Y784693D01*
X877466Y787320D02*
X877466Y797827D01*
X877466Y787320D02*
X872212Y782066D01*
X866958Y787320D01*
X866958Y797827D01*
M02*
