G04 EAGLE Gerber RS-274X export*
G75*
%MOMM*%
%FSLAX34Y34*%
%LPD*%
%INTop Soldermask*%
%IPPOS*%
%AMOC8*
5,1,8,0,0,1.08239X$1,22.5*%
G01*
%ADD10P,1.869504X8X202.500000*%
%ADD11C,1.524000*%
%ADD12C,1.981200*%
%ADD13P,2.969212X8X292.500000*%
%ADD14P,2.034460X8X292.500000*%
%ADD15R,2.203200X3.003200*%
%ADD16R,0.903200X4.203200*%
%ADD17R,1.403200X4.203200*%
%ADD18C,1.303200*%
%ADD19C,1.803200*%
%ADD20P,2.034460X8X112.500000*%
%ADD21P,2.034460X8X202.500000*%
%ADD22P,2.034460X8X22.500000*%
%ADD23P,1.649562X8X292.500000*%
%ADD24P,1.649562X8X112.500000*%
%ADD25C,1.524000*%
%ADD26P,1.649562X8X22.500000*%
%ADD27P,1.649562X8X202.500000*%
%ADD28C,1.727200*%
%ADD29P,2.144431X8X112.500000*%
%ADD30P,2.144431X8X22.500000*%
%ADD31P,2.144431X8X202.500000*%
%ADD32P,2.006968X8X22.500000*%
%ADD33R,2.203200X2.703200*%
%ADD34R,2.203200X3.503200*%
%ADD35R,0.703200X3.303200*%
%ADD36C,1.103200*%
%ADD37R,0.965200X1.727200*%
%ADD38R,1.219200X1.727200*%
%ADD39R,1.727200X2.235200*%
%ADD40R,1.727200X1.727200*%
%ADD41C,1.092200*%
%ADD42C,1.511200*%
%ADD43C,1.473200*%
%ADD44C,1.371600*%
%ADD45C,5.283200*%


D10*
X730250Y774700D03*
X730250Y749300D03*
X704850Y774700D03*
X704850Y749300D03*
X679450Y774700D03*
X679450Y749300D03*
X654050Y774700D03*
X654050Y749300D03*
X628650Y774700D03*
X628650Y749300D03*
X603250Y774700D03*
X603250Y749300D03*
X577850Y774700D03*
X577850Y749300D03*
X552450Y774700D03*
X552450Y749300D03*
X527050Y774700D03*
X527050Y749300D03*
X501650Y774700D03*
X501650Y749300D03*
X476250Y774700D03*
X476250Y749300D03*
X450850Y774700D03*
X450850Y749300D03*
X425450Y774700D03*
X425450Y749300D03*
X400050Y774700D03*
X400050Y749300D03*
X374650Y774700D03*
X374650Y749300D03*
X349250Y774700D03*
X349250Y749300D03*
X323850Y774700D03*
X323850Y749300D03*
X298450Y774700D03*
X298450Y749300D03*
X273050Y774700D03*
X273050Y749300D03*
X247650Y774700D03*
X247650Y749300D03*
X222250Y749300D03*
X222250Y774700D03*
X196850Y774700D03*
X171450Y774700D03*
X146050Y774700D03*
X146050Y749300D03*
X171450Y749300D03*
X196850Y749300D03*
X120650Y749300D03*
X120650Y774700D03*
D11*
X311150Y667004D02*
X311150Y653796D01*
X285750Y653796D02*
X285750Y667004D01*
X260350Y667004D02*
X260350Y653796D01*
X234950Y653796D02*
X234950Y667004D01*
X209550Y667004D02*
X209550Y653796D01*
X184150Y653796D02*
X184150Y667004D01*
X158750Y667004D02*
X158750Y653796D01*
X133350Y653796D02*
X133350Y667004D01*
X107950Y667004D02*
X107950Y653796D01*
X82550Y653796D02*
X82550Y667004D01*
X82550Y590804D02*
X82550Y577596D01*
X107950Y577596D02*
X107950Y590804D01*
X133350Y590804D02*
X133350Y577596D01*
X158750Y577596D02*
X158750Y590804D01*
X184150Y590804D02*
X184150Y577596D01*
X209550Y577596D02*
X209550Y590804D01*
X234950Y590804D02*
X234950Y577596D01*
X260350Y577596D02*
X260350Y590804D01*
X285750Y590804D02*
X285750Y577596D01*
X311150Y577596D02*
X311150Y590804D01*
X590550Y653796D02*
X590550Y667004D01*
X565150Y667004D02*
X565150Y653796D01*
X438150Y653796D02*
X438150Y667004D01*
X412750Y667004D02*
X412750Y653796D01*
X539750Y653796D02*
X539750Y667004D01*
X514350Y667004D02*
X514350Y653796D01*
X463550Y653796D02*
X463550Y667004D01*
X488950Y667004D02*
X488950Y653796D01*
X387350Y653796D02*
X387350Y667004D01*
X361950Y667004D02*
X361950Y653796D01*
X361950Y590804D02*
X361950Y577596D01*
X387350Y577596D02*
X387350Y590804D01*
X412750Y590804D02*
X412750Y577596D01*
X438150Y577596D02*
X438150Y590804D01*
X463550Y590804D02*
X463550Y577596D01*
X488950Y577596D02*
X488950Y590804D01*
X514350Y590804D02*
X514350Y577596D01*
X539750Y577596D02*
X539750Y590804D01*
X565150Y590804D02*
X565150Y577596D01*
X590550Y577596D02*
X590550Y590804D01*
X819150Y653796D02*
X819150Y667004D01*
X793750Y667004D02*
X793750Y653796D01*
X666750Y653796D02*
X666750Y667004D01*
X641350Y667004D02*
X641350Y653796D01*
X768350Y653796D02*
X768350Y667004D01*
X742950Y667004D02*
X742950Y653796D01*
X692150Y653796D02*
X692150Y667004D01*
X717550Y667004D02*
X717550Y653796D01*
X641350Y590804D02*
X641350Y577596D01*
X666750Y577596D02*
X666750Y590804D01*
X692150Y590804D02*
X692150Y577596D01*
X717550Y577596D02*
X717550Y590804D01*
X742950Y590804D02*
X742950Y577596D01*
X768350Y577596D02*
X768350Y590804D01*
X793750Y590804D02*
X793750Y577596D01*
X819150Y577596D02*
X819150Y590804D01*
X850900Y292354D02*
X850900Y279146D01*
X876300Y279146D02*
X876300Y292354D01*
X876300Y355346D02*
X876300Y368554D01*
X850900Y368554D02*
X850900Y355346D01*
X901700Y292354D02*
X901700Y279146D01*
X927100Y279146D02*
X927100Y292354D01*
X901700Y355346D02*
X901700Y368554D01*
X927100Y368554D02*
X927100Y355346D01*
D12*
X857250Y215900D03*
X857250Y241300D03*
D13*
X863600Y127000D03*
X660400Y127000D03*
X831850Y127000D03*
X800100Y127000D03*
X768350Y127000D03*
D14*
X762000Y361950D03*
X762000Y260350D03*
X723900Y361950D03*
X723900Y260350D03*
X800100Y361950D03*
X800100Y260350D03*
D15*
X90600Y23300D03*
X369600Y23300D03*
X89600Y244000D03*
D16*
X106600Y263000D03*
X131600Y263000D03*
D17*
X147600Y263000D03*
X172600Y263000D03*
X197600Y263000D03*
X272600Y263000D03*
X222600Y263000D03*
X297600Y263000D03*
X247600Y263000D03*
X322600Y263000D03*
D16*
X118600Y263000D03*
D15*
X345600Y245000D03*
D18*
X112600Y233000D03*
D19*
X323600Y233000D03*
D20*
X31750Y203200D03*
X31750Y304800D03*
X57150Y203200D03*
X57150Y304800D03*
D21*
X508000Y234950D03*
X406400Y234950D03*
X508000Y107950D03*
X406400Y107950D03*
X508000Y158750D03*
X406400Y158750D03*
D22*
X406400Y82550D03*
X508000Y82550D03*
X133350Y323850D03*
X234950Y323850D03*
X406400Y260350D03*
X508000Y260350D03*
X406400Y184150D03*
X508000Y184150D03*
X406400Y133350D03*
X508000Y133350D03*
X406400Y209550D03*
X508000Y209550D03*
D23*
X628650Y279400D03*
X647700Y266700D03*
X628650Y254000D03*
D14*
X685800Y361950D03*
X685800Y260350D03*
D11*
X819150Y520446D02*
X819150Y533654D01*
X793750Y533654D02*
X793750Y520446D01*
X768350Y520446D02*
X768350Y533654D01*
X742950Y533654D02*
X742950Y520446D01*
X717550Y520446D02*
X717550Y533654D01*
X692150Y533654D02*
X692150Y520446D01*
X666750Y520446D02*
X666750Y533654D01*
X641350Y533654D02*
X641350Y520446D01*
X641350Y457454D02*
X641350Y444246D01*
X666750Y444246D02*
X666750Y457454D01*
X692150Y457454D02*
X692150Y444246D01*
X717550Y444246D02*
X717550Y457454D01*
X742950Y457454D02*
X742950Y444246D01*
X768350Y444246D02*
X768350Y457454D01*
X793750Y457454D02*
X793750Y444246D01*
X819150Y444246D02*
X819150Y457454D01*
D24*
X933450Y588010D03*
D25*
X933450Y567690D03*
D24*
X869950Y588010D03*
D25*
X869950Y567690D03*
D26*
X740410Y406400D03*
D25*
X720090Y406400D03*
D26*
X664210Y406400D03*
D25*
X643890Y406400D03*
D27*
X796290Y406400D03*
D25*
X816610Y406400D03*
D28*
X887730Y520700D02*
X902970Y520700D01*
X902970Y495300D02*
X887730Y495300D01*
X887730Y469900D02*
X902970Y469900D01*
X902970Y444500D02*
X887730Y444500D01*
X887730Y419100D02*
X902970Y419100D01*
D26*
X457200Y25400D03*
X482600Y25400D03*
X527050Y25400D03*
X552450Y25400D03*
D20*
X584200Y76200D03*
X584200Y177800D03*
X552450Y76200D03*
X552450Y177800D03*
D29*
X44450Y590550D03*
X44450Y641350D03*
D24*
X933450Y657860D03*
D25*
X933450Y637540D03*
D29*
X869950Y622300D03*
X869950Y673100D03*
D27*
X612140Y336550D03*
D25*
X632460Y336550D03*
D30*
X571500Y222250D03*
X622300Y222250D03*
D11*
X82550Y368046D02*
X82550Y381254D01*
X107950Y381254D02*
X107950Y368046D01*
X133350Y368046D02*
X133350Y381254D01*
X158750Y381254D02*
X158750Y368046D01*
X184150Y368046D02*
X184150Y381254D01*
X209550Y381254D02*
X209550Y368046D01*
X234950Y368046D02*
X234950Y381254D01*
X260350Y381254D02*
X260350Y368046D01*
X285750Y368046D02*
X285750Y381254D01*
X311150Y381254D02*
X311150Y368046D01*
X336550Y368046D02*
X336550Y381254D01*
X361950Y381254D02*
X361950Y368046D01*
X387350Y368046D02*
X387350Y381254D01*
X412750Y381254D02*
X412750Y368046D01*
X438150Y368046D02*
X438150Y381254D01*
X463550Y381254D02*
X463550Y368046D01*
X488950Y368046D02*
X488950Y381254D01*
X514350Y381254D02*
X514350Y368046D01*
X539750Y368046D02*
X539750Y381254D01*
X565150Y381254D02*
X565150Y368046D01*
X565150Y520446D02*
X565150Y533654D01*
X539750Y533654D02*
X539750Y520446D01*
X514350Y520446D02*
X514350Y533654D01*
X488950Y533654D02*
X488950Y520446D01*
X463550Y520446D02*
X463550Y533654D01*
X438150Y533654D02*
X438150Y520446D01*
X412750Y520446D02*
X412750Y533654D01*
X387350Y533654D02*
X387350Y520446D01*
X361950Y520446D02*
X361950Y533654D01*
X336550Y533654D02*
X336550Y520446D01*
X311150Y520446D02*
X311150Y533654D01*
X285750Y533654D02*
X285750Y520446D01*
X260350Y520446D02*
X260350Y533654D01*
X234950Y533654D02*
X234950Y520446D01*
X209550Y520446D02*
X209550Y533654D01*
X184150Y533654D02*
X184150Y520446D01*
X158750Y520446D02*
X158750Y533654D01*
X133350Y533654D02*
X133350Y520446D01*
X107950Y520446D02*
X107950Y533654D01*
X82550Y533654D02*
X82550Y520446D01*
D28*
X39370Y501650D02*
X24130Y501650D01*
X24130Y476250D02*
X39370Y476250D01*
X39370Y450850D02*
X24130Y450850D01*
X24130Y425450D02*
X39370Y425450D01*
X39370Y400050D02*
X24130Y400050D01*
D20*
X19050Y565150D03*
X19050Y666750D03*
D30*
X285750Y323850D03*
X336550Y323850D03*
D31*
X542925Y323850D03*
X492125Y323850D03*
D12*
X388620Y323850D03*
X436880Y323850D03*
D24*
X558800Y254000D03*
X539750Y266700D03*
X558800Y279400D03*
D32*
X209550Y558800D03*
X234950Y555625D03*
X260350Y555625D03*
X60325Y158750D03*
D33*
X777825Y792000D03*
X866825Y792000D03*
D34*
X777825Y733000D03*
X866825Y733000D03*
D35*
X838325Y732000D03*
X830325Y732000D03*
X822325Y732000D03*
X814325Y732000D03*
X806325Y732000D03*
D36*
X844325Y762000D03*
X800325Y762000D03*
D37*
X253550Y127000D03*
X242550Y127000D03*
X231550Y127000D03*
X220550Y127000D03*
X209550Y127000D03*
X198550Y127000D03*
X187550Y127000D03*
X176550Y127000D03*
X165550Y127000D03*
D38*
X152090Y121000D03*
D39*
X155550Y23270D03*
D40*
X301360Y123080D03*
D39*
X309550Y23270D03*
D41*
X183550Y18000D03*
X263550Y18000D03*
D42*
X374650Y254000D03*
D43*
X777875Y762000D03*
D42*
X323850Y101600D03*
X152090Y101600D03*
X76200Y215900D03*
D44*
X692150Y730250D03*
X666750Y730250D03*
X641350Y730250D03*
X615950Y730250D03*
X590550Y730250D03*
X565150Y730250D03*
X539750Y730250D03*
X298450Y476250D03*
X298450Y508000D03*
D42*
X209550Y463550D03*
D43*
X825500Y762000D03*
D44*
X469900Y488950D03*
X603250Y482600D03*
X241300Y152400D03*
X266700Y184150D03*
X209550Y146050D03*
X212725Y174625D03*
D42*
X438150Y222250D03*
D44*
X457200Y196850D03*
X120650Y158750D03*
D45*
X38100Y43180D03*
X38100Y738505D03*
X919480Y43180D03*
X919480Y738505D03*
M02*
