G04 EAGLE Gerber RS-274X export*
G75*
%MOMM*%
%FSLAX34Y34*%
%LPD*%
%INMill Layer*%
%IPPOS*%
%AMOC8*
5,1,8,0,0,1.08239X$1,22.5*%
G01*
%ADD10C,0.000000*%


D10*
X0Y0D02*
X965200Y0D01*
X965200Y812480D01*
X0Y812480D01*
X0Y0D01*
X107100Y233000D02*
X107102Y233148D01*
X107108Y233296D01*
X107118Y233444D01*
X107132Y233592D01*
X107150Y233739D01*
X107172Y233886D01*
X107198Y234032D01*
X107227Y234177D01*
X107261Y234322D01*
X107299Y234465D01*
X107340Y234608D01*
X107385Y234749D01*
X107435Y234889D01*
X107487Y235027D01*
X107544Y235165D01*
X107604Y235300D01*
X107668Y235434D01*
X107735Y235566D01*
X107806Y235696D01*
X107881Y235825D01*
X107959Y235951D01*
X108040Y236075D01*
X108124Y236197D01*
X108212Y236316D01*
X108303Y236433D01*
X108397Y236548D01*
X108495Y236660D01*
X108595Y236769D01*
X108698Y236876D01*
X108804Y236980D01*
X108912Y237081D01*
X109024Y237179D01*
X109138Y237274D01*
X109254Y237365D01*
X109373Y237454D01*
X109494Y237539D01*
X109618Y237621D01*
X109744Y237700D01*
X109871Y237775D01*
X110001Y237847D01*
X110133Y237916D01*
X110266Y237980D01*
X110401Y238041D01*
X110538Y238099D01*
X110676Y238153D01*
X110816Y238203D01*
X110957Y238249D01*
X111099Y238291D01*
X111242Y238330D01*
X111386Y238364D01*
X111532Y238395D01*
X111677Y238422D01*
X111824Y238445D01*
X111971Y238464D01*
X112119Y238479D01*
X112266Y238490D01*
X112415Y238497D01*
X112563Y238500D01*
X112711Y238499D01*
X112859Y238494D01*
X113007Y238485D01*
X113155Y238472D01*
X113303Y238455D01*
X113449Y238434D01*
X113596Y238409D01*
X113741Y238380D01*
X113886Y238348D01*
X114029Y238311D01*
X114172Y238271D01*
X114314Y238226D01*
X114454Y238178D01*
X114593Y238126D01*
X114730Y238071D01*
X114866Y238011D01*
X115001Y237948D01*
X115133Y237882D01*
X115264Y237812D01*
X115393Y237738D01*
X115519Y237661D01*
X115644Y237581D01*
X115766Y237497D01*
X115887Y237410D01*
X116004Y237320D01*
X116120Y237226D01*
X116232Y237130D01*
X116342Y237031D01*
X116450Y236928D01*
X116554Y236823D01*
X116656Y236715D01*
X116754Y236604D01*
X116850Y236491D01*
X116943Y236375D01*
X117032Y236257D01*
X117118Y236136D01*
X117201Y236013D01*
X117281Y235888D01*
X117357Y235761D01*
X117430Y235631D01*
X117499Y235500D01*
X117564Y235367D01*
X117627Y235233D01*
X117685Y235096D01*
X117740Y234958D01*
X117790Y234819D01*
X117838Y234678D01*
X117881Y234537D01*
X117921Y234394D01*
X117956Y234250D01*
X117988Y234105D01*
X118016Y233959D01*
X118040Y233813D01*
X118060Y233666D01*
X118076Y233518D01*
X118088Y233371D01*
X118096Y233222D01*
X118100Y233074D01*
X118100Y232926D01*
X118096Y232778D01*
X118088Y232629D01*
X118076Y232482D01*
X118060Y232334D01*
X118040Y232187D01*
X118016Y232041D01*
X117988Y231895D01*
X117956Y231750D01*
X117921Y231606D01*
X117881Y231463D01*
X117838Y231322D01*
X117790Y231181D01*
X117740Y231042D01*
X117685Y230904D01*
X117627Y230767D01*
X117564Y230633D01*
X117499Y230500D01*
X117430Y230369D01*
X117357Y230239D01*
X117281Y230112D01*
X117201Y229987D01*
X117118Y229864D01*
X117032Y229743D01*
X116943Y229625D01*
X116850Y229509D01*
X116754Y229396D01*
X116656Y229285D01*
X116554Y229177D01*
X116450Y229072D01*
X116342Y228969D01*
X116232Y228870D01*
X116120Y228774D01*
X116004Y228680D01*
X115887Y228590D01*
X115766Y228503D01*
X115644Y228419D01*
X115519Y228339D01*
X115393Y228262D01*
X115264Y228188D01*
X115133Y228118D01*
X115001Y228052D01*
X114866Y227989D01*
X114730Y227929D01*
X114593Y227874D01*
X114454Y227822D01*
X114314Y227774D01*
X114172Y227729D01*
X114029Y227689D01*
X113886Y227652D01*
X113741Y227620D01*
X113596Y227591D01*
X113449Y227566D01*
X113303Y227545D01*
X113155Y227528D01*
X113007Y227515D01*
X112859Y227506D01*
X112711Y227501D01*
X112563Y227500D01*
X112415Y227503D01*
X112266Y227510D01*
X112119Y227521D01*
X111971Y227536D01*
X111824Y227555D01*
X111677Y227578D01*
X111532Y227605D01*
X111386Y227636D01*
X111242Y227670D01*
X111099Y227709D01*
X110957Y227751D01*
X110816Y227797D01*
X110676Y227847D01*
X110538Y227901D01*
X110401Y227959D01*
X110266Y228020D01*
X110133Y228084D01*
X110001Y228153D01*
X109871Y228225D01*
X109744Y228300D01*
X109618Y228379D01*
X109494Y228461D01*
X109373Y228546D01*
X109254Y228635D01*
X109138Y228726D01*
X109024Y228821D01*
X108912Y228919D01*
X108804Y229020D01*
X108698Y229124D01*
X108595Y229231D01*
X108495Y229340D01*
X108397Y229452D01*
X108303Y229567D01*
X108212Y229684D01*
X108124Y229803D01*
X108040Y229925D01*
X107959Y230049D01*
X107881Y230175D01*
X107806Y230304D01*
X107735Y230434D01*
X107668Y230566D01*
X107604Y230700D01*
X107544Y230835D01*
X107487Y230973D01*
X107435Y231111D01*
X107385Y231251D01*
X107340Y231392D01*
X107299Y231535D01*
X107261Y231678D01*
X107227Y231823D01*
X107198Y231968D01*
X107172Y232114D01*
X107150Y232261D01*
X107132Y232408D01*
X107118Y232556D01*
X107108Y232704D01*
X107102Y232852D01*
X107100Y233000D01*
X315600Y233000D02*
X315602Y233196D01*
X315610Y233393D01*
X315622Y233589D01*
X315639Y233784D01*
X315660Y233979D01*
X315687Y234174D01*
X315718Y234368D01*
X315754Y234561D01*
X315794Y234753D01*
X315840Y234944D01*
X315890Y235134D01*
X315944Y235322D01*
X316004Y235509D01*
X316068Y235695D01*
X316136Y235879D01*
X316209Y236061D01*
X316286Y236242D01*
X316368Y236420D01*
X316454Y236597D01*
X316545Y236771D01*
X316639Y236943D01*
X316738Y237113D01*
X316841Y237280D01*
X316948Y237445D01*
X317059Y237606D01*
X317174Y237766D01*
X317293Y237922D01*
X317416Y238075D01*
X317542Y238225D01*
X317672Y238372D01*
X317806Y238516D01*
X317943Y238657D01*
X318084Y238794D01*
X318228Y238928D01*
X318375Y239058D01*
X318525Y239184D01*
X318678Y239307D01*
X318834Y239426D01*
X318994Y239541D01*
X319155Y239652D01*
X319320Y239759D01*
X319487Y239862D01*
X319657Y239961D01*
X319829Y240055D01*
X320003Y240146D01*
X320180Y240232D01*
X320358Y240314D01*
X320539Y240391D01*
X320721Y240464D01*
X320905Y240532D01*
X321091Y240596D01*
X321278Y240656D01*
X321466Y240710D01*
X321656Y240760D01*
X321847Y240806D01*
X322039Y240846D01*
X322232Y240882D01*
X322426Y240913D01*
X322621Y240940D01*
X322816Y240961D01*
X323011Y240978D01*
X323207Y240990D01*
X323404Y240998D01*
X323600Y241000D01*
X323796Y240998D01*
X323993Y240990D01*
X324189Y240978D01*
X324384Y240961D01*
X324579Y240940D01*
X324774Y240913D01*
X324968Y240882D01*
X325161Y240846D01*
X325353Y240806D01*
X325544Y240760D01*
X325734Y240710D01*
X325922Y240656D01*
X326109Y240596D01*
X326295Y240532D01*
X326479Y240464D01*
X326661Y240391D01*
X326842Y240314D01*
X327020Y240232D01*
X327197Y240146D01*
X327371Y240055D01*
X327543Y239961D01*
X327713Y239862D01*
X327880Y239759D01*
X328045Y239652D01*
X328206Y239541D01*
X328366Y239426D01*
X328522Y239307D01*
X328675Y239184D01*
X328825Y239058D01*
X328972Y238928D01*
X329116Y238794D01*
X329257Y238657D01*
X329394Y238516D01*
X329528Y238372D01*
X329658Y238225D01*
X329784Y238075D01*
X329907Y237922D01*
X330026Y237766D01*
X330141Y237606D01*
X330252Y237445D01*
X330359Y237280D01*
X330462Y237113D01*
X330561Y236943D01*
X330655Y236771D01*
X330746Y236597D01*
X330832Y236420D01*
X330914Y236242D01*
X330991Y236061D01*
X331064Y235879D01*
X331132Y235695D01*
X331196Y235509D01*
X331256Y235322D01*
X331310Y235134D01*
X331360Y234944D01*
X331406Y234753D01*
X331446Y234561D01*
X331482Y234368D01*
X331513Y234174D01*
X331540Y233979D01*
X331561Y233784D01*
X331578Y233589D01*
X331590Y233393D01*
X331598Y233196D01*
X331600Y233000D01*
X331598Y232804D01*
X331590Y232607D01*
X331578Y232411D01*
X331561Y232216D01*
X331540Y232021D01*
X331513Y231826D01*
X331482Y231632D01*
X331446Y231439D01*
X331406Y231247D01*
X331360Y231056D01*
X331310Y230866D01*
X331256Y230678D01*
X331196Y230491D01*
X331132Y230305D01*
X331064Y230121D01*
X330991Y229939D01*
X330914Y229758D01*
X330832Y229580D01*
X330746Y229403D01*
X330655Y229229D01*
X330561Y229057D01*
X330462Y228887D01*
X330359Y228720D01*
X330252Y228555D01*
X330141Y228394D01*
X330026Y228234D01*
X329907Y228078D01*
X329784Y227925D01*
X329658Y227775D01*
X329528Y227628D01*
X329394Y227484D01*
X329257Y227343D01*
X329116Y227206D01*
X328972Y227072D01*
X328825Y226942D01*
X328675Y226816D01*
X328522Y226693D01*
X328366Y226574D01*
X328206Y226459D01*
X328045Y226348D01*
X327880Y226241D01*
X327713Y226138D01*
X327543Y226039D01*
X327371Y225945D01*
X327197Y225854D01*
X327020Y225768D01*
X326842Y225686D01*
X326661Y225609D01*
X326479Y225536D01*
X326295Y225468D01*
X326109Y225404D01*
X325922Y225344D01*
X325734Y225290D01*
X325544Y225240D01*
X325353Y225194D01*
X325161Y225154D01*
X324968Y225118D01*
X324774Y225087D01*
X324579Y225060D01*
X324384Y225039D01*
X324189Y225022D01*
X323993Y225010D01*
X323796Y225002D01*
X323600Y225000D01*
X323404Y225002D01*
X323207Y225010D01*
X323011Y225022D01*
X322816Y225039D01*
X322621Y225060D01*
X322426Y225087D01*
X322232Y225118D01*
X322039Y225154D01*
X321847Y225194D01*
X321656Y225240D01*
X321466Y225290D01*
X321278Y225344D01*
X321091Y225404D01*
X320905Y225468D01*
X320721Y225536D01*
X320539Y225609D01*
X320358Y225686D01*
X320180Y225768D01*
X320003Y225854D01*
X319829Y225945D01*
X319657Y226039D01*
X319487Y226138D01*
X319320Y226241D01*
X319155Y226348D01*
X318994Y226459D01*
X318834Y226574D01*
X318678Y226693D01*
X318525Y226816D01*
X318375Y226942D01*
X318228Y227072D01*
X318084Y227206D01*
X317943Y227343D01*
X317806Y227484D01*
X317672Y227628D01*
X317542Y227775D01*
X317416Y227925D01*
X317293Y228078D01*
X317174Y228234D01*
X317059Y228394D01*
X316948Y228555D01*
X316841Y228720D01*
X316738Y228887D01*
X316639Y229057D01*
X316545Y229229D01*
X316454Y229403D01*
X316368Y229580D01*
X316286Y229758D01*
X316209Y229939D01*
X316136Y230121D01*
X316068Y230305D01*
X316004Y230491D01*
X315944Y230678D01*
X315890Y230866D01*
X315840Y231056D01*
X315794Y231247D01*
X315754Y231439D01*
X315718Y231632D01*
X315687Y231826D01*
X315660Y232021D01*
X315639Y232216D01*
X315622Y232411D01*
X315610Y232607D01*
X315602Y232804D01*
X315600Y233000D01*
X839825Y762000D02*
X839827Y762134D01*
X839833Y762268D01*
X839843Y762401D01*
X839857Y762535D01*
X839875Y762668D01*
X839897Y762800D01*
X839922Y762931D01*
X839952Y763062D01*
X839986Y763192D01*
X840023Y763320D01*
X840064Y763448D01*
X840109Y763574D01*
X840158Y763699D01*
X840210Y763822D01*
X840266Y763944D01*
X840326Y764064D01*
X840389Y764182D01*
X840456Y764298D01*
X840526Y764412D01*
X840600Y764524D01*
X840677Y764634D01*
X840757Y764742D01*
X840840Y764847D01*
X840926Y764949D01*
X841015Y765049D01*
X841108Y765146D01*
X841203Y765241D01*
X841301Y765332D01*
X841401Y765421D01*
X841504Y765506D01*
X841610Y765589D01*
X841718Y765668D01*
X841828Y765744D01*
X841941Y765817D01*
X842056Y765886D01*
X842172Y765952D01*
X842291Y766014D01*
X842411Y766073D01*
X842534Y766128D01*
X842657Y766180D01*
X842782Y766227D01*
X842909Y766271D01*
X843037Y766312D01*
X843166Y766348D01*
X843296Y766381D01*
X843427Y766409D01*
X843558Y766434D01*
X843691Y766455D01*
X843824Y766472D01*
X843957Y766485D01*
X844091Y766494D01*
X844225Y766499D01*
X844359Y766500D01*
X844492Y766497D01*
X844626Y766490D01*
X844760Y766479D01*
X844893Y766464D01*
X845026Y766445D01*
X845158Y766422D01*
X845289Y766396D01*
X845419Y766365D01*
X845549Y766330D01*
X845677Y766292D01*
X845804Y766250D01*
X845930Y766204D01*
X846055Y766154D01*
X846178Y766101D01*
X846299Y766044D01*
X846419Y765983D01*
X846536Y765919D01*
X846652Y765852D01*
X846766Y765781D01*
X846877Y765706D01*
X846986Y765629D01*
X847093Y765548D01*
X847198Y765464D01*
X847299Y765377D01*
X847399Y765287D01*
X847495Y765194D01*
X847589Y765098D01*
X847680Y764999D01*
X847767Y764898D01*
X847852Y764794D01*
X847934Y764688D01*
X848012Y764580D01*
X848087Y764469D01*
X848159Y764356D01*
X848228Y764240D01*
X848293Y764123D01*
X848354Y764004D01*
X848412Y763883D01*
X848466Y763761D01*
X848517Y763637D01*
X848564Y763511D01*
X848607Y763384D01*
X848646Y763256D01*
X848682Y763127D01*
X848713Y762997D01*
X848741Y762866D01*
X848765Y762734D01*
X848785Y762601D01*
X848801Y762468D01*
X848813Y762335D01*
X848821Y762201D01*
X848825Y762067D01*
X848825Y761933D01*
X848821Y761799D01*
X848813Y761665D01*
X848801Y761532D01*
X848785Y761399D01*
X848765Y761266D01*
X848741Y761134D01*
X848713Y761003D01*
X848682Y760873D01*
X848646Y760744D01*
X848607Y760616D01*
X848564Y760489D01*
X848517Y760363D01*
X848466Y760239D01*
X848412Y760117D01*
X848354Y759996D01*
X848293Y759877D01*
X848228Y759760D01*
X848159Y759644D01*
X848087Y759531D01*
X848012Y759420D01*
X847934Y759312D01*
X847852Y759206D01*
X847767Y759102D01*
X847680Y759001D01*
X847589Y758902D01*
X847495Y758806D01*
X847399Y758713D01*
X847299Y758623D01*
X847198Y758536D01*
X847093Y758452D01*
X846986Y758371D01*
X846877Y758294D01*
X846766Y758219D01*
X846652Y758148D01*
X846536Y758081D01*
X846419Y758017D01*
X846299Y757956D01*
X846178Y757899D01*
X846055Y757846D01*
X845930Y757796D01*
X845804Y757750D01*
X845677Y757708D01*
X845549Y757670D01*
X845419Y757635D01*
X845289Y757604D01*
X845158Y757578D01*
X845026Y757555D01*
X844893Y757536D01*
X844760Y757521D01*
X844626Y757510D01*
X844492Y757503D01*
X844359Y757500D01*
X844225Y757501D01*
X844091Y757506D01*
X843957Y757515D01*
X843824Y757528D01*
X843691Y757545D01*
X843558Y757566D01*
X843427Y757591D01*
X843296Y757619D01*
X843166Y757652D01*
X843037Y757688D01*
X842909Y757729D01*
X842782Y757773D01*
X842657Y757820D01*
X842534Y757872D01*
X842411Y757927D01*
X842291Y757986D01*
X842172Y758048D01*
X842056Y758114D01*
X841941Y758183D01*
X841828Y758256D01*
X841718Y758332D01*
X841610Y758411D01*
X841504Y758494D01*
X841401Y758579D01*
X841301Y758668D01*
X841203Y758759D01*
X841108Y758854D01*
X841015Y758951D01*
X840926Y759051D01*
X840840Y759153D01*
X840757Y759258D01*
X840677Y759366D01*
X840600Y759476D01*
X840526Y759588D01*
X840456Y759702D01*
X840389Y759818D01*
X840326Y759936D01*
X840266Y760056D01*
X840210Y760178D01*
X840158Y760301D01*
X840109Y760426D01*
X840064Y760552D01*
X840023Y760680D01*
X839986Y760808D01*
X839952Y760938D01*
X839922Y761069D01*
X839897Y761200D01*
X839875Y761332D01*
X839857Y761465D01*
X839843Y761599D01*
X839833Y761732D01*
X839827Y761866D01*
X839825Y762000D01*
X795825Y762000D02*
X795827Y762134D01*
X795833Y762268D01*
X795843Y762401D01*
X795857Y762535D01*
X795875Y762668D01*
X795897Y762800D01*
X795922Y762931D01*
X795952Y763062D01*
X795986Y763192D01*
X796023Y763320D01*
X796064Y763448D01*
X796109Y763574D01*
X796158Y763699D01*
X796210Y763822D01*
X796266Y763944D01*
X796326Y764064D01*
X796389Y764182D01*
X796456Y764298D01*
X796526Y764412D01*
X796600Y764524D01*
X796677Y764634D01*
X796757Y764742D01*
X796840Y764847D01*
X796926Y764949D01*
X797015Y765049D01*
X797108Y765146D01*
X797203Y765241D01*
X797301Y765332D01*
X797401Y765421D01*
X797504Y765506D01*
X797610Y765589D01*
X797718Y765668D01*
X797828Y765744D01*
X797941Y765817D01*
X798056Y765886D01*
X798172Y765952D01*
X798291Y766014D01*
X798411Y766073D01*
X798534Y766128D01*
X798657Y766180D01*
X798782Y766227D01*
X798909Y766271D01*
X799037Y766312D01*
X799166Y766348D01*
X799296Y766381D01*
X799427Y766409D01*
X799558Y766434D01*
X799691Y766455D01*
X799824Y766472D01*
X799957Y766485D01*
X800091Y766494D01*
X800225Y766499D01*
X800359Y766500D01*
X800492Y766497D01*
X800626Y766490D01*
X800760Y766479D01*
X800893Y766464D01*
X801026Y766445D01*
X801158Y766422D01*
X801289Y766396D01*
X801419Y766365D01*
X801549Y766330D01*
X801677Y766292D01*
X801804Y766250D01*
X801930Y766204D01*
X802055Y766154D01*
X802178Y766101D01*
X802299Y766044D01*
X802419Y765983D01*
X802536Y765919D01*
X802652Y765852D01*
X802766Y765781D01*
X802877Y765706D01*
X802986Y765629D01*
X803093Y765548D01*
X803198Y765464D01*
X803299Y765377D01*
X803399Y765287D01*
X803495Y765194D01*
X803589Y765098D01*
X803680Y764999D01*
X803767Y764898D01*
X803852Y764794D01*
X803934Y764688D01*
X804012Y764580D01*
X804087Y764469D01*
X804159Y764356D01*
X804228Y764240D01*
X804293Y764123D01*
X804354Y764004D01*
X804412Y763883D01*
X804466Y763761D01*
X804517Y763637D01*
X804564Y763511D01*
X804607Y763384D01*
X804646Y763256D01*
X804682Y763127D01*
X804713Y762997D01*
X804741Y762866D01*
X804765Y762734D01*
X804785Y762601D01*
X804801Y762468D01*
X804813Y762335D01*
X804821Y762201D01*
X804825Y762067D01*
X804825Y761933D01*
X804821Y761799D01*
X804813Y761665D01*
X804801Y761532D01*
X804785Y761399D01*
X804765Y761266D01*
X804741Y761134D01*
X804713Y761003D01*
X804682Y760873D01*
X804646Y760744D01*
X804607Y760616D01*
X804564Y760489D01*
X804517Y760363D01*
X804466Y760239D01*
X804412Y760117D01*
X804354Y759996D01*
X804293Y759877D01*
X804228Y759760D01*
X804159Y759644D01*
X804087Y759531D01*
X804012Y759420D01*
X803934Y759312D01*
X803852Y759206D01*
X803767Y759102D01*
X803680Y759001D01*
X803589Y758902D01*
X803495Y758806D01*
X803399Y758713D01*
X803299Y758623D01*
X803198Y758536D01*
X803093Y758452D01*
X802986Y758371D01*
X802877Y758294D01*
X802766Y758219D01*
X802652Y758148D01*
X802536Y758081D01*
X802419Y758017D01*
X802299Y757956D01*
X802178Y757899D01*
X802055Y757846D01*
X801930Y757796D01*
X801804Y757750D01*
X801677Y757708D01*
X801549Y757670D01*
X801419Y757635D01*
X801289Y757604D01*
X801158Y757578D01*
X801026Y757555D01*
X800893Y757536D01*
X800760Y757521D01*
X800626Y757510D01*
X800492Y757503D01*
X800359Y757500D01*
X800225Y757501D01*
X800091Y757506D01*
X799957Y757515D01*
X799824Y757528D01*
X799691Y757545D01*
X799558Y757566D01*
X799427Y757591D01*
X799296Y757619D01*
X799166Y757652D01*
X799037Y757688D01*
X798909Y757729D01*
X798782Y757773D01*
X798657Y757820D01*
X798534Y757872D01*
X798411Y757927D01*
X798291Y757986D01*
X798172Y758048D01*
X798056Y758114D01*
X797941Y758183D01*
X797828Y758256D01*
X797718Y758332D01*
X797610Y758411D01*
X797504Y758494D01*
X797401Y758579D01*
X797301Y758668D01*
X797203Y758759D01*
X797108Y758854D01*
X797015Y758951D01*
X796926Y759051D01*
X796840Y759153D01*
X796757Y759258D01*
X796677Y759366D01*
X796600Y759476D01*
X796526Y759588D01*
X796456Y759702D01*
X796389Y759818D01*
X796326Y759936D01*
X796266Y760056D01*
X796210Y760178D01*
X796158Y760301D01*
X796109Y760426D01*
X796064Y760552D01*
X796023Y760680D01*
X795986Y760808D01*
X795952Y760938D01*
X795922Y761069D01*
X795897Y761200D01*
X795875Y761332D01*
X795857Y761465D01*
X795843Y761599D01*
X795833Y761732D01*
X795827Y761866D01*
X795825Y762000D01*
X179105Y18000D02*
X179107Y18133D01*
X179113Y18266D01*
X179123Y18398D01*
X179137Y18531D01*
X179155Y18662D01*
X179176Y18794D01*
X179202Y18924D01*
X179232Y19054D01*
X179265Y19183D01*
X179302Y19310D01*
X179344Y19437D01*
X179388Y19562D01*
X179437Y19686D01*
X179489Y19808D01*
X179545Y19929D01*
X179605Y20048D01*
X179668Y20165D01*
X179734Y20280D01*
X179804Y20393D01*
X179877Y20504D01*
X179954Y20613D01*
X180034Y20719D01*
X180117Y20823D01*
X180203Y20925D01*
X180292Y21023D01*
X180383Y21119D01*
X180478Y21213D01*
X180576Y21303D01*
X180676Y21391D01*
X180779Y21475D01*
X180884Y21557D01*
X180991Y21635D01*
X181101Y21710D01*
X181213Y21781D01*
X181328Y21849D01*
X181444Y21914D01*
X181562Y21976D01*
X181682Y22033D01*
X181803Y22087D01*
X181926Y22138D01*
X182051Y22184D01*
X182176Y22227D01*
X182304Y22267D01*
X182432Y22302D01*
X182561Y22334D01*
X182691Y22361D01*
X182822Y22385D01*
X182953Y22405D01*
X183085Y22421D01*
X183218Y22433D01*
X183351Y22441D01*
X183484Y22445D01*
X183616Y22445D01*
X183749Y22441D01*
X183882Y22433D01*
X184015Y22421D01*
X184147Y22405D01*
X184278Y22385D01*
X184409Y22361D01*
X184539Y22334D01*
X184668Y22302D01*
X184796Y22267D01*
X184924Y22227D01*
X185049Y22184D01*
X185174Y22138D01*
X185297Y22087D01*
X185418Y22033D01*
X185538Y21976D01*
X185656Y21914D01*
X185773Y21849D01*
X185887Y21781D01*
X185999Y21710D01*
X186109Y21635D01*
X186216Y21557D01*
X186321Y21475D01*
X186424Y21391D01*
X186524Y21303D01*
X186622Y21213D01*
X186717Y21119D01*
X186808Y21023D01*
X186897Y20925D01*
X186983Y20823D01*
X187066Y20719D01*
X187146Y20613D01*
X187223Y20504D01*
X187296Y20393D01*
X187366Y20280D01*
X187432Y20165D01*
X187495Y20048D01*
X187555Y19929D01*
X187611Y19808D01*
X187663Y19686D01*
X187712Y19562D01*
X187756Y19437D01*
X187798Y19310D01*
X187835Y19183D01*
X187868Y19054D01*
X187898Y18924D01*
X187924Y18794D01*
X187945Y18662D01*
X187963Y18531D01*
X187977Y18398D01*
X187987Y18266D01*
X187993Y18133D01*
X187995Y18000D01*
X187993Y17867D01*
X187987Y17734D01*
X187977Y17602D01*
X187963Y17469D01*
X187945Y17338D01*
X187924Y17206D01*
X187898Y17076D01*
X187868Y16946D01*
X187835Y16817D01*
X187798Y16690D01*
X187756Y16563D01*
X187712Y16438D01*
X187663Y16314D01*
X187611Y16192D01*
X187555Y16071D01*
X187495Y15952D01*
X187432Y15835D01*
X187366Y15720D01*
X187296Y15607D01*
X187223Y15496D01*
X187146Y15387D01*
X187066Y15281D01*
X186983Y15177D01*
X186897Y15075D01*
X186808Y14977D01*
X186717Y14881D01*
X186622Y14787D01*
X186524Y14697D01*
X186424Y14609D01*
X186321Y14525D01*
X186216Y14443D01*
X186109Y14365D01*
X185999Y14290D01*
X185887Y14219D01*
X185772Y14151D01*
X185656Y14086D01*
X185538Y14024D01*
X185418Y13967D01*
X185297Y13913D01*
X185174Y13862D01*
X185049Y13816D01*
X184924Y13773D01*
X184796Y13733D01*
X184668Y13698D01*
X184539Y13666D01*
X184409Y13639D01*
X184278Y13615D01*
X184147Y13595D01*
X184015Y13579D01*
X183882Y13567D01*
X183749Y13559D01*
X183616Y13555D01*
X183484Y13555D01*
X183351Y13559D01*
X183218Y13567D01*
X183085Y13579D01*
X182953Y13595D01*
X182822Y13615D01*
X182691Y13639D01*
X182561Y13666D01*
X182432Y13698D01*
X182304Y13733D01*
X182176Y13773D01*
X182051Y13816D01*
X181926Y13862D01*
X181803Y13913D01*
X181682Y13967D01*
X181562Y14024D01*
X181444Y14086D01*
X181327Y14151D01*
X181213Y14219D01*
X181101Y14290D01*
X180991Y14365D01*
X180884Y14443D01*
X180779Y14525D01*
X180676Y14609D01*
X180576Y14697D01*
X180478Y14787D01*
X180383Y14881D01*
X180292Y14977D01*
X180203Y15075D01*
X180117Y15177D01*
X180034Y15281D01*
X179954Y15387D01*
X179877Y15496D01*
X179804Y15607D01*
X179734Y15720D01*
X179668Y15835D01*
X179605Y15952D01*
X179545Y16071D01*
X179489Y16192D01*
X179437Y16314D01*
X179388Y16438D01*
X179344Y16563D01*
X179302Y16690D01*
X179265Y16817D01*
X179232Y16946D01*
X179202Y17076D01*
X179176Y17206D01*
X179155Y17338D01*
X179137Y17469D01*
X179123Y17602D01*
X179113Y17734D01*
X179107Y17867D01*
X179105Y18000D01*
X259105Y18000D02*
X259107Y18133D01*
X259113Y18266D01*
X259123Y18398D01*
X259137Y18531D01*
X259155Y18662D01*
X259176Y18794D01*
X259202Y18924D01*
X259232Y19054D01*
X259265Y19183D01*
X259302Y19310D01*
X259344Y19437D01*
X259388Y19562D01*
X259437Y19686D01*
X259489Y19808D01*
X259545Y19929D01*
X259605Y20048D01*
X259668Y20165D01*
X259734Y20280D01*
X259804Y20393D01*
X259877Y20504D01*
X259954Y20613D01*
X260034Y20719D01*
X260117Y20823D01*
X260203Y20925D01*
X260292Y21023D01*
X260383Y21119D01*
X260478Y21213D01*
X260576Y21303D01*
X260676Y21391D01*
X260779Y21475D01*
X260884Y21557D01*
X260991Y21635D01*
X261101Y21710D01*
X261213Y21781D01*
X261328Y21849D01*
X261444Y21914D01*
X261562Y21976D01*
X261682Y22033D01*
X261803Y22087D01*
X261926Y22138D01*
X262051Y22184D01*
X262176Y22227D01*
X262304Y22267D01*
X262432Y22302D01*
X262561Y22334D01*
X262691Y22361D01*
X262822Y22385D01*
X262953Y22405D01*
X263085Y22421D01*
X263218Y22433D01*
X263351Y22441D01*
X263484Y22445D01*
X263616Y22445D01*
X263749Y22441D01*
X263882Y22433D01*
X264015Y22421D01*
X264147Y22405D01*
X264278Y22385D01*
X264409Y22361D01*
X264539Y22334D01*
X264668Y22302D01*
X264796Y22267D01*
X264924Y22227D01*
X265049Y22184D01*
X265174Y22138D01*
X265297Y22087D01*
X265418Y22033D01*
X265538Y21976D01*
X265656Y21914D01*
X265773Y21849D01*
X265887Y21781D01*
X265999Y21710D01*
X266109Y21635D01*
X266216Y21557D01*
X266321Y21475D01*
X266424Y21391D01*
X266524Y21303D01*
X266622Y21213D01*
X266717Y21119D01*
X266808Y21023D01*
X266897Y20925D01*
X266983Y20823D01*
X267066Y20719D01*
X267146Y20613D01*
X267223Y20504D01*
X267296Y20393D01*
X267366Y20280D01*
X267432Y20165D01*
X267495Y20048D01*
X267555Y19929D01*
X267611Y19808D01*
X267663Y19686D01*
X267712Y19562D01*
X267756Y19437D01*
X267798Y19310D01*
X267835Y19183D01*
X267868Y19054D01*
X267898Y18924D01*
X267924Y18794D01*
X267945Y18662D01*
X267963Y18531D01*
X267977Y18398D01*
X267987Y18266D01*
X267993Y18133D01*
X267995Y18000D01*
X267993Y17867D01*
X267987Y17734D01*
X267977Y17602D01*
X267963Y17469D01*
X267945Y17338D01*
X267924Y17206D01*
X267898Y17076D01*
X267868Y16946D01*
X267835Y16817D01*
X267798Y16690D01*
X267756Y16563D01*
X267712Y16438D01*
X267663Y16314D01*
X267611Y16192D01*
X267555Y16071D01*
X267495Y15952D01*
X267432Y15835D01*
X267366Y15720D01*
X267296Y15607D01*
X267223Y15496D01*
X267146Y15387D01*
X267066Y15281D01*
X266983Y15177D01*
X266897Y15075D01*
X266808Y14977D01*
X266717Y14881D01*
X266622Y14787D01*
X266524Y14697D01*
X266424Y14609D01*
X266321Y14525D01*
X266216Y14443D01*
X266109Y14365D01*
X265999Y14290D01*
X265887Y14219D01*
X265772Y14151D01*
X265656Y14086D01*
X265538Y14024D01*
X265418Y13967D01*
X265297Y13913D01*
X265174Y13862D01*
X265049Y13816D01*
X264924Y13773D01*
X264796Y13733D01*
X264668Y13698D01*
X264539Y13666D01*
X264409Y13639D01*
X264278Y13615D01*
X264147Y13595D01*
X264015Y13579D01*
X263882Y13567D01*
X263749Y13559D01*
X263616Y13555D01*
X263484Y13555D01*
X263351Y13559D01*
X263218Y13567D01*
X263085Y13579D01*
X262953Y13595D01*
X262822Y13615D01*
X262691Y13639D01*
X262561Y13666D01*
X262432Y13698D01*
X262304Y13733D01*
X262176Y13773D01*
X262051Y13816D01*
X261926Y13862D01*
X261803Y13913D01*
X261682Y13967D01*
X261562Y14024D01*
X261444Y14086D01*
X261327Y14151D01*
X261213Y14219D01*
X261101Y14290D01*
X260991Y14365D01*
X260884Y14443D01*
X260779Y14525D01*
X260676Y14609D01*
X260576Y14697D01*
X260478Y14787D01*
X260383Y14881D01*
X260292Y14977D01*
X260203Y15075D01*
X260117Y15177D01*
X260034Y15281D01*
X259954Y15387D01*
X259877Y15496D01*
X259804Y15607D01*
X259734Y15720D01*
X259668Y15835D01*
X259605Y15952D01*
X259545Y16071D01*
X259489Y16192D01*
X259437Y16314D01*
X259388Y16438D01*
X259344Y16563D01*
X259302Y16690D01*
X259265Y16817D01*
X259232Y16946D01*
X259202Y17076D01*
X259176Y17206D01*
X259155Y17338D01*
X259137Y17469D01*
X259123Y17602D01*
X259113Y17734D01*
X259107Y17867D01*
X259105Y18000D01*
M02*
