G04 EAGLE Gerber RS-274X export*
G75*
%MOMM*%
%FSLAX34Y34*%
%LPD*%
%INTop Copper*%
%IPPOS*%
%AMOC8*
5,1,8,0,0,1.08239X$1,22.5*%
G01*
%ADD10C,0.000000*%
%ADD11P,1.649562X8X202.500000*%
%ADD12C,1.320800*%
%ADD13C,1.778000*%
%ADD14P,2.749271X8X292.500000*%
%ADD15P,1.814519X8X292.500000*%
%ADD16R,2.000000X2.800000*%
%ADD17R,0.700000X4.000000*%
%ADD18R,1.200000X4.000000*%
%ADD19P,1.814519X8X112.500000*%
%ADD20P,1.814519X8X202.500000*%
%ADD21P,1.814519X8X22.500000*%
%ADD22P,1.429621X8X292.500000*%
%ADD23P,1.429621X8X112.500000*%
%ADD24C,1.320800*%
%ADD25P,1.429621X8X22.500000*%
%ADD26P,1.429621X8X202.500000*%
%ADD27C,1.524000*%
%ADD28P,1.924489X8X112.500000*%
%ADD29P,1.924489X8X22.500000*%
%ADD30P,1.924489X8X202.500000*%
%ADD31P,1.787026X8X22.500000*%
%ADD32R,2.000000X2.500000*%
%ADD33R,2.000000X3.300000*%
%ADD34R,0.500000X3.100000*%
%ADD35R,0.762000X1.524000*%
%ADD36R,1.016000X1.524000*%
%ADD37R,1.524000X2.032000*%
%ADD38R,1.524000X1.524000*%
%ADD39C,0.609600*%
%ADD40C,0.406400*%
%ADD41C,1.308000*%
%ADD42C,1.270000*%
%ADD43C,0.304800*%
%ADD44C,1.168400*%
%ADD45C,5.080000*%


D10*
X0Y0D02*
X965200Y0D01*
X965200Y812480D01*
X0Y812480D01*
X0Y0D01*
D11*
X730250Y774700D03*
X730250Y749300D03*
X704850Y774700D03*
X704850Y749300D03*
X679450Y774700D03*
X679450Y749300D03*
X654050Y774700D03*
X654050Y749300D03*
X628650Y774700D03*
X628650Y749300D03*
X603250Y774700D03*
X603250Y749300D03*
X577850Y774700D03*
X577850Y749300D03*
X552450Y774700D03*
X552450Y749300D03*
X527050Y774700D03*
X527050Y749300D03*
X501650Y774700D03*
X501650Y749300D03*
X476250Y774700D03*
X476250Y749300D03*
X450850Y774700D03*
X450850Y749300D03*
X425450Y774700D03*
X425450Y749300D03*
X400050Y774700D03*
X400050Y749300D03*
X374650Y774700D03*
X374650Y749300D03*
X349250Y774700D03*
X349250Y749300D03*
X323850Y774700D03*
X323850Y749300D03*
X298450Y774700D03*
X298450Y749300D03*
X273050Y774700D03*
X273050Y749300D03*
X247650Y774700D03*
X247650Y749300D03*
X222250Y749300D03*
X222250Y774700D03*
X196850Y774700D03*
X171450Y774700D03*
X146050Y774700D03*
X146050Y749300D03*
X171450Y749300D03*
X196850Y749300D03*
X120650Y749300D03*
X120650Y774700D03*
D12*
X311150Y667004D02*
X311150Y653796D01*
X285750Y653796D02*
X285750Y667004D01*
X260350Y667004D02*
X260350Y653796D01*
X234950Y653796D02*
X234950Y667004D01*
X209550Y667004D02*
X209550Y653796D01*
X184150Y653796D02*
X184150Y667004D01*
X158750Y667004D02*
X158750Y653796D01*
X133350Y653796D02*
X133350Y667004D01*
X107950Y667004D02*
X107950Y653796D01*
X82550Y653796D02*
X82550Y667004D01*
X82550Y590804D02*
X82550Y577596D01*
X107950Y577596D02*
X107950Y590804D01*
X133350Y590804D02*
X133350Y577596D01*
X158750Y577596D02*
X158750Y590804D01*
X184150Y590804D02*
X184150Y577596D01*
X209550Y577596D02*
X209550Y590804D01*
X234950Y590804D02*
X234950Y577596D01*
X260350Y577596D02*
X260350Y590804D01*
X285750Y590804D02*
X285750Y577596D01*
X311150Y577596D02*
X311150Y590804D01*
X590550Y653796D02*
X590550Y667004D01*
X565150Y667004D02*
X565150Y653796D01*
X438150Y653796D02*
X438150Y667004D01*
X412750Y667004D02*
X412750Y653796D01*
X539750Y653796D02*
X539750Y667004D01*
X514350Y667004D02*
X514350Y653796D01*
X463550Y653796D02*
X463550Y667004D01*
X488950Y667004D02*
X488950Y653796D01*
X387350Y653796D02*
X387350Y667004D01*
X361950Y667004D02*
X361950Y653796D01*
X361950Y590804D02*
X361950Y577596D01*
X387350Y577596D02*
X387350Y590804D01*
X412750Y590804D02*
X412750Y577596D01*
X438150Y577596D02*
X438150Y590804D01*
X463550Y590804D02*
X463550Y577596D01*
X488950Y577596D02*
X488950Y590804D01*
X514350Y590804D02*
X514350Y577596D01*
X539750Y577596D02*
X539750Y590804D01*
X565150Y590804D02*
X565150Y577596D01*
X590550Y577596D02*
X590550Y590804D01*
X819150Y653796D02*
X819150Y667004D01*
X793750Y667004D02*
X793750Y653796D01*
X666750Y653796D02*
X666750Y667004D01*
X641350Y667004D02*
X641350Y653796D01*
X768350Y653796D02*
X768350Y667004D01*
X742950Y667004D02*
X742950Y653796D01*
X692150Y653796D02*
X692150Y667004D01*
X717550Y667004D02*
X717550Y653796D01*
X641350Y590804D02*
X641350Y577596D01*
X666750Y577596D02*
X666750Y590804D01*
X692150Y590804D02*
X692150Y577596D01*
X717550Y577596D02*
X717550Y590804D01*
X742950Y590804D02*
X742950Y577596D01*
X768350Y577596D02*
X768350Y590804D01*
X793750Y590804D02*
X793750Y577596D01*
X819150Y577596D02*
X819150Y590804D01*
X850900Y292354D02*
X850900Y279146D01*
X876300Y279146D02*
X876300Y292354D01*
X876300Y355346D02*
X876300Y368554D01*
X850900Y368554D02*
X850900Y355346D01*
X901700Y292354D02*
X901700Y279146D01*
X927100Y279146D02*
X927100Y292354D01*
X901700Y355346D02*
X901700Y368554D01*
X927100Y368554D02*
X927100Y355346D01*
D13*
X857250Y215900D03*
X857250Y241300D03*
D14*
X863600Y127000D03*
X660400Y127000D03*
X831850Y127000D03*
X800100Y127000D03*
X768350Y127000D03*
D15*
X762000Y361950D03*
X762000Y260350D03*
X723900Y361950D03*
X723900Y260350D03*
X800100Y361950D03*
X800100Y260350D03*
D16*
X90600Y23300D03*
X369600Y23300D03*
X89600Y244000D03*
D17*
X106600Y263000D03*
X131600Y263000D03*
D18*
X147600Y263000D03*
X172600Y263000D03*
X197600Y263000D03*
X272600Y263000D03*
X222600Y263000D03*
X297600Y263000D03*
X247600Y263000D03*
X322600Y263000D03*
D17*
X118600Y263000D03*
D16*
X345600Y245000D03*
D10*
X107100Y233000D02*
X107102Y233148D01*
X107108Y233296D01*
X107118Y233444D01*
X107132Y233592D01*
X107150Y233739D01*
X107172Y233886D01*
X107198Y234032D01*
X107227Y234177D01*
X107261Y234322D01*
X107299Y234465D01*
X107340Y234608D01*
X107385Y234749D01*
X107435Y234889D01*
X107487Y235027D01*
X107544Y235165D01*
X107604Y235300D01*
X107668Y235434D01*
X107735Y235566D01*
X107806Y235696D01*
X107881Y235825D01*
X107959Y235951D01*
X108040Y236075D01*
X108124Y236197D01*
X108212Y236316D01*
X108303Y236433D01*
X108397Y236548D01*
X108495Y236660D01*
X108595Y236769D01*
X108698Y236876D01*
X108804Y236980D01*
X108912Y237081D01*
X109024Y237179D01*
X109138Y237274D01*
X109254Y237365D01*
X109373Y237454D01*
X109494Y237539D01*
X109618Y237621D01*
X109744Y237700D01*
X109871Y237775D01*
X110001Y237847D01*
X110133Y237916D01*
X110266Y237980D01*
X110401Y238041D01*
X110538Y238099D01*
X110676Y238153D01*
X110816Y238203D01*
X110957Y238249D01*
X111099Y238291D01*
X111242Y238330D01*
X111386Y238364D01*
X111532Y238395D01*
X111677Y238422D01*
X111824Y238445D01*
X111971Y238464D01*
X112119Y238479D01*
X112266Y238490D01*
X112415Y238497D01*
X112563Y238500D01*
X112711Y238499D01*
X112859Y238494D01*
X113007Y238485D01*
X113155Y238472D01*
X113303Y238455D01*
X113449Y238434D01*
X113596Y238409D01*
X113741Y238380D01*
X113886Y238348D01*
X114029Y238311D01*
X114172Y238271D01*
X114314Y238226D01*
X114454Y238178D01*
X114593Y238126D01*
X114730Y238071D01*
X114866Y238011D01*
X115001Y237948D01*
X115133Y237882D01*
X115264Y237812D01*
X115393Y237738D01*
X115519Y237661D01*
X115644Y237581D01*
X115766Y237497D01*
X115887Y237410D01*
X116004Y237320D01*
X116120Y237226D01*
X116232Y237130D01*
X116342Y237031D01*
X116450Y236928D01*
X116554Y236823D01*
X116656Y236715D01*
X116754Y236604D01*
X116850Y236491D01*
X116943Y236375D01*
X117032Y236257D01*
X117118Y236136D01*
X117201Y236013D01*
X117281Y235888D01*
X117357Y235761D01*
X117430Y235631D01*
X117499Y235500D01*
X117564Y235367D01*
X117627Y235233D01*
X117685Y235096D01*
X117740Y234958D01*
X117790Y234819D01*
X117838Y234678D01*
X117881Y234537D01*
X117921Y234394D01*
X117956Y234250D01*
X117988Y234105D01*
X118016Y233959D01*
X118040Y233813D01*
X118060Y233666D01*
X118076Y233518D01*
X118088Y233371D01*
X118096Y233222D01*
X118100Y233074D01*
X118100Y232926D01*
X118096Y232778D01*
X118088Y232629D01*
X118076Y232482D01*
X118060Y232334D01*
X118040Y232187D01*
X118016Y232041D01*
X117988Y231895D01*
X117956Y231750D01*
X117921Y231606D01*
X117881Y231463D01*
X117838Y231322D01*
X117790Y231181D01*
X117740Y231042D01*
X117685Y230904D01*
X117627Y230767D01*
X117564Y230633D01*
X117499Y230500D01*
X117430Y230369D01*
X117357Y230239D01*
X117281Y230112D01*
X117201Y229987D01*
X117118Y229864D01*
X117032Y229743D01*
X116943Y229625D01*
X116850Y229509D01*
X116754Y229396D01*
X116656Y229285D01*
X116554Y229177D01*
X116450Y229072D01*
X116342Y228969D01*
X116232Y228870D01*
X116120Y228774D01*
X116004Y228680D01*
X115887Y228590D01*
X115766Y228503D01*
X115644Y228419D01*
X115519Y228339D01*
X115393Y228262D01*
X115264Y228188D01*
X115133Y228118D01*
X115001Y228052D01*
X114866Y227989D01*
X114730Y227929D01*
X114593Y227874D01*
X114454Y227822D01*
X114314Y227774D01*
X114172Y227729D01*
X114029Y227689D01*
X113886Y227652D01*
X113741Y227620D01*
X113596Y227591D01*
X113449Y227566D01*
X113303Y227545D01*
X113155Y227528D01*
X113007Y227515D01*
X112859Y227506D01*
X112711Y227501D01*
X112563Y227500D01*
X112415Y227503D01*
X112266Y227510D01*
X112119Y227521D01*
X111971Y227536D01*
X111824Y227555D01*
X111677Y227578D01*
X111532Y227605D01*
X111386Y227636D01*
X111242Y227670D01*
X111099Y227709D01*
X110957Y227751D01*
X110816Y227797D01*
X110676Y227847D01*
X110538Y227901D01*
X110401Y227959D01*
X110266Y228020D01*
X110133Y228084D01*
X110001Y228153D01*
X109871Y228225D01*
X109744Y228300D01*
X109618Y228379D01*
X109494Y228461D01*
X109373Y228546D01*
X109254Y228635D01*
X109138Y228726D01*
X109024Y228821D01*
X108912Y228919D01*
X108804Y229020D01*
X108698Y229124D01*
X108595Y229231D01*
X108495Y229340D01*
X108397Y229452D01*
X108303Y229567D01*
X108212Y229684D01*
X108124Y229803D01*
X108040Y229925D01*
X107959Y230049D01*
X107881Y230175D01*
X107806Y230304D01*
X107735Y230434D01*
X107668Y230566D01*
X107604Y230700D01*
X107544Y230835D01*
X107487Y230973D01*
X107435Y231111D01*
X107385Y231251D01*
X107340Y231392D01*
X107299Y231535D01*
X107261Y231678D01*
X107227Y231823D01*
X107198Y231968D01*
X107172Y232114D01*
X107150Y232261D01*
X107132Y232408D01*
X107118Y232556D01*
X107108Y232704D01*
X107102Y232852D01*
X107100Y233000D01*
X315600Y233000D02*
X315602Y233196D01*
X315610Y233393D01*
X315622Y233589D01*
X315639Y233784D01*
X315660Y233979D01*
X315687Y234174D01*
X315718Y234368D01*
X315754Y234561D01*
X315794Y234753D01*
X315840Y234944D01*
X315890Y235134D01*
X315944Y235322D01*
X316004Y235509D01*
X316068Y235695D01*
X316136Y235879D01*
X316209Y236061D01*
X316286Y236242D01*
X316368Y236420D01*
X316454Y236597D01*
X316545Y236771D01*
X316639Y236943D01*
X316738Y237113D01*
X316841Y237280D01*
X316948Y237445D01*
X317059Y237606D01*
X317174Y237766D01*
X317293Y237922D01*
X317416Y238075D01*
X317542Y238225D01*
X317672Y238372D01*
X317806Y238516D01*
X317943Y238657D01*
X318084Y238794D01*
X318228Y238928D01*
X318375Y239058D01*
X318525Y239184D01*
X318678Y239307D01*
X318834Y239426D01*
X318994Y239541D01*
X319155Y239652D01*
X319320Y239759D01*
X319487Y239862D01*
X319657Y239961D01*
X319829Y240055D01*
X320003Y240146D01*
X320180Y240232D01*
X320358Y240314D01*
X320539Y240391D01*
X320721Y240464D01*
X320905Y240532D01*
X321091Y240596D01*
X321278Y240656D01*
X321466Y240710D01*
X321656Y240760D01*
X321847Y240806D01*
X322039Y240846D01*
X322232Y240882D01*
X322426Y240913D01*
X322621Y240940D01*
X322816Y240961D01*
X323011Y240978D01*
X323207Y240990D01*
X323404Y240998D01*
X323600Y241000D01*
X323796Y240998D01*
X323993Y240990D01*
X324189Y240978D01*
X324384Y240961D01*
X324579Y240940D01*
X324774Y240913D01*
X324968Y240882D01*
X325161Y240846D01*
X325353Y240806D01*
X325544Y240760D01*
X325734Y240710D01*
X325922Y240656D01*
X326109Y240596D01*
X326295Y240532D01*
X326479Y240464D01*
X326661Y240391D01*
X326842Y240314D01*
X327020Y240232D01*
X327197Y240146D01*
X327371Y240055D01*
X327543Y239961D01*
X327713Y239862D01*
X327880Y239759D01*
X328045Y239652D01*
X328206Y239541D01*
X328366Y239426D01*
X328522Y239307D01*
X328675Y239184D01*
X328825Y239058D01*
X328972Y238928D01*
X329116Y238794D01*
X329257Y238657D01*
X329394Y238516D01*
X329528Y238372D01*
X329658Y238225D01*
X329784Y238075D01*
X329907Y237922D01*
X330026Y237766D01*
X330141Y237606D01*
X330252Y237445D01*
X330359Y237280D01*
X330462Y237113D01*
X330561Y236943D01*
X330655Y236771D01*
X330746Y236597D01*
X330832Y236420D01*
X330914Y236242D01*
X330991Y236061D01*
X331064Y235879D01*
X331132Y235695D01*
X331196Y235509D01*
X331256Y235322D01*
X331310Y235134D01*
X331360Y234944D01*
X331406Y234753D01*
X331446Y234561D01*
X331482Y234368D01*
X331513Y234174D01*
X331540Y233979D01*
X331561Y233784D01*
X331578Y233589D01*
X331590Y233393D01*
X331598Y233196D01*
X331600Y233000D01*
X331598Y232804D01*
X331590Y232607D01*
X331578Y232411D01*
X331561Y232216D01*
X331540Y232021D01*
X331513Y231826D01*
X331482Y231632D01*
X331446Y231439D01*
X331406Y231247D01*
X331360Y231056D01*
X331310Y230866D01*
X331256Y230678D01*
X331196Y230491D01*
X331132Y230305D01*
X331064Y230121D01*
X330991Y229939D01*
X330914Y229758D01*
X330832Y229580D01*
X330746Y229403D01*
X330655Y229229D01*
X330561Y229057D01*
X330462Y228887D01*
X330359Y228720D01*
X330252Y228555D01*
X330141Y228394D01*
X330026Y228234D01*
X329907Y228078D01*
X329784Y227925D01*
X329658Y227775D01*
X329528Y227628D01*
X329394Y227484D01*
X329257Y227343D01*
X329116Y227206D01*
X328972Y227072D01*
X328825Y226942D01*
X328675Y226816D01*
X328522Y226693D01*
X328366Y226574D01*
X328206Y226459D01*
X328045Y226348D01*
X327880Y226241D01*
X327713Y226138D01*
X327543Y226039D01*
X327371Y225945D01*
X327197Y225854D01*
X327020Y225768D01*
X326842Y225686D01*
X326661Y225609D01*
X326479Y225536D01*
X326295Y225468D01*
X326109Y225404D01*
X325922Y225344D01*
X325734Y225290D01*
X325544Y225240D01*
X325353Y225194D01*
X325161Y225154D01*
X324968Y225118D01*
X324774Y225087D01*
X324579Y225060D01*
X324384Y225039D01*
X324189Y225022D01*
X323993Y225010D01*
X323796Y225002D01*
X323600Y225000D01*
X323404Y225002D01*
X323207Y225010D01*
X323011Y225022D01*
X322816Y225039D01*
X322621Y225060D01*
X322426Y225087D01*
X322232Y225118D01*
X322039Y225154D01*
X321847Y225194D01*
X321656Y225240D01*
X321466Y225290D01*
X321278Y225344D01*
X321091Y225404D01*
X320905Y225468D01*
X320721Y225536D01*
X320539Y225609D01*
X320358Y225686D01*
X320180Y225768D01*
X320003Y225854D01*
X319829Y225945D01*
X319657Y226039D01*
X319487Y226138D01*
X319320Y226241D01*
X319155Y226348D01*
X318994Y226459D01*
X318834Y226574D01*
X318678Y226693D01*
X318525Y226816D01*
X318375Y226942D01*
X318228Y227072D01*
X318084Y227206D01*
X317943Y227343D01*
X317806Y227484D01*
X317672Y227628D01*
X317542Y227775D01*
X317416Y227925D01*
X317293Y228078D01*
X317174Y228234D01*
X317059Y228394D01*
X316948Y228555D01*
X316841Y228720D01*
X316738Y228887D01*
X316639Y229057D01*
X316545Y229229D01*
X316454Y229403D01*
X316368Y229580D01*
X316286Y229758D01*
X316209Y229939D01*
X316136Y230121D01*
X316068Y230305D01*
X316004Y230491D01*
X315944Y230678D01*
X315890Y230866D01*
X315840Y231056D01*
X315794Y231247D01*
X315754Y231439D01*
X315718Y231632D01*
X315687Y231826D01*
X315660Y232021D01*
X315639Y232216D01*
X315622Y232411D01*
X315610Y232607D01*
X315602Y232804D01*
X315600Y233000D01*
D19*
X31750Y203200D03*
X31750Y304800D03*
X57150Y203200D03*
X57150Y304800D03*
D20*
X508000Y234950D03*
X406400Y234950D03*
X508000Y107950D03*
X406400Y107950D03*
X508000Y158750D03*
X406400Y158750D03*
D21*
X406400Y82550D03*
X508000Y82550D03*
X133350Y323850D03*
X234950Y323850D03*
X406400Y260350D03*
X508000Y260350D03*
X406400Y184150D03*
X508000Y184150D03*
X406400Y133350D03*
X508000Y133350D03*
X406400Y209550D03*
X508000Y209550D03*
D22*
X628650Y279400D03*
X647700Y266700D03*
X628650Y254000D03*
D15*
X685800Y361950D03*
X685800Y260350D03*
D12*
X819150Y520446D02*
X819150Y533654D01*
X793750Y533654D02*
X793750Y520446D01*
X768350Y520446D02*
X768350Y533654D01*
X742950Y533654D02*
X742950Y520446D01*
X717550Y520446D02*
X717550Y533654D01*
X692150Y533654D02*
X692150Y520446D01*
X666750Y520446D02*
X666750Y533654D01*
X641350Y533654D02*
X641350Y520446D01*
X641350Y457454D02*
X641350Y444246D01*
X666750Y444246D02*
X666750Y457454D01*
X692150Y457454D02*
X692150Y444246D01*
X717550Y444246D02*
X717550Y457454D01*
X742950Y457454D02*
X742950Y444246D01*
X768350Y444246D02*
X768350Y457454D01*
X793750Y457454D02*
X793750Y444246D01*
X819150Y444246D02*
X819150Y457454D01*
D23*
X933450Y588010D03*
D24*
X933450Y567690D03*
D23*
X869950Y588010D03*
D24*
X869950Y567690D03*
D25*
X740410Y406400D03*
D24*
X720090Y406400D03*
D25*
X664210Y406400D03*
D24*
X643890Y406400D03*
D26*
X796290Y406400D03*
D24*
X816610Y406400D03*
D27*
X887730Y520700D02*
X902970Y520700D01*
X902970Y495300D02*
X887730Y495300D01*
X887730Y469900D02*
X902970Y469900D01*
X902970Y444500D02*
X887730Y444500D01*
X887730Y419100D02*
X902970Y419100D01*
D25*
X457200Y25400D03*
X482600Y25400D03*
X527050Y25400D03*
X552450Y25400D03*
D19*
X584200Y76200D03*
X584200Y177800D03*
X552450Y76200D03*
X552450Y177800D03*
D28*
X44450Y590550D03*
X44450Y641350D03*
D23*
X933450Y657860D03*
D24*
X933450Y637540D03*
D28*
X869950Y622300D03*
X869950Y673100D03*
D26*
X612140Y336550D03*
D24*
X632460Y336550D03*
D29*
X571500Y222250D03*
X622300Y222250D03*
D12*
X82550Y368046D02*
X82550Y381254D01*
X107950Y381254D02*
X107950Y368046D01*
X133350Y368046D02*
X133350Y381254D01*
X158750Y381254D02*
X158750Y368046D01*
X184150Y368046D02*
X184150Y381254D01*
X209550Y381254D02*
X209550Y368046D01*
X234950Y368046D02*
X234950Y381254D01*
X260350Y381254D02*
X260350Y368046D01*
X285750Y368046D02*
X285750Y381254D01*
X311150Y381254D02*
X311150Y368046D01*
X336550Y368046D02*
X336550Y381254D01*
X361950Y381254D02*
X361950Y368046D01*
X387350Y368046D02*
X387350Y381254D01*
X412750Y381254D02*
X412750Y368046D01*
X438150Y368046D02*
X438150Y381254D01*
X463550Y381254D02*
X463550Y368046D01*
X488950Y368046D02*
X488950Y381254D01*
X514350Y381254D02*
X514350Y368046D01*
X539750Y368046D02*
X539750Y381254D01*
X565150Y381254D02*
X565150Y368046D01*
X565150Y520446D02*
X565150Y533654D01*
X539750Y533654D02*
X539750Y520446D01*
X514350Y520446D02*
X514350Y533654D01*
X488950Y533654D02*
X488950Y520446D01*
X463550Y520446D02*
X463550Y533654D01*
X438150Y533654D02*
X438150Y520446D01*
X412750Y520446D02*
X412750Y533654D01*
X387350Y533654D02*
X387350Y520446D01*
X361950Y520446D02*
X361950Y533654D01*
X336550Y533654D02*
X336550Y520446D01*
X311150Y520446D02*
X311150Y533654D01*
X285750Y533654D02*
X285750Y520446D01*
X260350Y520446D02*
X260350Y533654D01*
X234950Y533654D02*
X234950Y520446D01*
X209550Y520446D02*
X209550Y533654D01*
X184150Y533654D02*
X184150Y520446D01*
X158750Y520446D02*
X158750Y533654D01*
X133350Y533654D02*
X133350Y520446D01*
X107950Y520446D02*
X107950Y533654D01*
X82550Y533654D02*
X82550Y520446D01*
D27*
X39370Y501650D02*
X24130Y501650D01*
X24130Y476250D02*
X39370Y476250D01*
X39370Y450850D02*
X24130Y450850D01*
X24130Y425450D02*
X39370Y425450D01*
X39370Y400050D02*
X24130Y400050D01*
D19*
X19050Y565150D03*
X19050Y666750D03*
D29*
X285750Y323850D03*
X336550Y323850D03*
D30*
X542925Y323850D03*
X492125Y323850D03*
D13*
X388620Y323850D03*
X436880Y323850D03*
D23*
X558800Y254000D03*
X539750Y266700D03*
X558800Y279400D03*
D31*
X209550Y558800D03*
X234950Y555625D03*
X260350Y555625D03*
X60325Y158750D03*
D32*
X777825Y792000D03*
X866825Y792000D03*
D33*
X777825Y733000D03*
X866825Y733000D03*
D34*
X838325Y732000D03*
X830325Y732000D03*
X822325Y732000D03*
X814325Y732000D03*
X806325Y732000D03*
D10*
X839825Y762000D02*
X839827Y762134D01*
X839833Y762268D01*
X839843Y762401D01*
X839857Y762535D01*
X839875Y762668D01*
X839897Y762800D01*
X839922Y762931D01*
X839952Y763062D01*
X839986Y763192D01*
X840023Y763320D01*
X840064Y763448D01*
X840109Y763574D01*
X840158Y763699D01*
X840210Y763822D01*
X840266Y763944D01*
X840326Y764064D01*
X840389Y764182D01*
X840456Y764298D01*
X840526Y764412D01*
X840600Y764524D01*
X840677Y764634D01*
X840757Y764742D01*
X840840Y764847D01*
X840926Y764949D01*
X841015Y765049D01*
X841108Y765146D01*
X841203Y765241D01*
X841301Y765332D01*
X841401Y765421D01*
X841504Y765506D01*
X841610Y765589D01*
X841718Y765668D01*
X841828Y765744D01*
X841941Y765817D01*
X842056Y765886D01*
X842172Y765952D01*
X842291Y766014D01*
X842411Y766073D01*
X842534Y766128D01*
X842657Y766180D01*
X842782Y766227D01*
X842909Y766271D01*
X843037Y766312D01*
X843166Y766348D01*
X843296Y766381D01*
X843427Y766409D01*
X843558Y766434D01*
X843691Y766455D01*
X843824Y766472D01*
X843957Y766485D01*
X844091Y766494D01*
X844225Y766499D01*
X844359Y766500D01*
X844492Y766497D01*
X844626Y766490D01*
X844760Y766479D01*
X844893Y766464D01*
X845026Y766445D01*
X845158Y766422D01*
X845289Y766396D01*
X845419Y766365D01*
X845549Y766330D01*
X845677Y766292D01*
X845804Y766250D01*
X845930Y766204D01*
X846055Y766154D01*
X846178Y766101D01*
X846299Y766044D01*
X846419Y765983D01*
X846536Y765919D01*
X846652Y765852D01*
X846766Y765781D01*
X846877Y765706D01*
X846986Y765629D01*
X847093Y765548D01*
X847198Y765464D01*
X847299Y765377D01*
X847399Y765287D01*
X847495Y765194D01*
X847589Y765098D01*
X847680Y764999D01*
X847767Y764898D01*
X847852Y764794D01*
X847934Y764688D01*
X848012Y764580D01*
X848087Y764469D01*
X848159Y764356D01*
X848228Y764240D01*
X848293Y764123D01*
X848354Y764004D01*
X848412Y763883D01*
X848466Y763761D01*
X848517Y763637D01*
X848564Y763511D01*
X848607Y763384D01*
X848646Y763256D01*
X848682Y763127D01*
X848713Y762997D01*
X848741Y762866D01*
X848765Y762734D01*
X848785Y762601D01*
X848801Y762468D01*
X848813Y762335D01*
X848821Y762201D01*
X848825Y762067D01*
X848825Y761933D01*
X848821Y761799D01*
X848813Y761665D01*
X848801Y761532D01*
X848785Y761399D01*
X848765Y761266D01*
X848741Y761134D01*
X848713Y761003D01*
X848682Y760873D01*
X848646Y760744D01*
X848607Y760616D01*
X848564Y760489D01*
X848517Y760363D01*
X848466Y760239D01*
X848412Y760117D01*
X848354Y759996D01*
X848293Y759877D01*
X848228Y759760D01*
X848159Y759644D01*
X848087Y759531D01*
X848012Y759420D01*
X847934Y759312D01*
X847852Y759206D01*
X847767Y759102D01*
X847680Y759001D01*
X847589Y758902D01*
X847495Y758806D01*
X847399Y758713D01*
X847299Y758623D01*
X847198Y758536D01*
X847093Y758452D01*
X846986Y758371D01*
X846877Y758294D01*
X846766Y758219D01*
X846652Y758148D01*
X846536Y758081D01*
X846419Y758017D01*
X846299Y757956D01*
X846178Y757899D01*
X846055Y757846D01*
X845930Y757796D01*
X845804Y757750D01*
X845677Y757708D01*
X845549Y757670D01*
X845419Y757635D01*
X845289Y757604D01*
X845158Y757578D01*
X845026Y757555D01*
X844893Y757536D01*
X844760Y757521D01*
X844626Y757510D01*
X844492Y757503D01*
X844359Y757500D01*
X844225Y757501D01*
X844091Y757506D01*
X843957Y757515D01*
X843824Y757528D01*
X843691Y757545D01*
X843558Y757566D01*
X843427Y757591D01*
X843296Y757619D01*
X843166Y757652D01*
X843037Y757688D01*
X842909Y757729D01*
X842782Y757773D01*
X842657Y757820D01*
X842534Y757872D01*
X842411Y757927D01*
X842291Y757986D01*
X842172Y758048D01*
X842056Y758114D01*
X841941Y758183D01*
X841828Y758256D01*
X841718Y758332D01*
X841610Y758411D01*
X841504Y758494D01*
X841401Y758579D01*
X841301Y758668D01*
X841203Y758759D01*
X841108Y758854D01*
X841015Y758951D01*
X840926Y759051D01*
X840840Y759153D01*
X840757Y759258D01*
X840677Y759366D01*
X840600Y759476D01*
X840526Y759588D01*
X840456Y759702D01*
X840389Y759818D01*
X840326Y759936D01*
X840266Y760056D01*
X840210Y760178D01*
X840158Y760301D01*
X840109Y760426D01*
X840064Y760552D01*
X840023Y760680D01*
X839986Y760808D01*
X839952Y760938D01*
X839922Y761069D01*
X839897Y761200D01*
X839875Y761332D01*
X839857Y761465D01*
X839843Y761599D01*
X839833Y761732D01*
X839827Y761866D01*
X839825Y762000D01*
X795825Y762000D02*
X795827Y762134D01*
X795833Y762268D01*
X795843Y762401D01*
X795857Y762535D01*
X795875Y762668D01*
X795897Y762800D01*
X795922Y762931D01*
X795952Y763062D01*
X795986Y763192D01*
X796023Y763320D01*
X796064Y763448D01*
X796109Y763574D01*
X796158Y763699D01*
X796210Y763822D01*
X796266Y763944D01*
X796326Y764064D01*
X796389Y764182D01*
X796456Y764298D01*
X796526Y764412D01*
X796600Y764524D01*
X796677Y764634D01*
X796757Y764742D01*
X796840Y764847D01*
X796926Y764949D01*
X797015Y765049D01*
X797108Y765146D01*
X797203Y765241D01*
X797301Y765332D01*
X797401Y765421D01*
X797504Y765506D01*
X797610Y765589D01*
X797718Y765668D01*
X797828Y765744D01*
X797941Y765817D01*
X798056Y765886D01*
X798172Y765952D01*
X798291Y766014D01*
X798411Y766073D01*
X798534Y766128D01*
X798657Y766180D01*
X798782Y766227D01*
X798909Y766271D01*
X799037Y766312D01*
X799166Y766348D01*
X799296Y766381D01*
X799427Y766409D01*
X799558Y766434D01*
X799691Y766455D01*
X799824Y766472D01*
X799957Y766485D01*
X800091Y766494D01*
X800225Y766499D01*
X800359Y766500D01*
X800492Y766497D01*
X800626Y766490D01*
X800760Y766479D01*
X800893Y766464D01*
X801026Y766445D01*
X801158Y766422D01*
X801289Y766396D01*
X801419Y766365D01*
X801549Y766330D01*
X801677Y766292D01*
X801804Y766250D01*
X801930Y766204D01*
X802055Y766154D01*
X802178Y766101D01*
X802299Y766044D01*
X802419Y765983D01*
X802536Y765919D01*
X802652Y765852D01*
X802766Y765781D01*
X802877Y765706D01*
X802986Y765629D01*
X803093Y765548D01*
X803198Y765464D01*
X803299Y765377D01*
X803399Y765287D01*
X803495Y765194D01*
X803589Y765098D01*
X803680Y764999D01*
X803767Y764898D01*
X803852Y764794D01*
X803934Y764688D01*
X804012Y764580D01*
X804087Y764469D01*
X804159Y764356D01*
X804228Y764240D01*
X804293Y764123D01*
X804354Y764004D01*
X804412Y763883D01*
X804466Y763761D01*
X804517Y763637D01*
X804564Y763511D01*
X804607Y763384D01*
X804646Y763256D01*
X804682Y763127D01*
X804713Y762997D01*
X804741Y762866D01*
X804765Y762734D01*
X804785Y762601D01*
X804801Y762468D01*
X804813Y762335D01*
X804821Y762201D01*
X804825Y762067D01*
X804825Y761933D01*
X804821Y761799D01*
X804813Y761665D01*
X804801Y761532D01*
X804785Y761399D01*
X804765Y761266D01*
X804741Y761134D01*
X804713Y761003D01*
X804682Y760873D01*
X804646Y760744D01*
X804607Y760616D01*
X804564Y760489D01*
X804517Y760363D01*
X804466Y760239D01*
X804412Y760117D01*
X804354Y759996D01*
X804293Y759877D01*
X804228Y759760D01*
X804159Y759644D01*
X804087Y759531D01*
X804012Y759420D01*
X803934Y759312D01*
X803852Y759206D01*
X803767Y759102D01*
X803680Y759001D01*
X803589Y758902D01*
X803495Y758806D01*
X803399Y758713D01*
X803299Y758623D01*
X803198Y758536D01*
X803093Y758452D01*
X802986Y758371D01*
X802877Y758294D01*
X802766Y758219D01*
X802652Y758148D01*
X802536Y758081D01*
X802419Y758017D01*
X802299Y757956D01*
X802178Y757899D01*
X802055Y757846D01*
X801930Y757796D01*
X801804Y757750D01*
X801677Y757708D01*
X801549Y757670D01*
X801419Y757635D01*
X801289Y757604D01*
X801158Y757578D01*
X801026Y757555D01*
X800893Y757536D01*
X800760Y757521D01*
X800626Y757510D01*
X800492Y757503D01*
X800359Y757500D01*
X800225Y757501D01*
X800091Y757506D01*
X799957Y757515D01*
X799824Y757528D01*
X799691Y757545D01*
X799558Y757566D01*
X799427Y757591D01*
X799296Y757619D01*
X799166Y757652D01*
X799037Y757688D01*
X798909Y757729D01*
X798782Y757773D01*
X798657Y757820D01*
X798534Y757872D01*
X798411Y757927D01*
X798291Y757986D01*
X798172Y758048D01*
X798056Y758114D01*
X797941Y758183D01*
X797828Y758256D01*
X797718Y758332D01*
X797610Y758411D01*
X797504Y758494D01*
X797401Y758579D01*
X797301Y758668D01*
X797203Y758759D01*
X797108Y758854D01*
X797015Y758951D01*
X796926Y759051D01*
X796840Y759153D01*
X796757Y759258D01*
X796677Y759366D01*
X796600Y759476D01*
X796526Y759588D01*
X796456Y759702D01*
X796389Y759818D01*
X796326Y759936D01*
X796266Y760056D01*
X796210Y760178D01*
X796158Y760301D01*
X796109Y760426D01*
X796064Y760552D01*
X796023Y760680D01*
X795986Y760808D01*
X795952Y760938D01*
X795922Y761069D01*
X795897Y761200D01*
X795875Y761332D01*
X795857Y761465D01*
X795843Y761599D01*
X795833Y761732D01*
X795827Y761866D01*
X795825Y762000D01*
D35*
X253550Y127000D03*
X242550Y127000D03*
X231550Y127000D03*
X220550Y127000D03*
X209550Y127000D03*
X198550Y127000D03*
X187550Y127000D03*
X176550Y127000D03*
X165550Y127000D03*
D36*
X152090Y121000D03*
D37*
X155550Y23270D03*
D38*
X301360Y123080D03*
D37*
X309550Y23270D03*
D10*
X179105Y18000D02*
X179107Y18133D01*
X179113Y18266D01*
X179123Y18398D01*
X179137Y18531D01*
X179155Y18662D01*
X179176Y18794D01*
X179202Y18924D01*
X179232Y19054D01*
X179265Y19183D01*
X179302Y19310D01*
X179344Y19437D01*
X179388Y19562D01*
X179437Y19686D01*
X179489Y19808D01*
X179545Y19929D01*
X179605Y20048D01*
X179668Y20165D01*
X179734Y20280D01*
X179804Y20393D01*
X179877Y20504D01*
X179954Y20613D01*
X180034Y20719D01*
X180117Y20823D01*
X180203Y20925D01*
X180292Y21023D01*
X180383Y21119D01*
X180478Y21213D01*
X180576Y21303D01*
X180676Y21391D01*
X180779Y21475D01*
X180884Y21557D01*
X180991Y21635D01*
X181101Y21710D01*
X181213Y21781D01*
X181328Y21849D01*
X181444Y21914D01*
X181562Y21976D01*
X181682Y22033D01*
X181803Y22087D01*
X181926Y22138D01*
X182051Y22184D01*
X182176Y22227D01*
X182304Y22267D01*
X182432Y22302D01*
X182561Y22334D01*
X182691Y22361D01*
X182822Y22385D01*
X182953Y22405D01*
X183085Y22421D01*
X183218Y22433D01*
X183351Y22441D01*
X183484Y22445D01*
X183616Y22445D01*
X183749Y22441D01*
X183882Y22433D01*
X184015Y22421D01*
X184147Y22405D01*
X184278Y22385D01*
X184409Y22361D01*
X184539Y22334D01*
X184668Y22302D01*
X184796Y22267D01*
X184924Y22227D01*
X185049Y22184D01*
X185174Y22138D01*
X185297Y22087D01*
X185418Y22033D01*
X185538Y21976D01*
X185656Y21914D01*
X185773Y21849D01*
X185887Y21781D01*
X185999Y21710D01*
X186109Y21635D01*
X186216Y21557D01*
X186321Y21475D01*
X186424Y21391D01*
X186524Y21303D01*
X186622Y21213D01*
X186717Y21119D01*
X186808Y21023D01*
X186897Y20925D01*
X186983Y20823D01*
X187066Y20719D01*
X187146Y20613D01*
X187223Y20504D01*
X187296Y20393D01*
X187366Y20280D01*
X187432Y20165D01*
X187495Y20048D01*
X187555Y19929D01*
X187611Y19808D01*
X187663Y19686D01*
X187712Y19562D01*
X187756Y19437D01*
X187798Y19310D01*
X187835Y19183D01*
X187868Y19054D01*
X187898Y18924D01*
X187924Y18794D01*
X187945Y18662D01*
X187963Y18531D01*
X187977Y18398D01*
X187987Y18266D01*
X187993Y18133D01*
X187995Y18000D01*
X187993Y17867D01*
X187987Y17734D01*
X187977Y17602D01*
X187963Y17469D01*
X187945Y17338D01*
X187924Y17206D01*
X187898Y17076D01*
X187868Y16946D01*
X187835Y16817D01*
X187798Y16690D01*
X187756Y16563D01*
X187712Y16438D01*
X187663Y16314D01*
X187611Y16192D01*
X187555Y16071D01*
X187495Y15952D01*
X187432Y15835D01*
X187366Y15720D01*
X187296Y15607D01*
X187223Y15496D01*
X187146Y15387D01*
X187066Y15281D01*
X186983Y15177D01*
X186897Y15075D01*
X186808Y14977D01*
X186717Y14881D01*
X186622Y14787D01*
X186524Y14697D01*
X186424Y14609D01*
X186321Y14525D01*
X186216Y14443D01*
X186109Y14365D01*
X185999Y14290D01*
X185887Y14219D01*
X185772Y14151D01*
X185656Y14086D01*
X185538Y14024D01*
X185418Y13967D01*
X185297Y13913D01*
X185174Y13862D01*
X185049Y13816D01*
X184924Y13773D01*
X184796Y13733D01*
X184668Y13698D01*
X184539Y13666D01*
X184409Y13639D01*
X184278Y13615D01*
X184147Y13595D01*
X184015Y13579D01*
X183882Y13567D01*
X183749Y13559D01*
X183616Y13555D01*
X183484Y13555D01*
X183351Y13559D01*
X183218Y13567D01*
X183085Y13579D01*
X182953Y13595D01*
X182822Y13615D01*
X182691Y13639D01*
X182561Y13666D01*
X182432Y13698D01*
X182304Y13733D01*
X182176Y13773D01*
X182051Y13816D01*
X181926Y13862D01*
X181803Y13913D01*
X181682Y13967D01*
X181562Y14024D01*
X181444Y14086D01*
X181327Y14151D01*
X181213Y14219D01*
X181101Y14290D01*
X180991Y14365D01*
X180884Y14443D01*
X180779Y14525D01*
X180676Y14609D01*
X180576Y14697D01*
X180478Y14787D01*
X180383Y14881D01*
X180292Y14977D01*
X180203Y15075D01*
X180117Y15177D01*
X180034Y15281D01*
X179954Y15387D01*
X179877Y15496D01*
X179804Y15607D01*
X179734Y15720D01*
X179668Y15835D01*
X179605Y15952D01*
X179545Y16071D01*
X179489Y16192D01*
X179437Y16314D01*
X179388Y16438D01*
X179344Y16563D01*
X179302Y16690D01*
X179265Y16817D01*
X179232Y16946D01*
X179202Y17076D01*
X179176Y17206D01*
X179155Y17338D01*
X179137Y17469D01*
X179123Y17602D01*
X179113Y17734D01*
X179107Y17867D01*
X179105Y18000D01*
X259105Y18000D02*
X259107Y18133D01*
X259113Y18266D01*
X259123Y18398D01*
X259137Y18531D01*
X259155Y18662D01*
X259176Y18794D01*
X259202Y18924D01*
X259232Y19054D01*
X259265Y19183D01*
X259302Y19310D01*
X259344Y19437D01*
X259388Y19562D01*
X259437Y19686D01*
X259489Y19808D01*
X259545Y19929D01*
X259605Y20048D01*
X259668Y20165D01*
X259734Y20280D01*
X259804Y20393D01*
X259877Y20504D01*
X259954Y20613D01*
X260034Y20719D01*
X260117Y20823D01*
X260203Y20925D01*
X260292Y21023D01*
X260383Y21119D01*
X260478Y21213D01*
X260576Y21303D01*
X260676Y21391D01*
X260779Y21475D01*
X260884Y21557D01*
X260991Y21635D01*
X261101Y21710D01*
X261213Y21781D01*
X261328Y21849D01*
X261444Y21914D01*
X261562Y21976D01*
X261682Y22033D01*
X261803Y22087D01*
X261926Y22138D01*
X262051Y22184D01*
X262176Y22227D01*
X262304Y22267D01*
X262432Y22302D01*
X262561Y22334D01*
X262691Y22361D01*
X262822Y22385D01*
X262953Y22405D01*
X263085Y22421D01*
X263218Y22433D01*
X263351Y22441D01*
X263484Y22445D01*
X263616Y22445D01*
X263749Y22441D01*
X263882Y22433D01*
X264015Y22421D01*
X264147Y22405D01*
X264278Y22385D01*
X264409Y22361D01*
X264539Y22334D01*
X264668Y22302D01*
X264796Y22267D01*
X264924Y22227D01*
X265049Y22184D01*
X265174Y22138D01*
X265297Y22087D01*
X265418Y22033D01*
X265538Y21976D01*
X265656Y21914D01*
X265773Y21849D01*
X265887Y21781D01*
X265999Y21710D01*
X266109Y21635D01*
X266216Y21557D01*
X266321Y21475D01*
X266424Y21391D01*
X266524Y21303D01*
X266622Y21213D01*
X266717Y21119D01*
X266808Y21023D01*
X266897Y20925D01*
X266983Y20823D01*
X267066Y20719D01*
X267146Y20613D01*
X267223Y20504D01*
X267296Y20393D01*
X267366Y20280D01*
X267432Y20165D01*
X267495Y20048D01*
X267555Y19929D01*
X267611Y19808D01*
X267663Y19686D01*
X267712Y19562D01*
X267756Y19437D01*
X267798Y19310D01*
X267835Y19183D01*
X267868Y19054D01*
X267898Y18924D01*
X267924Y18794D01*
X267945Y18662D01*
X267963Y18531D01*
X267977Y18398D01*
X267987Y18266D01*
X267993Y18133D01*
X267995Y18000D01*
X267993Y17867D01*
X267987Y17734D01*
X267977Y17602D01*
X267963Y17469D01*
X267945Y17338D01*
X267924Y17206D01*
X267898Y17076D01*
X267868Y16946D01*
X267835Y16817D01*
X267798Y16690D01*
X267756Y16563D01*
X267712Y16438D01*
X267663Y16314D01*
X267611Y16192D01*
X267555Y16071D01*
X267495Y15952D01*
X267432Y15835D01*
X267366Y15720D01*
X267296Y15607D01*
X267223Y15496D01*
X267146Y15387D01*
X267066Y15281D01*
X266983Y15177D01*
X266897Y15075D01*
X266808Y14977D01*
X266717Y14881D01*
X266622Y14787D01*
X266524Y14697D01*
X266424Y14609D01*
X266321Y14525D01*
X266216Y14443D01*
X266109Y14365D01*
X265999Y14290D01*
X265887Y14219D01*
X265772Y14151D01*
X265656Y14086D01*
X265538Y14024D01*
X265418Y13967D01*
X265297Y13913D01*
X265174Y13862D01*
X265049Y13816D01*
X264924Y13773D01*
X264796Y13733D01*
X264668Y13698D01*
X264539Y13666D01*
X264409Y13639D01*
X264278Y13615D01*
X264147Y13595D01*
X264015Y13579D01*
X263882Y13567D01*
X263749Y13559D01*
X263616Y13555D01*
X263484Y13555D01*
X263351Y13559D01*
X263218Y13567D01*
X263085Y13579D01*
X262953Y13595D01*
X262822Y13615D01*
X262691Y13639D01*
X262561Y13666D01*
X262432Y13698D01*
X262304Y13733D01*
X262176Y13773D01*
X262051Y13816D01*
X261926Y13862D01*
X261803Y13913D01*
X261682Y13967D01*
X261562Y14024D01*
X261444Y14086D01*
X261327Y14151D01*
X261213Y14219D01*
X261101Y14290D01*
X260991Y14365D01*
X260884Y14443D01*
X260779Y14525D01*
X260676Y14609D01*
X260576Y14697D01*
X260478Y14787D01*
X260383Y14881D01*
X260292Y14977D01*
X260203Y15075D01*
X260117Y15177D01*
X260034Y15281D01*
X259954Y15387D01*
X259877Y15496D01*
X259804Y15607D01*
X259734Y15720D01*
X259668Y15835D01*
X259605Y15952D01*
X259545Y16071D01*
X259489Y16192D01*
X259437Y16314D01*
X259388Y16438D01*
X259344Y16563D01*
X259302Y16690D01*
X259265Y16817D01*
X259232Y16946D01*
X259202Y17076D01*
X259176Y17206D01*
X259155Y17338D01*
X259137Y17469D01*
X259123Y17602D01*
X259113Y17734D01*
X259107Y17867D01*
X259105Y18000D01*
D39*
X298450Y749300D02*
X323850Y749300D01*
X349250Y749300D01*
X374650Y749300D01*
X400050Y749300D01*
X425450Y749300D01*
X450850Y749300D01*
X476250Y749300D01*
X501650Y749300D01*
X527050Y749300D01*
X552450Y749300D01*
X577850Y749300D01*
X603250Y749300D01*
X628650Y749300D01*
X654050Y749300D01*
X679450Y749300D01*
X704850Y749300D01*
X730250Y749300D01*
X869950Y673100D02*
X901700Y673100D01*
X918210Y673100D01*
X933450Y657860D01*
X901700Y673100D02*
X901700Y546100D01*
X920750Y527050D01*
X920750Y419100D01*
X920750Y400050D01*
X946150Y374650D01*
X946150Y330200D01*
X927100Y311150D01*
X927100Y285750D01*
X920750Y419100D02*
X895350Y419100D01*
X863600Y419100D01*
D40*
X796290Y448310D02*
X793750Y450850D01*
D39*
X927100Y285750D02*
X927100Y177800D01*
X908050Y158750D01*
X660400Y158750D01*
X647700Y158750D01*
X622300Y184150D01*
X622300Y222250D01*
X635000Y107950D02*
X508000Y107950D01*
X482600Y44450D02*
X482600Y25400D01*
X482600Y44450D02*
X552450Y44450D01*
X552450Y25400D01*
X552450Y44450D02*
X628650Y44450D01*
X641350Y57150D01*
X641350Y101600D01*
X638175Y104775D01*
X635000Y107950D01*
X482600Y44450D02*
X444500Y44450D01*
D40*
X165100Y400050D02*
X31750Y400050D01*
X165100Y400050D02*
X171450Y393700D01*
X171450Y342900D01*
D39*
X171450Y264150D01*
D40*
X172600Y263000D01*
D39*
X171450Y342900D02*
X254000Y342900D01*
X254000Y311150D01*
X247650Y304800D01*
X247650Y263050D01*
D40*
X247600Y263000D01*
D39*
X254000Y342900D02*
X285750Y342900D01*
X285750Y323850D01*
X285750Y342900D02*
X349250Y342900D01*
X361950Y355600D01*
X361950Y374650D01*
X361950Y400050D01*
X368300Y406400D01*
X643890Y406400D01*
D40*
X831850Y387350D02*
X863600Y419100D01*
X831850Y387350D02*
X800100Y387350D01*
X793750Y393700D01*
X793750Y403860D01*
D39*
X361950Y749300D02*
X349250Y749300D01*
X361950Y749300D02*
X361950Y660400D01*
D40*
X641350Y660400D02*
X641350Y641350D01*
X647700Y635000D01*
X723900Y635000D01*
X730250Y641350D01*
X730250Y749300D01*
D39*
X365650Y245000D02*
X345600Y245000D01*
X365650Y245000D02*
X374650Y254000D01*
D41*
X374650Y254000D03*
D39*
X488950Y107950D02*
X508000Y107950D01*
X488950Y107950D02*
X476250Y120650D01*
X476250Y152400D01*
X482600Y158750D01*
X508000Y158750D01*
X520700Y158750D01*
X527050Y165100D01*
X527050Y228600D01*
X520700Y234950D01*
X508000Y234950D01*
X660400Y158750D02*
X660400Y127000D01*
X638175Y104775D01*
X742950Y736600D02*
X730250Y749300D01*
X742950Y736600D02*
X742950Y698500D01*
X755650Y685800D01*
X774700Y685800D01*
X869950Y679450D02*
X869950Y673100D01*
X869950Y679450D02*
X863600Y685800D01*
X774700Y685800D01*
D42*
X777875Y762000D03*
D39*
X866825Y733000D02*
X866825Y792000D01*
X866825Y733000D02*
X866825Y689025D01*
X863600Y685800D01*
X777825Y688925D02*
X777825Y733000D01*
X777825Y688925D02*
X774700Y685800D01*
X778825Y732000D02*
X806325Y732000D01*
X778825Y732000D02*
X777825Y733000D01*
D40*
X796290Y448310D02*
X796290Y406400D01*
X793750Y403860D01*
D39*
X90600Y243000D02*
X89600Y244000D01*
X425450Y25400D02*
X444500Y44450D01*
X425450Y25400D02*
X371700Y25400D01*
X369600Y23300D01*
X309580Y23300D01*
X309550Y23270D01*
X300580Y23270D01*
X292100Y31750D01*
X171450Y31750D01*
X165100Y25400D01*
X157680Y25400D01*
X155550Y23270D01*
X90630Y23270D01*
X90600Y23300D01*
X152090Y101600D02*
X152090Y121000D01*
X152090Y101600D02*
X152090Y26730D01*
X155550Y23270D01*
X198550Y109650D02*
X198550Y127000D01*
X198550Y109650D02*
X190500Y101600D01*
X152090Y101600D01*
X301360Y123080D02*
X321420Y123080D01*
X323850Y120650D01*
X323850Y101600D01*
D41*
X323850Y101600D03*
X152090Y101600D03*
D39*
X777825Y733000D02*
X777825Y761950D01*
X777875Y762000D01*
X777825Y762050D02*
X777825Y792000D01*
X777825Y762050D02*
X777875Y762000D01*
X90600Y243000D02*
X90600Y230300D01*
X76200Y215900D01*
D41*
X76200Y215900D03*
D43*
X539750Y660400D02*
X539750Y679450D01*
X546100Y685800D01*
X647700Y685800D01*
X692150Y730250D01*
D44*
X692150Y730250D03*
D43*
X514350Y685800D02*
X514350Y660400D01*
X514350Y685800D02*
X520700Y692150D01*
X628650Y692150D01*
X666750Y730250D01*
D44*
X666750Y730250D03*
D43*
X488950Y692150D02*
X488950Y660400D01*
X488950Y692150D02*
X495300Y698500D01*
X609600Y698500D01*
X641350Y730250D01*
D44*
X641350Y730250D03*
D43*
X463550Y698500D02*
X463550Y660400D01*
X463550Y698500D02*
X469900Y704850D01*
X590550Y704850D01*
X615950Y730250D01*
D44*
X615950Y730250D03*
D43*
X438150Y704850D02*
X438150Y660400D01*
X438150Y704850D02*
X444500Y711200D01*
X571500Y711200D01*
X590550Y730250D01*
D44*
X590550Y730250D03*
D43*
X412750Y711200D02*
X412750Y660400D01*
X412750Y711200D02*
X419100Y717550D01*
X552450Y717550D01*
X565150Y730250D01*
D44*
X565150Y730250D03*
D43*
X387350Y723900D02*
X387350Y660400D01*
X387350Y723900D02*
X393700Y730250D01*
X539750Y730250D01*
D44*
X539750Y730250D03*
D43*
X107950Y660400D02*
X107950Y622300D01*
X95250Y609600D01*
X95250Y495300D01*
X101600Y488950D01*
X215900Y488950D01*
X228600Y476250D01*
X209550Y406400D02*
X209550Y374650D01*
X209550Y406400D02*
X228600Y425450D01*
X228600Y476250D01*
X590550Y641350D02*
X590550Y660400D01*
X590550Y641350D02*
X584200Y635000D01*
X336550Y635000D01*
X330200Y628650D01*
X330200Y565150D01*
X323850Y558800D01*
X304800Y558800D01*
X298450Y552450D01*
X298450Y508000D01*
D44*
X298450Y476250D03*
X298450Y508000D03*
D43*
X298450Y476250D02*
X228600Y476250D01*
X285750Y762000D02*
X298450Y774700D01*
X285750Y762000D02*
X285750Y736600D01*
X273050Y723900D01*
X273050Y622300D01*
X260350Y609600D01*
X260350Y584200D01*
X260350Y762000D02*
X273050Y774700D01*
X260350Y762000D02*
X260350Y736600D01*
X247650Y723900D01*
X247650Y568325D01*
X260350Y555625D01*
X234950Y762000D02*
X247650Y774700D01*
X234950Y762000D02*
X234950Y736600D01*
X222250Y723900D01*
X222250Y622300D01*
X209550Y609600D01*
X209550Y584200D01*
X184150Y584200D02*
X184150Y609600D01*
X196850Y622300D01*
X196850Y723900D01*
X209550Y736600D01*
X209550Y762000D01*
X222250Y774700D01*
X196850Y774700D02*
X184150Y762000D01*
X184150Y736600D01*
X171450Y723900D01*
X171450Y622300D01*
X158750Y609600D01*
X158750Y584200D01*
X133350Y762000D02*
X146050Y774700D01*
X133350Y762000D02*
X133350Y742950D01*
X146050Y730250D01*
X146050Y565150D01*
X152400Y558800D01*
X209550Y558800D01*
X120650Y774700D02*
X101600Y774700D01*
X95250Y768350D01*
X95250Y622300D01*
X82550Y609600D01*
X82550Y584200D01*
X234950Y584200D02*
X234950Y555625D01*
X133350Y558800D02*
X133350Y584200D01*
X133350Y558800D02*
X139700Y552450D01*
X190500Y552450D01*
X196850Y546100D01*
X565150Y574675D02*
X565150Y584200D01*
X565150Y574675D02*
X552450Y561975D01*
X409575Y561975D01*
X400050Y552450D01*
X400050Y508000D01*
X387350Y495300D01*
X247650Y495300D01*
X234950Y508000D01*
X234950Y527050D01*
X222250Y546100D02*
X196850Y546100D01*
X222250Y546100D02*
X234950Y533400D01*
X234950Y527050D01*
X107950Y552450D02*
X107950Y584200D01*
X107950Y552450D02*
X114300Y546100D01*
X177800Y546100D01*
X184150Y539750D01*
X184150Y527050D01*
D39*
X558800Y279400D02*
X577850Y298450D01*
X673100Y298450D01*
X685800Y285750D01*
X685800Y260350D01*
X723900Y260350D01*
X762000Y260350D01*
X800100Y260350D01*
X825500Y336550D02*
X850900Y361950D01*
X825500Y336550D02*
X825500Y273050D01*
X812800Y260350D01*
X800100Y260350D01*
D41*
X209550Y463550D03*
D39*
X196850Y450850D01*
X63500Y450850D01*
X31750Y450850D01*
X63500Y450850D02*
X63500Y514350D01*
X44450Y533400D01*
X44450Y590550D01*
X19050Y615950D02*
X19050Y666750D01*
X19050Y615950D02*
X44450Y590550D01*
D40*
X819150Y584200D02*
X819150Y603250D01*
X812800Y609600D01*
X673100Y609600D01*
X666750Y603250D01*
X666750Y584200D01*
D42*
X825500Y762000D03*
D39*
X838325Y749175D02*
X838325Y732000D01*
X838325Y749175D02*
X825500Y762000D01*
D43*
X768350Y584200D02*
X768350Y558800D01*
X762000Y552450D01*
X495300Y552450D01*
X488950Y546100D01*
X488950Y527050D01*
D44*
X469900Y488950D03*
X603250Y482600D03*
D43*
X476250Y482600D01*
X469900Y488950D01*
X209550Y514350D02*
X209550Y527050D01*
X209550Y514350D02*
X234950Y488950D01*
X412750Y488950D01*
X425450Y501650D01*
X425450Y546100D01*
X431800Y552450D01*
X469900Y552450D01*
X476250Y546100D01*
X476250Y508000D01*
X488950Y495300D01*
X615950Y495300D01*
X628650Y482600D01*
X749300Y482600D01*
X755650Y476250D01*
X755650Y406400D01*
X800100Y361950D01*
X762000Y361950D02*
X762000Y374650D01*
X749300Y387350D01*
X615950Y387350D01*
X609600Y393700D01*
X495300Y393700D01*
X488950Y387350D01*
X488950Y374650D01*
X723900Y368300D02*
X723900Y361950D01*
X723900Y368300D02*
X717550Y374650D01*
X596900Y374650D01*
X577850Y355600D01*
X469900Y355600D01*
X463550Y361950D01*
X463550Y374650D01*
X118600Y263000D02*
X118600Y243350D01*
X127000Y234950D01*
X127000Y209550D01*
X120650Y203200D01*
X57150Y203200D01*
X106600Y263000D02*
X106600Y287100D01*
X101600Y292100D01*
X88900Y292100D01*
X31750Y234950D01*
X31750Y203200D01*
X146050Y261450D02*
X147600Y263000D01*
X374650Y82550D02*
X406400Y82550D01*
X374650Y82550D02*
X361950Y95250D01*
X361950Y149225D01*
X349250Y161925D01*
X190500Y161925D01*
X165100Y161925D01*
X152400Y174625D01*
X152400Y258200D01*
X147600Y263000D01*
X187550Y158975D02*
X187550Y127000D01*
X187550Y158975D02*
X190500Y161925D01*
X406400Y158750D02*
X406400Y184150D01*
X285750Y184150D01*
X276225Y193675D01*
X273050Y196850D01*
X273050Y262550D01*
X272600Y263000D01*
X231550Y142650D02*
X231550Y127000D01*
X231550Y142650D02*
X241300Y152400D01*
D44*
X241300Y152400D03*
X266700Y184150D03*
D43*
X276225Y193675D01*
X406400Y133350D02*
X406400Y107950D01*
X406400Y133350D02*
X387350Y133350D01*
X374650Y146050D01*
X374650Y158750D01*
X361950Y171450D01*
X215900Y171450D01*
X212725Y174625D01*
X196850Y190500D01*
X196850Y262250D01*
X197600Y263000D01*
X209550Y146050D02*
X209550Y127000D01*
D44*
X209550Y146050D03*
X212725Y174625D03*
D43*
X406400Y209550D02*
X406400Y222250D01*
X406400Y234950D01*
X297600Y229450D02*
X297600Y263000D01*
X297600Y229450D02*
X311150Y215900D01*
X355600Y215900D01*
X361950Y222250D01*
X406400Y222250D01*
X242550Y134600D02*
X242550Y127000D01*
X242550Y134600D02*
X247650Y139700D01*
X266700Y139700D01*
X266700Y69850D01*
X273050Y63500D01*
X412750Y63500D01*
X419100Y69850D01*
X419100Y196850D01*
X406400Y209550D01*
X131600Y263000D02*
X131600Y322100D01*
X133350Y323850D01*
X131600Y263000D02*
X131600Y243050D01*
X136525Y238125D01*
X136525Y161925D01*
X146050Y152400D01*
X171450Y152400D01*
X177800Y146050D01*
X177800Y128250D01*
X176550Y127000D01*
X393700Y273050D02*
X406400Y260350D01*
X393700Y273050D02*
X332650Y273050D01*
X322600Y263000D01*
X253550Y127000D02*
X253550Y63950D01*
X260350Y57150D01*
X419100Y57150D01*
X425450Y63500D01*
X425450Y241300D01*
X406400Y260350D01*
D39*
X632460Y314960D02*
X632460Y336550D01*
X632460Y314960D02*
X625475Y307975D01*
X517525Y307975D01*
X508000Y298450D01*
X508000Y260350D01*
X552450Y247650D02*
X558800Y254000D01*
X552450Y247650D02*
X520700Y247650D01*
X508000Y260350D01*
D40*
X234950Y317500D02*
X234950Y323850D01*
X234950Y317500D02*
X222250Y304800D01*
X222250Y263350D01*
X222600Y263000D01*
D41*
X438150Y222250D03*
D39*
X476250Y260350D01*
X508000Y260350D01*
X508000Y82550D02*
X450850Y82550D01*
X438150Y95250D01*
X438150Y222250D01*
X220550Y127000D02*
X220550Y52500D01*
X228600Y44450D01*
X422275Y44450D01*
X447675Y69850D01*
X447675Y79375D01*
X450850Y82550D01*
D44*
X457200Y196850D03*
D43*
X469900Y209550D01*
X508000Y209550D01*
X165550Y132900D02*
X165550Y127000D01*
X165550Y132900D02*
X158750Y139700D01*
X139700Y139700D01*
X120650Y158750D01*
D44*
X120650Y158750D03*
D43*
X717550Y425450D02*
X717550Y450850D01*
X717550Y425450D02*
X711200Y419100D01*
X298450Y419100D01*
X285750Y406400D01*
X285750Y374650D01*
X692150Y434975D02*
X692150Y450850D01*
X692150Y434975D02*
X685800Y428625D01*
X269875Y428625D01*
X260350Y419100D01*
X260350Y374650D01*
X666750Y450850D02*
X666750Y463550D01*
X660400Y469900D01*
X450850Y469900D01*
X444500Y476250D01*
X444500Y488950D01*
X463550Y508000D01*
X463550Y527050D01*
X438150Y450850D02*
X641350Y450850D01*
X438150Y501650D02*
X438150Y527050D01*
X438150Y501650D02*
X431800Y495300D01*
X431800Y457200D01*
X438150Y450850D01*
X31750Y425450D02*
X6350Y425450D01*
X6350Y552450D01*
X19050Y565150D01*
X12700Y374650D02*
X82550Y374650D01*
X12700Y374650D02*
X6350Y381000D01*
X6350Y425450D01*
X436880Y323850D02*
X492125Y323850D01*
X412750Y347980D02*
X412750Y374650D01*
X412750Y347980D02*
X436880Y323850D01*
D40*
X876300Y520700D02*
X895350Y520700D01*
X876300Y520700D02*
X863600Y508000D01*
X673100Y508000D01*
X666750Y514350D01*
X666750Y527050D01*
X647700Y495300D02*
X895350Y495300D01*
X647700Y495300D02*
X641350Y501650D01*
X641350Y527050D01*
D45*
X38100Y43180D03*
X38100Y738505D03*
X919480Y43180D03*
X919480Y738505D03*
M02*
