G04 EAGLE Gerber RS-274X export*
G75*
%MOMM*%
%FSLAX34Y34*%
%LPD*%
%INBottom Copper*%
%IPPOS*%
%AMOC8*
5,1,8,0,0,1.08239X$1,22.5*%
G01*
%ADD10P,1.649562X8X202.500000*%
%ADD11C,1.320800*%
%ADD12C,1.778000*%
%ADD13P,2.749271X8X292.500000*%
%ADD14P,1.814519X8X292.500000*%
%ADD15P,1.814519X8X112.500000*%
%ADD16P,1.814519X8X202.500000*%
%ADD17P,1.814519X8X22.500000*%
%ADD18P,1.429621X8X292.500000*%
%ADD19P,1.429621X8X112.500000*%
%ADD20C,1.320800*%
%ADD21P,1.429621X8X22.500000*%
%ADD22P,1.429621X8X202.500000*%
%ADD23C,1.524000*%
%ADD24P,1.924489X8X112.500000*%
%ADD25P,1.924489X8X22.500000*%
%ADD26P,1.924489X8X202.500000*%
%ADD27P,1.787026X8X22.500000*%
%ADD28C,2.540000*%
%ADD29C,0.609600*%
%ADD30C,0.406400*%
%ADD31C,1.308000*%
%ADD32C,1.270000*%
%ADD33C,0.304800*%
%ADD34C,1.168400*%
%ADD35C,5.080000*%


D10*
X730250Y774700D03*
X730250Y749300D03*
X704850Y774700D03*
X704850Y749300D03*
X679450Y774700D03*
X679450Y749300D03*
X654050Y774700D03*
X654050Y749300D03*
X628650Y774700D03*
X628650Y749300D03*
X603250Y774700D03*
X603250Y749300D03*
X577850Y774700D03*
X577850Y749300D03*
X552450Y774700D03*
X552450Y749300D03*
X527050Y774700D03*
X527050Y749300D03*
X501650Y774700D03*
X501650Y749300D03*
X476250Y774700D03*
X476250Y749300D03*
X450850Y774700D03*
X450850Y749300D03*
X425450Y774700D03*
X425450Y749300D03*
X400050Y774700D03*
X400050Y749300D03*
X374650Y774700D03*
X374650Y749300D03*
X349250Y774700D03*
X349250Y749300D03*
X323850Y774700D03*
X323850Y749300D03*
X298450Y774700D03*
X298450Y749300D03*
X273050Y774700D03*
X273050Y749300D03*
X247650Y774700D03*
X247650Y749300D03*
X222250Y749300D03*
X222250Y774700D03*
X196850Y774700D03*
X171450Y774700D03*
X146050Y774700D03*
X146050Y749300D03*
X171450Y749300D03*
X196850Y749300D03*
X120650Y749300D03*
X120650Y774700D03*
D11*
X311150Y667004D02*
X311150Y653796D01*
X285750Y653796D02*
X285750Y667004D01*
X260350Y667004D02*
X260350Y653796D01*
X234950Y653796D02*
X234950Y667004D01*
X209550Y667004D02*
X209550Y653796D01*
X184150Y653796D02*
X184150Y667004D01*
X158750Y667004D02*
X158750Y653796D01*
X133350Y653796D02*
X133350Y667004D01*
X107950Y667004D02*
X107950Y653796D01*
X82550Y653796D02*
X82550Y667004D01*
X82550Y590804D02*
X82550Y577596D01*
X107950Y577596D02*
X107950Y590804D01*
X133350Y590804D02*
X133350Y577596D01*
X158750Y577596D02*
X158750Y590804D01*
X184150Y590804D02*
X184150Y577596D01*
X209550Y577596D02*
X209550Y590804D01*
X234950Y590804D02*
X234950Y577596D01*
X260350Y577596D02*
X260350Y590804D01*
X285750Y590804D02*
X285750Y577596D01*
X311150Y577596D02*
X311150Y590804D01*
X590550Y653796D02*
X590550Y667004D01*
X565150Y667004D02*
X565150Y653796D01*
X438150Y653796D02*
X438150Y667004D01*
X412750Y667004D02*
X412750Y653796D01*
X539750Y653796D02*
X539750Y667004D01*
X514350Y667004D02*
X514350Y653796D01*
X463550Y653796D02*
X463550Y667004D01*
X488950Y667004D02*
X488950Y653796D01*
X387350Y653796D02*
X387350Y667004D01*
X361950Y667004D02*
X361950Y653796D01*
X361950Y590804D02*
X361950Y577596D01*
X387350Y577596D02*
X387350Y590804D01*
X412750Y590804D02*
X412750Y577596D01*
X438150Y577596D02*
X438150Y590804D01*
X463550Y590804D02*
X463550Y577596D01*
X488950Y577596D02*
X488950Y590804D01*
X514350Y590804D02*
X514350Y577596D01*
X539750Y577596D02*
X539750Y590804D01*
X565150Y590804D02*
X565150Y577596D01*
X590550Y577596D02*
X590550Y590804D01*
X819150Y653796D02*
X819150Y667004D01*
X793750Y667004D02*
X793750Y653796D01*
X666750Y653796D02*
X666750Y667004D01*
X641350Y667004D02*
X641350Y653796D01*
X768350Y653796D02*
X768350Y667004D01*
X742950Y667004D02*
X742950Y653796D01*
X692150Y653796D02*
X692150Y667004D01*
X717550Y667004D02*
X717550Y653796D01*
X641350Y590804D02*
X641350Y577596D01*
X666750Y577596D02*
X666750Y590804D01*
X692150Y590804D02*
X692150Y577596D01*
X717550Y577596D02*
X717550Y590804D01*
X742950Y590804D02*
X742950Y577596D01*
X768350Y577596D02*
X768350Y590804D01*
X793750Y590804D02*
X793750Y577596D01*
X819150Y577596D02*
X819150Y590804D01*
X850900Y292354D02*
X850900Y279146D01*
X876300Y279146D02*
X876300Y292354D01*
X876300Y355346D02*
X876300Y368554D01*
X850900Y368554D02*
X850900Y355346D01*
X901700Y292354D02*
X901700Y279146D01*
X927100Y279146D02*
X927100Y292354D01*
X901700Y355346D02*
X901700Y368554D01*
X927100Y368554D02*
X927100Y355346D01*
D12*
X857250Y215900D03*
X857250Y241300D03*
D13*
X863600Y127000D03*
X660400Y127000D03*
X831850Y127000D03*
X800100Y127000D03*
X768350Y127000D03*
D14*
X762000Y361950D03*
X762000Y260350D03*
X723900Y361950D03*
X723900Y260350D03*
X800100Y361950D03*
X800100Y260350D03*
D15*
X31750Y203200D03*
X31750Y304800D03*
X57150Y203200D03*
X57150Y304800D03*
D16*
X508000Y234950D03*
X406400Y234950D03*
X508000Y107950D03*
X406400Y107950D03*
X508000Y158750D03*
X406400Y158750D03*
D17*
X406400Y82550D03*
X508000Y82550D03*
X133350Y323850D03*
X234950Y323850D03*
X406400Y260350D03*
X508000Y260350D03*
X406400Y184150D03*
X508000Y184150D03*
X406400Y133350D03*
X508000Y133350D03*
X406400Y209550D03*
X508000Y209550D03*
D18*
X628650Y279400D03*
X647700Y266700D03*
X628650Y254000D03*
D14*
X685800Y361950D03*
X685800Y260350D03*
D11*
X819150Y520446D02*
X819150Y533654D01*
X793750Y533654D02*
X793750Y520446D01*
X768350Y520446D02*
X768350Y533654D01*
X742950Y533654D02*
X742950Y520446D01*
X717550Y520446D02*
X717550Y533654D01*
X692150Y533654D02*
X692150Y520446D01*
X666750Y520446D02*
X666750Y533654D01*
X641350Y533654D02*
X641350Y520446D01*
X641350Y457454D02*
X641350Y444246D01*
X666750Y444246D02*
X666750Y457454D01*
X692150Y457454D02*
X692150Y444246D01*
X717550Y444246D02*
X717550Y457454D01*
X742950Y457454D02*
X742950Y444246D01*
X768350Y444246D02*
X768350Y457454D01*
X793750Y457454D02*
X793750Y444246D01*
X819150Y444246D02*
X819150Y457454D01*
D19*
X933450Y588010D03*
D20*
X933450Y567690D03*
D19*
X869950Y588010D03*
D20*
X869950Y567690D03*
D21*
X740410Y406400D03*
D20*
X720090Y406400D03*
D21*
X664210Y406400D03*
D20*
X643890Y406400D03*
D22*
X796290Y406400D03*
D20*
X816610Y406400D03*
D23*
X887730Y520700D02*
X902970Y520700D01*
X902970Y495300D02*
X887730Y495300D01*
X887730Y469900D02*
X902970Y469900D01*
X902970Y444500D02*
X887730Y444500D01*
X887730Y419100D02*
X902970Y419100D01*
D21*
X457200Y25400D03*
X482600Y25400D03*
X527050Y25400D03*
X552450Y25400D03*
D15*
X584200Y76200D03*
X584200Y177800D03*
X552450Y76200D03*
X552450Y177800D03*
D24*
X44450Y590550D03*
X44450Y641350D03*
D19*
X933450Y657860D03*
D20*
X933450Y637540D03*
D24*
X869950Y622300D03*
X869950Y673100D03*
D22*
X612140Y336550D03*
D20*
X632460Y336550D03*
D25*
X571500Y222250D03*
X622300Y222250D03*
D11*
X82550Y368046D02*
X82550Y381254D01*
X107950Y381254D02*
X107950Y368046D01*
X133350Y368046D02*
X133350Y381254D01*
X158750Y381254D02*
X158750Y368046D01*
X184150Y368046D02*
X184150Y381254D01*
X209550Y381254D02*
X209550Y368046D01*
X234950Y368046D02*
X234950Y381254D01*
X260350Y381254D02*
X260350Y368046D01*
X285750Y368046D02*
X285750Y381254D01*
X311150Y381254D02*
X311150Y368046D01*
X336550Y368046D02*
X336550Y381254D01*
X361950Y381254D02*
X361950Y368046D01*
X387350Y368046D02*
X387350Y381254D01*
X412750Y381254D02*
X412750Y368046D01*
X438150Y368046D02*
X438150Y381254D01*
X463550Y381254D02*
X463550Y368046D01*
X488950Y368046D02*
X488950Y381254D01*
X514350Y381254D02*
X514350Y368046D01*
X539750Y368046D02*
X539750Y381254D01*
X565150Y381254D02*
X565150Y368046D01*
X565150Y520446D02*
X565150Y533654D01*
X539750Y533654D02*
X539750Y520446D01*
X514350Y520446D02*
X514350Y533654D01*
X488950Y533654D02*
X488950Y520446D01*
X463550Y520446D02*
X463550Y533654D01*
X438150Y533654D02*
X438150Y520446D01*
X412750Y520446D02*
X412750Y533654D01*
X387350Y533654D02*
X387350Y520446D01*
X361950Y520446D02*
X361950Y533654D01*
X336550Y533654D02*
X336550Y520446D01*
X311150Y520446D02*
X311150Y533654D01*
X285750Y533654D02*
X285750Y520446D01*
X260350Y520446D02*
X260350Y533654D01*
X234950Y533654D02*
X234950Y520446D01*
X209550Y520446D02*
X209550Y533654D01*
X184150Y533654D02*
X184150Y520446D01*
X158750Y520446D02*
X158750Y533654D01*
X133350Y533654D02*
X133350Y520446D01*
X107950Y520446D02*
X107950Y533654D01*
X82550Y533654D02*
X82550Y520446D01*
D23*
X39370Y501650D02*
X24130Y501650D01*
X24130Y476250D02*
X39370Y476250D01*
X39370Y450850D02*
X24130Y450850D01*
X24130Y425450D02*
X39370Y425450D01*
X39370Y400050D02*
X24130Y400050D01*
D15*
X19050Y565150D03*
X19050Y666750D03*
D25*
X285750Y323850D03*
X336550Y323850D03*
D26*
X542925Y323850D03*
X492125Y323850D03*
D12*
X388620Y323850D03*
X436880Y323850D03*
D19*
X558800Y254000D03*
X539750Y266700D03*
X558800Y279400D03*
D27*
X209550Y558800D03*
X234950Y555625D03*
X260350Y555625D03*
X60325Y158750D03*
D28*
X844550Y787400D03*
X800100Y787400D03*
D29*
X146050Y749300D02*
X120650Y749300D01*
X146050Y749300D02*
X171450Y749300D01*
X196850Y749300D01*
X222250Y749300D01*
X247650Y749300D01*
X273050Y749300D01*
X298450Y749300D01*
X120650Y749300D02*
X95250Y749300D01*
X82550Y736600D01*
X82550Y660400D01*
X82550Y654050D01*
X69850Y641350D01*
X44450Y641350D01*
D30*
X311150Y527050D02*
X311150Y463550D01*
X361950Y412750D01*
X361950Y374650D01*
X787400Y387350D02*
X796290Y396240D01*
X787400Y387350D02*
X641350Y387350D01*
X641350Y403860D01*
X643890Y406400D01*
X612140Y358140D02*
X612140Y336550D01*
X612140Y358140D02*
X641350Y387350D01*
X612140Y336550D02*
X612140Y332740D01*
X603250Y323850D01*
X542925Y323850D01*
X527050Y234950D02*
X508000Y234950D01*
X527050Y234950D02*
X533400Y241300D01*
X533400Y260350D01*
X539750Y266700D01*
D31*
X374650Y254000D03*
D29*
X374650Y279400D01*
X361950Y292100D01*
X317500Y292100D01*
X285750Y323850D01*
X777875Y765175D02*
X800100Y787400D01*
X777875Y765175D02*
X777875Y762000D01*
D32*
X777875Y762000D03*
D30*
X796290Y406400D02*
X796290Y396240D01*
D31*
X323850Y101600D03*
D29*
X152090Y101600D01*
D31*
X152090Y101600D03*
X76200Y215900D03*
D29*
X76200Y184150D01*
X69850Y177800D01*
X44450Y177800D01*
X38100Y171450D01*
X38100Y146050D01*
X44450Y139700D01*
X113990Y139700D01*
X152090Y101600D01*
D33*
X838200Y641350D02*
X838200Y685800D01*
X838200Y641350D02*
X831850Y635000D01*
X793750Y635000D01*
X571500Y635000D01*
X565150Y641350D01*
X565150Y660400D01*
X793750Y635000D02*
X793750Y584200D01*
X838200Y685800D02*
X800100Y723900D01*
X723900Y723900D01*
X717550Y730250D01*
X717550Y762000D01*
X730250Y774700D01*
X692150Y723900D02*
X698500Y717550D01*
X692150Y723900D02*
X692150Y730250D01*
X692150Y762000D01*
X704850Y774700D01*
X698500Y717550D02*
X793750Y717550D01*
X819150Y692150D01*
X819150Y660400D01*
D34*
X692150Y730250D03*
D33*
X793750Y704850D02*
X793750Y660400D01*
X793750Y704850D02*
X787400Y711200D01*
X673100Y711200D01*
X666750Y717550D01*
X666750Y730250D02*
X666750Y762000D01*
X679450Y774700D01*
D34*
X666750Y730250D03*
D33*
X666750Y717550D01*
X768350Y698500D02*
X768350Y660400D01*
X768350Y698500D02*
X762000Y704850D01*
X647700Y704850D01*
X641350Y711200D01*
X641350Y730250D01*
X641350Y762000D01*
X654050Y774700D01*
D34*
X641350Y730250D03*
D33*
X742950Y692150D02*
X742950Y660400D01*
X742950Y692150D02*
X736600Y698500D01*
X622300Y698500D01*
X615950Y704850D01*
X615950Y730250D01*
X615950Y762000D01*
X628650Y774700D01*
D34*
X615950Y730250D03*
D33*
X717550Y685800D02*
X717550Y660400D01*
X717550Y685800D02*
X711200Y692150D01*
X596900Y692150D01*
X590550Y698500D01*
X590550Y730250D01*
X590550Y762000D01*
X603250Y774700D01*
D34*
X590550Y730250D03*
D33*
X692150Y679450D02*
X692150Y660400D01*
X692150Y679450D02*
X685800Y685800D01*
X571500Y685800D01*
X565150Y692150D01*
X565150Y730250D01*
X565150Y762000D01*
X577850Y774700D01*
D34*
X565150Y730250D03*
D33*
X666750Y673100D02*
X666750Y660400D01*
X666750Y673100D02*
X660400Y679450D01*
X546100Y679450D01*
X539750Y685800D01*
X539750Y730250D01*
X539750Y762000D01*
X552450Y774700D01*
D34*
X539750Y730250D03*
D33*
X311150Y673100D02*
X311150Y660400D01*
X311150Y673100D02*
X317500Y679450D01*
X508000Y679450D01*
X514350Y685800D01*
X514350Y762000D01*
X527050Y774700D01*
X184150Y495300D02*
X184150Y374650D01*
X184150Y495300D02*
X196850Y508000D01*
X196850Y609600D01*
X203200Y615950D01*
X279400Y615950D01*
X292100Y628650D01*
X304800Y628650D01*
X311150Y635000D01*
X311150Y660400D01*
X285750Y660400D02*
X285750Y679450D01*
X292100Y685800D01*
X482600Y685800D01*
X488950Y692150D01*
X488950Y762000D01*
X501650Y774700D01*
X158750Y495300D02*
X158750Y374650D01*
X158750Y495300D02*
X171450Y508000D01*
X171450Y622300D01*
X177800Y628650D01*
X279400Y628650D01*
X285750Y635000D01*
X285750Y660400D01*
X260350Y660400D02*
X260350Y685800D01*
X266700Y692150D01*
X457200Y692150D01*
X463550Y698500D01*
X463550Y762000D01*
X476250Y774700D01*
X133350Y495300D02*
X133350Y374650D01*
X133350Y495300D02*
X146050Y508000D01*
X146050Y628650D01*
X152400Y635000D01*
X254000Y635000D01*
X260350Y641350D01*
X260350Y660400D01*
X234950Y660400D02*
X234950Y692150D01*
X241300Y698500D01*
X431800Y698500D01*
X438150Y704850D01*
X438150Y762000D01*
X450850Y774700D01*
X107950Y495300D02*
X107950Y374650D01*
X107950Y495300D02*
X120650Y508000D01*
X120650Y635000D01*
X127000Y641350D01*
X228600Y641350D01*
X234950Y647700D01*
X234950Y660400D01*
X209550Y660400D02*
X209550Y698500D01*
X215900Y704850D01*
X406400Y704850D01*
X412750Y711200D01*
X412750Y762000D01*
X425450Y774700D01*
X184150Y704850D02*
X184150Y660400D01*
X184150Y704850D02*
X190500Y711200D01*
X381000Y711200D01*
X387350Y717550D01*
X387350Y762000D01*
X400050Y774700D01*
X158750Y711200D02*
X158750Y660400D01*
X158750Y711200D02*
X165100Y717550D01*
X355600Y717550D01*
X361950Y723900D01*
X361950Y762000D01*
X374650Y774700D01*
X133350Y717550D02*
X133350Y660400D01*
X133350Y717550D02*
X139700Y723900D01*
X330200Y723900D01*
X336550Y730250D01*
X336550Y762000D01*
X349250Y774700D01*
X107950Y723900D02*
X107950Y660400D01*
X107950Y723900D02*
X114300Y730250D01*
X304800Y730250D01*
X311150Y736600D01*
X311150Y762000D01*
X323850Y774700D01*
D34*
X298450Y476250D03*
D33*
X298450Y508000D01*
D34*
X298450Y508000D03*
D33*
X234950Y555625D02*
X234950Y584200D01*
X234950Y555625D02*
X238125Y555625D01*
X260350Y533400D01*
X260350Y527050D01*
D30*
X666750Y584200D02*
X666750Y596900D01*
X660400Y603250D01*
X590550Y603250D01*
X317500Y603250D01*
X311150Y596900D01*
X311150Y584200D01*
X590550Y584200D02*
X590550Y603250D01*
D29*
X819150Y450850D02*
X819150Y425450D01*
X819150Y408940D01*
X816610Y406400D01*
X816610Y396240D01*
X828675Y384175D01*
X850900Y361950D01*
X740410Y406400D02*
X740410Y410210D01*
X755650Y425450D01*
X819150Y425450D01*
X819150Y584200D02*
X857250Y622300D01*
X869950Y622300D01*
X882650Y622300D01*
X895350Y635000D01*
X930910Y635000D01*
D30*
X933450Y637540D01*
X933450Y635000D01*
D29*
X952500Y615950D01*
X952500Y406400D01*
X939800Y393700D01*
X838200Y393700D01*
X828675Y384175D01*
X50800Y450850D02*
X31750Y450850D01*
X50800Y450850D02*
X57150Y444500D01*
X57150Y361950D01*
X44450Y349250D01*
X44450Y304800D01*
D30*
X285750Y463550D02*
X285750Y527050D01*
X285750Y463550D02*
X336550Y412750D01*
X336550Y374650D01*
X285750Y527050D02*
X285750Y533400D01*
X311150Y558800D01*
X311150Y584200D01*
X285750Y463550D02*
X209550Y463550D01*
D31*
X209550Y463550D03*
D29*
X57150Y304800D02*
X44450Y304800D01*
X31750Y304800D01*
X850900Y628650D02*
X857250Y622300D01*
D32*
X825500Y762000D03*
D29*
X825500Y768350D01*
X844550Y787400D01*
X850900Y736600D02*
X850900Y628650D01*
X850900Y736600D02*
X825500Y762000D01*
D33*
X539750Y374650D02*
X539750Y355600D01*
X546100Y349250D01*
X571500Y349250D01*
X590550Y368300D01*
X590550Y558800D01*
X584200Y565150D01*
X546100Y565150D01*
X539750Y571500D01*
X539750Y584200D01*
X565150Y374650D02*
X571500Y374650D01*
X584200Y387350D01*
X584200Y552450D01*
X577850Y558800D01*
X520700Y558800D01*
X514350Y565150D01*
X514350Y584200D01*
X565150Y546100D02*
X565150Y527050D01*
X565150Y546100D02*
X558800Y552450D01*
X495300Y552450D01*
X488950Y558800D01*
X488950Y584200D01*
X539750Y539750D02*
X539750Y527050D01*
X539750Y539750D02*
X533400Y546100D01*
X469900Y546100D01*
X463550Y552450D01*
X463550Y584200D01*
X412750Y546100D02*
X412750Y527050D01*
X412750Y546100D02*
X438150Y571500D01*
X438150Y584200D01*
X387350Y546100D02*
X387350Y527050D01*
X387350Y546100D02*
X412750Y571500D01*
X412750Y584200D01*
X361950Y546100D02*
X361950Y527050D01*
X361950Y546100D02*
X387350Y571500D01*
X387350Y584200D01*
X336550Y546100D02*
X336550Y527050D01*
X336550Y546100D02*
X361950Y571500D01*
X361950Y584200D01*
X488950Y527050D02*
X488950Y482600D01*
X450850Y444500D01*
X450850Y355600D01*
X444500Y349250D01*
X431800Y349250D01*
X419100Y336550D01*
X419100Y304800D01*
X488950Y234950D01*
X488950Y190500D01*
X495300Y184150D01*
X508000Y184150D01*
X514350Y336550D02*
X514350Y374650D01*
X514350Y336550D02*
X514350Y317500D01*
X523875Y307975D01*
X650875Y307975D01*
X666750Y323850D01*
X666750Y371475D01*
X673100Y377825D01*
X698500Y377825D01*
X704850Y371475D01*
X704850Y311150D01*
X666750Y273050D01*
X666750Y209550D01*
X654050Y196850D01*
X533400Y196850D01*
X527050Y190500D01*
X527050Y139700D01*
X520700Y133350D01*
X508000Y133350D01*
X692150Y552450D02*
X692150Y584200D01*
X692150Y552450D02*
X685800Y546100D01*
X628650Y546100D01*
X622300Y539750D01*
X622300Y381000D01*
X596900Y355600D01*
X596900Y342900D01*
X590550Y336550D01*
X514350Y336550D01*
X717550Y584200D02*
X717550Y600075D01*
X711200Y606425D01*
X685800Y606425D01*
X679450Y600075D01*
X679450Y565150D01*
X673100Y558800D01*
X615950Y558800D01*
X609600Y552450D01*
X609600Y488950D01*
X438150Y457200D02*
X438150Y374650D01*
X438150Y457200D02*
X469900Y488950D01*
D34*
X469900Y488950D03*
X603250Y482600D03*
D33*
X609600Y488950D01*
X285750Y584200D02*
X285750Y609600D01*
X292100Y615950D01*
X736600Y615950D01*
X742950Y609600D01*
X742950Y584200D01*
D30*
X850900Y285750D02*
X850900Y273050D01*
X831850Y254000D01*
X831850Y228600D01*
X844550Y215900D01*
X857250Y215900D01*
X876300Y260350D02*
X876300Y285750D01*
X876300Y260350D02*
X857250Y241300D01*
X876300Y349250D02*
X876300Y361950D01*
X876300Y349250D02*
X869950Y342900D01*
X806450Y342900D01*
X800100Y349250D01*
X800100Y361950D01*
X901700Y361950D02*
X901700Y336550D01*
X895350Y330200D01*
X768350Y330200D01*
X762000Y336550D01*
X762000Y361950D01*
X927100Y361950D02*
X927100Y330200D01*
X914400Y317500D01*
X730250Y317500D01*
X723900Y323850D01*
X723900Y361950D01*
D29*
X863600Y127000D02*
X889000Y127000D01*
X901700Y139700D01*
X901700Y285750D01*
X863600Y127000D02*
X831850Y127000D01*
X800100Y127000D01*
X768350Y127000D01*
D33*
X158750Y508000D02*
X158750Y527050D01*
X158750Y508000D02*
X146050Y495300D01*
X146050Y349250D01*
X139700Y342900D01*
X130175Y342900D01*
X114300Y327025D01*
X114300Y304800D01*
X57150Y247650D01*
X57150Y203200D01*
X133350Y508000D02*
X133350Y527050D01*
X133350Y508000D02*
X120650Y495300D01*
X120650Y346075D01*
X104775Y330200D01*
X104775Y307975D01*
X31750Y234950D01*
X31750Y203200D01*
X406400Y82550D02*
X425450Y82550D01*
X438150Y95250D01*
X438150Y165100D01*
X444500Y171450D01*
X514350Y171450D01*
X520700Y177800D01*
X520700Y196850D01*
X527050Y203200D01*
X641350Y203200D01*
X654050Y215900D01*
X654050Y260350D01*
X647700Y266700D01*
X635000Y254000D02*
X628650Y254000D01*
X635000Y254000D02*
X647700Y266700D01*
D34*
X241300Y152400D03*
D33*
X241300Y158750D01*
X266700Y184150D01*
D34*
X266700Y184150D03*
X209550Y146050D03*
D33*
X209550Y171450D01*
X212725Y174625D01*
D34*
X212725Y174625D03*
D29*
X558800Y234950D02*
X558800Y254000D01*
X558800Y234950D02*
X571500Y222250D01*
D30*
X241300Y222250D02*
X234950Y228600D01*
X241300Y222250D02*
X298450Y222250D01*
X304800Y215900D01*
X368300Y215900D01*
X374650Y222250D01*
X438150Y222250D01*
D31*
X438150Y222250D03*
D30*
X234950Y228600D02*
X234950Y323850D01*
D33*
X514350Y482600D02*
X514350Y527050D01*
X514350Y482600D02*
X476250Y444500D01*
X476250Y311150D01*
X488950Y298450D01*
X628650Y298450D01*
X628650Y279400D01*
X628650Y298450D02*
X666750Y298450D01*
X685800Y317500D01*
X685800Y361950D01*
X234950Y361950D02*
X234950Y374650D01*
X234950Y361950D02*
X215900Y342900D01*
X215900Y209550D01*
X228600Y196850D01*
X457200Y196850D01*
D34*
X457200Y196850D03*
X120650Y158750D03*
D33*
X120650Y184150D01*
X127000Y190500D01*
X196850Y190500D01*
X215900Y209550D01*
D30*
X692150Y508000D02*
X692150Y527050D01*
X692150Y508000D02*
X679450Y495300D01*
X679450Y412750D01*
X673100Y406400D01*
X664210Y406400D01*
X793750Y508000D02*
X793750Y527050D01*
X793750Y508000D02*
X787400Y501650D01*
X742950Y501650D01*
X730250Y488950D01*
X730250Y416560D01*
X720090Y406400D01*
D33*
X930910Y588010D02*
X933450Y588010D01*
X930910Y588010D02*
X901700Y558800D01*
X876300Y558800D01*
X863600Y546100D01*
X774700Y546100D01*
X768350Y539750D01*
X768350Y527050D01*
X933450Y565150D02*
X933450Y567690D01*
X933450Y565150D02*
X914400Y546100D01*
X876300Y546100D01*
X857250Y527050D01*
X819150Y527050D01*
X859790Y567690D02*
X869950Y567690D01*
X859790Y567690D02*
X844550Y552450D01*
X749300Y552450D01*
X742950Y546100D01*
X742950Y527050D01*
X861060Y588010D02*
X869950Y588010D01*
X861060Y588010D02*
X831850Y558800D01*
X723900Y558800D01*
X717550Y552450D01*
X717550Y527050D01*
X584200Y76200D02*
X558800Y50800D01*
X533400Y50800D01*
X527050Y44450D01*
X527050Y25400D01*
X533400Y76200D02*
X552450Y76200D01*
X533400Y76200D02*
X508000Y50800D01*
X463550Y50800D01*
X457200Y44450D01*
X457200Y25400D01*
X107950Y527050D02*
X107950Y546100D01*
X101600Y552450D01*
X38100Y552450D01*
X31750Y546100D01*
X31750Y501650D01*
X107950Y508000D02*
X107950Y527050D01*
X107950Y508000D02*
X95250Y495300D01*
X95250Y317500D01*
X15875Y238125D01*
X552450Y177800D02*
X552450Y127000D01*
X546100Y120650D01*
X482600Y120650D01*
X422275Y60325D01*
X104775Y60325D01*
X15875Y149225D01*
X15875Y238125D01*
X82550Y482600D02*
X82550Y527050D01*
X82550Y482600D02*
X76200Y476250D01*
X31750Y476250D01*
X584200Y177800D02*
X584200Y107950D01*
X571500Y95250D01*
X482600Y95250D01*
X431800Y44450D01*
X101600Y44450D01*
X6350Y139700D01*
X6350Y469900D01*
X12700Y476250D01*
X31750Y476250D01*
X311150Y400050D02*
X311150Y374650D01*
X311150Y400050D02*
X304800Y406400D01*
X203200Y406400D01*
X196850Y400050D01*
X196850Y342900D01*
X95250Y241300D01*
X95250Y171450D01*
X82550Y158750D01*
X60325Y158750D01*
X336550Y323850D02*
X388620Y323850D01*
X387350Y325120D02*
X387350Y374650D01*
X387350Y325120D02*
X388620Y323850D01*
D30*
X857250Y469900D02*
X895350Y469900D01*
X857250Y469900D02*
X844550Y482600D01*
X755650Y482600D01*
X742950Y469900D01*
X742950Y450850D01*
X863600Y444500D02*
X895350Y444500D01*
X863600Y444500D02*
X838200Y469900D01*
X774700Y469900D01*
X768350Y463550D01*
X768350Y450850D01*
D35*
X38100Y43180D03*
X38100Y738505D03*
X919480Y43180D03*
X919480Y738505D03*
M02*
